%FSLAX45Y45*%
G04 Gerber Fmt 4.5, Leading zero omitted, Abs format (unit mm)*
G04 Created by KiCad (PCBNEW (5.1.10)-1) date 2022-10-12 21:43:41*
%MOMM*%
%LPD*%
G01*
G04 APERTURE LIST*
%TA.AperFunction,Profile*%
%ADD10C,0.050000*%
%TD*%
%ADD11C,0.200000*%
%ADD12C,0.300000*%
G04 APERTURE END LIST*
D10*
X17399000Y-9461500D02*
X16991000Y-9461500D01*
X17399000Y-10160000D02*
X17399000Y-9461500D01*
X17526000Y-10160000D02*
X17399000Y-10160000D01*
X17526000Y-9461500D02*
X17526000Y-10160000D01*
X17895900Y-9461500D02*
X17526000Y-9461500D01*
X17895900Y-9334500D02*
X17895900Y-9461500D01*
X17526000Y-9334500D02*
X17895900Y-9334500D01*
X17526000Y-8636000D02*
X17526000Y-9334500D01*
X17399000Y-8636000D02*
X17526000Y-8636000D01*
X17399000Y-9334500D02*
X17399000Y-8636000D01*
X16991000Y-9334500D02*
X17399000Y-9334500D01*
X16991000Y-9461500D02*
X16991000Y-9334500D01*
X16002000Y-9461500D02*
X15594000Y-9461500D01*
X16002000Y-10160000D02*
X16002000Y-9461500D01*
X16129000Y-10160000D02*
X16002000Y-10160000D01*
X16129000Y-9461500D02*
X16129000Y-10160000D01*
X16564000Y-9461500D02*
X16129000Y-9461500D01*
X16564000Y-9334500D02*
X16564000Y-9461500D01*
X16129000Y-9334500D02*
X16564000Y-9334500D01*
X16129000Y-8636000D02*
X16129000Y-9334500D01*
X16002000Y-8636000D02*
X16129000Y-8636000D01*
X16002000Y-9334500D02*
X16002000Y-8636000D01*
X15594000Y-9334500D02*
X16002000Y-9334500D01*
X15594000Y-9461500D02*
X15594000Y-9334500D01*
X14605000Y-9461500D02*
X14197000Y-9461500D01*
X14605000Y-10160000D02*
X14605000Y-9461500D01*
X14732000Y-10160000D02*
X14605000Y-10160000D01*
X14732000Y-9461500D02*
X14732000Y-10160000D01*
X15167000Y-9461500D02*
X14732000Y-9461500D01*
X15167000Y-9334500D02*
X15167000Y-9461500D01*
X14732000Y-9334500D02*
X15167000Y-9334500D01*
X14732000Y-8636000D02*
X14732000Y-9334500D01*
X14605000Y-8636000D02*
X14732000Y-8636000D01*
X14605000Y-9334500D02*
X14605000Y-8636000D01*
X14197000Y-9334500D02*
X14605000Y-9334500D01*
X14197000Y-9334500D02*
X14197000Y-9461500D01*
X13208000Y-9461500D02*
X12761900Y-9461500D01*
X13208000Y-10160000D02*
X13208000Y-9461500D01*
X13335000Y-10160000D02*
X13208000Y-10160000D01*
X13335000Y-9461500D02*
X13335000Y-10160000D01*
X13770000Y-9461500D02*
X13335000Y-9461500D01*
X13770000Y-9334500D02*
X13770000Y-9461500D01*
X13335000Y-9334500D02*
X13770000Y-9334500D01*
X13335000Y-8636000D02*
X13335000Y-9334500D01*
X13208000Y-8636000D02*
X13335000Y-8636000D01*
X13208000Y-9334500D02*
X13208000Y-8636000D01*
X12761900Y-9334500D02*
X13208000Y-9334500D01*
X12761900Y-9461500D02*
X12761900Y-9334500D01*
X12334900Y-9461500D02*
X12334900Y-9334500D01*
X11938000Y-9461500D02*
X12334900Y-9461500D01*
X11938000Y-9334500D02*
X12334900Y-9334500D01*
X11938000Y-7620000D02*
X11938000Y-9334500D01*
X11938000Y-9563100D02*
X11938000Y-9461500D01*
X11938000Y-11176000D02*
X11938000Y-9563100D01*
X13208000Y-11176000D02*
X11938000Y-11176000D01*
X13208000Y-10587000D02*
X13208000Y-11176000D01*
X13335000Y-10587000D02*
X13208000Y-10587000D01*
X13335000Y-11176000D02*
X13335000Y-10587000D01*
X14605000Y-11176000D02*
X13335000Y-11176000D01*
X14605000Y-10587000D02*
X14605000Y-11176000D01*
X14732000Y-10587000D02*
X14605000Y-10587000D01*
X14732000Y-11176000D02*
X14732000Y-10587000D01*
X16002000Y-11176000D02*
X14732000Y-11176000D01*
X16002000Y-10587000D02*
X16002000Y-11176000D01*
X16129000Y-10587000D02*
X16002000Y-10587000D01*
X16129000Y-11176000D02*
X16129000Y-10587000D01*
X17399000Y-11176000D02*
X16129000Y-11176000D01*
X17399000Y-11163300D02*
X17399000Y-11176000D01*
X17399000Y-10587000D02*
X17399000Y-11163300D01*
X17526000Y-10587000D02*
X17399000Y-10587000D01*
X17526000Y-11176000D02*
X17526000Y-10587000D01*
X18796000Y-11176000D02*
X17526000Y-11176000D01*
X18322900Y-9334500D02*
X18796000Y-9334500D01*
X18322900Y-9461500D02*
X18322900Y-9334500D01*
X18796000Y-9461500D02*
X18322900Y-9461500D01*
X18796000Y-9563100D02*
X18796000Y-9461500D01*
X18796000Y-9245600D02*
X18796000Y-9334500D01*
X18796000Y-11176000D02*
X18796000Y-9563100D01*
X18796000Y-7620000D02*
X18796000Y-9245600D01*
X17526000Y-7620000D02*
X18796000Y-7620000D01*
X17526000Y-8209000D02*
X17526000Y-7620000D01*
X17399000Y-8209000D02*
X17526000Y-8209000D01*
X17399000Y-7620000D02*
X17399000Y-8209000D01*
X16129000Y-7620000D02*
X17399000Y-7620000D01*
X16129000Y-8209000D02*
X16129000Y-7620000D01*
X16002000Y-8209000D02*
X16129000Y-8209000D01*
X16002000Y-7620000D02*
X16002000Y-8209000D01*
X14732000Y-7620000D02*
X16002000Y-7620000D01*
X14732000Y-8209000D02*
X14732000Y-7620000D01*
X14605000Y-8209000D02*
X14732000Y-8209000D01*
X14605000Y-7620000D02*
X14605000Y-8209000D01*
X13335000Y-7620000D02*
X14605000Y-7620000D01*
X13335000Y-8209000D02*
X13335000Y-7620000D01*
X13208000Y-8209000D02*
X13335000Y-8209000D01*
X13208000Y-7620000D02*
X13208000Y-8209000D01*
X11938000Y-7620000D02*
X13208000Y-7620000D01*
D11*
D12*
X12221928Y-11644214D02*
X12221928Y-11344214D01*
X12293357Y-11344214D01*
X12336214Y-11358500D01*
X12364786Y-11387071D01*
X12379071Y-11415643D01*
X12393357Y-11472786D01*
X12393357Y-11515643D01*
X12379071Y-11572786D01*
X12364786Y-11601357D01*
X12336214Y-11629929D01*
X12293357Y-11644214D01*
X12221928Y-11644214D01*
X12521928Y-11644214D02*
X12521928Y-11444214D01*
X12521928Y-11501357D02*
X12536214Y-11472786D01*
X12550500Y-11458500D01*
X12579071Y-11444214D01*
X12607643Y-11444214D01*
X12707643Y-11644214D02*
X12707643Y-11444214D01*
X12707643Y-11344214D02*
X12693357Y-11358500D01*
X12707643Y-11372786D01*
X12721928Y-11358500D01*
X12707643Y-11344214D01*
X12707643Y-11372786D01*
X12893357Y-11644214D02*
X12864786Y-11629929D01*
X12850500Y-11601357D01*
X12850500Y-11344214D01*
X13050500Y-11644214D02*
X13021928Y-11629929D01*
X13007643Y-11601357D01*
X13007643Y-11344214D01*
X13393357Y-11644214D02*
X13393357Y-11344214D01*
X13493357Y-11558500D01*
X13593357Y-11344214D01*
X13593357Y-11644214D01*
X13864786Y-11644214D02*
X13864786Y-11487071D01*
X13850500Y-11458500D01*
X13821928Y-11444214D01*
X13764786Y-11444214D01*
X13736214Y-11458500D01*
X13864786Y-11629929D02*
X13836214Y-11644214D01*
X13764786Y-11644214D01*
X13736214Y-11629929D01*
X13721928Y-11601357D01*
X13721928Y-11572786D01*
X13736214Y-11544214D01*
X13764786Y-11529929D01*
X13836214Y-11529929D01*
X13864786Y-11515643D01*
X14007643Y-11444214D02*
X14007643Y-11744214D01*
X14007643Y-11458500D02*
X14036214Y-11444214D01*
X14093357Y-11444214D01*
X14121928Y-11458500D01*
X14136214Y-11472786D01*
X14150500Y-11501357D01*
X14150500Y-11587071D01*
X14136214Y-11615643D01*
X14121928Y-11629929D01*
X14093357Y-11644214D01*
X14036214Y-11644214D01*
X14007643Y-11629929D01*
X14279071Y-11615643D02*
X14293357Y-11629929D01*
X14279071Y-11644214D01*
X14264786Y-11629929D01*
X14279071Y-11615643D01*
X14279071Y-11644214D01*
X14279071Y-11458500D02*
X14293357Y-11472786D01*
X14279071Y-11487071D01*
X14264786Y-11472786D01*
X14279071Y-11458500D01*
X14279071Y-11487071D01*
M02*
