%TF.GenerationSoftware,KiCad,Pcbnew,(5.1.10)-1*%
%TF.CreationDate,2022-10-12T21:43:39-04:00*%
%TF.ProjectId,1581-improved-ledpcb,31353831-2d69-46d7-9072-6f7665642d6c,2*%
%TF.SameCoordinates,Original*%
%TF.FileFunction,Soldermask,Bot*%
%TF.FilePolarity,Negative*%
%FSLAX46Y46*%
G04 Gerber Fmt 4.6, Leading zero omitted, Abs format (unit mm)*
G04 Created by KiCad (PCBNEW (5.1.10)-1) date 2022-10-12 21:43:39*
%MOMM*%
%LPD*%
G01*
G04 APERTURE LIST*
%ADD10R,1.800000X1.800000*%
%ADD11C,1.800000*%
%ADD12O,1.700000X1.700000*%
%ADD13R,1.700000X1.700000*%
%ADD14C,6.400000*%
G04 APERTURE END LIST*
D10*
%TO.C,LED2*%
X176530000Y-110490000D03*
D11*
X179070000Y-110490000D03*
%TD*%
%TO.C,LED1*%
X184150000Y-110490000D03*
D10*
X186690000Y-110490000D03*
%TD*%
D12*
%TO.C,CN7*%
X176530000Y-104140000D03*
X176530000Y-101600000D03*
D13*
X176530000Y-99060000D03*
%TD*%
D14*
%TO.C,H1*%
X182880000Y-99060000D03*
%TD*%
D10*
%TO.C,LED2*%
X162560000Y-110490000D03*
D11*
X165100000Y-110490000D03*
%TD*%
%TO.C,LED1*%
X170180000Y-110490000D03*
D10*
X172720000Y-110490000D03*
%TD*%
D12*
%TO.C,CN7*%
X162560000Y-104140000D03*
X162560000Y-101600000D03*
D13*
X162560000Y-99060000D03*
%TD*%
D14*
%TO.C,H1*%
X168910000Y-99060000D03*
%TD*%
D10*
%TO.C,LED2*%
X148590000Y-110490000D03*
D11*
X151130000Y-110490000D03*
%TD*%
%TO.C,LED1*%
X156210000Y-110490000D03*
D10*
X158750000Y-110490000D03*
%TD*%
D12*
%TO.C,CN7*%
X148590000Y-104140000D03*
X148590000Y-101600000D03*
D13*
X148590000Y-99060000D03*
%TD*%
D14*
%TO.C,H1*%
X154940000Y-99060000D03*
%TD*%
D10*
%TO.C,LED2*%
X134620000Y-110490000D03*
D11*
X137160000Y-110490000D03*
%TD*%
%TO.C,LED1*%
X142240000Y-110490000D03*
D10*
X144780000Y-110490000D03*
%TD*%
D12*
%TO.C,CN7*%
X134620000Y-104140000D03*
X134620000Y-101600000D03*
D13*
X134620000Y-99060000D03*
%TD*%
D14*
%TO.C,H1*%
X140970000Y-99060000D03*
%TD*%
D10*
%TO.C,LED2*%
X120650000Y-110490000D03*
D11*
X123190000Y-110490000D03*
%TD*%
%TO.C,LED1*%
X128270000Y-110490000D03*
D10*
X130810000Y-110490000D03*
%TD*%
D12*
%TO.C,CN7*%
X120650000Y-104140000D03*
X120650000Y-101600000D03*
D13*
X120650000Y-99060000D03*
%TD*%
D14*
%TO.C,H1*%
X127000000Y-99060000D03*
%TD*%
D10*
%TO.C,LED2*%
X186690000Y-77470000D03*
D11*
X184150000Y-77470000D03*
%TD*%
%TO.C,LED1*%
X179070000Y-77470000D03*
D10*
X176530000Y-77470000D03*
%TD*%
D12*
%TO.C,CN7*%
X186690000Y-83820000D03*
X186690000Y-86360000D03*
D13*
X186690000Y-88900000D03*
%TD*%
D14*
%TO.C,H1*%
X180340000Y-88900000D03*
%TD*%
D10*
%TO.C,LED2*%
X172720000Y-77470000D03*
D11*
X170180000Y-77470000D03*
%TD*%
%TO.C,LED1*%
X165100000Y-77470000D03*
D10*
X162560000Y-77470000D03*
%TD*%
D12*
%TO.C,CN7*%
X172720000Y-83820000D03*
X172720000Y-86360000D03*
D13*
X172720000Y-88900000D03*
%TD*%
D14*
%TO.C,H1*%
X166370000Y-88900000D03*
%TD*%
D10*
%TO.C,LED2*%
X158750000Y-77470000D03*
D11*
X156210000Y-77470000D03*
%TD*%
%TO.C,LED1*%
X151130000Y-77470000D03*
D10*
X148590000Y-77470000D03*
%TD*%
D12*
%TO.C,CN7*%
X158750000Y-83820000D03*
X158750000Y-86360000D03*
D13*
X158750000Y-88900000D03*
%TD*%
D14*
%TO.C,H1*%
X152400000Y-88900000D03*
%TD*%
D10*
%TO.C,LED2*%
X144780000Y-77470000D03*
D11*
X142240000Y-77470000D03*
%TD*%
%TO.C,LED1*%
X137160000Y-77470000D03*
D10*
X134620000Y-77470000D03*
%TD*%
D12*
%TO.C,CN7*%
X144780000Y-83820000D03*
X144780000Y-86360000D03*
D13*
X144780000Y-88900000D03*
%TD*%
D14*
%TO.C,H1*%
X138430000Y-88900000D03*
%TD*%
D13*
%TO.C,CN7*%
X130810000Y-88900000D03*
D12*
X130810000Y-86360000D03*
X130810000Y-83820000D03*
%TD*%
D10*
%TO.C,LED1*%
X120650000Y-77470000D03*
D11*
X123190000Y-77470000D03*
%TD*%
%TO.C,LED2*%
X128270000Y-77470000D03*
D10*
X130810000Y-77470000D03*
%TD*%
D14*
%TO.C,H1*%
X124460000Y-88900000D03*
%TD*%
M02*
