M48
; DRILL file {KiCad (5.1.10)-1} date 10/12/22 21:43:40
; FORMAT={-:-/ absolute / inch / decimal}
; #@! TF.CreationDate,2022-10-12T21:43:40-04:00
; #@! TF.GenerationSoftware,Kicad,Pcbnew,(5.1.10)-1
; #@! TF.FileFunction,Plated,1,2,PTH
FMAT,2
INCH
T1C0.0354
T2C0.0394
T3C0.1260
%
G90
G05
T1
X4.75Y-3.05
X4.75Y-4.35
X4.85Y-3.05
X4.85Y-4.35
X5.05Y-3.05
X5.05Y-4.35
X5.15Y-3.05
X5.15Y-4.35
X5.3Y-3.05
X5.3Y-4.35
X5.4Y-3.05
X5.4Y-4.35
X5.6Y-3.05
X5.6Y-4.35
X5.7Y-3.05
X5.7Y-4.35
X5.85Y-3.05
X5.85Y-4.35
X5.95Y-3.05
X5.95Y-4.35
X6.15Y-3.05
X6.15Y-4.35
X6.25Y-3.05
X6.25Y-4.35
X6.4Y-3.05
X6.4Y-4.35
X6.5Y-3.05
X6.5Y-4.35
X6.7Y-3.05
X6.7Y-4.35
X6.8Y-3.05
X6.8Y-4.35
X6.95Y-3.05
X6.95Y-4.35
X7.05Y-3.05
X7.05Y-4.35
X7.25Y-3.05
X7.25Y-4.35
X7.35Y-3.05
X7.35Y-4.35
T2
X4.75Y-3.9
X4.75Y-4.0
X4.75Y-4.1
X5.15Y-3.3
X5.15Y-3.4
X5.15Y-3.5
X5.3Y-3.9
X5.3Y-4.0
X5.3Y-4.1
X5.7Y-3.3
X5.7Y-3.4
X5.7Y-3.5
X5.85Y-3.9
X5.85Y-4.0
X5.85Y-4.1
X6.25Y-3.3
X6.25Y-3.4
X6.25Y-3.5
X6.4Y-3.9
X6.4Y-4.0
X6.4Y-4.1
X6.8Y-3.3
X6.8Y-3.4
X6.8Y-3.5
X6.95Y-3.9
X6.95Y-4.0
X6.95Y-4.1
X7.35Y-3.3
X7.35Y-3.4
X7.35Y-3.5
T3
X4.9Y-3.5
X5.0Y-3.9
X5.45Y-3.5
X5.55Y-3.9
X6.0Y-3.5
X6.1Y-3.9
X6.55Y-3.5
X6.65Y-3.9
X7.1Y-3.5
X7.2Y-3.9
T0
M30
