%TF.GenerationSoftware,KiCad,Pcbnew,(5.1.10)-1*%
%TF.CreationDate,2022-10-12T21:43:39-04:00*%
%TF.ProjectId,1581-improved-ledpcb,31353831-2d69-46d7-9072-6f7665642d6c,2*%
%TF.SameCoordinates,Original*%
%TF.FileFunction,Legend,Bot*%
%TF.FilePolarity,Positive*%
%FSLAX46Y46*%
G04 Gerber Fmt 4.6, Leading zero omitted, Abs format (unit mm)*
G04 Created by KiCad (PCBNEW (5.1.10)-1) date 2022-10-12 21:43:39*
%MOMM*%
%LPD*%
G01*
G04 APERTURE LIST*
%ADD10C,0.150000*%
G04 APERTURE END LIST*
D10*
X178490523Y-98607619D02*
X178157190Y-99083809D01*
X177919095Y-98607619D02*
X177919095Y-99607619D01*
X178300047Y-99607619D01*
X178395285Y-99560000D01*
X178442904Y-99512380D01*
X178490523Y-99417142D01*
X178490523Y-99274285D01*
X178442904Y-99179047D01*
X178395285Y-99131428D01*
X178300047Y-99083809D01*
X177919095Y-99083809D01*
X178442904Y-104640000D02*
X178347666Y-104687619D01*
X178204809Y-104687619D01*
X178061952Y-104640000D01*
X177966714Y-104544761D01*
X177919095Y-104449523D01*
X177871476Y-104259047D01*
X177871476Y-104116190D01*
X177919095Y-103925714D01*
X177966714Y-103830476D01*
X178061952Y-103735238D01*
X178204809Y-103687619D01*
X178300047Y-103687619D01*
X178442904Y-103735238D01*
X178490523Y-103782857D01*
X178490523Y-104116190D01*
X178300047Y-104116190D01*
X164520523Y-98607619D02*
X164187190Y-99083809D01*
X163949095Y-98607619D02*
X163949095Y-99607619D01*
X164330047Y-99607619D01*
X164425285Y-99560000D01*
X164472904Y-99512380D01*
X164520523Y-99417142D01*
X164520523Y-99274285D01*
X164472904Y-99179047D01*
X164425285Y-99131428D01*
X164330047Y-99083809D01*
X163949095Y-99083809D01*
X164472904Y-104640000D02*
X164377666Y-104687619D01*
X164234809Y-104687619D01*
X164091952Y-104640000D01*
X163996714Y-104544761D01*
X163949095Y-104449523D01*
X163901476Y-104259047D01*
X163901476Y-104116190D01*
X163949095Y-103925714D01*
X163996714Y-103830476D01*
X164091952Y-103735238D01*
X164234809Y-103687619D01*
X164330047Y-103687619D01*
X164472904Y-103735238D01*
X164520523Y-103782857D01*
X164520523Y-104116190D01*
X164330047Y-104116190D01*
X150550523Y-98607619D02*
X150217190Y-99083809D01*
X149979095Y-98607619D02*
X149979095Y-99607619D01*
X150360047Y-99607619D01*
X150455285Y-99560000D01*
X150502904Y-99512380D01*
X150550523Y-99417142D01*
X150550523Y-99274285D01*
X150502904Y-99179047D01*
X150455285Y-99131428D01*
X150360047Y-99083809D01*
X149979095Y-99083809D01*
X150502904Y-104640000D02*
X150407666Y-104687619D01*
X150264809Y-104687619D01*
X150121952Y-104640000D01*
X150026714Y-104544761D01*
X149979095Y-104449523D01*
X149931476Y-104259047D01*
X149931476Y-104116190D01*
X149979095Y-103925714D01*
X150026714Y-103830476D01*
X150121952Y-103735238D01*
X150264809Y-103687619D01*
X150360047Y-103687619D01*
X150502904Y-103735238D01*
X150550523Y-103782857D01*
X150550523Y-104116190D01*
X150360047Y-104116190D01*
X136580523Y-98607619D02*
X136247190Y-99083809D01*
X136009095Y-98607619D02*
X136009095Y-99607619D01*
X136390047Y-99607619D01*
X136485285Y-99560000D01*
X136532904Y-99512380D01*
X136580523Y-99417142D01*
X136580523Y-99274285D01*
X136532904Y-99179047D01*
X136485285Y-99131428D01*
X136390047Y-99083809D01*
X136009095Y-99083809D01*
X136532904Y-104640000D02*
X136437666Y-104687619D01*
X136294809Y-104687619D01*
X136151952Y-104640000D01*
X136056714Y-104544761D01*
X136009095Y-104449523D01*
X135961476Y-104259047D01*
X135961476Y-104116190D01*
X136009095Y-103925714D01*
X136056714Y-103830476D01*
X136151952Y-103735238D01*
X136294809Y-103687619D01*
X136390047Y-103687619D01*
X136532904Y-103735238D01*
X136580523Y-103782857D01*
X136580523Y-104116190D01*
X136390047Y-104116190D01*
X122610523Y-98607619D02*
X122277190Y-99083809D01*
X122039095Y-98607619D02*
X122039095Y-99607619D01*
X122420047Y-99607619D01*
X122515285Y-99560000D01*
X122562904Y-99512380D01*
X122610523Y-99417142D01*
X122610523Y-99274285D01*
X122562904Y-99179047D01*
X122515285Y-99131428D01*
X122420047Y-99083809D01*
X122039095Y-99083809D01*
X122562904Y-104640000D02*
X122467666Y-104687619D01*
X122324809Y-104687619D01*
X122181952Y-104640000D01*
X122086714Y-104544761D01*
X122039095Y-104449523D01*
X121991476Y-104259047D01*
X121991476Y-104116190D01*
X122039095Y-103925714D01*
X122086714Y-103830476D01*
X122181952Y-103735238D01*
X122324809Y-103687619D01*
X122420047Y-103687619D01*
X122562904Y-103735238D01*
X122610523Y-103782857D01*
X122610523Y-104116190D01*
X122420047Y-104116190D01*
X184729476Y-89352380D02*
X185062809Y-88876190D01*
X185300904Y-89352380D02*
X185300904Y-88352380D01*
X184919952Y-88352380D01*
X184824714Y-88400000D01*
X184777095Y-88447619D01*
X184729476Y-88542857D01*
X184729476Y-88685714D01*
X184777095Y-88780952D01*
X184824714Y-88828571D01*
X184919952Y-88876190D01*
X185300904Y-88876190D01*
X184777095Y-83320000D02*
X184872333Y-83272380D01*
X185015190Y-83272380D01*
X185158047Y-83320000D01*
X185253285Y-83415238D01*
X185300904Y-83510476D01*
X185348523Y-83700952D01*
X185348523Y-83843809D01*
X185300904Y-84034285D01*
X185253285Y-84129523D01*
X185158047Y-84224761D01*
X185015190Y-84272380D01*
X184919952Y-84272380D01*
X184777095Y-84224761D01*
X184729476Y-84177142D01*
X184729476Y-83843809D01*
X184919952Y-83843809D01*
X170759476Y-89352380D02*
X171092809Y-88876190D01*
X171330904Y-89352380D02*
X171330904Y-88352380D01*
X170949952Y-88352380D01*
X170854714Y-88400000D01*
X170807095Y-88447619D01*
X170759476Y-88542857D01*
X170759476Y-88685714D01*
X170807095Y-88780952D01*
X170854714Y-88828571D01*
X170949952Y-88876190D01*
X171330904Y-88876190D01*
X170807095Y-83320000D02*
X170902333Y-83272380D01*
X171045190Y-83272380D01*
X171188047Y-83320000D01*
X171283285Y-83415238D01*
X171330904Y-83510476D01*
X171378523Y-83700952D01*
X171378523Y-83843809D01*
X171330904Y-84034285D01*
X171283285Y-84129523D01*
X171188047Y-84224761D01*
X171045190Y-84272380D01*
X170949952Y-84272380D01*
X170807095Y-84224761D01*
X170759476Y-84177142D01*
X170759476Y-83843809D01*
X170949952Y-83843809D01*
X156789476Y-89352380D02*
X157122809Y-88876190D01*
X157360904Y-89352380D02*
X157360904Y-88352380D01*
X156979952Y-88352380D01*
X156884714Y-88400000D01*
X156837095Y-88447619D01*
X156789476Y-88542857D01*
X156789476Y-88685714D01*
X156837095Y-88780952D01*
X156884714Y-88828571D01*
X156979952Y-88876190D01*
X157360904Y-88876190D01*
X156837095Y-83320000D02*
X156932333Y-83272380D01*
X157075190Y-83272380D01*
X157218047Y-83320000D01*
X157313285Y-83415238D01*
X157360904Y-83510476D01*
X157408523Y-83700952D01*
X157408523Y-83843809D01*
X157360904Y-84034285D01*
X157313285Y-84129523D01*
X157218047Y-84224761D01*
X157075190Y-84272380D01*
X156979952Y-84272380D01*
X156837095Y-84224761D01*
X156789476Y-84177142D01*
X156789476Y-83843809D01*
X156979952Y-83843809D01*
X142819476Y-89352380D02*
X143152809Y-88876190D01*
X143390904Y-89352380D02*
X143390904Y-88352380D01*
X143009952Y-88352380D01*
X142914714Y-88400000D01*
X142867095Y-88447619D01*
X142819476Y-88542857D01*
X142819476Y-88685714D01*
X142867095Y-88780952D01*
X142914714Y-88828571D01*
X143009952Y-88876190D01*
X143390904Y-88876190D01*
X142867095Y-83320000D02*
X142962333Y-83272380D01*
X143105190Y-83272380D01*
X143248047Y-83320000D01*
X143343285Y-83415238D01*
X143390904Y-83510476D01*
X143438523Y-83700952D01*
X143438523Y-83843809D01*
X143390904Y-84034285D01*
X143343285Y-84129523D01*
X143248047Y-84224761D01*
X143105190Y-84272380D01*
X143009952Y-84272380D01*
X142867095Y-84224761D01*
X142819476Y-84177142D01*
X142819476Y-83843809D01*
X143009952Y-83843809D01*
X128849476Y-89352380D02*
X129182809Y-88876190D01*
X129420904Y-89352380D02*
X129420904Y-88352380D01*
X129039952Y-88352380D01*
X128944714Y-88400000D01*
X128897095Y-88447619D01*
X128849476Y-88542857D01*
X128849476Y-88685714D01*
X128897095Y-88780952D01*
X128944714Y-88828571D01*
X129039952Y-88876190D01*
X129420904Y-88876190D01*
X128897095Y-83320000D02*
X128992333Y-83272380D01*
X129135190Y-83272380D01*
X129278047Y-83320000D01*
X129373285Y-83415238D01*
X129420904Y-83510476D01*
X129468523Y-83700952D01*
X129468523Y-83843809D01*
X129420904Y-84034285D01*
X129373285Y-84129523D01*
X129278047Y-84224761D01*
X129135190Y-84272380D01*
X129039952Y-84272380D01*
X128897095Y-84224761D01*
X128849476Y-84177142D01*
X128849476Y-83843809D01*
X129039952Y-83843809D01*
%TO.C,LED2*%
X179466666Y-107450000D02*
X179561904Y-107402380D01*
X179704761Y-107402380D01*
X179847619Y-107450000D01*
X179942857Y-107545238D01*
X179990476Y-107640476D01*
X180038095Y-107830952D01*
X180038095Y-107973809D01*
X179990476Y-108164285D01*
X179942857Y-108259523D01*
X179847619Y-108354761D01*
X179704761Y-108402380D01*
X179609523Y-108402380D01*
X179466666Y-108354761D01*
X179419047Y-108307142D01*
X179419047Y-107973809D01*
X179609523Y-107973809D01*
X178419047Y-108402380D02*
X178752380Y-107926190D01*
X178990476Y-108402380D02*
X178990476Y-107402380D01*
X178609523Y-107402380D01*
X178514285Y-107450000D01*
X178466666Y-107497619D01*
X178419047Y-107592857D01*
X178419047Y-107735714D01*
X178466666Y-107830952D01*
X178514285Y-107878571D01*
X178609523Y-107926190D01*
X178990476Y-107926190D01*
X177990476Y-107878571D02*
X177657142Y-107878571D01*
X177514285Y-108402380D02*
X177990476Y-108402380D01*
X177990476Y-107402380D01*
X177514285Y-107402380D01*
X177085714Y-107878571D02*
X176752380Y-107878571D01*
X176609523Y-108402380D02*
X177085714Y-108402380D01*
X177085714Y-107402380D01*
X176609523Y-107402380D01*
X176180952Y-108402380D02*
X176180952Y-107402380D01*
X175609523Y-108402380D01*
X175609523Y-107402380D01*
%TO.C,LED1*%
X186062857Y-108402380D02*
X186396190Y-107926190D01*
X186634285Y-108402380D02*
X186634285Y-107402380D01*
X186253333Y-107402380D01*
X186158095Y-107450000D01*
X186110476Y-107497619D01*
X186062857Y-107592857D01*
X186062857Y-107735714D01*
X186110476Y-107830952D01*
X186158095Y-107878571D01*
X186253333Y-107926190D01*
X186634285Y-107926190D01*
X185634285Y-107878571D02*
X185300952Y-107878571D01*
X185158095Y-108402380D02*
X185634285Y-108402380D01*
X185634285Y-107402380D01*
X185158095Y-107402380D01*
X184729523Y-108402380D02*
X184729523Y-107402380D01*
X184491428Y-107402380D01*
X184348571Y-107450000D01*
X184253333Y-107545238D01*
X184205714Y-107640476D01*
X184158095Y-107830952D01*
X184158095Y-107973809D01*
X184205714Y-108164285D01*
X184253333Y-108259523D01*
X184348571Y-108354761D01*
X184491428Y-108402380D01*
X184729523Y-108402380D01*
%TO.C,LED2*%
X165496666Y-107450000D02*
X165591904Y-107402380D01*
X165734761Y-107402380D01*
X165877619Y-107450000D01*
X165972857Y-107545238D01*
X166020476Y-107640476D01*
X166068095Y-107830952D01*
X166068095Y-107973809D01*
X166020476Y-108164285D01*
X165972857Y-108259523D01*
X165877619Y-108354761D01*
X165734761Y-108402380D01*
X165639523Y-108402380D01*
X165496666Y-108354761D01*
X165449047Y-108307142D01*
X165449047Y-107973809D01*
X165639523Y-107973809D01*
X164449047Y-108402380D02*
X164782380Y-107926190D01*
X165020476Y-108402380D02*
X165020476Y-107402380D01*
X164639523Y-107402380D01*
X164544285Y-107450000D01*
X164496666Y-107497619D01*
X164449047Y-107592857D01*
X164449047Y-107735714D01*
X164496666Y-107830952D01*
X164544285Y-107878571D01*
X164639523Y-107926190D01*
X165020476Y-107926190D01*
X164020476Y-107878571D02*
X163687142Y-107878571D01*
X163544285Y-108402380D02*
X164020476Y-108402380D01*
X164020476Y-107402380D01*
X163544285Y-107402380D01*
X163115714Y-107878571D02*
X162782380Y-107878571D01*
X162639523Y-108402380D02*
X163115714Y-108402380D01*
X163115714Y-107402380D01*
X162639523Y-107402380D01*
X162210952Y-108402380D02*
X162210952Y-107402380D01*
X161639523Y-108402380D01*
X161639523Y-107402380D01*
%TO.C,LED1*%
X172092857Y-108402380D02*
X172426190Y-107926190D01*
X172664285Y-108402380D02*
X172664285Y-107402380D01*
X172283333Y-107402380D01*
X172188095Y-107450000D01*
X172140476Y-107497619D01*
X172092857Y-107592857D01*
X172092857Y-107735714D01*
X172140476Y-107830952D01*
X172188095Y-107878571D01*
X172283333Y-107926190D01*
X172664285Y-107926190D01*
X171664285Y-107878571D02*
X171330952Y-107878571D01*
X171188095Y-108402380D02*
X171664285Y-108402380D01*
X171664285Y-107402380D01*
X171188095Y-107402380D01*
X170759523Y-108402380D02*
X170759523Y-107402380D01*
X170521428Y-107402380D01*
X170378571Y-107450000D01*
X170283333Y-107545238D01*
X170235714Y-107640476D01*
X170188095Y-107830952D01*
X170188095Y-107973809D01*
X170235714Y-108164285D01*
X170283333Y-108259523D01*
X170378571Y-108354761D01*
X170521428Y-108402380D01*
X170759523Y-108402380D01*
%TO.C,LED2*%
X151526666Y-107450000D02*
X151621904Y-107402380D01*
X151764761Y-107402380D01*
X151907619Y-107450000D01*
X152002857Y-107545238D01*
X152050476Y-107640476D01*
X152098095Y-107830952D01*
X152098095Y-107973809D01*
X152050476Y-108164285D01*
X152002857Y-108259523D01*
X151907619Y-108354761D01*
X151764761Y-108402380D01*
X151669523Y-108402380D01*
X151526666Y-108354761D01*
X151479047Y-108307142D01*
X151479047Y-107973809D01*
X151669523Y-107973809D01*
X150479047Y-108402380D02*
X150812380Y-107926190D01*
X151050476Y-108402380D02*
X151050476Y-107402380D01*
X150669523Y-107402380D01*
X150574285Y-107450000D01*
X150526666Y-107497619D01*
X150479047Y-107592857D01*
X150479047Y-107735714D01*
X150526666Y-107830952D01*
X150574285Y-107878571D01*
X150669523Y-107926190D01*
X151050476Y-107926190D01*
X150050476Y-107878571D02*
X149717142Y-107878571D01*
X149574285Y-108402380D02*
X150050476Y-108402380D01*
X150050476Y-107402380D01*
X149574285Y-107402380D01*
X149145714Y-107878571D02*
X148812380Y-107878571D01*
X148669523Y-108402380D02*
X149145714Y-108402380D01*
X149145714Y-107402380D01*
X148669523Y-107402380D01*
X148240952Y-108402380D02*
X148240952Y-107402380D01*
X147669523Y-108402380D01*
X147669523Y-107402380D01*
%TO.C,LED1*%
X158122857Y-108402380D02*
X158456190Y-107926190D01*
X158694285Y-108402380D02*
X158694285Y-107402380D01*
X158313333Y-107402380D01*
X158218095Y-107450000D01*
X158170476Y-107497619D01*
X158122857Y-107592857D01*
X158122857Y-107735714D01*
X158170476Y-107830952D01*
X158218095Y-107878571D01*
X158313333Y-107926190D01*
X158694285Y-107926190D01*
X157694285Y-107878571D02*
X157360952Y-107878571D01*
X157218095Y-108402380D02*
X157694285Y-108402380D01*
X157694285Y-107402380D01*
X157218095Y-107402380D01*
X156789523Y-108402380D02*
X156789523Y-107402380D01*
X156551428Y-107402380D01*
X156408571Y-107450000D01*
X156313333Y-107545238D01*
X156265714Y-107640476D01*
X156218095Y-107830952D01*
X156218095Y-107973809D01*
X156265714Y-108164285D01*
X156313333Y-108259523D01*
X156408571Y-108354761D01*
X156551428Y-108402380D01*
X156789523Y-108402380D01*
%TO.C,LED2*%
X137556666Y-107450000D02*
X137651904Y-107402380D01*
X137794761Y-107402380D01*
X137937619Y-107450000D01*
X138032857Y-107545238D01*
X138080476Y-107640476D01*
X138128095Y-107830952D01*
X138128095Y-107973809D01*
X138080476Y-108164285D01*
X138032857Y-108259523D01*
X137937619Y-108354761D01*
X137794761Y-108402380D01*
X137699523Y-108402380D01*
X137556666Y-108354761D01*
X137509047Y-108307142D01*
X137509047Y-107973809D01*
X137699523Y-107973809D01*
X136509047Y-108402380D02*
X136842380Y-107926190D01*
X137080476Y-108402380D02*
X137080476Y-107402380D01*
X136699523Y-107402380D01*
X136604285Y-107450000D01*
X136556666Y-107497619D01*
X136509047Y-107592857D01*
X136509047Y-107735714D01*
X136556666Y-107830952D01*
X136604285Y-107878571D01*
X136699523Y-107926190D01*
X137080476Y-107926190D01*
X136080476Y-107878571D02*
X135747142Y-107878571D01*
X135604285Y-108402380D02*
X136080476Y-108402380D01*
X136080476Y-107402380D01*
X135604285Y-107402380D01*
X135175714Y-107878571D02*
X134842380Y-107878571D01*
X134699523Y-108402380D02*
X135175714Y-108402380D01*
X135175714Y-107402380D01*
X134699523Y-107402380D01*
X134270952Y-108402380D02*
X134270952Y-107402380D01*
X133699523Y-108402380D01*
X133699523Y-107402380D01*
%TO.C,LED1*%
X144152857Y-108402380D02*
X144486190Y-107926190D01*
X144724285Y-108402380D02*
X144724285Y-107402380D01*
X144343333Y-107402380D01*
X144248095Y-107450000D01*
X144200476Y-107497619D01*
X144152857Y-107592857D01*
X144152857Y-107735714D01*
X144200476Y-107830952D01*
X144248095Y-107878571D01*
X144343333Y-107926190D01*
X144724285Y-107926190D01*
X143724285Y-107878571D02*
X143390952Y-107878571D01*
X143248095Y-108402380D02*
X143724285Y-108402380D01*
X143724285Y-107402380D01*
X143248095Y-107402380D01*
X142819523Y-108402380D02*
X142819523Y-107402380D01*
X142581428Y-107402380D01*
X142438571Y-107450000D01*
X142343333Y-107545238D01*
X142295714Y-107640476D01*
X142248095Y-107830952D01*
X142248095Y-107973809D01*
X142295714Y-108164285D01*
X142343333Y-108259523D01*
X142438571Y-108354761D01*
X142581428Y-108402380D01*
X142819523Y-108402380D01*
%TO.C,LED2*%
X123586666Y-107450000D02*
X123681904Y-107402380D01*
X123824761Y-107402380D01*
X123967619Y-107450000D01*
X124062857Y-107545238D01*
X124110476Y-107640476D01*
X124158095Y-107830952D01*
X124158095Y-107973809D01*
X124110476Y-108164285D01*
X124062857Y-108259523D01*
X123967619Y-108354761D01*
X123824761Y-108402380D01*
X123729523Y-108402380D01*
X123586666Y-108354761D01*
X123539047Y-108307142D01*
X123539047Y-107973809D01*
X123729523Y-107973809D01*
X122539047Y-108402380D02*
X122872380Y-107926190D01*
X123110476Y-108402380D02*
X123110476Y-107402380D01*
X122729523Y-107402380D01*
X122634285Y-107450000D01*
X122586666Y-107497619D01*
X122539047Y-107592857D01*
X122539047Y-107735714D01*
X122586666Y-107830952D01*
X122634285Y-107878571D01*
X122729523Y-107926190D01*
X123110476Y-107926190D01*
X122110476Y-107878571D02*
X121777142Y-107878571D01*
X121634285Y-108402380D02*
X122110476Y-108402380D01*
X122110476Y-107402380D01*
X121634285Y-107402380D01*
X121205714Y-107878571D02*
X120872380Y-107878571D01*
X120729523Y-108402380D02*
X121205714Y-108402380D01*
X121205714Y-107402380D01*
X120729523Y-107402380D01*
X120300952Y-108402380D02*
X120300952Y-107402380D01*
X119729523Y-108402380D01*
X119729523Y-107402380D01*
%TO.C,LED1*%
X130182857Y-108402380D02*
X130516190Y-107926190D01*
X130754285Y-108402380D02*
X130754285Y-107402380D01*
X130373333Y-107402380D01*
X130278095Y-107450000D01*
X130230476Y-107497619D01*
X130182857Y-107592857D01*
X130182857Y-107735714D01*
X130230476Y-107830952D01*
X130278095Y-107878571D01*
X130373333Y-107926190D01*
X130754285Y-107926190D01*
X129754285Y-107878571D02*
X129420952Y-107878571D01*
X129278095Y-108402380D02*
X129754285Y-108402380D01*
X129754285Y-107402380D01*
X129278095Y-107402380D01*
X128849523Y-108402380D02*
X128849523Y-107402380D01*
X128611428Y-107402380D01*
X128468571Y-107450000D01*
X128373333Y-107545238D01*
X128325714Y-107640476D01*
X128278095Y-107830952D01*
X128278095Y-107973809D01*
X128325714Y-108164285D01*
X128373333Y-108259523D01*
X128468571Y-108354761D01*
X128611428Y-108402380D01*
X128849523Y-108402380D01*
%TO.C,LED2*%
X187086666Y-79510000D02*
X187181904Y-79462380D01*
X187324761Y-79462380D01*
X187467619Y-79510000D01*
X187562857Y-79605238D01*
X187610476Y-79700476D01*
X187658095Y-79890952D01*
X187658095Y-80033809D01*
X187610476Y-80224285D01*
X187562857Y-80319523D01*
X187467619Y-80414761D01*
X187324761Y-80462380D01*
X187229523Y-80462380D01*
X187086666Y-80414761D01*
X187039047Y-80367142D01*
X187039047Y-80033809D01*
X187229523Y-80033809D01*
X186039047Y-80462380D02*
X186372380Y-79986190D01*
X186610476Y-80462380D02*
X186610476Y-79462380D01*
X186229523Y-79462380D01*
X186134285Y-79510000D01*
X186086666Y-79557619D01*
X186039047Y-79652857D01*
X186039047Y-79795714D01*
X186086666Y-79890952D01*
X186134285Y-79938571D01*
X186229523Y-79986190D01*
X186610476Y-79986190D01*
X185610476Y-79938571D02*
X185277142Y-79938571D01*
X185134285Y-80462380D02*
X185610476Y-80462380D01*
X185610476Y-79462380D01*
X185134285Y-79462380D01*
X184705714Y-79938571D02*
X184372380Y-79938571D01*
X184229523Y-80462380D02*
X184705714Y-80462380D01*
X184705714Y-79462380D01*
X184229523Y-79462380D01*
X183800952Y-80462380D02*
X183800952Y-79462380D01*
X183229523Y-80462380D01*
X183229523Y-79462380D01*
%TO.C,LED1*%
X178442857Y-80462380D02*
X178776190Y-79986190D01*
X179014285Y-80462380D02*
X179014285Y-79462380D01*
X178633333Y-79462380D01*
X178538095Y-79510000D01*
X178490476Y-79557619D01*
X178442857Y-79652857D01*
X178442857Y-79795714D01*
X178490476Y-79890952D01*
X178538095Y-79938571D01*
X178633333Y-79986190D01*
X179014285Y-79986190D01*
X178014285Y-79938571D02*
X177680952Y-79938571D01*
X177538095Y-80462380D02*
X178014285Y-80462380D01*
X178014285Y-79462380D01*
X177538095Y-79462380D01*
X177109523Y-80462380D02*
X177109523Y-79462380D01*
X176871428Y-79462380D01*
X176728571Y-79510000D01*
X176633333Y-79605238D01*
X176585714Y-79700476D01*
X176538095Y-79890952D01*
X176538095Y-80033809D01*
X176585714Y-80224285D01*
X176633333Y-80319523D01*
X176728571Y-80414761D01*
X176871428Y-80462380D01*
X177109523Y-80462380D01*
%TO.C,LED2*%
X173116666Y-79510000D02*
X173211904Y-79462380D01*
X173354761Y-79462380D01*
X173497619Y-79510000D01*
X173592857Y-79605238D01*
X173640476Y-79700476D01*
X173688095Y-79890952D01*
X173688095Y-80033809D01*
X173640476Y-80224285D01*
X173592857Y-80319523D01*
X173497619Y-80414761D01*
X173354761Y-80462380D01*
X173259523Y-80462380D01*
X173116666Y-80414761D01*
X173069047Y-80367142D01*
X173069047Y-80033809D01*
X173259523Y-80033809D01*
X172069047Y-80462380D02*
X172402380Y-79986190D01*
X172640476Y-80462380D02*
X172640476Y-79462380D01*
X172259523Y-79462380D01*
X172164285Y-79510000D01*
X172116666Y-79557619D01*
X172069047Y-79652857D01*
X172069047Y-79795714D01*
X172116666Y-79890952D01*
X172164285Y-79938571D01*
X172259523Y-79986190D01*
X172640476Y-79986190D01*
X171640476Y-79938571D02*
X171307142Y-79938571D01*
X171164285Y-80462380D02*
X171640476Y-80462380D01*
X171640476Y-79462380D01*
X171164285Y-79462380D01*
X170735714Y-79938571D02*
X170402380Y-79938571D01*
X170259523Y-80462380D02*
X170735714Y-80462380D01*
X170735714Y-79462380D01*
X170259523Y-79462380D01*
X169830952Y-80462380D02*
X169830952Y-79462380D01*
X169259523Y-80462380D01*
X169259523Y-79462380D01*
%TO.C,LED1*%
X164472857Y-80462380D02*
X164806190Y-79986190D01*
X165044285Y-80462380D02*
X165044285Y-79462380D01*
X164663333Y-79462380D01*
X164568095Y-79510000D01*
X164520476Y-79557619D01*
X164472857Y-79652857D01*
X164472857Y-79795714D01*
X164520476Y-79890952D01*
X164568095Y-79938571D01*
X164663333Y-79986190D01*
X165044285Y-79986190D01*
X164044285Y-79938571D02*
X163710952Y-79938571D01*
X163568095Y-80462380D02*
X164044285Y-80462380D01*
X164044285Y-79462380D01*
X163568095Y-79462380D01*
X163139523Y-80462380D02*
X163139523Y-79462380D01*
X162901428Y-79462380D01*
X162758571Y-79510000D01*
X162663333Y-79605238D01*
X162615714Y-79700476D01*
X162568095Y-79890952D01*
X162568095Y-80033809D01*
X162615714Y-80224285D01*
X162663333Y-80319523D01*
X162758571Y-80414761D01*
X162901428Y-80462380D01*
X163139523Y-80462380D01*
%TO.C,LED2*%
X159146666Y-79510000D02*
X159241904Y-79462380D01*
X159384761Y-79462380D01*
X159527619Y-79510000D01*
X159622857Y-79605238D01*
X159670476Y-79700476D01*
X159718095Y-79890952D01*
X159718095Y-80033809D01*
X159670476Y-80224285D01*
X159622857Y-80319523D01*
X159527619Y-80414761D01*
X159384761Y-80462380D01*
X159289523Y-80462380D01*
X159146666Y-80414761D01*
X159099047Y-80367142D01*
X159099047Y-80033809D01*
X159289523Y-80033809D01*
X158099047Y-80462380D02*
X158432380Y-79986190D01*
X158670476Y-80462380D02*
X158670476Y-79462380D01*
X158289523Y-79462380D01*
X158194285Y-79510000D01*
X158146666Y-79557619D01*
X158099047Y-79652857D01*
X158099047Y-79795714D01*
X158146666Y-79890952D01*
X158194285Y-79938571D01*
X158289523Y-79986190D01*
X158670476Y-79986190D01*
X157670476Y-79938571D02*
X157337142Y-79938571D01*
X157194285Y-80462380D02*
X157670476Y-80462380D01*
X157670476Y-79462380D01*
X157194285Y-79462380D01*
X156765714Y-79938571D02*
X156432380Y-79938571D01*
X156289523Y-80462380D02*
X156765714Y-80462380D01*
X156765714Y-79462380D01*
X156289523Y-79462380D01*
X155860952Y-80462380D02*
X155860952Y-79462380D01*
X155289523Y-80462380D01*
X155289523Y-79462380D01*
%TO.C,LED1*%
X150502857Y-80462380D02*
X150836190Y-79986190D01*
X151074285Y-80462380D02*
X151074285Y-79462380D01*
X150693333Y-79462380D01*
X150598095Y-79510000D01*
X150550476Y-79557619D01*
X150502857Y-79652857D01*
X150502857Y-79795714D01*
X150550476Y-79890952D01*
X150598095Y-79938571D01*
X150693333Y-79986190D01*
X151074285Y-79986190D01*
X150074285Y-79938571D02*
X149740952Y-79938571D01*
X149598095Y-80462380D02*
X150074285Y-80462380D01*
X150074285Y-79462380D01*
X149598095Y-79462380D01*
X149169523Y-80462380D02*
X149169523Y-79462380D01*
X148931428Y-79462380D01*
X148788571Y-79510000D01*
X148693333Y-79605238D01*
X148645714Y-79700476D01*
X148598095Y-79890952D01*
X148598095Y-80033809D01*
X148645714Y-80224285D01*
X148693333Y-80319523D01*
X148788571Y-80414761D01*
X148931428Y-80462380D01*
X149169523Y-80462380D01*
%TO.C,LED2*%
X145176666Y-79510000D02*
X145271904Y-79462380D01*
X145414761Y-79462380D01*
X145557619Y-79510000D01*
X145652857Y-79605238D01*
X145700476Y-79700476D01*
X145748095Y-79890952D01*
X145748095Y-80033809D01*
X145700476Y-80224285D01*
X145652857Y-80319523D01*
X145557619Y-80414761D01*
X145414761Y-80462380D01*
X145319523Y-80462380D01*
X145176666Y-80414761D01*
X145129047Y-80367142D01*
X145129047Y-80033809D01*
X145319523Y-80033809D01*
X144129047Y-80462380D02*
X144462380Y-79986190D01*
X144700476Y-80462380D02*
X144700476Y-79462380D01*
X144319523Y-79462380D01*
X144224285Y-79510000D01*
X144176666Y-79557619D01*
X144129047Y-79652857D01*
X144129047Y-79795714D01*
X144176666Y-79890952D01*
X144224285Y-79938571D01*
X144319523Y-79986190D01*
X144700476Y-79986190D01*
X143700476Y-79938571D02*
X143367142Y-79938571D01*
X143224285Y-80462380D02*
X143700476Y-80462380D01*
X143700476Y-79462380D01*
X143224285Y-79462380D01*
X142795714Y-79938571D02*
X142462380Y-79938571D01*
X142319523Y-80462380D02*
X142795714Y-80462380D01*
X142795714Y-79462380D01*
X142319523Y-79462380D01*
X141890952Y-80462380D02*
X141890952Y-79462380D01*
X141319523Y-80462380D01*
X141319523Y-79462380D01*
%TO.C,LED1*%
X136532857Y-80462380D02*
X136866190Y-79986190D01*
X137104285Y-80462380D02*
X137104285Y-79462380D01*
X136723333Y-79462380D01*
X136628095Y-79510000D01*
X136580476Y-79557619D01*
X136532857Y-79652857D01*
X136532857Y-79795714D01*
X136580476Y-79890952D01*
X136628095Y-79938571D01*
X136723333Y-79986190D01*
X137104285Y-79986190D01*
X136104285Y-79938571D02*
X135770952Y-79938571D01*
X135628095Y-80462380D02*
X136104285Y-80462380D01*
X136104285Y-79462380D01*
X135628095Y-79462380D01*
X135199523Y-80462380D02*
X135199523Y-79462380D01*
X134961428Y-79462380D01*
X134818571Y-79510000D01*
X134723333Y-79605238D01*
X134675714Y-79700476D01*
X134628095Y-79890952D01*
X134628095Y-80033809D01*
X134675714Y-80224285D01*
X134723333Y-80319523D01*
X134818571Y-80414761D01*
X134961428Y-80462380D01*
X135199523Y-80462380D01*
X122562857Y-80462380D02*
X122896190Y-79986190D01*
X123134285Y-80462380D02*
X123134285Y-79462380D01*
X122753333Y-79462380D01*
X122658095Y-79510000D01*
X122610476Y-79557619D01*
X122562857Y-79652857D01*
X122562857Y-79795714D01*
X122610476Y-79890952D01*
X122658095Y-79938571D01*
X122753333Y-79986190D01*
X123134285Y-79986190D01*
X122134285Y-79938571D02*
X121800952Y-79938571D01*
X121658095Y-80462380D02*
X122134285Y-80462380D01*
X122134285Y-79462380D01*
X121658095Y-79462380D01*
X121229523Y-80462380D02*
X121229523Y-79462380D01*
X120991428Y-79462380D01*
X120848571Y-79510000D01*
X120753333Y-79605238D01*
X120705714Y-79700476D01*
X120658095Y-79890952D01*
X120658095Y-80033809D01*
X120705714Y-80224285D01*
X120753333Y-80319523D01*
X120848571Y-80414761D01*
X120991428Y-80462380D01*
X121229523Y-80462380D01*
%TO.C,LED2*%
X131206666Y-79510000D02*
X131301904Y-79462380D01*
X131444761Y-79462380D01*
X131587619Y-79510000D01*
X131682857Y-79605238D01*
X131730476Y-79700476D01*
X131778095Y-79890952D01*
X131778095Y-80033809D01*
X131730476Y-80224285D01*
X131682857Y-80319523D01*
X131587619Y-80414761D01*
X131444761Y-80462380D01*
X131349523Y-80462380D01*
X131206666Y-80414761D01*
X131159047Y-80367142D01*
X131159047Y-80033809D01*
X131349523Y-80033809D01*
X130159047Y-80462380D02*
X130492380Y-79986190D01*
X130730476Y-80462380D02*
X130730476Y-79462380D01*
X130349523Y-79462380D01*
X130254285Y-79510000D01*
X130206666Y-79557619D01*
X130159047Y-79652857D01*
X130159047Y-79795714D01*
X130206666Y-79890952D01*
X130254285Y-79938571D01*
X130349523Y-79986190D01*
X130730476Y-79986190D01*
X129730476Y-79938571D02*
X129397142Y-79938571D01*
X129254285Y-80462380D02*
X129730476Y-80462380D01*
X129730476Y-79462380D01*
X129254285Y-79462380D01*
X128825714Y-79938571D02*
X128492380Y-79938571D01*
X128349523Y-80462380D02*
X128825714Y-80462380D01*
X128825714Y-79462380D01*
X128349523Y-79462380D01*
X127920952Y-80462380D02*
X127920952Y-79462380D01*
X127349523Y-80462380D01*
X127349523Y-79462380D01*
%TD*%
M02*
