%TF.GenerationSoftware,KiCad,Pcbnew,(5.1.10)-1*%
%TF.CreationDate,2022-10-12T21:43:39-04:00*%
%TF.ProjectId,1581-improved-ledpcb,31353831-2d69-46d7-9072-6f7665642d6c,2*%
%TF.SameCoordinates,Original*%
%TF.FileFunction,Copper,L1,Top*%
%TF.FilePolarity,Positive*%
%FSLAX46Y46*%
G04 Gerber Fmt 4.6, Leading zero omitted, Abs format (unit mm)*
G04 Created by KiCad (PCBNEW (5.1.10)-1) date 2022-10-12 21:43:39*
%MOMM*%
%LPD*%
G01*
G04 APERTURE LIST*
%TA.AperFunction,ComponentPad*%
%ADD10R,1.800000X1.800000*%
%TD*%
%TA.AperFunction,ComponentPad*%
%ADD11C,1.800000*%
%TD*%
%TA.AperFunction,ComponentPad*%
%ADD12O,1.700000X1.700000*%
%TD*%
%TA.AperFunction,ComponentPad*%
%ADD13R,1.700000X1.700000*%
%TD*%
%TA.AperFunction,ComponentPad*%
%ADD14C,6.400000*%
%TD*%
%TA.AperFunction,Conductor*%
%ADD15C,0.400000*%
%TD*%
G04 APERTURE END LIST*
D10*
%TO.P,LED2,1*%
%TO.N,N/C*%
X176530000Y-110490000D03*
D11*
%TO.P,LED2,2*%
X179070000Y-110490000D03*
%TD*%
%TO.P,LED1,2*%
%TO.N,N/C*%
X184150000Y-110490000D03*
D10*
%TO.P,LED1,1*%
X186690000Y-110490000D03*
%TD*%
D12*
%TO.P,CN7,3*%
%TO.N,N/C*%
X176530000Y-104140000D03*
%TO.P,CN7,2*%
X176530000Y-101600000D03*
D13*
%TO.P,CN7,1*%
X176530000Y-99060000D03*
%TD*%
D14*
%TO.P,H1,1*%
%TO.N,N/C*%
X182880000Y-99060000D03*
%TD*%
D10*
%TO.P,LED2,1*%
%TO.N,N/C*%
X162560000Y-110490000D03*
D11*
%TO.P,LED2,2*%
X165100000Y-110490000D03*
%TD*%
%TO.P,LED1,2*%
%TO.N,N/C*%
X170180000Y-110490000D03*
D10*
%TO.P,LED1,1*%
X172720000Y-110490000D03*
%TD*%
D12*
%TO.P,CN7,3*%
%TO.N,N/C*%
X162560000Y-104140000D03*
%TO.P,CN7,2*%
X162560000Y-101600000D03*
D13*
%TO.P,CN7,1*%
X162560000Y-99060000D03*
%TD*%
D14*
%TO.P,H1,1*%
%TO.N,N/C*%
X168910000Y-99060000D03*
%TD*%
D10*
%TO.P,LED2,1*%
%TO.N,N/C*%
X148590000Y-110490000D03*
D11*
%TO.P,LED2,2*%
X151130000Y-110490000D03*
%TD*%
%TO.P,LED1,2*%
%TO.N,N/C*%
X156210000Y-110490000D03*
D10*
%TO.P,LED1,1*%
X158750000Y-110490000D03*
%TD*%
D12*
%TO.P,CN7,3*%
%TO.N,N/C*%
X148590000Y-104140000D03*
%TO.P,CN7,2*%
X148590000Y-101600000D03*
D13*
%TO.P,CN7,1*%
X148590000Y-99060000D03*
%TD*%
D14*
%TO.P,H1,1*%
%TO.N,N/C*%
X154940000Y-99060000D03*
%TD*%
D10*
%TO.P,LED2,1*%
%TO.N,N/C*%
X134620000Y-110490000D03*
D11*
%TO.P,LED2,2*%
X137160000Y-110490000D03*
%TD*%
%TO.P,LED1,2*%
%TO.N,N/C*%
X142240000Y-110490000D03*
D10*
%TO.P,LED1,1*%
X144780000Y-110490000D03*
%TD*%
D12*
%TO.P,CN7,3*%
%TO.N,N/C*%
X134620000Y-104140000D03*
%TO.P,CN7,2*%
X134620000Y-101600000D03*
D13*
%TO.P,CN7,1*%
X134620000Y-99060000D03*
%TD*%
D14*
%TO.P,H1,1*%
%TO.N,N/C*%
X140970000Y-99060000D03*
%TD*%
D10*
%TO.P,LED2,1*%
%TO.N,N/C*%
X120650000Y-110490000D03*
D11*
%TO.P,LED2,2*%
X123190000Y-110490000D03*
%TD*%
%TO.P,LED1,2*%
%TO.N,N/C*%
X128270000Y-110490000D03*
D10*
%TO.P,LED1,1*%
X130810000Y-110490000D03*
%TD*%
D12*
%TO.P,CN7,3*%
%TO.N,N/C*%
X120650000Y-104140000D03*
%TO.P,CN7,2*%
X120650000Y-101600000D03*
D13*
%TO.P,CN7,1*%
X120650000Y-99060000D03*
%TD*%
D14*
%TO.P,H1,1*%
%TO.N,N/C*%
X127000000Y-99060000D03*
%TD*%
D10*
%TO.P,LED2,1*%
%TO.N,N/C*%
X186690000Y-77470000D03*
D11*
%TO.P,LED2,2*%
X184150000Y-77470000D03*
%TD*%
%TO.P,LED1,2*%
%TO.N,N/C*%
X179070000Y-77470000D03*
D10*
%TO.P,LED1,1*%
X176530000Y-77470000D03*
%TD*%
D12*
%TO.P,CN7,3*%
%TO.N,N/C*%
X186690000Y-83820000D03*
%TO.P,CN7,2*%
X186690000Y-86360000D03*
D13*
%TO.P,CN7,1*%
X186690000Y-88900000D03*
%TD*%
D14*
%TO.P,H1,1*%
%TO.N,N/C*%
X180340000Y-88900000D03*
%TD*%
D10*
%TO.P,LED2,1*%
%TO.N,N/C*%
X172720000Y-77470000D03*
D11*
%TO.P,LED2,2*%
X170180000Y-77470000D03*
%TD*%
%TO.P,LED1,2*%
%TO.N,N/C*%
X165100000Y-77470000D03*
D10*
%TO.P,LED1,1*%
X162560000Y-77470000D03*
%TD*%
D12*
%TO.P,CN7,3*%
%TO.N,N/C*%
X172720000Y-83820000D03*
%TO.P,CN7,2*%
X172720000Y-86360000D03*
D13*
%TO.P,CN7,1*%
X172720000Y-88900000D03*
%TD*%
D14*
%TO.P,H1,1*%
%TO.N,N/C*%
X166370000Y-88900000D03*
%TD*%
D10*
%TO.P,LED2,1*%
%TO.N,N/C*%
X158750000Y-77470000D03*
D11*
%TO.P,LED2,2*%
X156210000Y-77470000D03*
%TD*%
%TO.P,LED1,2*%
%TO.N,N/C*%
X151130000Y-77470000D03*
D10*
%TO.P,LED1,1*%
X148590000Y-77470000D03*
%TD*%
D12*
%TO.P,CN7,3*%
%TO.N,N/C*%
X158750000Y-83820000D03*
%TO.P,CN7,2*%
X158750000Y-86360000D03*
D13*
%TO.P,CN7,1*%
X158750000Y-88900000D03*
%TD*%
D14*
%TO.P,H1,1*%
%TO.N,N/C*%
X152400000Y-88900000D03*
%TD*%
D10*
%TO.P,LED2,1*%
%TO.N,N/C*%
X144780000Y-77470000D03*
D11*
%TO.P,LED2,2*%
X142240000Y-77470000D03*
%TD*%
%TO.P,LED1,2*%
%TO.N,N/C*%
X137160000Y-77470000D03*
D10*
%TO.P,LED1,1*%
X134620000Y-77470000D03*
%TD*%
D12*
%TO.P,CN7,3*%
%TO.N,N/C*%
X144780000Y-83820000D03*
%TO.P,CN7,2*%
X144780000Y-86360000D03*
D13*
%TO.P,CN7,1*%
X144780000Y-88900000D03*
%TD*%
D14*
%TO.P,H1,1*%
%TO.N,N/C*%
X138430000Y-88900000D03*
%TD*%
D13*
%TO.P,CN7,1*%
%TO.N,Net-(CN7-Pad1)*%
X130810000Y-88900000D03*
D12*
%TO.P,CN7,2*%
%TO.N,Net-(CN7-Pad2)*%
X130810000Y-86360000D03*
%TO.P,CN7,3*%
%TO.N,Net-(CN7-Pad3)*%
X130810000Y-83820000D03*
%TD*%
D10*
%TO.P,LED1,1*%
%TO.N,Net-(CN7-Pad1)*%
X120650000Y-77470000D03*
D11*
%TO.P,LED1,2*%
%TO.N,Net-(CN7-Pad2)*%
X123190000Y-77470000D03*
%TD*%
%TO.P,LED2,2*%
%TO.N,Net-(CN7-Pad2)*%
X128270000Y-77470000D03*
D10*
%TO.P,LED2,1*%
%TO.N,Net-(CN7-Pad3)*%
X130810000Y-77470000D03*
%TD*%
D14*
%TO.P,H1,1*%
%TO.N,N/C*%
X124460000Y-88900000D03*
%TD*%
D15*
%TO.N,*%
X134620000Y-77470000D02*
X136906000Y-79756000D01*
X142621000Y-82423000D02*
X142621000Y-86741000D01*
X142621000Y-86741000D02*
X144780000Y-88900000D01*
X139954000Y-79756000D02*
X142621000Y-82423000D01*
X136906000Y-79756000D02*
X139954000Y-79756000D01*
X143529999Y-85109999D02*
X143529999Y-80625001D01*
X137160000Y-77470000D02*
X142240000Y-77470000D01*
X144780000Y-86360000D02*
X143529999Y-85109999D01*
X142240000Y-79335002D02*
X142240000Y-77470000D01*
X143529999Y-80625001D02*
X142240000Y-79335002D01*
X144780000Y-83820000D02*
X144780000Y-77470000D01*
X148590000Y-77470000D02*
X150876000Y-79756000D01*
X156591000Y-82423000D02*
X156591000Y-86741000D01*
X156591000Y-86741000D02*
X158750000Y-88900000D01*
X153924000Y-79756000D02*
X156591000Y-82423000D01*
X150876000Y-79756000D02*
X153924000Y-79756000D01*
X157499999Y-85109999D02*
X157499999Y-80625001D01*
X151130000Y-77470000D02*
X156210000Y-77470000D01*
X158750000Y-86360000D02*
X157499999Y-85109999D01*
X156210000Y-79335002D02*
X156210000Y-77470000D01*
X157499999Y-80625001D02*
X156210000Y-79335002D01*
X158750000Y-83820000D02*
X158750000Y-77470000D01*
X162560000Y-77470000D02*
X164846000Y-79756000D01*
X170561000Y-82423000D02*
X170561000Y-86741000D01*
X170561000Y-86741000D02*
X172720000Y-88900000D01*
X167894000Y-79756000D02*
X170561000Y-82423000D01*
X164846000Y-79756000D02*
X167894000Y-79756000D01*
X171469999Y-85109999D02*
X171469999Y-80625001D01*
X165100000Y-77470000D02*
X170180000Y-77470000D01*
X172720000Y-86360000D02*
X171469999Y-85109999D01*
X170180000Y-79335002D02*
X170180000Y-77470000D01*
X171469999Y-80625001D02*
X170180000Y-79335002D01*
X172720000Y-83820000D02*
X172720000Y-77470000D01*
X176530000Y-77470000D02*
X178816000Y-79756000D01*
X184531000Y-82423000D02*
X184531000Y-86741000D01*
X184531000Y-86741000D02*
X186690000Y-88900000D01*
X181864000Y-79756000D02*
X184531000Y-82423000D01*
X178816000Y-79756000D02*
X181864000Y-79756000D01*
X185439999Y-85109999D02*
X185439999Y-80625001D01*
X179070000Y-77470000D02*
X184150000Y-77470000D01*
X186690000Y-86360000D02*
X185439999Y-85109999D01*
X184150000Y-79335002D02*
X184150000Y-77470000D01*
X185439999Y-80625001D02*
X184150000Y-79335002D01*
X186690000Y-83820000D02*
X186690000Y-77470000D01*
X130810000Y-110490000D02*
X128524000Y-108204000D01*
X122809000Y-105537000D02*
X122809000Y-101219000D01*
X122809000Y-101219000D02*
X120650000Y-99060000D01*
X125476000Y-108204000D02*
X122809000Y-105537000D01*
X128524000Y-108204000D02*
X125476000Y-108204000D01*
X121900001Y-102850001D02*
X121900001Y-107334999D01*
X128270000Y-110490000D02*
X123190000Y-110490000D01*
X120650000Y-101600000D02*
X121900001Y-102850001D01*
X123190000Y-108624998D02*
X123190000Y-110490000D01*
X121900001Y-107334999D02*
X123190000Y-108624998D01*
X120650000Y-104140000D02*
X120650000Y-110490000D01*
X144780000Y-110490000D02*
X142494000Y-108204000D01*
X136779000Y-105537000D02*
X136779000Y-101219000D01*
X136779000Y-101219000D02*
X134620000Y-99060000D01*
X139446000Y-108204000D02*
X136779000Y-105537000D01*
X142494000Y-108204000D02*
X139446000Y-108204000D01*
X135870001Y-102850001D02*
X135870001Y-107334999D01*
X142240000Y-110490000D02*
X137160000Y-110490000D01*
X134620000Y-101600000D02*
X135870001Y-102850001D01*
X137160000Y-108624998D02*
X137160000Y-110490000D01*
X135870001Y-107334999D02*
X137160000Y-108624998D01*
X134620000Y-104140000D02*
X134620000Y-110490000D01*
X158750000Y-110490000D02*
X156464000Y-108204000D01*
X150749000Y-105537000D02*
X150749000Y-101219000D01*
X150749000Y-101219000D02*
X148590000Y-99060000D01*
X153416000Y-108204000D02*
X150749000Y-105537000D01*
X156464000Y-108204000D02*
X153416000Y-108204000D01*
X149840001Y-102850001D02*
X149840001Y-107334999D01*
X156210000Y-110490000D02*
X151130000Y-110490000D01*
X148590000Y-101600000D02*
X149840001Y-102850001D01*
X151130000Y-108624998D02*
X151130000Y-110490000D01*
X149840001Y-107334999D02*
X151130000Y-108624998D01*
X148590000Y-104140000D02*
X148590000Y-110490000D01*
X172720000Y-110490000D02*
X170434000Y-108204000D01*
X164719000Y-105537000D02*
X164719000Y-101219000D01*
X164719000Y-101219000D02*
X162560000Y-99060000D01*
X167386000Y-108204000D02*
X164719000Y-105537000D01*
X170434000Y-108204000D02*
X167386000Y-108204000D01*
X163810001Y-102850001D02*
X163810001Y-107334999D01*
X170180000Y-110490000D02*
X165100000Y-110490000D01*
X162560000Y-101600000D02*
X163810001Y-102850001D01*
X165100000Y-108624998D02*
X165100000Y-110490000D01*
X163810001Y-107334999D02*
X165100000Y-108624998D01*
X162560000Y-104140000D02*
X162560000Y-110490000D01*
X186690000Y-110490000D02*
X184404000Y-108204000D01*
X178689000Y-105537000D02*
X178689000Y-101219000D01*
X178689000Y-101219000D02*
X176530000Y-99060000D01*
X181356000Y-108204000D02*
X178689000Y-105537000D01*
X184404000Y-108204000D02*
X181356000Y-108204000D01*
X177780001Y-102850001D02*
X177780001Y-107334999D01*
X184150000Y-110490000D02*
X179070000Y-110490000D01*
X176530000Y-101600000D02*
X177780001Y-102850001D01*
X179070000Y-108624998D02*
X179070000Y-110490000D01*
X177780001Y-107334999D02*
X179070000Y-108624998D01*
X176530000Y-104140000D02*
X176530000Y-110490000D01*
%TO.N,Net-(CN7-Pad1)*%
X120650000Y-77470000D02*
X122936000Y-79756000D01*
X122936000Y-79756000D02*
X125984000Y-79756000D01*
X125984000Y-79756000D02*
X128651000Y-82423000D01*
X128651000Y-82423000D02*
X128651000Y-86741000D01*
X128651000Y-86741000D02*
X130810000Y-88900000D01*
%TO.N,Net-(CN7-Pad2)*%
X129559999Y-85109999D02*
X129559999Y-80625001D01*
X130810000Y-86360000D02*
X129559999Y-85109999D01*
X128270000Y-79335002D02*
X128270000Y-77470000D01*
X129559999Y-80625001D02*
X128270000Y-79335002D01*
X123190000Y-77470000D02*
X128270000Y-77470000D01*
%TO.N,Net-(CN7-Pad3)*%
X130810000Y-83820000D02*
X130810000Y-77470000D01*
%TD*%
M02*
