%FSLAX45Y45*%
G04 Gerber Fmt 4.5, Leading zero omitted, Abs format (unit mm)*
G04 Created by KiCad (PCBNEW (5.1.10)-1) date 2022-09-06 22:19:57*
%MOMM*%
%LPD*%
G01*
G04 APERTURE LIST*
%TA.AperFunction,Profile*%
%ADD10C,0.050000*%
%TD*%
%ADD11C,0.200000*%
%ADD12C,0.300000*%
G04 APERTURE END LIST*
D10*
X5080000Y-9806000D02*
X5842000Y-9806000D01*
X5080000Y-8506000D02*
X5842000Y-8506000D01*
X5842000Y-8506000D02*
G75*
G02*
X5842000Y-9806000I0J-650000D01*
G01*
X5080000Y-3556000D02*
X5080000Y-8506000D01*
X5080000Y-14756000D02*
X5080000Y-9806000D01*
X23480000Y-14756000D02*
X5080000Y-14756000D01*
X23480000Y-3556000D02*
X23480000Y-14756000D01*
X5080000Y-3556000D02*
X23480000Y-3556000D01*
D11*
X5949000Y-5758500D02*
X5989000Y-5798500D01*
X5989000Y-5758500D02*
X5949000Y-5798500D01*
X7333300Y-7257100D02*
X7373300Y-7297100D01*
X7373300Y-7257100D02*
X7333300Y-7297100D01*
X8870000Y-6228400D02*
X8910000Y-6268400D01*
X8910000Y-6228400D02*
X8870000Y-6268400D01*
X8870000Y-6342700D02*
X8910000Y-6382700D01*
X8910000Y-6342700D02*
X8870000Y-6382700D01*
X8870000Y-6457000D02*
X8910000Y-6497000D01*
X8910000Y-6457000D02*
X8870000Y-6497000D01*
X9212900Y-5999800D02*
X9252900Y-6039800D01*
X9252900Y-5999800D02*
X9212900Y-6039800D01*
X9301800Y-6101400D02*
X9341800Y-6141400D01*
X9341800Y-6101400D02*
X9301800Y-6141400D01*
X9327200Y-4806000D02*
X9367200Y-4846000D01*
X9367200Y-4806000D02*
X9327200Y-4846000D01*
X9378000Y-4933000D02*
X9418000Y-4973000D01*
X9418000Y-4933000D02*
X9378000Y-4973000D01*
X9378000Y-5695000D02*
X9418000Y-5735000D01*
X9418000Y-5695000D02*
X9378000Y-5735000D01*
X9403400Y-5161600D02*
X9443400Y-5201600D01*
X9443400Y-5161600D02*
X9403400Y-5201600D01*
X9428800Y-10368600D02*
X9468800Y-10408600D01*
X9468800Y-10368600D02*
X9428800Y-10408600D01*
X9466900Y-5885500D02*
X9506900Y-5925500D01*
X9506900Y-5885500D02*
X9466900Y-5925500D01*
X9479600Y-6749100D02*
X9519600Y-6789100D01*
X9519600Y-6749100D02*
X9479600Y-6789100D01*
X9517700Y-6406200D02*
X9557700Y-6446200D01*
X9557700Y-6406200D02*
X9517700Y-6446200D01*
X9568500Y-6152200D02*
X9608500Y-6192200D01*
X9608500Y-6152200D02*
X9568500Y-6192200D01*
X9593900Y-4196400D02*
X9633900Y-4236400D01*
X9633900Y-4196400D02*
X9593900Y-4236400D01*
X9593900Y-4806000D02*
X9633900Y-4846000D01*
X9633900Y-4806000D02*
X9593900Y-4846000D01*
X9657400Y-7155500D02*
X9697400Y-7195500D01*
X9697400Y-7155500D02*
X9657400Y-7195500D01*
X9771700Y-10190800D02*
X9811700Y-10230800D01*
X9811700Y-10190800D02*
X9771700Y-10230800D01*
X9886000Y-8235000D02*
X9926000Y-8275000D01*
X9926000Y-8235000D02*
X9886000Y-8275000D01*
X9962200Y-7511100D02*
X10002200Y-7551100D01*
X10002200Y-7511100D02*
X9962200Y-7551100D01*
X9974900Y-5695000D02*
X10014900Y-5735000D01*
X10014900Y-5695000D02*
X9974900Y-5735000D01*
X9987600Y-8704900D02*
X10027600Y-8744900D01*
X10027600Y-8704900D02*
X9987600Y-8744900D01*
X9987600Y-9378000D02*
X10027600Y-9418000D01*
X10027600Y-9378000D02*
X9987600Y-9418000D01*
X10051100Y-9809800D02*
X10091100Y-9849800D01*
X10091100Y-9809800D02*
X10051100Y-9849800D01*
X10089200Y-8057200D02*
X10129200Y-8097200D01*
X10129200Y-8057200D02*
X10089200Y-8097200D01*
X10089200Y-9505000D02*
X10129200Y-9545000D01*
X10129200Y-9505000D02*
X10089200Y-9545000D01*
X10165400Y-7193600D02*
X10205400Y-7233600D01*
X10205400Y-7193600D02*
X10165400Y-7233600D01*
X10165400Y-7892100D02*
X10205400Y-7932100D01*
X10205400Y-7892100D02*
X10165400Y-7932100D01*
X10178100Y-8235000D02*
X10218100Y-8275000D01*
X10218100Y-8235000D02*
X10178100Y-8275000D01*
X10267000Y-9124000D02*
X10307000Y-9164000D01*
X10307000Y-9124000D02*
X10267000Y-9164000D01*
X10305100Y-4806000D02*
X10345100Y-4846000D01*
X10345100Y-4806000D02*
X10305100Y-4846000D01*
X10305100Y-5314000D02*
X10345100Y-5354000D01*
X10345100Y-5314000D02*
X10305100Y-5354000D01*
X10381300Y-8870000D02*
X10421300Y-8910000D01*
X10421300Y-8870000D02*
X10381300Y-8910000D01*
X10381300Y-9339900D02*
X10421300Y-9379900D01*
X10421300Y-9339900D02*
X10381300Y-9379900D01*
X11029000Y-5568000D02*
X11069000Y-5608000D01*
X11069000Y-5568000D02*
X11029000Y-5608000D01*
X11041700Y-9847900D02*
X11081700Y-9887900D01*
X11081700Y-9847900D02*
X11041700Y-9887900D01*
X11041700Y-10063800D02*
X11081700Y-10103800D01*
X11081700Y-10063800D02*
X11041700Y-10103800D01*
X11092500Y-7536500D02*
X11132500Y-7576500D01*
X11132500Y-7536500D02*
X11092500Y-7576500D01*
X11219500Y-7346000D02*
X11259500Y-7386000D01*
X11259500Y-7346000D02*
X11219500Y-7386000D01*
X11270300Y-9530400D02*
X11310300Y-9570400D01*
X11310300Y-9530400D02*
X11270300Y-9570400D01*
X11270300Y-9720900D02*
X11310300Y-9760900D01*
X11310300Y-9720900D02*
X11270300Y-9760900D01*
X11283000Y-6749100D02*
X11323000Y-6789100D01*
X11323000Y-6749100D02*
X11283000Y-6789100D01*
X11321100Y-8235000D02*
X11361100Y-8275000D01*
X11361100Y-8235000D02*
X11321100Y-8275000D01*
X11371900Y-8628700D02*
X11411900Y-8668700D01*
X11411900Y-8628700D02*
X11371900Y-8668700D01*
X11410000Y-4869500D02*
X11450000Y-4909500D01*
X11450000Y-4869500D02*
X11410000Y-4909500D01*
X11410000Y-11156000D02*
X11450000Y-11196000D01*
X11450000Y-11156000D02*
X11410000Y-11196000D01*
X11448100Y-9352600D02*
X11488100Y-9392600D01*
X11488100Y-9352600D02*
X11448100Y-9392600D01*
X11486200Y-6355400D02*
X11526200Y-6395400D01*
X11526200Y-6355400D02*
X11486200Y-6395400D01*
X11486200Y-7447600D02*
X11526200Y-7487600D01*
X11526200Y-7447600D02*
X11486200Y-7487600D01*
X11575100Y-9530400D02*
X11615100Y-9570400D01*
X11615100Y-9530400D02*
X11575100Y-9570400D01*
X11587800Y-7892100D02*
X11627800Y-7932100D01*
X11627800Y-7892100D02*
X11587800Y-7932100D01*
X11600500Y-6965000D02*
X11640500Y-7005000D01*
X11640500Y-6965000D02*
X11600500Y-7005000D01*
X11918000Y-6596700D02*
X11958000Y-6636700D01*
X11958000Y-6596700D02*
X11918000Y-6636700D01*
X12108500Y-3904300D02*
X12148500Y-3944300D01*
X12148500Y-3904300D02*
X12108500Y-3944300D01*
X12349800Y-10775000D02*
X12389800Y-10815000D01*
X12389800Y-10775000D02*
X12349800Y-10815000D01*
X12354500Y-4788600D02*
X12394500Y-4828600D01*
X12394500Y-4788600D02*
X12354500Y-4828600D01*
X12354500Y-5309300D02*
X12394500Y-5349300D01*
X12394500Y-5309300D02*
X12354500Y-5349300D01*
X12354500Y-5817300D02*
X12394500Y-5857300D01*
X12394500Y-5817300D02*
X12354500Y-5857300D01*
X12354500Y-7849300D02*
X12394500Y-7889300D01*
X12394500Y-7849300D02*
X12354500Y-7889300D01*
X12354500Y-8103300D02*
X12394500Y-8143300D01*
X12394500Y-8103300D02*
X12354500Y-8143300D01*
X12354500Y-8344600D02*
X12394500Y-8384600D01*
X12394500Y-8344600D02*
X12354500Y-8384600D01*
X12354500Y-10262300D02*
X12394500Y-10302300D01*
X12394500Y-10262300D02*
X12354500Y-10302300D01*
X12354500Y-11024300D02*
X12394500Y-11064300D01*
X12394500Y-11024300D02*
X12354500Y-11064300D01*
X12362500Y-9759000D02*
X12402500Y-9799000D01*
X12402500Y-9759000D02*
X12362500Y-9799000D01*
X12502200Y-7473000D02*
X12542200Y-7513000D01*
X12542200Y-7473000D02*
X12502200Y-7513000D01*
X12616500Y-8997000D02*
X12656500Y-9037000D01*
X12656500Y-8997000D02*
X12616500Y-9037000D01*
X12680000Y-6355400D02*
X12720000Y-6395400D01*
X12720000Y-6355400D02*
X12680000Y-6395400D01*
X12819700Y-5580700D02*
X12859700Y-5620700D01*
X12859700Y-5580700D02*
X12819700Y-5620700D01*
X12857800Y-10902000D02*
X12897800Y-10942000D01*
X12897800Y-10902000D02*
X12857800Y-10942000D01*
X12870500Y-9403400D02*
X12910500Y-9443400D01*
X12910500Y-9403400D02*
X12870500Y-9443400D01*
X12934000Y-8235000D02*
X12974000Y-8275000D01*
X12974000Y-8235000D02*
X12934000Y-8275000D01*
X12959400Y-11829100D02*
X12999400Y-11869100D01*
X12999400Y-11829100D02*
X12959400Y-11869100D01*
X12972100Y-5441000D02*
X13012100Y-5481000D01*
X13012100Y-5441000D02*
X12972100Y-5481000D01*
X12984800Y-11067100D02*
X13024800Y-11107100D01*
X13024800Y-11067100D02*
X12984800Y-11107100D01*
X13035600Y-4933000D02*
X13075600Y-4973000D01*
X13075600Y-4933000D02*
X13035600Y-4973000D01*
X13048300Y-10241600D02*
X13088300Y-10281600D01*
X13088300Y-10241600D02*
X13048300Y-10281600D01*
X13054650Y-10743250D02*
X13094650Y-10783250D01*
X13094650Y-10743250D02*
X13054650Y-10783250D01*
X13061000Y-7854000D02*
X13101000Y-7894000D01*
X13101000Y-7854000D02*
X13061000Y-7894000D01*
X13099100Y-8108000D02*
X13139100Y-8148000D01*
X13139100Y-8108000D02*
X13099100Y-8148000D01*
X13099100Y-8362000D02*
X13139100Y-8402000D01*
X13139100Y-8362000D02*
X13099100Y-8402000D01*
X13149900Y-6838000D02*
X13189900Y-6878000D01*
X13189900Y-6838000D02*
X13149900Y-6878000D01*
X13188000Y-10368600D02*
X13228000Y-10408600D01*
X13228000Y-10368600D02*
X13188000Y-10408600D01*
X13276900Y-4933000D02*
X13316900Y-4973000D01*
X13316900Y-4933000D02*
X13276900Y-4973000D01*
X13276900Y-5822000D02*
X13316900Y-5862000D01*
X13316900Y-5822000D02*
X13276900Y-5862000D01*
X13276900Y-10013000D02*
X13316900Y-10053000D01*
X13316900Y-10013000D02*
X13276900Y-10053000D01*
X13340400Y-7358700D02*
X13380400Y-7398700D01*
X13380400Y-7358700D02*
X13340400Y-7398700D01*
X13365800Y-6965000D02*
X13405800Y-7005000D01*
X13405800Y-6965000D02*
X13365800Y-7005000D01*
X13365800Y-7981000D02*
X13405800Y-8021000D01*
X13405800Y-7981000D02*
X13365800Y-8021000D01*
X13365800Y-8616000D02*
X13405800Y-8656000D01*
X13405800Y-8616000D02*
X13365800Y-8656000D01*
X13391200Y-10368600D02*
X13431200Y-10408600D01*
X13431200Y-10368600D02*
X13391200Y-10408600D01*
X13429300Y-4285300D02*
X13469300Y-4325300D01*
X13469300Y-4285300D02*
X13429300Y-4325300D01*
X13429300Y-11410000D02*
X13469300Y-11450000D01*
X13469300Y-11410000D02*
X13429300Y-11450000D01*
X13467400Y-9886000D02*
X13507400Y-9926000D01*
X13507400Y-9886000D02*
X13467400Y-9926000D01*
X13492800Y-5695000D02*
X13532800Y-5735000D01*
X13532800Y-5695000D02*
X13492800Y-5735000D01*
X13492800Y-8362000D02*
X13532800Y-8402000D01*
X13532800Y-8362000D02*
X13492800Y-8402000D01*
X13492800Y-9124000D02*
X13532800Y-9164000D01*
X13532800Y-9124000D02*
X13492800Y-9164000D01*
X13505500Y-8666800D02*
X13545500Y-8706800D01*
X13545500Y-8666800D02*
X13505500Y-8706800D01*
X13518200Y-5872800D02*
X13558200Y-5912800D01*
X13558200Y-5872800D02*
X13518200Y-5912800D01*
X13530900Y-7473000D02*
X13570900Y-7513000D01*
X13570900Y-7473000D02*
X13530900Y-7513000D01*
X13543600Y-10140000D02*
X13583600Y-10180000D01*
X13583600Y-10140000D02*
X13543600Y-10180000D01*
X13645200Y-5314000D02*
X13685200Y-5354000D01*
X13685200Y-5314000D02*
X13645200Y-5354000D01*
X13645200Y-5695000D02*
X13685200Y-5735000D01*
X13685200Y-5695000D02*
X13645200Y-5735000D01*
X13696000Y-14140500D02*
X13736000Y-14180500D01*
X13736000Y-14140500D02*
X13696000Y-14180500D01*
X13725201Y-10521000D02*
X13765201Y-10561000D01*
X13765201Y-10521000D02*
X13725201Y-10561000D01*
X13772200Y-6647500D02*
X13812200Y-6687500D01*
X13812200Y-6647500D02*
X13772200Y-6687500D01*
X13810300Y-12264701D02*
X13850300Y-12304701D01*
X13850300Y-12264701D02*
X13810300Y-12304701D01*
X13962700Y-6558600D02*
X14002700Y-6598600D01*
X14002700Y-6558600D02*
X13962700Y-6598600D01*
X14140500Y-3853500D02*
X14180500Y-3893500D01*
X14180500Y-3853500D02*
X14140500Y-3893500D01*
X14381800Y-8362000D02*
X14421800Y-8402000D01*
X14421800Y-8362000D02*
X14381800Y-8402000D01*
X14386500Y-4801300D02*
X14426500Y-4841300D01*
X14426500Y-4801300D02*
X14386500Y-4841300D01*
X14386500Y-5309300D02*
X14426500Y-5349300D01*
X14426500Y-5309300D02*
X14386500Y-5349300D01*
X14386500Y-5550600D02*
X14426500Y-5590600D01*
X14426500Y-5550600D02*
X14386500Y-5590600D01*
X14386500Y-7569900D02*
X14426500Y-7609900D01*
X14426500Y-7569900D02*
X14386500Y-7609900D01*
X14386500Y-7849300D02*
X14426500Y-7889300D01*
X14426500Y-7849300D02*
X14386500Y-7889300D01*
X14386500Y-8103300D02*
X14426500Y-8143300D01*
X14426500Y-8103300D02*
X14386500Y-8143300D01*
X14386500Y-8624000D02*
X14426500Y-8664000D01*
X14426500Y-8624000D02*
X14386500Y-8664000D01*
X14394500Y-10648000D02*
X14434500Y-10688000D01*
X14434500Y-10648000D02*
X14394500Y-10688000D01*
X14432600Y-4513900D02*
X14472600Y-4553900D01*
X14472600Y-4513900D02*
X14432600Y-4553900D01*
X14508800Y-12184700D02*
X14548800Y-12224700D01*
X14548800Y-12184700D02*
X14508800Y-12224700D01*
X14597700Y-8895400D02*
X14637700Y-8935400D01*
X14637700Y-8895400D02*
X14597700Y-8935400D01*
X14699300Y-9606600D02*
X14739300Y-9646600D01*
X14739300Y-9606600D02*
X14699300Y-9646600D01*
X14737400Y-8895400D02*
X14777400Y-8935400D01*
X14777400Y-8895400D02*
X14737400Y-8935400D01*
X14826300Y-8450900D02*
X14866300Y-8490900D01*
X14866300Y-8450900D02*
X14826300Y-8490900D01*
X14864400Y-6558600D02*
X14904400Y-6598600D01*
X14904400Y-6558600D02*
X14864400Y-6598600D01*
X14877100Y-9505000D02*
X14917100Y-9545000D01*
X14917100Y-9505000D02*
X14877100Y-9545000D01*
X14889800Y-11422700D02*
X14929800Y-11462700D01*
X14929800Y-11422700D02*
X14889800Y-11462700D01*
X14915200Y-11994200D02*
X14955200Y-12034200D01*
X14955200Y-11994200D02*
X14915200Y-12034200D01*
X14927900Y-8489000D02*
X14967900Y-8529000D01*
X14967900Y-8489000D02*
X14927900Y-8529000D01*
X14966000Y-13454700D02*
X15006000Y-13494700D01*
X15006000Y-13454700D02*
X14966000Y-13494700D01*
X14991400Y-5314000D02*
X15031400Y-5354000D01*
X15031400Y-5314000D02*
X14991400Y-5354000D01*
X15004100Y-5568000D02*
X15044100Y-5608000D01*
X15044100Y-5568000D02*
X15004100Y-5608000D01*
X15004100Y-6647500D02*
X15044100Y-6687500D01*
X15044100Y-6647500D02*
X15004100Y-6687500D01*
X15029500Y-8704900D02*
X15069500Y-8744900D01*
X15069500Y-8704900D02*
X15029500Y-8744900D01*
X15042200Y-5021900D02*
X15082200Y-5061900D01*
X15082200Y-5021900D02*
X15042200Y-5061900D01*
X15067600Y-11549700D02*
X15107600Y-11589700D01*
X15107600Y-11549700D02*
X15067600Y-11589700D01*
X15093000Y-4259900D02*
X15133000Y-4299900D01*
X15133000Y-4259900D02*
X15093000Y-4299900D01*
X15143800Y-5745800D02*
X15183800Y-5785800D01*
X15183800Y-5745800D02*
X15143800Y-5785800D01*
X15143800Y-5910900D02*
X15183800Y-5950900D01*
X15183800Y-5910900D02*
X15143800Y-5950900D01*
X15277150Y-4228150D02*
X15317150Y-4268150D01*
X15317150Y-4228150D02*
X15277150Y-4268150D01*
X15321600Y-11283000D02*
X15361600Y-11323000D01*
X15361600Y-11283000D02*
X15321600Y-11323000D01*
X15435900Y-7600000D02*
X15475900Y-7640000D01*
X15475900Y-7600000D02*
X15435900Y-7640000D01*
X15435900Y-8108000D02*
X15475900Y-8148000D01*
X15475900Y-8108000D02*
X15435900Y-8148000D01*
X15435900Y-11664000D02*
X15475900Y-11704000D01*
X15475900Y-11664000D02*
X15435900Y-11704000D01*
X15512100Y-6368100D02*
X15552100Y-6408100D01*
X15552100Y-6368100D02*
X15512100Y-6408100D01*
X15550200Y-5148900D02*
X15590200Y-5188900D01*
X15590200Y-5148900D02*
X15550200Y-5188900D01*
X15550200Y-9403400D02*
X15590200Y-9443400D01*
X15590200Y-9403400D02*
X15550200Y-9443400D01*
X15728000Y-9162100D02*
X15768000Y-9202100D01*
X15768000Y-9162100D02*
X15728000Y-9202100D01*
X15791500Y-3853500D02*
X15831500Y-3893500D01*
X15831500Y-3853500D02*
X15791500Y-3893500D01*
X15867700Y-9492300D02*
X15907700Y-9532300D01*
X15907700Y-9492300D02*
X15867700Y-9532300D01*
X16032800Y-9632000D02*
X16072800Y-9672000D01*
X16072800Y-9632000D02*
X16032800Y-9672000D01*
X16286800Y-5060000D02*
X16326800Y-5100000D01*
X16326800Y-5060000D02*
X16286800Y-5100000D01*
X16286800Y-7854000D02*
X16326800Y-7894000D01*
X16326800Y-7854000D02*
X16286800Y-7894000D01*
X16286800Y-10140000D02*
X16326800Y-10180000D01*
X16326800Y-10140000D02*
X16286800Y-10180000D01*
X16286800Y-11410000D02*
X16326800Y-11450000D01*
X16326800Y-11410000D02*
X16286800Y-11450000D01*
X16291500Y-4293300D02*
X16331500Y-4333300D01*
X16331500Y-4293300D02*
X16291500Y-4333300D01*
X16291500Y-5537900D02*
X16331500Y-5577900D01*
X16331500Y-5537900D02*
X16291500Y-5577900D01*
X16291500Y-7100000D02*
X16331500Y-7140000D01*
X16331500Y-7100000D02*
X16291500Y-7140000D01*
X16291500Y-7404800D02*
X16331500Y-7444800D01*
X16331500Y-7404800D02*
X16291500Y-7444800D01*
X16291500Y-8243000D02*
X16331500Y-8283000D01*
X16331500Y-8243000D02*
X16291500Y-8283000D01*
X16291500Y-9157400D02*
X16331500Y-9197400D01*
X16331500Y-9157400D02*
X16291500Y-9197400D01*
X16490000Y-12045000D02*
X16530000Y-12085000D01*
X16530000Y-12045000D02*
X16490000Y-12085000D01*
X16617000Y-7727000D02*
X16657000Y-7767000D01*
X16657000Y-7727000D02*
X16617000Y-7767000D01*
X16680500Y-3853500D02*
X16720500Y-3893500D01*
X16720500Y-3853500D02*
X16680500Y-3893500D01*
X16705900Y-10648000D02*
X16745900Y-10688000D01*
X16745900Y-10648000D02*
X16705900Y-10688000D01*
X16794800Y-7854000D02*
X16834800Y-7894000D01*
X16834800Y-7854000D02*
X16794800Y-7894000D01*
X16794800Y-8616000D02*
X16834800Y-8656000D01*
X16834800Y-8616000D02*
X16794800Y-8656000D01*
X16947200Y-11676700D02*
X16987200Y-11716700D01*
X16987200Y-11676700D02*
X16947200Y-11716700D01*
X16972600Y-6063300D02*
X17012600Y-6103300D01*
X17012600Y-6063300D02*
X16972600Y-6103300D01*
X16998000Y-6317300D02*
X17038000Y-6357300D01*
X17038000Y-6317300D02*
X16998000Y-6357300D01*
X16998000Y-6584000D02*
X17038000Y-6624000D01*
X17038000Y-6584000D02*
X16998000Y-6624000D01*
X16998000Y-6850700D02*
X17038000Y-6890700D01*
X17038000Y-6850700D02*
X16998000Y-6890700D01*
X17023400Y-4704400D02*
X17063400Y-4744400D01*
X17063400Y-4704400D02*
X17023400Y-4744400D01*
X17048800Y-13188000D02*
X17088800Y-13228000D01*
X17088800Y-13188000D02*
X17048800Y-13228000D01*
X17061500Y-5822000D02*
X17101500Y-5862000D01*
X17101500Y-5822000D02*
X17061500Y-5862000D01*
X17074200Y-8235000D02*
X17114200Y-8275000D01*
X17114200Y-8235000D02*
X17074200Y-8275000D01*
X17175800Y-4298000D02*
X17215800Y-4338000D01*
X17215800Y-4298000D02*
X17175800Y-4338000D01*
X17252000Y-9644700D02*
X17292000Y-9684700D01*
X17292000Y-9644700D02*
X17252000Y-9684700D01*
X17391700Y-9009700D02*
X17431700Y-9049700D01*
X17431700Y-9009700D02*
X17391700Y-9049700D01*
X17594900Y-8362000D02*
X17634900Y-8402000D01*
X17634900Y-8362000D02*
X17594900Y-8402000D01*
X17696500Y-13569000D02*
X17736500Y-13609000D01*
X17736500Y-13569000D02*
X17696500Y-13609000D01*
X17721900Y-4742500D02*
X17761900Y-4782500D01*
X17761900Y-4742500D02*
X17721900Y-4782500D01*
X17734600Y-8108000D02*
X17774600Y-8148000D01*
X17774600Y-8108000D02*
X17734600Y-8148000D01*
X17747300Y-6203000D02*
X17787300Y-6243000D01*
X17787300Y-6203000D02*
X17747300Y-6243000D01*
X17760000Y-13188000D02*
X17800000Y-13228000D01*
X17800000Y-13188000D02*
X17760000Y-13228000D01*
X17772700Y-7587300D02*
X17812700Y-7627300D01*
X17812700Y-7587300D02*
X17772700Y-7627300D01*
X17810800Y-11765600D02*
X17850800Y-11805600D01*
X17850800Y-11765600D02*
X17810800Y-11805600D01*
X17848900Y-7854000D02*
X17888900Y-7894000D01*
X17888900Y-7854000D02*
X17848900Y-7894000D01*
X17874300Y-13708700D02*
X17914300Y-13748700D01*
X17914300Y-13708700D02*
X17874300Y-13748700D01*
X17899700Y-4742500D02*
X17939700Y-4782500D01*
X17939700Y-4742500D02*
X17899700Y-4782500D01*
X17956200Y-14198300D02*
X17996200Y-14238300D01*
X17996200Y-14198300D02*
X17956200Y-14238300D01*
X17975900Y-5060000D02*
X18015900Y-5100000D01*
X18015900Y-5060000D02*
X17975900Y-5100000D01*
X18014000Y-14026200D02*
X18054000Y-14066200D01*
X18054000Y-14026200D02*
X18014000Y-14066200D01*
X18128300Y-14381800D02*
X18168300Y-14421800D01*
X18168300Y-14381800D02*
X18128300Y-14421800D01*
X18179100Y-10267000D02*
X18219100Y-10307000D01*
X18219100Y-10267000D02*
X18179100Y-10307000D01*
X18331500Y-9924100D02*
X18371500Y-9964100D01*
X18371500Y-9924100D02*
X18331500Y-9964100D01*
X18331500Y-13759500D02*
X18371500Y-13799500D01*
X18371500Y-13759500D02*
X18331500Y-13799500D01*
X18534700Y-5834700D02*
X18574700Y-5874700D01*
X18574700Y-5834700D02*
X18534700Y-5874700D01*
X18547400Y-6139500D02*
X18587400Y-6179500D01*
X18587400Y-6139500D02*
X18547400Y-6179500D01*
X18585500Y-9327200D02*
X18625500Y-9367200D01*
X18625500Y-9327200D02*
X18585500Y-9367200D01*
X18598200Y-13111800D02*
X18638200Y-13151800D01*
X18638200Y-13111800D02*
X18598200Y-13151800D01*
X18610900Y-8997000D02*
X18650900Y-9037000D01*
X18650900Y-8997000D02*
X18610900Y-9037000D01*
X18623600Y-5402900D02*
X18663600Y-5442900D01*
X18663600Y-5402900D02*
X18623600Y-5442900D01*
X18636300Y-5187000D02*
X18676300Y-5227000D01*
X18676300Y-5187000D02*
X18636300Y-5227000D01*
X18649000Y-4818700D02*
X18689000Y-4858700D01*
X18689000Y-4818700D02*
X18649000Y-4858700D01*
X18687100Y-7727000D02*
X18727100Y-7767000D01*
X18727100Y-7727000D02*
X18687100Y-7767000D01*
X18776000Y-8616000D02*
X18816000Y-8656000D01*
X18816000Y-8616000D02*
X18776000Y-8656000D01*
X18814100Y-11791000D02*
X18854100Y-11831000D01*
X18854100Y-11791000D02*
X18814100Y-11831000D01*
X18864900Y-9962200D02*
X18904900Y-10002200D01*
X18904900Y-9962200D02*
X18864900Y-10002200D01*
X19017300Y-4552000D02*
X19057300Y-4592000D01*
X19057300Y-4552000D02*
X19017300Y-4592000D01*
X19017300Y-4818700D02*
X19057300Y-4858700D01*
X19057300Y-4818700D02*
X19017300Y-4858700D01*
X19096999Y-10143499D02*
X19136999Y-10183499D01*
X19136999Y-10143499D02*
X19096999Y-10183499D01*
X19096999Y-10517501D02*
X19136999Y-10557501D01*
X19136999Y-10517501D02*
X19096999Y-10557501D01*
X19096999Y-11533501D02*
X19136999Y-11573501D01*
X19136999Y-11533501D02*
X19096999Y-11573501D01*
X19096999Y-13324201D02*
X19136999Y-13364201D01*
X19136999Y-13324201D02*
X19096999Y-13364201D01*
X19220500Y-3891600D02*
X19260500Y-3931600D01*
X19260500Y-3891600D02*
X19220500Y-3931600D01*
X19220500Y-9327200D02*
X19260500Y-9367200D01*
X19260500Y-9327200D02*
X19220500Y-9367200D01*
X19355500Y-13754800D02*
X19395500Y-13794800D01*
X19395500Y-13754800D02*
X19355500Y-13794800D01*
X19398300Y-4640900D02*
X19438300Y-4680900D01*
X19438300Y-4640900D02*
X19398300Y-4680900D01*
X19398300Y-8108000D02*
X19438300Y-8148000D01*
X19438300Y-8108000D02*
X19398300Y-8148000D01*
X19398300Y-8108000D02*
X19438300Y-8148000D01*
X19438300Y-8108000D02*
X19398300Y-8148000D01*
X19436400Y-5390200D02*
X19476400Y-5430200D01*
X19476400Y-5390200D02*
X19436400Y-5430200D01*
X19436400Y-7473000D02*
X19476400Y-7513000D01*
X19476400Y-7473000D02*
X19436400Y-7513000D01*
X19449100Y-4056700D02*
X19489100Y-4096700D01*
X19489100Y-4056700D02*
X19449100Y-4096700D01*
X19512600Y-9670100D02*
X19552600Y-9710100D01*
X19552600Y-9670100D02*
X19512600Y-9710100D01*
X19525300Y-5123500D02*
X19565300Y-5163500D01*
X19565300Y-5123500D02*
X19525300Y-5163500D01*
X19538000Y-13962700D02*
X19578000Y-14002700D01*
X19578000Y-13962700D02*
X19538000Y-14002700D01*
X19601500Y-6457000D02*
X19641500Y-6497000D01*
X19641500Y-6457000D02*
X19601500Y-6497000D01*
X19601500Y-6838000D02*
X19641500Y-6878000D01*
X19641500Y-6838000D02*
X19601500Y-6878000D01*
X19601500Y-7092000D02*
X19641500Y-7132000D01*
X19641500Y-7092000D02*
X19601500Y-7132000D01*
X19601500Y-7346000D02*
X19641500Y-7386000D01*
X19641500Y-7346000D02*
X19601500Y-7386000D01*
X19601500Y-7854000D02*
X19641500Y-7894000D01*
X19641500Y-7854000D02*
X19601500Y-7894000D01*
X19614200Y-9593900D02*
X19654200Y-9633900D01*
X19654200Y-9593900D02*
X19614200Y-9633900D01*
X19957100Y-13924600D02*
X19997100Y-13964600D01*
X19997100Y-13924600D02*
X19957100Y-13964600D01*
X20007900Y-4679000D02*
X20047900Y-4719000D01*
X20047900Y-4679000D02*
X20007900Y-4719000D01*
X20033300Y-6203000D02*
X20073300Y-6243000D01*
X20073300Y-6203000D02*
X20033300Y-6243000D01*
X20046000Y-9327200D02*
X20086000Y-9367200D01*
X20086000Y-9327200D02*
X20046000Y-9367200D01*
X20173000Y-13924600D02*
X20213000Y-13964600D01*
X20213000Y-13924600D02*
X20173000Y-13964600D01*
X20211100Y-10635300D02*
X20251100Y-10675300D01*
X20251100Y-10635300D02*
X20211100Y-10675300D01*
X20223800Y-13200700D02*
X20263800Y-13240700D01*
X20263800Y-13200700D02*
X20223800Y-13240700D01*
X20300000Y-6266500D02*
X20340000Y-6306500D01*
X20340000Y-6266500D02*
X20300000Y-6306500D01*
X20363500Y-12553000D02*
X20403500Y-12593000D01*
X20403500Y-12553000D02*
X20363500Y-12593000D01*
X20388900Y-9505000D02*
X20428900Y-9545000D01*
X20428900Y-9505000D02*
X20388900Y-9545000D01*
X20388900Y-10902000D02*
X20428900Y-10942000D01*
X20428900Y-10902000D02*
X20388900Y-10942000D01*
X20401600Y-10013000D02*
X20441600Y-10053000D01*
X20441600Y-10013000D02*
X20401600Y-10053000D01*
X20427000Y-10267000D02*
X20467000Y-10307000D01*
X20467000Y-10267000D02*
X20427000Y-10307000D01*
X20477800Y-5555300D02*
X20517800Y-5595300D01*
X20517800Y-5555300D02*
X20477800Y-5595300D01*
X20846100Y-9619300D02*
X20886100Y-9659300D01*
X20886100Y-9619300D02*
X20846100Y-9659300D01*
X21036600Y-10902000D02*
X21076600Y-10942000D01*
X21076600Y-10902000D02*
X21036600Y-10942000D01*
X21036600Y-11562400D02*
X21076600Y-11602400D01*
X21076600Y-11562400D02*
X21036600Y-11602400D01*
X21506500Y-9670100D02*
X21546500Y-9710100D01*
X21546500Y-9670100D02*
X21506500Y-9710100D01*
X21544600Y-8806500D02*
X21584600Y-8846500D01*
X21584600Y-8806500D02*
X21544600Y-8846500D01*
X21697000Y-9555800D02*
X21737000Y-9595800D01*
X21737000Y-9555800D02*
X21697000Y-9595800D01*
X21697000Y-10394000D02*
X21737000Y-10434000D01*
X21737000Y-10394000D02*
X21697000Y-10434000D01*
X22014500Y-4590100D02*
X22054500Y-4630100D01*
X22054500Y-4590100D02*
X22014500Y-4630100D01*
X22243100Y-8349300D02*
X22283100Y-8389300D01*
X22283100Y-8349300D02*
X22243100Y-8389300D01*
X22319300Y-8920800D02*
X22359300Y-8960800D01*
X22359300Y-8920800D02*
X22319300Y-8960800D01*
X22497100Y-9911400D02*
X22537100Y-9951400D01*
X22537100Y-9911400D02*
X22497100Y-9951400D01*
X22586000Y-8920800D02*
X22626000Y-8960800D01*
X22626000Y-8920800D02*
X22586000Y-8960800D01*
X22649500Y-10419400D02*
X22689500Y-10459400D01*
X22689500Y-10419400D02*
X22649500Y-10459400D01*
X22713000Y-8298500D02*
X22753000Y-8338500D01*
X22753000Y-8298500D02*
X22713000Y-8338500D01*
X8213600Y-4064000D02*
G75*
G03*
X8213600Y-4064000I-30000J0D01*
G01*
X8213600Y-14224000D02*
G75*
G03*
X8213600Y-14224000I-30000J0D01*
G01*
X8301468Y-3851868D02*
G75*
G03*
X8301468Y-3851868I-30000J0D01*
G01*
X8301468Y-4276132D02*
G75*
G03*
X8301468Y-4276132I-30000J0D01*
G01*
X8301468Y-14011868D02*
G75*
G03*
X8301468Y-14011868I-30000J0D01*
G01*
X8301468Y-14436132D02*
G75*
G03*
X8301468Y-14436132I-30000J0D01*
G01*
X8513600Y-3764000D02*
G75*
G03*
X8513600Y-3764000I-30000J0D01*
G01*
X8513600Y-4364000D02*
G75*
G03*
X8513600Y-4364000I-30000J0D01*
G01*
X8513600Y-13924000D02*
G75*
G03*
X8513600Y-13924000I-30000J0D01*
G01*
X8513600Y-14524000D02*
G75*
G03*
X8513600Y-14524000I-30000J0D01*
G01*
X8725732Y-3851868D02*
G75*
G03*
X8725732Y-3851868I-30000J0D01*
G01*
X8725732Y-4276132D02*
G75*
G03*
X8725732Y-4276132I-30000J0D01*
G01*
X8725732Y-14011868D02*
G75*
G03*
X8725732Y-14011868I-30000J0D01*
G01*
X8725732Y-14436132D02*
G75*
G03*
X8725732Y-14436132I-30000J0D01*
G01*
X8813600Y-4064000D02*
G75*
G03*
X8813600Y-4064000I-30000J0D01*
G01*
X8813600Y-14224000D02*
G75*
G03*
X8813600Y-14224000I-30000J0D01*
G01*
X22666200Y-4064000D02*
G75*
G03*
X22666200Y-4064000I-30000J0D01*
G01*
X22666200Y-14224000D02*
G75*
G03*
X22666200Y-14224000I-30000J0D01*
G01*
X22754068Y-3851868D02*
G75*
G03*
X22754068Y-3851868I-30000J0D01*
G01*
X22754068Y-4276132D02*
G75*
G03*
X22754068Y-4276132I-30000J0D01*
G01*
X22754068Y-14011868D02*
G75*
G03*
X22754068Y-14011868I-30000J0D01*
G01*
X22754068Y-14436132D02*
G75*
G03*
X22754068Y-14436132I-30000J0D01*
G01*
X22966200Y-3764000D02*
G75*
G03*
X22966200Y-3764000I-30000J0D01*
G01*
X22966200Y-4364000D02*
G75*
G03*
X22966200Y-4364000I-30000J0D01*
G01*
X22966200Y-13924000D02*
G75*
G03*
X22966200Y-13924000I-30000J0D01*
G01*
X22966200Y-14524000D02*
G75*
G03*
X22966200Y-14524000I-30000J0D01*
G01*
X23178332Y-3851868D02*
G75*
G03*
X23178332Y-3851868I-30000J0D01*
G01*
X23178332Y-4276132D02*
G75*
G03*
X23178332Y-4276132I-30000J0D01*
G01*
X23178332Y-14011868D02*
G75*
G03*
X23178332Y-14011868I-30000J0D01*
G01*
X23178332Y-14436132D02*
G75*
G03*
X23178332Y-14436132I-30000J0D01*
G01*
X23266200Y-4064000D02*
G75*
G03*
X23266200Y-4064000I-30000J0D01*
G01*
X23266200Y-14224000D02*
G75*
G03*
X23266200Y-14224000I-30000J0D01*
G01*
X5270500Y-10056500D02*
X5270500Y-10136500D01*
X5230500Y-10096500D02*
X5310500Y-10096500D01*
X5270500Y-10310500D02*
X5270500Y-10390500D01*
X5230500Y-10350500D02*
X5310500Y-10350500D01*
X5922400Y-11834500D02*
X5922400Y-11914500D01*
X5882400Y-11874500D02*
X5962400Y-11874500D01*
X5892400Y-11764500D02*
X5892400Y-11984500D01*
X5952400Y-11764500D02*
X5952400Y-11984500D01*
X5892400Y-11984500D02*
G75*
G03*
X5952400Y-11984500I30000J0D01*
G01*
X5952400Y-11764500D02*
G75*
G03*
X5892400Y-11764500I-30000J0D01*
G01*
X6032500Y-10056500D02*
X6032500Y-10136500D01*
X5992500Y-10096500D02*
X6072500Y-10096500D01*
X6032500Y-10310500D02*
X6032500Y-10390500D01*
X5992500Y-10350500D02*
X6072500Y-10350500D01*
X6202400Y-12314500D02*
X6202400Y-12394500D01*
X6162400Y-12354500D02*
X6242400Y-12354500D01*
X6092400Y-12384500D02*
X6312400Y-12384500D01*
X6092400Y-12324500D02*
X6312400Y-12324500D01*
X6312400Y-12384500D02*
G75*
G03*
X6312400Y-12324500I0J30000D01*
G01*
X6092400Y-12324500D02*
G75*
G03*
X6092400Y-12384500I0J-30000D01*
G01*
X6502400Y-11834500D02*
X6502400Y-11914500D01*
X6462400Y-11874500D02*
X6542400Y-11874500D01*
X6472400Y-11744500D02*
X6472400Y-12004500D01*
X6532400Y-11744500D02*
X6532400Y-12004500D01*
X6472400Y-12004500D02*
G75*
G03*
X6532400Y-12004500I30000J0D01*
G01*
X6532400Y-11744500D02*
G75*
G03*
X6472400Y-11744500I-30000J0D01*
G01*
X8572500Y-11453500D02*
X8572500Y-11533500D01*
X8532500Y-11493500D02*
X8612500Y-11493500D01*
X8572500Y-11703500D02*
X8572500Y-11783500D01*
X8532500Y-11743500D02*
X8612500Y-11743500D01*
X8572500Y-12156000D02*
X8572500Y-12236000D01*
X8532500Y-12196000D02*
X8612500Y-12196000D01*
X8572500Y-12406000D02*
X8572500Y-12486000D01*
X8532500Y-12446000D02*
X8612500Y-12446000D01*
X9652000Y-7580000D02*
X9652000Y-7660000D01*
X9612000Y-7620000D02*
X9692000Y-7620000D01*
X9652000Y-7834000D02*
X9652000Y-7914000D01*
X9612000Y-7874000D02*
X9692000Y-7874000D01*
X9652000Y-8088000D02*
X9652000Y-8168000D01*
X9612000Y-8128000D02*
X9692000Y-8128000D01*
X9652000Y-8342000D02*
X9652000Y-8422000D01*
X9612000Y-8382000D02*
X9692000Y-8382000D01*
X9652000Y-8596000D02*
X9652000Y-8676000D01*
X9612000Y-8636000D02*
X9692000Y-8636000D01*
X9652000Y-8850000D02*
X9652000Y-8930000D01*
X9612000Y-8890000D02*
X9692000Y-8890000D01*
X9652000Y-9104000D02*
X9652000Y-9184000D01*
X9612000Y-9144000D02*
X9692000Y-9144000D01*
X9652000Y-9358000D02*
X9652000Y-9438000D01*
X9612000Y-9398000D02*
X9692000Y-9398000D01*
X9652000Y-9789800D02*
X9652000Y-9869800D01*
X9612000Y-9829800D02*
X9692000Y-9829800D01*
X9652000Y-10043800D02*
X9652000Y-10123800D01*
X9612000Y-10083800D02*
X9692000Y-10083800D01*
X9652000Y-10297800D02*
X9652000Y-10377800D01*
X9612000Y-10337800D02*
X9692000Y-10337800D01*
X9652000Y-10551800D02*
X9652000Y-10631800D01*
X9612000Y-10591800D02*
X9692000Y-10591800D01*
X9652000Y-10805800D02*
X9652000Y-10885800D01*
X9612000Y-10845800D02*
X9692000Y-10845800D01*
X9652000Y-11059800D02*
X9652000Y-11139800D01*
X9612000Y-11099800D02*
X9692000Y-11099800D01*
X9652000Y-11313800D02*
X9652000Y-11393800D01*
X9612000Y-11353800D02*
X9692000Y-11353800D01*
X9652000Y-11567800D02*
X9652000Y-11647800D01*
X9612000Y-11607800D02*
X9692000Y-11607800D01*
X9842500Y-4278000D02*
X9842500Y-4358000D01*
X9802500Y-4318000D02*
X9882500Y-4318000D01*
X9842500Y-4532000D02*
X9842500Y-4612000D01*
X9802500Y-4572000D02*
X9882500Y-4572000D01*
X9842500Y-4786000D02*
X9842500Y-4866000D01*
X9802500Y-4826000D02*
X9882500Y-4826000D01*
X9842500Y-5040000D02*
X9842500Y-5120000D01*
X9802500Y-5080000D02*
X9882500Y-5080000D01*
X9842500Y-5294000D02*
X9842500Y-5374000D01*
X9802500Y-5334000D02*
X9882500Y-5334000D01*
X9842500Y-5548000D02*
X9842500Y-5628000D01*
X9802500Y-5588000D02*
X9882500Y-5588000D01*
X9842500Y-5802000D02*
X9842500Y-5882000D01*
X9802500Y-5842000D02*
X9882500Y-5842000D01*
X9842500Y-6056000D02*
X9842500Y-6136000D01*
X9802500Y-6096000D02*
X9882500Y-6096000D01*
X9842500Y-6310000D02*
X9842500Y-6390000D01*
X9802500Y-6350000D02*
X9882500Y-6350000D01*
X9842500Y-6564000D02*
X9842500Y-6644000D01*
X9802500Y-6604000D02*
X9882500Y-6604000D01*
X10033000Y-7072000D02*
X10033000Y-7152000D01*
X9993000Y-7112000D02*
X10073000Y-7112000D01*
X10350500Y-9739000D02*
X10350500Y-9819000D01*
X10310500Y-9779000D02*
X10390500Y-9779000D01*
X10350500Y-11009000D02*
X10350500Y-11089000D01*
X10310500Y-11049000D02*
X10390500Y-11049000D01*
X10533000Y-7072000D02*
X10533000Y-7152000D01*
X10493000Y-7112000D02*
X10573000Y-7112000D01*
X10545000Y-7834000D02*
X10545000Y-7914000D01*
X10505000Y-7874000D02*
X10585000Y-7874000D01*
X10604500Y-4278000D02*
X10604500Y-4358000D01*
X10564500Y-4318000D02*
X10644500Y-4318000D01*
X10604500Y-4532000D02*
X10604500Y-4612000D01*
X10564500Y-4572000D02*
X10644500Y-4572000D01*
X10604500Y-4786000D02*
X10604500Y-4866000D01*
X10564500Y-4826000D02*
X10644500Y-4826000D01*
X10604500Y-5040000D02*
X10604500Y-5120000D01*
X10564500Y-5080000D02*
X10644500Y-5080000D01*
X10604500Y-5294000D02*
X10604500Y-5374000D01*
X10564500Y-5334000D02*
X10644500Y-5334000D01*
X10604500Y-5548000D02*
X10604500Y-5628000D01*
X10564500Y-5588000D02*
X10644500Y-5588000D01*
X10604500Y-5802000D02*
X10604500Y-5882000D01*
X10564500Y-5842000D02*
X10644500Y-5842000D01*
X10604500Y-6056000D02*
X10604500Y-6136000D01*
X10564500Y-6096000D02*
X10644500Y-6096000D01*
X10604500Y-6310000D02*
X10604500Y-6390000D01*
X10564500Y-6350000D02*
X10644500Y-6350000D01*
X10604500Y-6564000D02*
X10604500Y-6644000D01*
X10564500Y-6604000D02*
X10644500Y-6604000D01*
X10795000Y-7834000D02*
X10795000Y-7914000D01*
X10755000Y-7874000D02*
X10835000Y-7874000D01*
X11874500Y-4278000D02*
X11874500Y-4358000D01*
X11834500Y-4318000D02*
X11914500Y-4318000D01*
X11874500Y-4532000D02*
X11874500Y-4612000D01*
X11834500Y-4572000D02*
X11914500Y-4572000D01*
X11874500Y-4786000D02*
X11874500Y-4866000D01*
X11834500Y-4826000D02*
X11914500Y-4826000D01*
X11874500Y-5040000D02*
X11874500Y-5120000D01*
X11834500Y-5080000D02*
X11914500Y-5080000D01*
X11874500Y-5294000D02*
X11874500Y-5374000D01*
X11834500Y-5334000D02*
X11914500Y-5334000D01*
X11874500Y-5548000D02*
X11874500Y-5628000D01*
X11834500Y-5588000D02*
X11914500Y-5588000D01*
X11874500Y-5802000D02*
X11874500Y-5882000D01*
X11834500Y-5842000D02*
X11914500Y-5842000D01*
X11874500Y-6310000D02*
X11874500Y-6390000D01*
X11834500Y-6350000D02*
X11914500Y-6350000D01*
X11874500Y-7072000D02*
X11874500Y-7152000D01*
X11834500Y-7112000D02*
X11914500Y-7112000D01*
X11874500Y-7326000D02*
X11874500Y-7406000D01*
X11834500Y-7366000D02*
X11914500Y-7366000D01*
X11874500Y-7580000D02*
X11874500Y-7660000D01*
X11834500Y-7620000D02*
X11914500Y-7620000D01*
X11874500Y-7834000D02*
X11874500Y-7914000D01*
X11834500Y-7874000D02*
X11914500Y-7874000D01*
X11874500Y-8088000D02*
X11874500Y-8168000D01*
X11834500Y-8128000D02*
X11914500Y-8128000D01*
X11874500Y-8342000D02*
X11874500Y-8422000D01*
X11834500Y-8382000D02*
X11914500Y-8382000D01*
X11874500Y-8596000D02*
X11874500Y-8676000D01*
X11834500Y-8636000D02*
X11914500Y-8636000D01*
X11874500Y-9104000D02*
X11874500Y-9184000D01*
X11834500Y-9144000D02*
X11914500Y-9144000D01*
X11874500Y-9739000D02*
X11874500Y-9819000D01*
X11834500Y-9779000D02*
X11914500Y-9779000D01*
X11874500Y-9993000D02*
X11874500Y-10073000D01*
X11834500Y-10033000D02*
X11914500Y-10033000D01*
X11874500Y-10247000D02*
X11874500Y-10327000D01*
X11834500Y-10287000D02*
X11914500Y-10287000D01*
X11874500Y-10501000D02*
X11874500Y-10581000D01*
X11834500Y-10541000D02*
X11914500Y-10541000D01*
X11874500Y-10755000D02*
X11874500Y-10835000D01*
X11834500Y-10795000D02*
X11914500Y-10795000D01*
X11874500Y-11009000D02*
X11874500Y-11089000D01*
X11834500Y-11049000D02*
X11914500Y-11049000D01*
X11874500Y-11263000D02*
X11874500Y-11343000D01*
X11834500Y-11303000D02*
X11914500Y-11303000D01*
X11874500Y-11517000D02*
X11874500Y-11597000D01*
X11834500Y-11557000D02*
X11914500Y-11557000D01*
X11874500Y-11961500D02*
X11874500Y-12041500D01*
X11834500Y-12001500D02*
X11914500Y-12001500D01*
X12374500Y-6310000D02*
X12374500Y-6390000D01*
X12334500Y-6350000D02*
X12414500Y-6350000D01*
X12374500Y-9104000D02*
X12374500Y-9184000D01*
X12334500Y-9144000D02*
X12414500Y-9144000D01*
X12374500Y-11961500D02*
X12374500Y-12041500D01*
X12334500Y-12001500D02*
X12414500Y-12001500D01*
X12636500Y-4278000D02*
X12636500Y-4358000D01*
X12596500Y-4318000D02*
X12676500Y-4318000D01*
X12636500Y-4532000D02*
X12636500Y-4612000D01*
X12596500Y-4572000D02*
X12676500Y-4572000D01*
X12636500Y-4786000D02*
X12636500Y-4866000D01*
X12596500Y-4826000D02*
X12676500Y-4826000D01*
X12636500Y-5040000D02*
X12636500Y-5120000D01*
X12596500Y-5080000D02*
X12676500Y-5080000D01*
X12636500Y-5294000D02*
X12636500Y-5374000D01*
X12596500Y-5334000D02*
X12676500Y-5334000D01*
X12636500Y-5548000D02*
X12636500Y-5628000D01*
X12596500Y-5588000D02*
X12676500Y-5588000D01*
X12636500Y-5802000D02*
X12636500Y-5882000D01*
X12596500Y-5842000D02*
X12676500Y-5842000D01*
X12636500Y-7072000D02*
X12636500Y-7152000D01*
X12596500Y-7112000D02*
X12676500Y-7112000D01*
X12636500Y-7326000D02*
X12636500Y-7406000D01*
X12596500Y-7366000D02*
X12676500Y-7366000D01*
X12636500Y-7580000D02*
X12636500Y-7660000D01*
X12596500Y-7620000D02*
X12676500Y-7620000D01*
X12636500Y-7834000D02*
X12636500Y-7914000D01*
X12596500Y-7874000D02*
X12676500Y-7874000D01*
X12636500Y-8088000D02*
X12636500Y-8168000D01*
X12596500Y-8128000D02*
X12676500Y-8128000D01*
X12636500Y-8342000D02*
X12636500Y-8422000D01*
X12596500Y-8382000D02*
X12676500Y-8382000D01*
X12636500Y-8596000D02*
X12636500Y-8676000D01*
X12596500Y-8636000D02*
X12676500Y-8636000D01*
X12636500Y-9739000D02*
X12636500Y-9819000D01*
X12596500Y-9779000D02*
X12676500Y-9779000D01*
X12636500Y-9993000D02*
X12636500Y-10073000D01*
X12596500Y-10033000D02*
X12676500Y-10033000D01*
X12636500Y-10247000D02*
X12636500Y-10327000D01*
X12596500Y-10287000D02*
X12676500Y-10287000D01*
X12636500Y-10501000D02*
X12636500Y-10581000D01*
X12596500Y-10541000D02*
X12676500Y-10541000D01*
X12636500Y-10755000D02*
X12636500Y-10835000D01*
X12596500Y-10795000D02*
X12676500Y-10795000D01*
X12636500Y-11009000D02*
X12636500Y-11089000D01*
X12596500Y-11049000D02*
X12676500Y-11049000D01*
X12636500Y-11263000D02*
X12636500Y-11343000D01*
X12596500Y-11303000D02*
X12676500Y-11303000D01*
X12636500Y-11517000D02*
X12636500Y-11597000D01*
X12596500Y-11557000D02*
X12676500Y-11557000D01*
X13906500Y-4278000D02*
X13906500Y-4358000D01*
X13866500Y-4318000D02*
X13946500Y-4318000D01*
X13906500Y-4532000D02*
X13906500Y-4612000D01*
X13866500Y-4572000D02*
X13946500Y-4572000D01*
X13906500Y-4786000D02*
X13906500Y-4866000D01*
X13866500Y-4826000D02*
X13946500Y-4826000D01*
X13906500Y-5040000D02*
X13906500Y-5120000D01*
X13866500Y-5080000D02*
X13946500Y-5080000D01*
X13906500Y-5294000D02*
X13906500Y-5374000D01*
X13866500Y-5334000D02*
X13946500Y-5334000D01*
X13906500Y-5548000D02*
X13906500Y-5628000D01*
X13866500Y-5588000D02*
X13946500Y-5588000D01*
X13906500Y-5802000D02*
X13906500Y-5882000D01*
X13866500Y-5842000D02*
X13946500Y-5842000D01*
X13906500Y-6310000D02*
X13906500Y-6390000D01*
X13866500Y-6350000D02*
X13946500Y-6350000D01*
X13906500Y-7072000D02*
X13906500Y-7152000D01*
X13866500Y-7112000D02*
X13946500Y-7112000D01*
X13906500Y-7326000D02*
X13906500Y-7406000D01*
X13866500Y-7366000D02*
X13946500Y-7366000D01*
X13906500Y-7580000D02*
X13906500Y-7660000D01*
X13866500Y-7620000D02*
X13946500Y-7620000D01*
X13906500Y-7834000D02*
X13906500Y-7914000D01*
X13866500Y-7874000D02*
X13946500Y-7874000D01*
X13906500Y-8088000D02*
X13906500Y-8168000D01*
X13866500Y-8128000D02*
X13946500Y-8128000D01*
X13906500Y-8342000D02*
X13906500Y-8422000D01*
X13866500Y-8382000D02*
X13946500Y-8382000D01*
X13906500Y-8596000D02*
X13906500Y-8676000D01*
X13866500Y-8636000D02*
X13946500Y-8636000D01*
X13906500Y-9104000D02*
X13906500Y-9184000D01*
X13866500Y-9144000D02*
X13946500Y-9144000D01*
X13906500Y-9866000D02*
X13906500Y-9946000D01*
X13866500Y-9906000D02*
X13946500Y-9906000D01*
X13906500Y-10120000D02*
X13906500Y-10200000D01*
X13866500Y-10160000D02*
X13946500Y-10160000D01*
X13906500Y-10374000D02*
X13906500Y-10454000D01*
X13866500Y-10414000D02*
X13946500Y-10414000D01*
X13906500Y-10628000D02*
X13906500Y-10708000D01*
X13866500Y-10668000D02*
X13946500Y-10668000D01*
X13906500Y-10882000D02*
X13906500Y-10962000D01*
X13866500Y-10922000D02*
X13946500Y-10922000D01*
X13906500Y-11136000D02*
X13906500Y-11216000D01*
X13866500Y-11176000D02*
X13946500Y-11176000D01*
X13906500Y-11390000D02*
X13906500Y-11470000D01*
X13866500Y-11430000D02*
X13946500Y-11430000D01*
X13906500Y-11961500D02*
X13906500Y-12041500D01*
X13866500Y-12001500D02*
X13946500Y-12001500D01*
X14406500Y-6310000D02*
X14406500Y-6390000D01*
X14366500Y-6350000D02*
X14446500Y-6350000D01*
X14406500Y-9104000D02*
X14406500Y-9184000D01*
X14366500Y-9144000D02*
X14446500Y-9144000D01*
X14406500Y-11961500D02*
X14406500Y-12041500D01*
X14366500Y-12001500D02*
X14446500Y-12001500D01*
X14414500Y-12406000D02*
X14414500Y-12486000D01*
X14374500Y-12446000D02*
X14454500Y-12446000D01*
X14414500Y-13676000D02*
X14414500Y-13756000D01*
X14374500Y-13716000D02*
X14454500Y-13716000D01*
X14668500Y-4278000D02*
X14668500Y-4358000D01*
X14628500Y-4318000D02*
X14708500Y-4318000D01*
X14668500Y-4532000D02*
X14668500Y-4612000D01*
X14628500Y-4572000D02*
X14708500Y-4572000D01*
X14668500Y-4786000D02*
X14668500Y-4866000D01*
X14628500Y-4826000D02*
X14708500Y-4826000D01*
X14668500Y-5040000D02*
X14668500Y-5120000D01*
X14628500Y-5080000D02*
X14708500Y-5080000D01*
X14668500Y-5294000D02*
X14668500Y-5374000D01*
X14628500Y-5334000D02*
X14708500Y-5334000D01*
X14668500Y-5548000D02*
X14668500Y-5628000D01*
X14628500Y-5588000D02*
X14708500Y-5588000D01*
X14668500Y-5802000D02*
X14668500Y-5882000D01*
X14628500Y-5842000D02*
X14708500Y-5842000D01*
X14668500Y-7072000D02*
X14668500Y-7152000D01*
X14628500Y-7112000D02*
X14708500Y-7112000D01*
X14668500Y-7326000D02*
X14668500Y-7406000D01*
X14628500Y-7366000D02*
X14708500Y-7366000D01*
X14668500Y-7580000D02*
X14668500Y-7660000D01*
X14628500Y-7620000D02*
X14708500Y-7620000D01*
X14668500Y-7834000D02*
X14668500Y-7914000D01*
X14628500Y-7874000D02*
X14708500Y-7874000D01*
X14668500Y-8088000D02*
X14668500Y-8168000D01*
X14628500Y-8128000D02*
X14708500Y-8128000D01*
X14668500Y-8342000D02*
X14668500Y-8422000D01*
X14628500Y-8382000D02*
X14708500Y-8382000D01*
X14668500Y-8596000D02*
X14668500Y-8676000D01*
X14628500Y-8636000D02*
X14708500Y-8636000D01*
X14668500Y-9866000D02*
X14668500Y-9946000D01*
X14628500Y-9906000D02*
X14708500Y-9906000D01*
X14668500Y-10120000D02*
X14668500Y-10200000D01*
X14628500Y-10160000D02*
X14708500Y-10160000D01*
X14668500Y-10374000D02*
X14668500Y-10454000D01*
X14628500Y-10414000D02*
X14708500Y-10414000D01*
X14668500Y-10628000D02*
X14668500Y-10708000D01*
X14628500Y-10668000D02*
X14708500Y-10668000D01*
X14668500Y-10882000D02*
X14668500Y-10962000D01*
X14628500Y-10922000D02*
X14708500Y-10922000D01*
X14668500Y-11136000D02*
X14668500Y-11216000D01*
X14628500Y-11176000D02*
X14708500Y-11176000D01*
X14668500Y-11390000D02*
X14668500Y-11470000D01*
X14628500Y-11430000D02*
X14708500Y-11430000D01*
X14795500Y-12406000D02*
X14795500Y-12486000D01*
X14755500Y-12446000D02*
X14835500Y-12446000D01*
X14795500Y-13676000D02*
X14795500Y-13756000D01*
X14755500Y-13716000D02*
X14835500Y-13716000D01*
X15176500Y-12406000D02*
X15176500Y-12486000D01*
X15136500Y-12446000D02*
X15216500Y-12446000D01*
X15176500Y-13676000D02*
X15176500Y-13756000D01*
X15136500Y-13716000D02*
X15216500Y-13716000D01*
X15367000Y-8342000D02*
X15367000Y-8422000D01*
X15327000Y-8382000D02*
X15407000Y-8382000D01*
X15367000Y-9612000D02*
X15367000Y-9692000D01*
X15327000Y-9652000D02*
X15407000Y-9652000D01*
X15811500Y-4532000D02*
X15811500Y-4612000D01*
X15771500Y-4572000D02*
X15851500Y-4572000D01*
X15811500Y-5040000D02*
X15811500Y-5120000D01*
X15771500Y-5080000D02*
X15851500Y-5080000D01*
X15811500Y-5294000D02*
X15811500Y-5374000D01*
X15771500Y-5334000D02*
X15851500Y-5334000D01*
X15811500Y-5548000D02*
X15811500Y-5628000D01*
X15771500Y-5588000D02*
X15851500Y-5588000D01*
X15811500Y-5802000D02*
X15811500Y-5882000D01*
X15771500Y-5842000D02*
X15851500Y-5842000D01*
X15811500Y-6056000D02*
X15811500Y-6136000D01*
X15771500Y-6096000D02*
X15851500Y-6096000D01*
X15811500Y-6310000D02*
X15811500Y-6390000D01*
X15771500Y-6350000D02*
X15851500Y-6350000D01*
X15811500Y-6564000D02*
X15811500Y-6644000D01*
X15771500Y-6604000D02*
X15851500Y-6604000D01*
X15811500Y-6818000D02*
X15811500Y-6898000D01*
X15771500Y-6858000D02*
X15851500Y-6858000D01*
X15811500Y-7072000D02*
X15811500Y-7152000D01*
X15771500Y-7112000D02*
X15851500Y-7112000D01*
X15811500Y-7326000D02*
X15811500Y-7406000D01*
X15771500Y-7366000D02*
X15851500Y-7366000D01*
X15811500Y-7580000D02*
X15811500Y-7660000D01*
X15771500Y-7620000D02*
X15851500Y-7620000D01*
X15811500Y-7834000D02*
X15811500Y-7914000D01*
X15771500Y-7874000D02*
X15851500Y-7874000D01*
X15811500Y-8088000D02*
X15811500Y-8168000D01*
X15771500Y-8128000D02*
X15851500Y-8128000D01*
X15811500Y-8342000D02*
X15811500Y-8422000D01*
X15771500Y-8382000D02*
X15851500Y-8382000D01*
X15811500Y-10120000D02*
X15811500Y-10200000D01*
X15771500Y-10160000D02*
X15851500Y-10160000D01*
X15811500Y-10374000D02*
X15811500Y-10454000D01*
X15771500Y-10414000D02*
X15851500Y-10414000D01*
X15811500Y-10628000D02*
X15811500Y-10708000D01*
X15771500Y-10668000D02*
X15851500Y-10668000D01*
X15811500Y-10882000D02*
X15811500Y-10962000D01*
X15771500Y-10922000D02*
X15851500Y-10922000D01*
X15811500Y-11136000D02*
X15811500Y-11216000D01*
X15771500Y-11176000D02*
X15851500Y-11176000D01*
X15811500Y-11390000D02*
X15811500Y-11470000D01*
X15771500Y-11430000D02*
X15851500Y-11430000D01*
X15811500Y-11644000D02*
X15811500Y-11724000D01*
X15771500Y-11684000D02*
X15851500Y-11684000D01*
X15811500Y-11898000D02*
X15811500Y-11978000D01*
X15771500Y-11938000D02*
X15851500Y-11938000D01*
X15811500Y-12152000D02*
X15811500Y-12232000D01*
X15771500Y-12192000D02*
X15851500Y-12192000D01*
X15811500Y-12406000D02*
X15811500Y-12486000D01*
X15771500Y-12446000D02*
X15851500Y-12446000D01*
X15811500Y-12660000D02*
X15811500Y-12740000D01*
X15771500Y-12700000D02*
X15851500Y-12700000D01*
X15811500Y-12914000D02*
X15811500Y-12994000D01*
X15771500Y-12954000D02*
X15851500Y-12954000D01*
X15811500Y-13168000D02*
X15811500Y-13248000D01*
X15771500Y-13208000D02*
X15851500Y-13208000D01*
X15811500Y-13422000D02*
X15811500Y-13502000D01*
X15771500Y-13462000D02*
X15851500Y-13462000D01*
X15811500Y-13942700D02*
X15811500Y-14022700D01*
X15771500Y-13982700D02*
X15851500Y-13982700D01*
X16311500Y-4532000D02*
X16311500Y-4612000D01*
X16271500Y-4572000D02*
X16351500Y-4572000D01*
X16311500Y-13942700D02*
X16311500Y-14022700D01*
X16271500Y-13982700D02*
X16351500Y-13982700D01*
X16700500Y-4278000D02*
X16700500Y-4358000D01*
X16660500Y-4318000D02*
X16740500Y-4318000D01*
X17335500Y-5040000D02*
X17335500Y-5120000D01*
X17295500Y-5080000D02*
X17375500Y-5080000D01*
X17335500Y-5294000D02*
X17335500Y-5374000D01*
X17295500Y-5334000D02*
X17375500Y-5334000D01*
X17335500Y-5548000D02*
X17335500Y-5628000D01*
X17295500Y-5588000D02*
X17375500Y-5588000D01*
X17335500Y-5802000D02*
X17335500Y-5882000D01*
X17295500Y-5842000D02*
X17375500Y-5842000D01*
X17335500Y-6056000D02*
X17335500Y-6136000D01*
X17295500Y-6096000D02*
X17375500Y-6096000D01*
X17335500Y-6310000D02*
X17335500Y-6390000D01*
X17295500Y-6350000D02*
X17375500Y-6350000D01*
X17335500Y-6564000D02*
X17335500Y-6644000D01*
X17295500Y-6604000D02*
X17375500Y-6604000D01*
X17335500Y-6818000D02*
X17335500Y-6898000D01*
X17295500Y-6858000D02*
X17375500Y-6858000D01*
X17335500Y-7072000D02*
X17335500Y-7152000D01*
X17295500Y-7112000D02*
X17375500Y-7112000D01*
X17335500Y-7326000D02*
X17335500Y-7406000D01*
X17295500Y-7366000D02*
X17375500Y-7366000D01*
X17335500Y-7580000D02*
X17335500Y-7660000D01*
X17295500Y-7620000D02*
X17375500Y-7620000D01*
X17335500Y-7834000D02*
X17335500Y-7914000D01*
X17295500Y-7874000D02*
X17375500Y-7874000D01*
X17335500Y-8088000D02*
X17335500Y-8168000D01*
X17295500Y-8128000D02*
X17375500Y-8128000D01*
X17335500Y-8342000D02*
X17335500Y-8422000D01*
X17295500Y-8382000D02*
X17375500Y-8382000D01*
X17335500Y-10120000D02*
X17335500Y-10200000D01*
X17295500Y-10160000D02*
X17375500Y-10160000D01*
X17335500Y-10374000D02*
X17335500Y-10454000D01*
X17295500Y-10414000D02*
X17375500Y-10414000D01*
X17335500Y-10628000D02*
X17335500Y-10708000D01*
X17295500Y-10668000D02*
X17375500Y-10668000D01*
X17335500Y-10882000D02*
X17335500Y-10962000D01*
X17295500Y-10922000D02*
X17375500Y-10922000D01*
X17335500Y-11136000D02*
X17335500Y-11216000D01*
X17295500Y-11176000D02*
X17375500Y-11176000D01*
X17335500Y-11390000D02*
X17335500Y-11470000D01*
X17295500Y-11430000D02*
X17375500Y-11430000D01*
X17335500Y-11644000D02*
X17335500Y-11724000D01*
X17295500Y-11684000D02*
X17375500Y-11684000D01*
X17335500Y-11898000D02*
X17335500Y-11978000D01*
X17295500Y-11938000D02*
X17375500Y-11938000D01*
X17335500Y-12152000D02*
X17335500Y-12232000D01*
X17295500Y-12192000D02*
X17375500Y-12192000D01*
X17335500Y-12406000D02*
X17335500Y-12486000D01*
X17295500Y-12446000D02*
X17375500Y-12446000D01*
X17335500Y-12660000D02*
X17335500Y-12740000D01*
X17295500Y-12700000D02*
X17375500Y-12700000D01*
X17335500Y-12914000D02*
X17335500Y-12994000D01*
X17295500Y-12954000D02*
X17375500Y-12954000D01*
X17335500Y-13168000D02*
X17335500Y-13248000D01*
X17295500Y-13208000D02*
X17375500Y-13208000D01*
X17335500Y-13422000D02*
X17335500Y-13502000D01*
X17295500Y-13462000D02*
X17375500Y-13462000D01*
X17970500Y-4278000D02*
X17970500Y-4358000D01*
X17930500Y-4318000D02*
X18010500Y-4318000D01*
X18351500Y-4278000D02*
X18351500Y-4358000D01*
X18311500Y-4318000D02*
X18391500Y-4318000D01*
X18351500Y-4532000D02*
X18351500Y-4612000D01*
X18311500Y-4572000D02*
X18391500Y-4572000D01*
X18351500Y-4786000D02*
X18351500Y-4866000D01*
X18311500Y-4826000D02*
X18391500Y-4826000D01*
X18351500Y-5040000D02*
X18351500Y-5120000D01*
X18311500Y-5080000D02*
X18391500Y-5080000D01*
X18351500Y-5294000D02*
X18351500Y-5374000D01*
X18311500Y-5334000D02*
X18391500Y-5334000D01*
X18351500Y-5548000D02*
X18351500Y-5628000D01*
X18311500Y-5588000D02*
X18391500Y-5588000D01*
X18351500Y-5802000D02*
X18351500Y-5882000D01*
X18311500Y-5842000D02*
X18391500Y-5842000D01*
X18351500Y-6056000D02*
X18351500Y-6136000D01*
X18311500Y-6096000D02*
X18391500Y-6096000D01*
X18351500Y-6310000D02*
X18351500Y-6390000D01*
X18311500Y-6350000D02*
X18391500Y-6350000D01*
X18351500Y-6564000D02*
X18351500Y-6644000D01*
X18311500Y-6604000D02*
X18391500Y-6604000D01*
X18351500Y-6818000D02*
X18351500Y-6898000D01*
X18311500Y-6858000D02*
X18391500Y-6858000D01*
X18351500Y-7072000D02*
X18351500Y-7152000D01*
X18311500Y-7112000D02*
X18391500Y-7112000D01*
X18351500Y-7326000D02*
X18351500Y-7406000D01*
X18311500Y-7366000D02*
X18391500Y-7366000D01*
X18351500Y-7580000D02*
X18351500Y-7660000D01*
X18311500Y-7620000D02*
X18391500Y-7620000D01*
X18351500Y-7834000D02*
X18351500Y-7914000D01*
X18311500Y-7874000D02*
X18391500Y-7874000D01*
X18351500Y-8088000D02*
X18351500Y-8168000D01*
X18311500Y-8128000D02*
X18391500Y-8128000D01*
X18351500Y-8342000D02*
X18351500Y-8422000D01*
X18311500Y-8382000D02*
X18391500Y-8382000D01*
X18351500Y-8596000D02*
X18351500Y-8676000D01*
X18311500Y-8636000D02*
X18391500Y-8636000D01*
X18351500Y-8850000D02*
X18351500Y-8930000D01*
X18311500Y-8890000D02*
X18391500Y-8890000D01*
X18351500Y-9104000D02*
X18351500Y-9184000D01*
X18311500Y-9144000D02*
X18391500Y-9144000D01*
X18351500Y-10120000D02*
X18351500Y-10200000D01*
X18311500Y-10160000D02*
X18391500Y-10160000D01*
X18351500Y-10374000D02*
X18351500Y-10454000D01*
X18311500Y-10414000D02*
X18391500Y-10414000D01*
X18351500Y-10628000D02*
X18351500Y-10708000D01*
X18311500Y-10668000D02*
X18391500Y-10668000D01*
X18351500Y-10882000D02*
X18351500Y-10962000D01*
X18311500Y-10922000D02*
X18391500Y-10922000D01*
X18351500Y-11136000D02*
X18351500Y-11216000D01*
X18311500Y-11176000D02*
X18391500Y-11176000D01*
X18351500Y-11390000D02*
X18351500Y-11470000D01*
X18311500Y-11430000D02*
X18391500Y-11430000D01*
X18351500Y-11644000D02*
X18351500Y-11724000D01*
X18311500Y-11684000D02*
X18391500Y-11684000D01*
X18351500Y-11898000D02*
X18351500Y-11978000D01*
X18311500Y-11938000D02*
X18391500Y-11938000D01*
X18351500Y-12152000D02*
X18351500Y-12232000D01*
X18311500Y-12192000D02*
X18391500Y-12192000D01*
X18351500Y-12406000D02*
X18351500Y-12486000D01*
X18311500Y-12446000D02*
X18391500Y-12446000D01*
X18351500Y-12660000D02*
X18351500Y-12740000D01*
X18311500Y-12700000D02*
X18391500Y-12700000D01*
X18351500Y-12914000D02*
X18351500Y-12994000D01*
X18311500Y-12954000D02*
X18391500Y-12954000D01*
X18351500Y-13168000D02*
X18351500Y-13248000D01*
X18311500Y-13208000D02*
X18391500Y-13208000D01*
X18351500Y-13422000D02*
X18351500Y-13502000D01*
X18311500Y-13462000D02*
X18391500Y-13462000D01*
X18351500Y-13917300D02*
X18351500Y-13997300D01*
X18311500Y-13957300D02*
X18391500Y-13957300D01*
X18351500Y-14298300D02*
X18351500Y-14378300D01*
X18311500Y-14338300D02*
X18391500Y-14338300D01*
X18851500Y-13917300D02*
X18851500Y-13997300D01*
X18811500Y-13957300D02*
X18891500Y-13957300D01*
X19375500Y-9612000D02*
X19375500Y-9692000D01*
X19335500Y-9652000D02*
X19415500Y-9652000D01*
X19621500Y-14298300D02*
X19621500Y-14378300D01*
X19581500Y-14338300D02*
X19661500Y-14338300D01*
X19875500Y-4278000D02*
X19875500Y-4358000D01*
X19835500Y-4318000D02*
X19915500Y-4318000D01*
X19875500Y-4532000D02*
X19875500Y-4612000D01*
X19835500Y-4572000D02*
X19915500Y-4572000D01*
X19875500Y-4786000D02*
X19875500Y-4866000D01*
X19835500Y-4826000D02*
X19915500Y-4826000D01*
X19875500Y-5040000D02*
X19875500Y-5120000D01*
X19835500Y-5080000D02*
X19915500Y-5080000D01*
X19875500Y-5294000D02*
X19875500Y-5374000D01*
X19835500Y-5334000D02*
X19915500Y-5334000D01*
X19875500Y-5548000D02*
X19875500Y-5628000D01*
X19835500Y-5588000D02*
X19915500Y-5588000D01*
X19875500Y-5802000D02*
X19875500Y-5882000D01*
X19835500Y-5842000D02*
X19915500Y-5842000D01*
X19875500Y-6056000D02*
X19875500Y-6136000D01*
X19835500Y-6096000D02*
X19915500Y-6096000D01*
X19875500Y-6310000D02*
X19875500Y-6390000D01*
X19835500Y-6350000D02*
X19915500Y-6350000D01*
X19875500Y-6564000D02*
X19875500Y-6644000D01*
X19835500Y-6604000D02*
X19915500Y-6604000D01*
X19875500Y-6818000D02*
X19875500Y-6898000D01*
X19835500Y-6858000D02*
X19915500Y-6858000D01*
X19875500Y-7072000D02*
X19875500Y-7152000D01*
X19835500Y-7112000D02*
X19915500Y-7112000D01*
X19875500Y-7326000D02*
X19875500Y-7406000D01*
X19835500Y-7366000D02*
X19915500Y-7366000D01*
X19875500Y-7580000D02*
X19875500Y-7660000D01*
X19835500Y-7620000D02*
X19915500Y-7620000D01*
X19875500Y-7834000D02*
X19875500Y-7914000D01*
X19835500Y-7874000D02*
X19915500Y-7874000D01*
X19875500Y-8088000D02*
X19875500Y-8168000D01*
X19835500Y-8128000D02*
X19915500Y-8128000D01*
X19875500Y-8342000D02*
X19875500Y-8422000D01*
X19835500Y-8382000D02*
X19915500Y-8382000D01*
X19875500Y-8596000D02*
X19875500Y-8676000D01*
X19835500Y-8636000D02*
X19915500Y-8636000D01*
X19875500Y-8850000D02*
X19875500Y-8930000D01*
X19835500Y-8890000D02*
X19915500Y-8890000D01*
X19875500Y-9104000D02*
X19875500Y-9184000D01*
X19835500Y-9144000D02*
X19915500Y-9144000D01*
X19875500Y-9612000D02*
X19875500Y-9692000D01*
X19835500Y-9652000D02*
X19915500Y-9652000D01*
X19875500Y-10120000D02*
X19875500Y-10200000D01*
X19835500Y-10160000D02*
X19915500Y-10160000D01*
X19875500Y-10374000D02*
X19875500Y-10454000D01*
X19835500Y-10414000D02*
X19915500Y-10414000D01*
X19875500Y-10628000D02*
X19875500Y-10708000D01*
X19835500Y-10668000D02*
X19915500Y-10668000D01*
X19875500Y-10882000D02*
X19875500Y-10962000D01*
X19835500Y-10922000D02*
X19915500Y-10922000D01*
X19875500Y-11136000D02*
X19875500Y-11216000D01*
X19835500Y-11176000D02*
X19915500Y-11176000D01*
X19875500Y-11390000D02*
X19875500Y-11470000D01*
X19835500Y-11430000D02*
X19915500Y-11430000D01*
X19875500Y-11644000D02*
X19875500Y-11724000D01*
X19835500Y-11684000D02*
X19915500Y-11684000D01*
X19875500Y-11898000D02*
X19875500Y-11978000D01*
X19835500Y-11938000D02*
X19915500Y-11938000D01*
X19875500Y-12152000D02*
X19875500Y-12232000D01*
X19835500Y-12192000D02*
X19915500Y-12192000D01*
X19875500Y-12406000D02*
X19875500Y-12486000D01*
X19835500Y-12446000D02*
X19915500Y-12446000D01*
X19875500Y-12660000D02*
X19875500Y-12740000D01*
X19835500Y-12700000D02*
X19915500Y-12700000D01*
X19875500Y-12914000D02*
X19875500Y-12994000D01*
X19835500Y-12954000D02*
X19915500Y-12954000D01*
X19875500Y-13168000D02*
X19875500Y-13248000D01*
X19835500Y-13208000D02*
X19915500Y-13208000D01*
X19875500Y-13422000D02*
X19875500Y-13502000D01*
X19835500Y-13462000D02*
X19915500Y-13462000D01*
X20320000Y-4024000D02*
X20320000Y-4104000D01*
X20280000Y-4064000D02*
X20360000Y-4064000D01*
X20320000Y-5294000D02*
X20320000Y-5374000D01*
X20280000Y-5334000D02*
X20360000Y-5334000D01*
X20320000Y-6564000D02*
X20320000Y-6644000D01*
X20280000Y-6604000D02*
X20360000Y-6604000D01*
X20320000Y-7834000D02*
X20320000Y-7914000D01*
X20280000Y-7874000D02*
X20360000Y-7874000D01*
X20455000Y-8659500D02*
X20455000Y-8739500D01*
X20415000Y-8699500D02*
X20495000Y-8699500D01*
X20637500Y-9104000D02*
X20637500Y-9184000D01*
X20597500Y-9144000D02*
X20677500Y-9144000D01*
X20637500Y-9358000D02*
X20637500Y-9438000D01*
X20597500Y-9398000D02*
X20677500Y-9398000D01*
X20637500Y-9612000D02*
X20637500Y-9692000D01*
X20597500Y-9652000D02*
X20677500Y-9652000D01*
X20637500Y-9866000D02*
X20637500Y-9946000D01*
X20597500Y-9906000D02*
X20677500Y-9906000D01*
X20637500Y-10120000D02*
X20637500Y-10200000D01*
X20597500Y-10160000D02*
X20677500Y-10160000D01*
X20637500Y-10374000D02*
X20637500Y-10454000D01*
X20597500Y-10414000D02*
X20677500Y-10414000D01*
X20637500Y-10628000D02*
X20637500Y-10708000D01*
X20597500Y-10668000D02*
X20677500Y-10668000D01*
X20637500Y-10882000D02*
X20637500Y-10962000D01*
X20597500Y-10922000D02*
X20677500Y-10922000D01*
X20637500Y-11136000D02*
X20637500Y-11216000D01*
X20597500Y-11176000D02*
X20677500Y-11176000D01*
X20637500Y-11390000D02*
X20637500Y-11470000D01*
X20597500Y-11430000D02*
X20677500Y-11430000D01*
X20637500Y-11644000D02*
X20637500Y-11724000D01*
X20597500Y-11684000D02*
X20677500Y-11684000D01*
X20637500Y-11898000D02*
X20637500Y-11978000D01*
X20597500Y-11938000D02*
X20677500Y-11938000D01*
X20637500Y-12152000D02*
X20637500Y-12232000D01*
X20597500Y-12192000D02*
X20677500Y-12192000D01*
X20637500Y-12406000D02*
X20637500Y-12486000D01*
X20597500Y-12446000D02*
X20677500Y-12446000D01*
X20637500Y-12660000D02*
X20637500Y-12740000D01*
X20597500Y-12700000D02*
X20677500Y-12700000D01*
X20637500Y-12914000D02*
X20637500Y-12994000D01*
X20597500Y-12954000D02*
X20677500Y-12954000D01*
X20637500Y-13168000D02*
X20637500Y-13248000D01*
X20597500Y-13208000D02*
X20677500Y-13208000D01*
X20637500Y-13422000D02*
X20637500Y-13502000D01*
X20597500Y-13462000D02*
X20677500Y-13462000D01*
X20637500Y-13676000D02*
X20637500Y-13756000D01*
X20597500Y-13716000D02*
X20677500Y-13716000D01*
X20637500Y-13930000D02*
X20637500Y-14010000D01*
X20597500Y-13970000D02*
X20677500Y-13970000D01*
X20701000Y-6564000D02*
X20701000Y-6644000D01*
X20661000Y-6604000D02*
X20741000Y-6604000D01*
X20701000Y-7834000D02*
X20701000Y-7914000D01*
X20661000Y-7874000D02*
X20741000Y-7874000D01*
X20828000Y-5040000D02*
X20828000Y-5120000D01*
X20788000Y-5080000D02*
X20868000Y-5080000D01*
X20828000Y-6310000D02*
X20828000Y-6390000D01*
X20788000Y-6350000D02*
X20868000Y-6350000D01*
X20955000Y-8659500D02*
X20955000Y-8739500D01*
X20915000Y-8699500D02*
X20995000Y-8699500D01*
X21082000Y-7160900D02*
X21082000Y-7240900D01*
X21042000Y-7200900D02*
X21122000Y-7200900D01*
X21082000Y-7660900D02*
X21082000Y-7740900D01*
X21042000Y-7700900D02*
X21122000Y-7700900D01*
X21209000Y-4032000D02*
X21209000Y-4112000D01*
X21169000Y-4072000D02*
X21249000Y-4072000D01*
X21209000Y-4532000D02*
X21209000Y-4612000D01*
X21169000Y-4572000D02*
X21249000Y-4572000D01*
X21209000Y-8278500D02*
X21209000Y-8358500D01*
X21169000Y-8318500D02*
X21249000Y-8318500D01*
X21209000Y-8659500D02*
X21209000Y-8739500D01*
X21169000Y-8699500D02*
X21249000Y-8699500D01*
X21272500Y-5040000D02*
X21272500Y-5120000D01*
X21232500Y-5080000D02*
X21312500Y-5080000D01*
X21272500Y-6310000D02*
X21272500Y-6390000D01*
X21232500Y-6350000D02*
X21312500Y-6350000D01*
X21463000Y-7160900D02*
X21463000Y-7240900D01*
X21423000Y-7200900D02*
X21503000Y-7200900D01*
X21463000Y-7922900D02*
X21463000Y-8002900D01*
X21423000Y-7962900D02*
X21503000Y-7962900D01*
X21717000Y-4032000D02*
X21717000Y-4112000D01*
X21677000Y-4072000D02*
X21757000Y-4072000D01*
X21717000Y-4532000D02*
X21717000Y-4612000D01*
X21677000Y-4572000D02*
X21757000Y-4572000D01*
X21717000Y-5040000D02*
X21717000Y-5120000D01*
X21677000Y-5080000D02*
X21757000Y-5080000D01*
X21717000Y-6310000D02*
X21717000Y-6390000D01*
X21677000Y-6350000D02*
X21757000Y-6350000D01*
X21717000Y-6792600D02*
X21717000Y-6872600D01*
X21677000Y-6832600D02*
X21757000Y-6832600D01*
X21717000Y-7160900D02*
X21717000Y-7240900D01*
X21677000Y-7200900D02*
X21757000Y-7200900D01*
X21717000Y-7922900D02*
X21717000Y-8002900D01*
X21677000Y-7962900D02*
X21757000Y-7962900D01*
X21971000Y-7160900D02*
X21971000Y-7240900D01*
X21931000Y-7200900D02*
X22011000Y-7200900D01*
X21971000Y-7922900D02*
X21971000Y-8002900D01*
X21931000Y-7962900D02*
X22011000Y-7962900D01*
X22161500Y-9104000D02*
X22161500Y-9184000D01*
X22121500Y-9144000D02*
X22201500Y-9144000D01*
X22161500Y-9358000D02*
X22161500Y-9438000D01*
X22121500Y-9398000D02*
X22201500Y-9398000D01*
X22161500Y-9612000D02*
X22161500Y-9692000D01*
X22121500Y-9652000D02*
X22201500Y-9652000D01*
X22161500Y-9866000D02*
X22161500Y-9946000D01*
X22121500Y-9906000D02*
X22201500Y-9906000D01*
X22161500Y-10120000D02*
X22161500Y-10200000D01*
X22121500Y-10160000D02*
X22201500Y-10160000D01*
X22161500Y-10374000D02*
X22161500Y-10454000D01*
X22121500Y-10414000D02*
X22201500Y-10414000D01*
X22161500Y-10628000D02*
X22161500Y-10708000D01*
X22121500Y-10668000D02*
X22201500Y-10668000D01*
X22161500Y-10882000D02*
X22161500Y-10962000D01*
X22121500Y-10922000D02*
X22201500Y-10922000D01*
X22161500Y-11136000D02*
X22161500Y-11216000D01*
X22121500Y-11176000D02*
X22201500Y-11176000D01*
X22161500Y-11390000D02*
X22161500Y-11470000D01*
X22121500Y-11430000D02*
X22201500Y-11430000D01*
X22161500Y-11644000D02*
X22161500Y-11724000D01*
X22121500Y-11684000D02*
X22201500Y-11684000D01*
X22161500Y-11898000D02*
X22161500Y-11978000D01*
X22121500Y-11938000D02*
X22201500Y-11938000D01*
X22161500Y-12152000D02*
X22161500Y-12232000D01*
X22121500Y-12192000D02*
X22201500Y-12192000D01*
X22161500Y-12406000D02*
X22161500Y-12486000D01*
X22121500Y-12446000D02*
X22201500Y-12446000D01*
X22161500Y-12660000D02*
X22161500Y-12740000D01*
X22121500Y-12700000D02*
X22201500Y-12700000D01*
X22161500Y-12914000D02*
X22161500Y-12994000D01*
X22121500Y-12954000D02*
X22201500Y-12954000D01*
X22161500Y-13168000D02*
X22161500Y-13248000D01*
X22121500Y-13208000D02*
X22201500Y-13208000D01*
X22161500Y-13422000D02*
X22161500Y-13502000D01*
X22121500Y-13462000D02*
X22201500Y-13462000D01*
X22161500Y-13676000D02*
X22161500Y-13756000D01*
X22121500Y-13716000D02*
X22201500Y-13716000D01*
X22161500Y-13930000D02*
X22161500Y-14010000D01*
X22121500Y-13970000D02*
X22201500Y-13970000D01*
X22225000Y-7160900D02*
X22225000Y-7240900D01*
X22185000Y-7200900D02*
X22265000Y-7200900D01*
X22225000Y-7922900D02*
X22225000Y-8002900D01*
X22185000Y-7962900D02*
X22265000Y-7962900D01*
X22479000Y-7160900D02*
X22479000Y-7240900D01*
X22439000Y-7200900D02*
X22519000Y-7200900D01*
X22479000Y-7922900D02*
X22479000Y-8002900D01*
X22439000Y-7962900D02*
X22519000Y-7962900D01*
X22479000Y-8278500D02*
X22479000Y-8358500D01*
X22439000Y-8318500D02*
X22519000Y-8318500D01*
X22479000Y-8659500D02*
X22479000Y-8739500D01*
X22439000Y-8699500D02*
X22519000Y-8699500D01*
X22669500Y-10628000D02*
X22669500Y-10708000D01*
X22629500Y-10668000D02*
X22709500Y-10668000D01*
X22669500Y-11898000D02*
X22669500Y-11978000D01*
X22629500Y-11938000D02*
X22709500Y-11938000D01*
X22733000Y-7160900D02*
X22733000Y-7240900D01*
X22693000Y-7200900D02*
X22773000Y-7200900D01*
X22733000Y-7922900D02*
X22733000Y-8002900D01*
X22693000Y-7962900D02*
X22773000Y-7962900D01*
X22923500Y-8532500D02*
X22923500Y-8612500D01*
X22883500Y-8572500D02*
X22963500Y-8572500D01*
X22923500Y-8786500D02*
X22923500Y-8866500D01*
X22883500Y-8826500D02*
X22963500Y-8826500D01*
X22923500Y-9040500D02*
X22923500Y-9120500D01*
X22883500Y-9080500D02*
X22963500Y-9080500D01*
X22923500Y-9294500D02*
X22923500Y-9374500D01*
X22883500Y-9334500D02*
X22963500Y-9334500D01*
X22923500Y-9548500D02*
X22923500Y-9628500D01*
X22883500Y-9588500D02*
X22963500Y-9588500D01*
X22923500Y-9802500D02*
X22923500Y-9882500D01*
X22883500Y-9842500D02*
X22963500Y-9842500D01*
X22923500Y-10056500D02*
X22923500Y-10136500D01*
X22883500Y-10096500D02*
X22963500Y-10096500D01*
X22987000Y-6792600D02*
X22987000Y-6872600D01*
X22947000Y-6832600D02*
X23027000Y-6832600D01*
X22987000Y-7160900D02*
X22987000Y-7240900D01*
X22947000Y-7200900D02*
X23027000Y-7200900D01*
X22987000Y-7922900D02*
X22987000Y-8002900D01*
X22947000Y-7962900D02*
X23027000Y-7962900D01*
X23050500Y-10628000D02*
X23050500Y-10708000D01*
X23010500Y-10668000D02*
X23090500Y-10668000D01*
X23050500Y-11898000D02*
X23050500Y-11978000D01*
X23010500Y-11938000D02*
X23090500Y-11938000D01*
X7401356Y-4162856D02*
X7401356Y-4092144D01*
X7330644Y-4092144D01*
X7330644Y-4162856D01*
X7401356Y-4162856D01*
X7401356Y-4416856D02*
X7401356Y-4346144D01*
X7330644Y-4346144D01*
X7330644Y-4416856D01*
X7401356Y-4416856D01*
X7401356Y-4670856D02*
X7401356Y-4600144D01*
X7330644Y-4600144D01*
X7330644Y-4670856D01*
X7401356Y-4670856D01*
X7401356Y-4924856D02*
X7401356Y-4854144D01*
X7330644Y-4854144D01*
X7330644Y-4924856D01*
X7401356Y-4924856D01*
X7401356Y-5178856D02*
X7401356Y-5108144D01*
X7330644Y-5108144D01*
X7330644Y-5178856D01*
X7401356Y-5178856D01*
X7401356Y-5432856D02*
X7401356Y-5362144D01*
X7330644Y-5362144D01*
X7330644Y-5432856D01*
X7401356Y-5432856D01*
X7655356Y-7020356D02*
X7655356Y-6949644D01*
X7584644Y-6949644D01*
X7584644Y-7020356D01*
X7655356Y-7020356D01*
X7655356Y-7274356D02*
X7655356Y-7203644D01*
X7584644Y-7203644D01*
X7584644Y-7274356D01*
X7655356Y-7274356D01*
X7655356Y-7528356D02*
X7655356Y-7457644D01*
X7584644Y-7457644D01*
X7584644Y-7528356D01*
X7655356Y-7528356D01*
X7655356Y-7782356D02*
X7655356Y-7711644D01*
X7584644Y-7711644D01*
X7584644Y-7782356D01*
X7655356Y-7782356D01*
X7655356Y-8036356D02*
X7655356Y-7965644D01*
X7584644Y-7965644D01*
X7584644Y-8036356D01*
X7655356Y-8036356D01*
X7655356Y-8290356D02*
X7655356Y-8219644D01*
X7584644Y-8219644D01*
X7584644Y-8290356D01*
X7655356Y-8290356D01*
X7655356Y-8544356D02*
X7655356Y-8473644D01*
X7584644Y-8473644D01*
X7584644Y-8544356D01*
X7655356Y-8544356D01*
X7655356Y-8798356D02*
X7655356Y-8727644D01*
X7584644Y-8727644D01*
X7584644Y-8798356D01*
X7655356Y-8798356D01*
X7655356Y-9052356D02*
X7655356Y-8981644D01*
X7584644Y-8981644D01*
X7584644Y-9052356D01*
X7655356Y-9052356D01*
X7655356Y-9306356D02*
X7655356Y-9235644D01*
X7584644Y-9235644D01*
X7584644Y-9306356D01*
X7655356Y-9306356D01*
X7655356Y-9560356D02*
X7655356Y-9489644D01*
X7584644Y-9489644D01*
X7584644Y-9560356D01*
X7655356Y-9560356D01*
X7655356Y-9814356D02*
X7655356Y-9743644D01*
X7584644Y-9743644D01*
X7584644Y-9814356D01*
X7655356Y-9814356D01*
X7655356Y-10068356D02*
X7655356Y-9997644D01*
X7584644Y-9997644D01*
X7584644Y-10068356D01*
X7655356Y-10068356D01*
X7655356Y-10322356D02*
X7655356Y-10251644D01*
X7584644Y-10251644D01*
X7584644Y-10322356D01*
X7655356Y-10322356D01*
X7655356Y-10576356D02*
X7655356Y-10505644D01*
X7584644Y-10505644D01*
X7584644Y-10576356D01*
X7655356Y-10576356D01*
X7655356Y-10830356D02*
X7655356Y-10759644D01*
X7584644Y-10759644D01*
X7584644Y-10830356D01*
X7655356Y-10830356D01*
X7655356Y-11084356D02*
X7655356Y-11013644D01*
X7584644Y-11013644D01*
X7584644Y-11084356D01*
X7655356Y-11084356D01*
X7909356Y-4861356D02*
X7909356Y-4790644D01*
X7838644Y-4790644D01*
X7838644Y-4861356D01*
X7909356Y-4861356D01*
X7909356Y-5305856D02*
X7909356Y-5235144D01*
X7838644Y-5235144D01*
X7838644Y-5305856D01*
X7909356Y-5305856D01*
X7909356Y-5750356D02*
X7909356Y-5679644D01*
X7838644Y-5679644D01*
X7838644Y-5750356D01*
X7909356Y-5750356D01*
X7909356Y-6194856D02*
X7909356Y-6124144D01*
X7838644Y-6124144D01*
X7838644Y-6194856D01*
X7909356Y-6194856D01*
X7909356Y-7020356D02*
X7909356Y-6949644D01*
X7838644Y-6949644D01*
X7838644Y-7020356D01*
X7909356Y-7020356D01*
X7909356Y-7274356D02*
X7909356Y-7203644D01*
X7838644Y-7203644D01*
X7838644Y-7274356D01*
X7909356Y-7274356D01*
X7909356Y-7528356D02*
X7909356Y-7457644D01*
X7838644Y-7457644D01*
X7838644Y-7528356D01*
X7909356Y-7528356D01*
X7909356Y-7782356D02*
X7909356Y-7711644D01*
X7838644Y-7711644D01*
X7838644Y-7782356D01*
X7909356Y-7782356D01*
X7909356Y-8036356D02*
X7909356Y-7965644D01*
X7838644Y-7965644D01*
X7838644Y-8036356D01*
X7909356Y-8036356D01*
X7909356Y-8290356D02*
X7909356Y-8219644D01*
X7838644Y-8219644D01*
X7838644Y-8290356D01*
X7909356Y-8290356D01*
X7909356Y-8544356D02*
X7909356Y-8473644D01*
X7838644Y-8473644D01*
X7838644Y-8544356D01*
X7909356Y-8544356D01*
X7909356Y-8798356D02*
X7909356Y-8727644D01*
X7838644Y-8727644D01*
X7838644Y-8798356D01*
X7909356Y-8798356D01*
X7909356Y-9052356D02*
X7909356Y-8981644D01*
X7838644Y-8981644D01*
X7838644Y-9052356D01*
X7909356Y-9052356D01*
X7909356Y-9306356D02*
X7909356Y-9235644D01*
X7838644Y-9235644D01*
X7838644Y-9306356D01*
X7909356Y-9306356D01*
X7909356Y-9560356D02*
X7909356Y-9489644D01*
X7838644Y-9489644D01*
X7838644Y-9560356D01*
X7909356Y-9560356D01*
X7909356Y-9814356D02*
X7909356Y-9743644D01*
X7838644Y-9743644D01*
X7838644Y-9814356D01*
X7909356Y-9814356D01*
X7909356Y-10068356D02*
X7909356Y-9997644D01*
X7838644Y-9997644D01*
X7838644Y-10068356D01*
X7909356Y-10068356D01*
X7909356Y-10322356D02*
X7909356Y-10251644D01*
X7838644Y-10251644D01*
X7838644Y-10322356D01*
X7909356Y-10322356D01*
X7909356Y-10576356D02*
X7909356Y-10505644D01*
X7838644Y-10505644D01*
X7838644Y-10576356D01*
X7909356Y-10576356D01*
X7909356Y-10830356D02*
X7909356Y-10759644D01*
X7838644Y-10759644D01*
X7838644Y-10830356D01*
X7909356Y-10830356D01*
X7909356Y-11084356D02*
X7909356Y-11013644D01*
X7838644Y-11013644D01*
X7838644Y-11084356D01*
X7909356Y-11084356D01*
X8163356Y-4861356D02*
X8163356Y-4790644D01*
X8092644Y-4790644D01*
X8092644Y-4861356D01*
X8163356Y-4861356D01*
X8163356Y-5305856D02*
X8163356Y-5235144D01*
X8092644Y-5235144D01*
X8092644Y-5305856D01*
X8163356Y-5305856D01*
X8163356Y-5750356D02*
X8163356Y-5679644D01*
X8092644Y-5679644D01*
X8092644Y-5750356D01*
X8163356Y-5750356D01*
X8163356Y-6194856D02*
X8163356Y-6124144D01*
X8092644Y-6124144D01*
X8092644Y-6194856D01*
X8163356Y-6194856D01*
X8417356Y-4861356D02*
X8417356Y-4790644D01*
X8346644Y-4790644D01*
X8346644Y-4861356D01*
X8417356Y-4861356D01*
X8417356Y-5305856D02*
X8417356Y-5235144D01*
X8346644Y-5235144D01*
X8346644Y-5305856D01*
X8417356Y-5305856D01*
X8417356Y-5750356D02*
X8417356Y-5679644D01*
X8346644Y-5679644D01*
X8346644Y-5750356D01*
X8417356Y-5750356D01*
X8417356Y-6194856D02*
X8417356Y-6124144D01*
X8346644Y-6124144D01*
X8346644Y-6194856D01*
X8417356Y-6194856D01*
X16862856Y-14373656D02*
X16862856Y-14302944D01*
X16792144Y-14302944D01*
X16792144Y-14373656D01*
X16862856Y-14373656D01*
X17116856Y-14373656D02*
X17116856Y-14302944D01*
X17046144Y-14302944D01*
X17046144Y-14373656D01*
X17116856Y-14373656D01*
X17370856Y-14373656D02*
X17370856Y-14302944D01*
X17300144Y-14302944D01*
X17300144Y-14373656D01*
X17370856Y-14373656D01*
X19987056Y-14373656D02*
X19987056Y-14302944D01*
X19916344Y-14302944D01*
X19916344Y-14373656D01*
X19987056Y-14373656D01*
X20241056Y-14373656D02*
X20241056Y-14302944D01*
X20170344Y-14302944D01*
X20170344Y-14373656D01*
X20241056Y-14373656D01*
X22260356Y-4861356D02*
X22260356Y-4790644D01*
X22189644Y-4790644D01*
X22189644Y-4861356D01*
X22260356Y-4861356D01*
X22260356Y-6385356D02*
X22260356Y-6314644D01*
X22189644Y-6314644D01*
X22189644Y-6385356D01*
X22260356Y-6385356D01*
X23022356Y-4861356D02*
X23022356Y-4790644D01*
X22951644Y-4790644D01*
X22951644Y-4861356D01*
X23022356Y-4861356D01*
X23022356Y-6385356D02*
X23022356Y-6314644D01*
X22951644Y-6314644D01*
X22951644Y-6385356D01*
X23022356Y-6385356D01*
X13271500Y-13898000D02*
X13326500Y-13843000D01*
X13271500Y-13788000D01*
X13216500Y-13843000D01*
X13271500Y-13898000D01*
X13271500Y-14152000D02*
X13326500Y-14097000D01*
X13271500Y-14042000D01*
X13216500Y-14097000D01*
X13271500Y-14152000D01*
X13271500Y-14406000D02*
X13326500Y-14351000D01*
X13271500Y-14296000D01*
X13216500Y-14351000D01*
X13271500Y-14406000D01*
X5290000Y-4389000D02*
X5410000Y-4509000D01*
X5410000Y-4389000D02*
X5290000Y-4509000D01*
X5410000Y-4449000D02*
G75*
G03*
X5410000Y-4449000I-60000J0D01*
G01*
X5290000Y-4889000D02*
X5410000Y-5009000D01*
X5410000Y-4889000D02*
X5290000Y-5009000D01*
X5410000Y-4949000D02*
G75*
G03*
X5410000Y-4949000I-60000J0D01*
G01*
X5290000Y-6548000D02*
X5410000Y-6668000D01*
X5410000Y-6548000D02*
X5290000Y-6668000D01*
X5410000Y-6608000D02*
G75*
G03*
X5410000Y-6608000I-60000J0D01*
G01*
X5290000Y-7048000D02*
X5410000Y-7168000D01*
X5410000Y-7048000D02*
X5290000Y-7168000D01*
X5410000Y-7108000D02*
G75*
G03*
X5410000Y-7108000I-60000J0D01*
G01*
X5320000Y-4139000D02*
X5440000Y-4259000D01*
X5440000Y-4139000D02*
X5320000Y-4259000D01*
X5440000Y-4199000D02*
G75*
G03*
X5440000Y-4199000I-60000J0D01*
G01*
X5320000Y-5139000D02*
X5440000Y-5259000D01*
X5440000Y-5139000D02*
X5320000Y-5259000D01*
X5440000Y-5199000D02*
G75*
G03*
X5440000Y-5199000I-60000J0D01*
G01*
X5320000Y-6298000D02*
X5440000Y-6418000D01*
X5440000Y-6298000D02*
X5320000Y-6418000D01*
X5440000Y-6358000D02*
G75*
G03*
X5440000Y-6358000I-60000J0D01*
G01*
X5320000Y-7298000D02*
X5440000Y-7418000D01*
X5440000Y-7298000D02*
X5320000Y-7418000D01*
X5440000Y-7358000D02*
G75*
G03*
X5440000Y-7358000I-60000J0D01*
G01*
X6290000Y-3889000D02*
X6410000Y-4009000D01*
X6410000Y-3889000D02*
X6290000Y-4009000D01*
X6410000Y-3949000D02*
G75*
G03*
X6410000Y-3949000I-60000J0D01*
G01*
X6290000Y-4639000D02*
X6410000Y-4759000D01*
X6410000Y-4639000D02*
X6290000Y-4759000D01*
X6410000Y-4699000D02*
G75*
G03*
X6410000Y-4699000I-60000J0D01*
G01*
X6290000Y-5389000D02*
X6410000Y-5509000D01*
X6410000Y-5389000D02*
X6290000Y-5509000D01*
X6410000Y-5449000D02*
G75*
G03*
X6410000Y-5449000I-60000J0D01*
G01*
X6290000Y-6048000D02*
X6410000Y-6168000D01*
X6410000Y-6048000D02*
X6290000Y-6168000D01*
X6410000Y-6108000D02*
G75*
G03*
X6410000Y-6108000I-60000J0D01*
G01*
X6290000Y-6798000D02*
X6410000Y-6918000D01*
X6410000Y-6798000D02*
X6290000Y-6918000D01*
X6410000Y-6858000D02*
G75*
G03*
X6410000Y-6858000I-60000J0D01*
G01*
X6290000Y-7548000D02*
X6410000Y-7668000D01*
X6410000Y-7548000D02*
X6290000Y-7668000D01*
X6410000Y-7608000D02*
G75*
G03*
X6410000Y-7608000I-60000J0D01*
G01*
X6540000Y-4139000D02*
X6660000Y-4259000D01*
X6660000Y-4139000D02*
X6540000Y-4259000D01*
X6660000Y-4199000D02*
G75*
G03*
X6660000Y-4199000I-60000J0D01*
G01*
X6540000Y-5139000D02*
X6660000Y-5259000D01*
X6660000Y-5139000D02*
X6540000Y-5259000D01*
X6660000Y-5199000D02*
G75*
G03*
X6660000Y-5199000I-60000J0D01*
G01*
X6540000Y-6298000D02*
X6660000Y-6418000D01*
X6660000Y-6298000D02*
X6540000Y-6418000D01*
X6660000Y-6358000D02*
G75*
G03*
X6660000Y-6358000I-60000J0D01*
G01*
X6540000Y-7298000D02*
X6660000Y-7418000D01*
X6660000Y-7298000D02*
X6540000Y-7418000D01*
X6660000Y-7358000D02*
G75*
G03*
X6660000Y-7358000I-60000J0D01*
G01*
X6790000Y-4639000D02*
X6910000Y-4759000D01*
X6910000Y-4639000D02*
X6790000Y-4759000D01*
X6910000Y-4699000D02*
G75*
G03*
X6910000Y-4699000I-60000J0D01*
G01*
X6790000Y-6798000D02*
X6910000Y-6918000D01*
X6910000Y-6798000D02*
X6790000Y-6918000D01*
X6910000Y-6858000D02*
G75*
G03*
X6910000Y-6858000I-60000J0D01*
G01*
X7814000Y-11497000D02*
X7934000Y-11617000D01*
X7934000Y-11497000D02*
X7814000Y-11617000D01*
X7934000Y-11557000D02*
G75*
G03*
X7934000Y-11557000I-60000J0D01*
G01*
X7814000Y-11751000D02*
X7934000Y-11871000D01*
X7934000Y-11751000D02*
X7814000Y-11871000D01*
X7934000Y-11811000D02*
G75*
G03*
X7934000Y-11811000I-60000J0D01*
G01*
X7814000Y-12005000D02*
X7934000Y-12125000D01*
X7934000Y-12005000D02*
X7814000Y-12125000D01*
X7934000Y-12065000D02*
G75*
G03*
X7934000Y-12065000I-60000J0D01*
G01*
X7814000Y-12259000D02*
X7934000Y-12379000D01*
X7934000Y-12259000D02*
X7814000Y-12379000D01*
X7934000Y-12319000D02*
G75*
G03*
X7934000Y-12319000I-60000J0D01*
G01*
X10290500Y-12830500D02*
X10410500Y-12950500D01*
X10410500Y-12830500D02*
X10290500Y-12950500D01*
X10410500Y-12890500D02*
G75*
G03*
X10410500Y-12890500I-60000J0D01*
G01*
X10735000Y-8449000D02*
X10855000Y-8569000D01*
X10855000Y-8449000D02*
X10735000Y-8569000D01*
X10855000Y-8509000D02*
G75*
G03*
X10855000Y-8509000I-60000J0D01*
G01*
X10735000Y-9719000D02*
X10855000Y-9839000D01*
X10855000Y-9719000D02*
X10735000Y-9839000D01*
X10855000Y-9779000D02*
G75*
G03*
X10855000Y-9779000I-60000J0D01*
G01*
X13290500Y-12830500D02*
X13410500Y-12950500D01*
X13410500Y-12830500D02*
X13290500Y-12950500D01*
X13410500Y-12890500D02*
G75*
G03*
X13410500Y-12890500I-60000J0D01*
G01*
X6641000Y-13511700D02*
X6821000Y-13691700D01*
X6821000Y-13511700D02*
X6641000Y-13691700D01*
X6731000Y-13511700D02*
X6731000Y-13691700D01*
X6641000Y-13601700D02*
X6821000Y-13601700D01*
X6641000Y-13994300D02*
X6821000Y-14174300D01*
X6821000Y-13994300D02*
X6641000Y-14174300D01*
X6731000Y-13994300D02*
X6731000Y-14174300D01*
X6641000Y-14084300D02*
X6821000Y-14084300D01*
X7022000Y-13511700D02*
X7202000Y-13691700D01*
X7202000Y-13511700D02*
X7022000Y-13691700D01*
X7112000Y-13511700D02*
X7112000Y-13691700D01*
X7022000Y-13601700D02*
X7202000Y-13601700D01*
X7022000Y-13994300D02*
X7202000Y-14174300D01*
X7202000Y-13994300D02*
X7022000Y-14174300D01*
X7112000Y-13994300D02*
X7112000Y-14174300D01*
X7022000Y-14084300D02*
X7202000Y-14084300D01*
X7403000Y-13511700D02*
X7583000Y-13691700D01*
X7583000Y-13511700D02*
X7403000Y-13691700D01*
X7493000Y-13511700D02*
X7493000Y-13691700D01*
X7403000Y-13601700D02*
X7583000Y-13601700D01*
X7403000Y-13994300D02*
X7583000Y-14174300D01*
X7583000Y-13994300D02*
X7403000Y-14174300D01*
X7493000Y-13994300D02*
X7493000Y-14174300D01*
X7403000Y-14084300D02*
X7583000Y-14084300D01*
X5368500Y-13496500D02*
X5553500Y-13681500D01*
X5553500Y-13496500D02*
X5368500Y-13681500D01*
X5526408Y-13654408D02*
X5526408Y-13523592D01*
X5395592Y-13523592D01*
X5395592Y-13654408D01*
X5526408Y-13654408D01*
X5368500Y-14004500D02*
X5553500Y-14189500D01*
X5553500Y-14004500D02*
X5368500Y-14189500D01*
X5526408Y-14162408D02*
X5526408Y-14031592D01*
X5395592Y-14031592D01*
X5395592Y-14162408D01*
X5526408Y-14162408D01*
X6880000Y-11452000D02*
X7090000Y-11662000D01*
X7090000Y-11452000D02*
X6880000Y-11662000D01*
X6985000Y-11662000D02*
X7090000Y-11557000D01*
X6985000Y-11452000D01*
X6880000Y-11557000D01*
X6985000Y-11662000D01*
X6880000Y-12404500D02*
X7090000Y-12614500D01*
X7090000Y-12404500D02*
X6880000Y-12614500D01*
X6985000Y-12614500D02*
X7090000Y-12509500D01*
X6985000Y-12404500D01*
X6880000Y-12509500D01*
X6985000Y-12614500D01*
X5850000Y-3829000D02*
X5850000Y-4069000D01*
X5730000Y-3949000D02*
X5970000Y-3949000D01*
X5970000Y-3949000D02*
G75*
G03*
X5970000Y-3949000I-120000J0D01*
G01*
X5850000Y-5329000D02*
X5850000Y-5569000D01*
X5730000Y-5449000D02*
X5970000Y-5449000D01*
X5970000Y-5449000D02*
G75*
G03*
X5970000Y-5449000I-120000J0D01*
G01*
X5850000Y-5988000D02*
X5850000Y-6228000D01*
X5730000Y-6108000D02*
X5970000Y-6108000D01*
X5970000Y-6108000D02*
G75*
G03*
X5970000Y-6108000I-120000J0D01*
G01*
X5850000Y-7488000D02*
X5850000Y-7728000D01*
X5730000Y-7608000D02*
X5970000Y-7608000D01*
X5970000Y-7608000D02*
G75*
G03*
X5970000Y-7608000I-120000J0D01*
G01*
X8625023Y-4205423D02*
X8625023Y-3922577D01*
X8342177Y-3922577D01*
X8342177Y-4205423D01*
X8625023Y-4205423D01*
X8683600Y-4064000D02*
G75*
G03*
X8683600Y-4064000I-200000J0D01*
G01*
X8625023Y-14365423D02*
X8625023Y-14082577D01*
X8342177Y-14082577D01*
X8342177Y-14365423D01*
X8625023Y-14365423D01*
X8683600Y-14224000D02*
G75*
G03*
X8683600Y-14224000I-200000J0D01*
G01*
X23077623Y-4205423D02*
X23077623Y-3922577D01*
X22794777Y-3922577D01*
X22794777Y-4205423D01*
X23077623Y-4205423D01*
X23136200Y-4064000D02*
G75*
G03*
X23136200Y-4064000I-200000J0D01*
G01*
X23077623Y-14365423D02*
X23077623Y-14082577D01*
X22794777Y-14082577D01*
X22794777Y-14365423D01*
X23077623Y-14365423D01*
X23136200Y-14224000D02*
G75*
G03*
X23136200Y-14224000I-200000J0D01*
G01*
D12*
X5363928Y-15224214D02*
X5363928Y-14924214D01*
X5435357Y-14924214D01*
X5478214Y-14938500D01*
X5506786Y-14967071D01*
X5521071Y-14995643D01*
X5535357Y-15052786D01*
X5535357Y-15095643D01*
X5521071Y-15152786D01*
X5506786Y-15181357D01*
X5478214Y-15209929D01*
X5435357Y-15224214D01*
X5363928Y-15224214D01*
X5663928Y-15224214D02*
X5663928Y-15024214D01*
X5663928Y-15081357D02*
X5678214Y-15052786D01*
X5692500Y-15038500D01*
X5721071Y-15024214D01*
X5749643Y-15024214D01*
X5849643Y-15224214D02*
X5849643Y-15024214D01*
X5849643Y-14924214D02*
X5835357Y-14938500D01*
X5849643Y-14952786D01*
X5863928Y-14938500D01*
X5849643Y-14924214D01*
X5849643Y-14952786D01*
X6035357Y-15224214D02*
X6006786Y-15209929D01*
X5992500Y-15181357D01*
X5992500Y-14924214D01*
X6192500Y-15224214D02*
X6163928Y-15209929D01*
X6149643Y-15181357D01*
X6149643Y-14924214D01*
X6535357Y-15224214D02*
X6535357Y-14924214D01*
X6635357Y-15138500D01*
X6735357Y-14924214D01*
X6735357Y-15224214D01*
X7006786Y-15224214D02*
X7006786Y-15067071D01*
X6992500Y-15038500D01*
X6963928Y-15024214D01*
X6906786Y-15024214D01*
X6878214Y-15038500D01*
X7006786Y-15209929D02*
X6978214Y-15224214D01*
X6906786Y-15224214D01*
X6878214Y-15209929D01*
X6863928Y-15181357D01*
X6863928Y-15152786D01*
X6878214Y-15124214D01*
X6906786Y-15109929D01*
X6978214Y-15109929D01*
X7006786Y-15095643D01*
X7149643Y-15024214D02*
X7149643Y-15324214D01*
X7149643Y-15038500D02*
X7178214Y-15024214D01*
X7235357Y-15024214D01*
X7263928Y-15038500D01*
X7278214Y-15052786D01*
X7292500Y-15081357D01*
X7292500Y-15167071D01*
X7278214Y-15195643D01*
X7263928Y-15209929D01*
X7235357Y-15224214D01*
X7178214Y-15224214D01*
X7149643Y-15209929D01*
X7421071Y-15195643D02*
X7435357Y-15209929D01*
X7421071Y-15224214D01*
X7406786Y-15209929D01*
X7421071Y-15195643D01*
X7421071Y-15224214D01*
X7421071Y-15038500D02*
X7435357Y-15052786D01*
X7421071Y-15067071D01*
X7406786Y-15052786D01*
X7421071Y-15038500D01*
X7421071Y-15067071D01*
X5037500Y-15698500D02*
X5077500Y-15738500D01*
X5077500Y-15698500D02*
X5037500Y-15738500D01*
X5421071Y-15554214D02*
X5449643Y-15554214D01*
X5478214Y-15568500D01*
X5492500Y-15582786D01*
X5506786Y-15611357D01*
X5521071Y-15668500D01*
X5521071Y-15739929D01*
X5506786Y-15797071D01*
X5492500Y-15825643D01*
X5478214Y-15839929D01*
X5449643Y-15854214D01*
X5421071Y-15854214D01*
X5392500Y-15839929D01*
X5378214Y-15825643D01*
X5363928Y-15797071D01*
X5349643Y-15739929D01*
X5349643Y-15668500D01*
X5363928Y-15611357D01*
X5378214Y-15582786D01*
X5392500Y-15568500D01*
X5421071Y-15554214D01*
X5649643Y-15825643D02*
X5663928Y-15839929D01*
X5649643Y-15854214D01*
X5635357Y-15839929D01*
X5649643Y-15825643D01*
X5649643Y-15854214D01*
X5921071Y-15654214D02*
X5921071Y-15854214D01*
X5849643Y-15539929D02*
X5778214Y-15754214D01*
X5963928Y-15754214D01*
X6135357Y-15554214D02*
X6163928Y-15554214D01*
X6192500Y-15568500D01*
X6206786Y-15582786D01*
X6221071Y-15611357D01*
X6235357Y-15668500D01*
X6235357Y-15739929D01*
X6221071Y-15797071D01*
X6206786Y-15825643D01*
X6192500Y-15839929D01*
X6163928Y-15854214D01*
X6135357Y-15854214D01*
X6106786Y-15839929D01*
X6092500Y-15825643D01*
X6078214Y-15797071D01*
X6063928Y-15739929D01*
X6063928Y-15668500D01*
X6078214Y-15611357D01*
X6092500Y-15582786D01*
X6106786Y-15568500D01*
X6135357Y-15554214D01*
X6421071Y-15554214D02*
X6449643Y-15554214D01*
X6478214Y-15568500D01*
X6492500Y-15582786D01*
X6506786Y-15611357D01*
X6521071Y-15668500D01*
X6521071Y-15739929D01*
X6506786Y-15797071D01*
X6492500Y-15825643D01*
X6478214Y-15839929D01*
X6449643Y-15854214D01*
X6421071Y-15854214D01*
X6392500Y-15839929D01*
X6378214Y-15825643D01*
X6363928Y-15797071D01*
X6349643Y-15739929D01*
X6349643Y-15668500D01*
X6363928Y-15611357D01*
X6378214Y-15582786D01*
X6392500Y-15568500D01*
X6421071Y-15554214D01*
X6649643Y-15854214D02*
X6649643Y-15654214D01*
X6649643Y-15682786D02*
X6663928Y-15668500D01*
X6692500Y-15654214D01*
X6735357Y-15654214D01*
X6763928Y-15668500D01*
X6778214Y-15697071D01*
X6778214Y-15854214D01*
X6778214Y-15697071D02*
X6792500Y-15668500D01*
X6821071Y-15654214D01*
X6863928Y-15654214D01*
X6892500Y-15668500D01*
X6906786Y-15697071D01*
X6906786Y-15854214D01*
X7049643Y-15854214D02*
X7049643Y-15654214D01*
X7049643Y-15682786D02*
X7063928Y-15668500D01*
X7092500Y-15654214D01*
X7135357Y-15654214D01*
X7163928Y-15668500D01*
X7178214Y-15697071D01*
X7178214Y-15854214D01*
X7178214Y-15697071D02*
X7192500Y-15668500D01*
X7221071Y-15654214D01*
X7263928Y-15654214D01*
X7292500Y-15668500D01*
X7306786Y-15697071D01*
X7306786Y-15854214D01*
X7892500Y-15539929D02*
X7635357Y-15925643D01*
X8278214Y-15554214D02*
X8306786Y-15554214D01*
X8335357Y-15568500D01*
X8349643Y-15582786D01*
X8363928Y-15611357D01*
X8378214Y-15668500D01*
X8378214Y-15739929D01*
X8363928Y-15797071D01*
X8349643Y-15825643D01*
X8335357Y-15839929D01*
X8306786Y-15854214D01*
X8278214Y-15854214D01*
X8249643Y-15839929D01*
X8235357Y-15825643D01*
X8221071Y-15797071D01*
X8206786Y-15739929D01*
X8206786Y-15668500D01*
X8221071Y-15611357D01*
X8235357Y-15582786D01*
X8249643Y-15568500D01*
X8278214Y-15554214D01*
X8506786Y-15825643D02*
X8521071Y-15839929D01*
X8506786Y-15854214D01*
X8492500Y-15839929D01*
X8506786Y-15825643D01*
X8506786Y-15854214D01*
X8706786Y-15554214D02*
X8735357Y-15554214D01*
X8763928Y-15568500D01*
X8778214Y-15582786D01*
X8792500Y-15611357D01*
X8806786Y-15668500D01*
X8806786Y-15739929D01*
X8792500Y-15797071D01*
X8778214Y-15825643D01*
X8763928Y-15839929D01*
X8735357Y-15854214D01*
X8706786Y-15854214D01*
X8678214Y-15839929D01*
X8663928Y-15825643D01*
X8649643Y-15797071D01*
X8635357Y-15739929D01*
X8635357Y-15668500D01*
X8649643Y-15611357D01*
X8663928Y-15582786D01*
X8678214Y-15568500D01*
X8706786Y-15554214D01*
X9092500Y-15854214D02*
X8921071Y-15854214D01*
X9006786Y-15854214D02*
X9006786Y-15554214D01*
X8978214Y-15597071D01*
X8949643Y-15625643D01*
X8921071Y-15639929D01*
X9363928Y-15554214D02*
X9221071Y-15554214D01*
X9206786Y-15697071D01*
X9221071Y-15682786D01*
X9249643Y-15668500D01*
X9321071Y-15668500D01*
X9349643Y-15682786D01*
X9363928Y-15697071D01*
X9378214Y-15725643D01*
X9378214Y-15797071D01*
X9363928Y-15825643D01*
X9349643Y-15839929D01*
X9321071Y-15854214D01*
X9249643Y-15854214D01*
X9221071Y-15839929D01*
X9206786Y-15825643D01*
X9478214Y-15554214D02*
X9678214Y-15554214D01*
X9549643Y-15854214D01*
X9778214Y-15554214D02*
X9778214Y-15611357D01*
X9892500Y-15554214D02*
X9892500Y-15611357D01*
X10335357Y-15968500D02*
X10321071Y-15954214D01*
X10292500Y-15911357D01*
X10278214Y-15882786D01*
X10263928Y-15839929D01*
X10249643Y-15768500D01*
X10249643Y-15711357D01*
X10263928Y-15639929D01*
X10278214Y-15597071D01*
X10292500Y-15568500D01*
X10321071Y-15525643D01*
X10335357Y-15511357D01*
X10435357Y-15582786D02*
X10449643Y-15568500D01*
X10478214Y-15554214D01*
X10549643Y-15554214D01*
X10578214Y-15568500D01*
X10592500Y-15582786D01*
X10606786Y-15611357D01*
X10606786Y-15639929D01*
X10592500Y-15682786D01*
X10421071Y-15854214D01*
X10606786Y-15854214D01*
X10863928Y-15554214D02*
X10806786Y-15554214D01*
X10778214Y-15568500D01*
X10763928Y-15582786D01*
X10735357Y-15625643D01*
X10721071Y-15682786D01*
X10721071Y-15797071D01*
X10735357Y-15825643D01*
X10749643Y-15839929D01*
X10778214Y-15854214D01*
X10835357Y-15854214D01*
X10863928Y-15839929D01*
X10878214Y-15825643D01*
X10892500Y-15797071D01*
X10892500Y-15725643D01*
X10878214Y-15697071D01*
X10863928Y-15682786D01*
X10835357Y-15668500D01*
X10778214Y-15668500D01*
X10749643Y-15682786D01*
X10735357Y-15697071D01*
X10721071Y-15725643D01*
X11006786Y-15582786D02*
X11021071Y-15568500D01*
X11049643Y-15554214D01*
X11121071Y-15554214D01*
X11149643Y-15568500D01*
X11163928Y-15582786D01*
X11178214Y-15611357D01*
X11178214Y-15639929D01*
X11163928Y-15682786D01*
X10992500Y-15854214D01*
X11178214Y-15854214D01*
X11535357Y-15854214D02*
X11535357Y-15554214D01*
X11663928Y-15854214D02*
X11663928Y-15697071D01*
X11649643Y-15668500D01*
X11621071Y-15654214D01*
X11578214Y-15654214D01*
X11549643Y-15668500D01*
X11535357Y-15682786D01*
X11849643Y-15854214D02*
X11821071Y-15839929D01*
X11806786Y-15825643D01*
X11792500Y-15797071D01*
X11792500Y-15711357D01*
X11806786Y-15682786D01*
X11821071Y-15668500D01*
X11849643Y-15654214D01*
X11892500Y-15654214D01*
X11921071Y-15668500D01*
X11935357Y-15682786D01*
X11949643Y-15711357D01*
X11949643Y-15797071D01*
X11935357Y-15825643D01*
X11921071Y-15839929D01*
X11892500Y-15854214D01*
X11849643Y-15854214D01*
X12121071Y-15854214D02*
X12092500Y-15839929D01*
X12078214Y-15811357D01*
X12078214Y-15554214D01*
X12349643Y-15839929D02*
X12321071Y-15854214D01*
X12263928Y-15854214D01*
X12235357Y-15839929D01*
X12221071Y-15811357D01*
X12221071Y-15697071D01*
X12235357Y-15668500D01*
X12263928Y-15654214D01*
X12321071Y-15654214D01*
X12349643Y-15668500D01*
X12363928Y-15697071D01*
X12363928Y-15725643D01*
X12221071Y-15754214D01*
X12478214Y-15839929D02*
X12506786Y-15854214D01*
X12563928Y-15854214D01*
X12592500Y-15839929D01*
X12606786Y-15811357D01*
X12606786Y-15797071D01*
X12592500Y-15768500D01*
X12563928Y-15754214D01*
X12521071Y-15754214D01*
X12492500Y-15739929D01*
X12478214Y-15711357D01*
X12478214Y-15697071D01*
X12492500Y-15668500D01*
X12521071Y-15654214D01*
X12563928Y-15654214D01*
X12592500Y-15668500D01*
X12706786Y-15968500D02*
X12721071Y-15954214D01*
X12749643Y-15911357D01*
X12763928Y-15882786D01*
X12778214Y-15839929D01*
X12792500Y-15768500D01*
X12792500Y-15711357D01*
X12778214Y-15639929D01*
X12763928Y-15597071D01*
X12749643Y-15568500D01*
X12721071Y-15525643D01*
X12706786Y-15511357D01*
X5077500Y-16114500D02*
G75*
G03*
X5077500Y-16114500I-30000J0D01*
G01*
X5421071Y-15950214D02*
X5449643Y-15950214D01*
X5478214Y-15964500D01*
X5492500Y-15978786D01*
X5506786Y-16007357D01*
X5521071Y-16064500D01*
X5521071Y-16135929D01*
X5506786Y-16193071D01*
X5492500Y-16221643D01*
X5478214Y-16235929D01*
X5449643Y-16250214D01*
X5421071Y-16250214D01*
X5392500Y-16235929D01*
X5378214Y-16221643D01*
X5363928Y-16193071D01*
X5349643Y-16135929D01*
X5349643Y-16064500D01*
X5363928Y-16007357D01*
X5378214Y-15978786D01*
X5392500Y-15964500D01*
X5421071Y-15950214D01*
X5649643Y-16221643D02*
X5663928Y-16235929D01*
X5649643Y-16250214D01*
X5635357Y-16235929D01*
X5649643Y-16221643D01*
X5649643Y-16250214D01*
X5921071Y-15950214D02*
X5863928Y-15950214D01*
X5835357Y-15964500D01*
X5821071Y-15978786D01*
X5792500Y-16021643D01*
X5778214Y-16078786D01*
X5778214Y-16193071D01*
X5792500Y-16221643D01*
X5806786Y-16235929D01*
X5835357Y-16250214D01*
X5892500Y-16250214D01*
X5921071Y-16235929D01*
X5935357Y-16221643D01*
X5949643Y-16193071D01*
X5949643Y-16121643D01*
X5935357Y-16093071D01*
X5921071Y-16078786D01*
X5892500Y-16064500D01*
X5835357Y-16064500D01*
X5806786Y-16078786D01*
X5792500Y-16093071D01*
X5778214Y-16121643D01*
X6135357Y-15950214D02*
X6163928Y-15950214D01*
X6192500Y-15964500D01*
X6206786Y-15978786D01*
X6221071Y-16007357D01*
X6235357Y-16064500D01*
X6235357Y-16135929D01*
X6221071Y-16193071D01*
X6206786Y-16221643D01*
X6192500Y-16235929D01*
X6163928Y-16250214D01*
X6135357Y-16250214D01*
X6106786Y-16235929D01*
X6092500Y-16221643D01*
X6078214Y-16193071D01*
X6063928Y-16135929D01*
X6063928Y-16064500D01*
X6078214Y-16007357D01*
X6092500Y-15978786D01*
X6106786Y-15964500D01*
X6135357Y-15950214D01*
X6421071Y-15950214D02*
X6449643Y-15950214D01*
X6478214Y-15964500D01*
X6492500Y-15978786D01*
X6506786Y-16007357D01*
X6521071Y-16064500D01*
X6521071Y-16135929D01*
X6506786Y-16193071D01*
X6492500Y-16221643D01*
X6478214Y-16235929D01*
X6449643Y-16250214D01*
X6421071Y-16250214D01*
X6392500Y-16235929D01*
X6378214Y-16221643D01*
X6363928Y-16193071D01*
X6349643Y-16135929D01*
X6349643Y-16064500D01*
X6363928Y-16007357D01*
X6378214Y-15978786D01*
X6392500Y-15964500D01*
X6421071Y-15950214D01*
X6649643Y-16250214D02*
X6649643Y-16050214D01*
X6649643Y-16078786D02*
X6663928Y-16064500D01*
X6692500Y-16050214D01*
X6735357Y-16050214D01*
X6763928Y-16064500D01*
X6778214Y-16093071D01*
X6778214Y-16250214D01*
X6778214Y-16093071D02*
X6792500Y-16064500D01*
X6821071Y-16050214D01*
X6863928Y-16050214D01*
X6892500Y-16064500D01*
X6906786Y-16093071D01*
X6906786Y-16250214D01*
X7049643Y-16250214D02*
X7049643Y-16050214D01*
X7049643Y-16078786D02*
X7063928Y-16064500D01*
X7092500Y-16050214D01*
X7135357Y-16050214D01*
X7163928Y-16064500D01*
X7178214Y-16093071D01*
X7178214Y-16250214D01*
X7178214Y-16093071D02*
X7192500Y-16064500D01*
X7221071Y-16050214D01*
X7263928Y-16050214D01*
X7292500Y-16064500D01*
X7306786Y-16093071D01*
X7306786Y-16250214D01*
X7892500Y-15935929D02*
X7635357Y-16321643D01*
X8278214Y-15950214D02*
X8306786Y-15950214D01*
X8335357Y-15964500D01*
X8349643Y-15978786D01*
X8363928Y-16007357D01*
X8378214Y-16064500D01*
X8378214Y-16135929D01*
X8363928Y-16193071D01*
X8349643Y-16221643D01*
X8335357Y-16235929D01*
X8306786Y-16250214D01*
X8278214Y-16250214D01*
X8249643Y-16235929D01*
X8235357Y-16221643D01*
X8221071Y-16193071D01*
X8206786Y-16135929D01*
X8206786Y-16064500D01*
X8221071Y-16007357D01*
X8235357Y-15978786D01*
X8249643Y-15964500D01*
X8278214Y-15950214D01*
X8506786Y-16221643D02*
X8521071Y-16235929D01*
X8506786Y-16250214D01*
X8492500Y-16235929D01*
X8506786Y-16221643D01*
X8506786Y-16250214D01*
X8706786Y-15950214D02*
X8735357Y-15950214D01*
X8763928Y-15964500D01*
X8778214Y-15978786D01*
X8792500Y-16007357D01*
X8806786Y-16064500D01*
X8806786Y-16135929D01*
X8792500Y-16193071D01*
X8778214Y-16221643D01*
X8763928Y-16235929D01*
X8735357Y-16250214D01*
X8706786Y-16250214D01*
X8678214Y-16235929D01*
X8663928Y-16221643D01*
X8649643Y-16193071D01*
X8635357Y-16135929D01*
X8635357Y-16064500D01*
X8649643Y-16007357D01*
X8663928Y-15978786D01*
X8678214Y-15964500D01*
X8706786Y-15950214D01*
X8921071Y-15978786D02*
X8935357Y-15964500D01*
X8963928Y-15950214D01*
X9035357Y-15950214D01*
X9063928Y-15964500D01*
X9078214Y-15978786D01*
X9092500Y-16007357D01*
X9092500Y-16035929D01*
X9078214Y-16078786D01*
X8906786Y-16250214D01*
X9092500Y-16250214D01*
X9192500Y-15950214D02*
X9378214Y-15950214D01*
X9278214Y-16064500D01*
X9321071Y-16064500D01*
X9349643Y-16078786D01*
X9363928Y-16093071D01*
X9378214Y-16121643D01*
X9378214Y-16193071D01*
X9363928Y-16221643D01*
X9349643Y-16235929D01*
X9321071Y-16250214D01*
X9235357Y-16250214D01*
X9206786Y-16235929D01*
X9192500Y-16221643D01*
X9635357Y-15950214D02*
X9578214Y-15950214D01*
X9549643Y-15964500D01*
X9535357Y-15978786D01*
X9506786Y-16021643D01*
X9492500Y-16078786D01*
X9492500Y-16193071D01*
X9506786Y-16221643D01*
X9521071Y-16235929D01*
X9549643Y-16250214D01*
X9606786Y-16250214D01*
X9635357Y-16235929D01*
X9649643Y-16221643D01*
X9663928Y-16193071D01*
X9663928Y-16121643D01*
X9649643Y-16093071D01*
X9635357Y-16078786D01*
X9606786Y-16064500D01*
X9549643Y-16064500D01*
X9521071Y-16078786D01*
X9506786Y-16093071D01*
X9492500Y-16121643D01*
X9778214Y-15950214D02*
X9778214Y-16007357D01*
X9892500Y-15950214D02*
X9892500Y-16007357D01*
X10335357Y-16364500D02*
X10321071Y-16350214D01*
X10292500Y-16307357D01*
X10278214Y-16278786D01*
X10263928Y-16235929D01*
X10249643Y-16164500D01*
X10249643Y-16107357D01*
X10263928Y-16035929D01*
X10278214Y-15993071D01*
X10292500Y-15964500D01*
X10321071Y-15921643D01*
X10335357Y-15907357D01*
X10421071Y-15950214D02*
X10606786Y-15950214D01*
X10506786Y-16064500D01*
X10549643Y-16064500D01*
X10578214Y-16078786D01*
X10592500Y-16093071D01*
X10606786Y-16121643D01*
X10606786Y-16193071D01*
X10592500Y-16221643D01*
X10578214Y-16235929D01*
X10549643Y-16250214D01*
X10463928Y-16250214D01*
X10435357Y-16235929D01*
X10421071Y-16221643D01*
X10721071Y-15978786D02*
X10735357Y-15964500D01*
X10763928Y-15950214D01*
X10835357Y-15950214D01*
X10863928Y-15964500D01*
X10878214Y-15978786D01*
X10892500Y-16007357D01*
X10892500Y-16035929D01*
X10878214Y-16078786D01*
X10706786Y-16250214D01*
X10892500Y-16250214D01*
X11249643Y-16250214D02*
X11249643Y-15950214D01*
X11378214Y-16250214D02*
X11378214Y-16093071D01*
X11363928Y-16064500D01*
X11335357Y-16050214D01*
X11292500Y-16050214D01*
X11263928Y-16064500D01*
X11249643Y-16078786D01*
X11563928Y-16250214D02*
X11535357Y-16235929D01*
X11521071Y-16221643D01*
X11506786Y-16193071D01*
X11506786Y-16107357D01*
X11521071Y-16078786D01*
X11535357Y-16064500D01*
X11563928Y-16050214D01*
X11606786Y-16050214D01*
X11635357Y-16064500D01*
X11649643Y-16078786D01*
X11663928Y-16107357D01*
X11663928Y-16193071D01*
X11649643Y-16221643D01*
X11635357Y-16235929D01*
X11606786Y-16250214D01*
X11563928Y-16250214D01*
X11835357Y-16250214D02*
X11806786Y-16235929D01*
X11792500Y-16207357D01*
X11792500Y-15950214D01*
X12063928Y-16235929D02*
X12035357Y-16250214D01*
X11978214Y-16250214D01*
X11949643Y-16235929D01*
X11935357Y-16207357D01*
X11935357Y-16093071D01*
X11949643Y-16064500D01*
X11978214Y-16050214D01*
X12035357Y-16050214D01*
X12063928Y-16064500D01*
X12078214Y-16093071D01*
X12078214Y-16121643D01*
X11935357Y-16150214D01*
X12192500Y-16235929D02*
X12221071Y-16250214D01*
X12278214Y-16250214D01*
X12306786Y-16235929D01*
X12321071Y-16207357D01*
X12321071Y-16193071D01*
X12306786Y-16164500D01*
X12278214Y-16150214D01*
X12235357Y-16150214D01*
X12206786Y-16135929D01*
X12192500Y-16107357D01*
X12192500Y-16093071D01*
X12206786Y-16064500D01*
X12235357Y-16050214D01*
X12278214Y-16050214D01*
X12306786Y-16064500D01*
X12421071Y-16364500D02*
X12435357Y-16350214D01*
X12463928Y-16307357D01*
X12478214Y-16278786D01*
X12492500Y-16235929D01*
X12506786Y-16164500D01*
X12506786Y-16107357D01*
X12492500Y-16035929D01*
X12478214Y-15993071D01*
X12463928Y-15964500D01*
X12435357Y-15921643D01*
X12421071Y-15907357D01*
X5037500Y-16470500D02*
X5037500Y-16550500D01*
X4997500Y-16510500D02*
X5077500Y-16510500D01*
X5421071Y-16346214D02*
X5449643Y-16346214D01*
X5478214Y-16360500D01*
X5492500Y-16374786D01*
X5506786Y-16403357D01*
X5521071Y-16460500D01*
X5521071Y-16531929D01*
X5506786Y-16589071D01*
X5492500Y-16617643D01*
X5478214Y-16631929D01*
X5449643Y-16646214D01*
X5421071Y-16646214D01*
X5392500Y-16631929D01*
X5378214Y-16617643D01*
X5363928Y-16589071D01*
X5349643Y-16531929D01*
X5349643Y-16460500D01*
X5363928Y-16403357D01*
X5378214Y-16374786D01*
X5392500Y-16360500D01*
X5421071Y-16346214D01*
X5649643Y-16617643D02*
X5663928Y-16631929D01*
X5649643Y-16646214D01*
X5635357Y-16631929D01*
X5649643Y-16617643D01*
X5649643Y-16646214D01*
X5835357Y-16474786D02*
X5806786Y-16460500D01*
X5792500Y-16446214D01*
X5778214Y-16417643D01*
X5778214Y-16403357D01*
X5792500Y-16374786D01*
X5806786Y-16360500D01*
X5835357Y-16346214D01*
X5892500Y-16346214D01*
X5921071Y-16360500D01*
X5935357Y-16374786D01*
X5949643Y-16403357D01*
X5949643Y-16417643D01*
X5935357Y-16446214D01*
X5921071Y-16460500D01*
X5892500Y-16474786D01*
X5835357Y-16474786D01*
X5806786Y-16489071D01*
X5792500Y-16503357D01*
X5778214Y-16531929D01*
X5778214Y-16589071D01*
X5792500Y-16617643D01*
X5806786Y-16631929D01*
X5835357Y-16646214D01*
X5892500Y-16646214D01*
X5921071Y-16631929D01*
X5935357Y-16617643D01*
X5949643Y-16589071D01*
X5949643Y-16531929D01*
X5935357Y-16503357D01*
X5921071Y-16489071D01*
X5892500Y-16474786D01*
X6135357Y-16346214D02*
X6163928Y-16346214D01*
X6192500Y-16360500D01*
X6206786Y-16374786D01*
X6221071Y-16403357D01*
X6235357Y-16460500D01*
X6235357Y-16531929D01*
X6221071Y-16589071D01*
X6206786Y-16617643D01*
X6192500Y-16631929D01*
X6163928Y-16646214D01*
X6135357Y-16646214D01*
X6106786Y-16631929D01*
X6092500Y-16617643D01*
X6078214Y-16589071D01*
X6063928Y-16531929D01*
X6063928Y-16460500D01*
X6078214Y-16403357D01*
X6092500Y-16374786D01*
X6106786Y-16360500D01*
X6135357Y-16346214D01*
X6421071Y-16346214D02*
X6449643Y-16346214D01*
X6478214Y-16360500D01*
X6492500Y-16374786D01*
X6506786Y-16403357D01*
X6521071Y-16460500D01*
X6521071Y-16531929D01*
X6506786Y-16589071D01*
X6492500Y-16617643D01*
X6478214Y-16631929D01*
X6449643Y-16646214D01*
X6421071Y-16646214D01*
X6392500Y-16631929D01*
X6378214Y-16617643D01*
X6363928Y-16589071D01*
X6349643Y-16531929D01*
X6349643Y-16460500D01*
X6363928Y-16403357D01*
X6378214Y-16374786D01*
X6392500Y-16360500D01*
X6421071Y-16346214D01*
X6649643Y-16646214D02*
X6649643Y-16446214D01*
X6649643Y-16474786D02*
X6663928Y-16460500D01*
X6692500Y-16446214D01*
X6735357Y-16446214D01*
X6763928Y-16460500D01*
X6778214Y-16489071D01*
X6778214Y-16646214D01*
X6778214Y-16489071D02*
X6792500Y-16460500D01*
X6821071Y-16446214D01*
X6863928Y-16446214D01*
X6892500Y-16460500D01*
X6906786Y-16489071D01*
X6906786Y-16646214D01*
X7049643Y-16646214D02*
X7049643Y-16446214D01*
X7049643Y-16474786D02*
X7063928Y-16460500D01*
X7092500Y-16446214D01*
X7135357Y-16446214D01*
X7163928Y-16460500D01*
X7178214Y-16489071D01*
X7178214Y-16646214D01*
X7178214Y-16489071D02*
X7192500Y-16460500D01*
X7221071Y-16446214D01*
X7263928Y-16446214D01*
X7292500Y-16460500D01*
X7306786Y-16489071D01*
X7306786Y-16646214D01*
X7892500Y-16331929D02*
X7635357Y-16717643D01*
X8278214Y-16346214D02*
X8306786Y-16346214D01*
X8335357Y-16360500D01*
X8349643Y-16374786D01*
X8363928Y-16403357D01*
X8378214Y-16460500D01*
X8378214Y-16531929D01*
X8363928Y-16589071D01*
X8349643Y-16617643D01*
X8335357Y-16631929D01*
X8306786Y-16646214D01*
X8278214Y-16646214D01*
X8249643Y-16631929D01*
X8235357Y-16617643D01*
X8221071Y-16589071D01*
X8206786Y-16531929D01*
X8206786Y-16460500D01*
X8221071Y-16403357D01*
X8235357Y-16374786D01*
X8249643Y-16360500D01*
X8278214Y-16346214D01*
X8506786Y-16617643D02*
X8521071Y-16631929D01*
X8506786Y-16646214D01*
X8492500Y-16631929D01*
X8506786Y-16617643D01*
X8506786Y-16646214D01*
X8706786Y-16346214D02*
X8735357Y-16346214D01*
X8763928Y-16360500D01*
X8778214Y-16374786D01*
X8792500Y-16403357D01*
X8806786Y-16460500D01*
X8806786Y-16531929D01*
X8792500Y-16589071D01*
X8778214Y-16617643D01*
X8763928Y-16631929D01*
X8735357Y-16646214D01*
X8706786Y-16646214D01*
X8678214Y-16631929D01*
X8663928Y-16617643D01*
X8649643Y-16589071D01*
X8635357Y-16531929D01*
X8635357Y-16460500D01*
X8649643Y-16403357D01*
X8663928Y-16374786D01*
X8678214Y-16360500D01*
X8706786Y-16346214D01*
X8906786Y-16346214D02*
X9092500Y-16346214D01*
X8992500Y-16460500D01*
X9035357Y-16460500D01*
X9063928Y-16474786D01*
X9078214Y-16489071D01*
X9092500Y-16517643D01*
X9092500Y-16589071D01*
X9078214Y-16617643D01*
X9063928Y-16631929D01*
X9035357Y-16646214D01*
X8949643Y-16646214D01*
X8921071Y-16631929D01*
X8906786Y-16617643D01*
X9378214Y-16646214D02*
X9206786Y-16646214D01*
X9292500Y-16646214D02*
X9292500Y-16346214D01*
X9263928Y-16389071D01*
X9235357Y-16417643D01*
X9206786Y-16431929D01*
X9649643Y-16346214D02*
X9506786Y-16346214D01*
X9492500Y-16489071D01*
X9506786Y-16474786D01*
X9535357Y-16460500D01*
X9606786Y-16460500D01*
X9635357Y-16474786D01*
X9649643Y-16489071D01*
X9663928Y-16517643D01*
X9663928Y-16589071D01*
X9649643Y-16617643D01*
X9635357Y-16631929D01*
X9606786Y-16646214D01*
X9535357Y-16646214D01*
X9506786Y-16631929D01*
X9492500Y-16617643D01*
X9778214Y-16346214D02*
X9778214Y-16403357D01*
X9892500Y-16346214D02*
X9892500Y-16403357D01*
X10335357Y-16760500D02*
X10321071Y-16746214D01*
X10292500Y-16703357D01*
X10278214Y-16674786D01*
X10263928Y-16631929D01*
X10249643Y-16560500D01*
X10249643Y-16503357D01*
X10263928Y-16431929D01*
X10278214Y-16389071D01*
X10292500Y-16360500D01*
X10321071Y-16317643D01*
X10335357Y-16303357D01*
X10421071Y-16346214D02*
X10606786Y-16346214D01*
X10506786Y-16460500D01*
X10549643Y-16460500D01*
X10578214Y-16474786D01*
X10592500Y-16489071D01*
X10606786Y-16517643D01*
X10606786Y-16589071D01*
X10592500Y-16617643D01*
X10578214Y-16631929D01*
X10549643Y-16646214D01*
X10463928Y-16646214D01*
X10435357Y-16631929D01*
X10421071Y-16617643D01*
X10778214Y-16474786D02*
X10749643Y-16460500D01*
X10735357Y-16446214D01*
X10721071Y-16417643D01*
X10721071Y-16403357D01*
X10735357Y-16374786D01*
X10749643Y-16360500D01*
X10778214Y-16346214D01*
X10835357Y-16346214D01*
X10863928Y-16360500D01*
X10878214Y-16374786D01*
X10892500Y-16403357D01*
X10892500Y-16417643D01*
X10878214Y-16446214D01*
X10863928Y-16460500D01*
X10835357Y-16474786D01*
X10778214Y-16474786D01*
X10749643Y-16489071D01*
X10735357Y-16503357D01*
X10721071Y-16531929D01*
X10721071Y-16589071D01*
X10735357Y-16617643D01*
X10749643Y-16631929D01*
X10778214Y-16646214D01*
X10835357Y-16646214D01*
X10863928Y-16631929D01*
X10878214Y-16617643D01*
X10892500Y-16589071D01*
X10892500Y-16531929D01*
X10878214Y-16503357D01*
X10863928Y-16489071D01*
X10835357Y-16474786D01*
X10992500Y-16346214D02*
X11178214Y-16346214D01*
X11078214Y-16460500D01*
X11121071Y-16460500D01*
X11149643Y-16474786D01*
X11163928Y-16489071D01*
X11178214Y-16517643D01*
X11178214Y-16589071D01*
X11163928Y-16617643D01*
X11149643Y-16631929D01*
X11121071Y-16646214D01*
X11035357Y-16646214D01*
X11006786Y-16631929D01*
X10992500Y-16617643D01*
X11535357Y-16646214D02*
X11535357Y-16346214D01*
X11663928Y-16646214D02*
X11663928Y-16489071D01*
X11649643Y-16460500D01*
X11621071Y-16446214D01*
X11578214Y-16446214D01*
X11549643Y-16460500D01*
X11535357Y-16474786D01*
X11849643Y-16646214D02*
X11821071Y-16631929D01*
X11806786Y-16617643D01*
X11792500Y-16589071D01*
X11792500Y-16503357D01*
X11806786Y-16474786D01*
X11821071Y-16460500D01*
X11849643Y-16446214D01*
X11892500Y-16446214D01*
X11921071Y-16460500D01*
X11935357Y-16474786D01*
X11949643Y-16503357D01*
X11949643Y-16589071D01*
X11935357Y-16617643D01*
X11921071Y-16631929D01*
X11892500Y-16646214D01*
X11849643Y-16646214D01*
X12121071Y-16646214D02*
X12092500Y-16631929D01*
X12078214Y-16603357D01*
X12078214Y-16346214D01*
X12349643Y-16631929D02*
X12321071Y-16646214D01*
X12263928Y-16646214D01*
X12235357Y-16631929D01*
X12221071Y-16603357D01*
X12221071Y-16489071D01*
X12235357Y-16460500D01*
X12263928Y-16446214D01*
X12321071Y-16446214D01*
X12349643Y-16460500D01*
X12363928Y-16489071D01*
X12363928Y-16517643D01*
X12221071Y-16546214D01*
X12478214Y-16631929D02*
X12506786Y-16646214D01*
X12563928Y-16646214D01*
X12592500Y-16631929D01*
X12606786Y-16603357D01*
X12606786Y-16589071D01*
X12592500Y-16560500D01*
X12563928Y-16546214D01*
X12521071Y-16546214D01*
X12492500Y-16531929D01*
X12478214Y-16503357D01*
X12478214Y-16489071D01*
X12492500Y-16460500D01*
X12521071Y-16446214D01*
X12563928Y-16446214D01*
X12592500Y-16460500D01*
X12963928Y-16531929D02*
X13192500Y-16531929D01*
X13078214Y-16646214D02*
X13078214Y-16417643D01*
X13535357Y-16346214D02*
X13721071Y-16346214D01*
X13621071Y-16460500D01*
X13663928Y-16460500D01*
X13692500Y-16474786D01*
X13706786Y-16489071D01*
X13721071Y-16517643D01*
X13721071Y-16589071D01*
X13706786Y-16617643D01*
X13692500Y-16631929D01*
X13663928Y-16646214D01*
X13578214Y-16646214D01*
X13549643Y-16631929D01*
X13535357Y-16617643D01*
X14063928Y-16631929D02*
X14092500Y-16646214D01*
X14149643Y-16646214D01*
X14178214Y-16631929D01*
X14192500Y-16603357D01*
X14192500Y-16589071D01*
X14178214Y-16560500D01*
X14149643Y-16546214D01*
X14106786Y-16546214D01*
X14078214Y-16531929D01*
X14063928Y-16503357D01*
X14063928Y-16489071D01*
X14078214Y-16460500D01*
X14106786Y-16446214D01*
X14149643Y-16446214D01*
X14178214Y-16460500D01*
X14363928Y-16646214D02*
X14335357Y-16631929D01*
X14321071Y-16603357D01*
X14321071Y-16346214D01*
X14521071Y-16646214D02*
X14492500Y-16631929D01*
X14478214Y-16617643D01*
X14463928Y-16589071D01*
X14463928Y-16503357D01*
X14478214Y-16474786D01*
X14492500Y-16460500D01*
X14521071Y-16446214D01*
X14563928Y-16446214D01*
X14592500Y-16460500D01*
X14606786Y-16474786D01*
X14621071Y-16503357D01*
X14621071Y-16589071D01*
X14606786Y-16617643D01*
X14592500Y-16631929D01*
X14563928Y-16646214D01*
X14521071Y-16646214D01*
X14706786Y-16446214D02*
X14821071Y-16446214D01*
X14749643Y-16346214D02*
X14749643Y-16603357D01*
X14763928Y-16631929D01*
X14792500Y-16646214D01*
X14821071Y-16646214D01*
X14906786Y-16631929D02*
X14935357Y-16646214D01*
X14992500Y-16646214D01*
X15021071Y-16631929D01*
X15035357Y-16603357D01*
X15035357Y-16589071D01*
X15021071Y-16560500D01*
X14992500Y-16546214D01*
X14949643Y-16546214D01*
X14921071Y-16531929D01*
X14906786Y-16503357D01*
X14906786Y-16489071D01*
X14921071Y-16460500D01*
X14949643Y-16446214D01*
X14992500Y-16446214D01*
X15021071Y-16460500D01*
X15135357Y-16760500D02*
X15149643Y-16746214D01*
X15178214Y-16703357D01*
X15192500Y-16674786D01*
X15206786Y-16631929D01*
X15221071Y-16560500D01*
X15221071Y-16503357D01*
X15206786Y-16431929D01*
X15192500Y-16389071D01*
X15178214Y-16360500D01*
X15149643Y-16317643D01*
X15135357Y-16303357D01*
X5062856Y-16941856D02*
X5062856Y-16871144D01*
X4992144Y-16871144D01*
X4992144Y-16941856D01*
X5062856Y-16941856D01*
X5521071Y-17042214D02*
X5349643Y-17042214D01*
X5435357Y-17042214D02*
X5435357Y-16742214D01*
X5406786Y-16785072D01*
X5378214Y-16813643D01*
X5349643Y-16827929D01*
X5649643Y-17013643D02*
X5663928Y-17027929D01*
X5649643Y-17042214D01*
X5635357Y-17027929D01*
X5649643Y-17013643D01*
X5649643Y-17042214D01*
X5849643Y-16742214D02*
X5878214Y-16742214D01*
X5906786Y-16756500D01*
X5921071Y-16770786D01*
X5935357Y-16799357D01*
X5949643Y-16856500D01*
X5949643Y-16927929D01*
X5935357Y-16985072D01*
X5921071Y-17013643D01*
X5906786Y-17027929D01*
X5878214Y-17042214D01*
X5849643Y-17042214D01*
X5821071Y-17027929D01*
X5806786Y-17013643D01*
X5792500Y-16985072D01*
X5778214Y-16927929D01*
X5778214Y-16856500D01*
X5792500Y-16799357D01*
X5806786Y-16770786D01*
X5821071Y-16756500D01*
X5849643Y-16742214D01*
X6135357Y-16742214D02*
X6163928Y-16742214D01*
X6192500Y-16756500D01*
X6206786Y-16770786D01*
X6221071Y-16799357D01*
X6235357Y-16856500D01*
X6235357Y-16927929D01*
X6221071Y-16985072D01*
X6206786Y-17013643D01*
X6192500Y-17027929D01*
X6163928Y-17042214D01*
X6135357Y-17042214D01*
X6106786Y-17027929D01*
X6092500Y-17013643D01*
X6078214Y-16985072D01*
X6063928Y-16927929D01*
X6063928Y-16856500D01*
X6078214Y-16799357D01*
X6092500Y-16770786D01*
X6106786Y-16756500D01*
X6135357Y-16742214D01*
X6421071Y-16742214D02*
X6449643Y-16742214D01*
X6478214Y-16756500D01*
X6492500Y-16770786D01*
X6506786Y-16799357D01*
X6521071Y-16856500D01*
X6521071Y-16927929D01*
X6506786Y-16985072D01*
X6492500Y-17013643D01*
X6478214Y-17027929D01*
X6449643Y-17042214D01*
X6421071Y-17042214D01*
X6392500Y-17027929D01*
X6378214Y-17013643D01*
X6363928Y-16985072D01*
X6349643Y-16927929D01*
X6349643Y-16856500D01*
X6363928Y-16799357D01*
X6378214Y-16770786D01*
X6392500Y-16756500D01*
X6421071Y-16742214D01*
X6649643Y-17042214D02*
X6649643Y-16842214D01*
X6649643Y-16870786D02*
X6663928Y-16856500D01*
X6692500Y-16842214D01*
X6735357Y-16842214D01*
X6763928Y-16856500D01*
X6778214Y-16885072D01*
X6778214Y-17042214D01*
X6778214Y-16885072D02*
X6792500Y-16856500D01*
X6821071Y-16842214D01*
X6863928Y-16842214D01*
X6892500Y-16856500D01*
X6906786Y-16885072D01*
X6906786Y-17042214D01*
X7049643Y-17042214D02*
X7049643Y-16842214D01*
X7049643Y-16870786D02*
X7063928Y-16856500D01*
X7092500Y-16842214D01*
X7135357Y-16842214D01*
X7163928Y-16856500D01*
X7178214Y-16885072D01*
X7178214Y-17042214D01*
X7178214Y-16885072D02*
X7192500Y-16856500D01*
X7221071Y-16842214D01*
X7263928Y-16842214D01*
X7292500Y-16856500D01*
X7306786Y-16885072D01*
X7306786Y-17042214D01*
X7892500Y-16727929D02*
X7635357Y-17113643D01*
X8278214Y-16742214D02*
X8306786Y-16742214D01*
X8335357Y-16756500D01*
X8349643Y-16770786D01*
X8363928Y-16799357D01*
X8378214Y-16856500D01*
X8378214Y-16927929D01*
X8363928Y-16985072D01*
X8349643Y-17013643D01*
X8335357Y-17027929D01*
X8306786Y-17042214D01*
X8278214Y-17042214D01*
X8249643Y-17027929D01*
X8235357Y-17013643D01*
X8221071Y-16985072D01*
X8206786Y-16927929D01*
X8206786Y-16856500D01*
X8221071Y-16799357D01*
X8235357Y-16770786D01*
X8249643Y-16756500D01*
X8278214Y-16742214D01*
X8506786Y-17013643D02*
X8521071Y-17027929D01*
X8506786Y-17042214D01*
X8492500Y-17027929D01*
X8506786Y-17013643D01*
X8506786Y-17042214D01*
X8706786Y-16742214D02*
X8735357Y-16742214D01*
X8763928Y-16756500D01*
X8778214Y-16770786D01*
X8792500Y-16799357D01*
X8806786Y-16856500D01*
X8806786Y-16927929D01*
X8792500Y-16985072D01*
X8778214Y-17013643D01*
X8763928Y-17027929D01*
X8735357Y-17042214D01*
X8706786Y-17042214D01*
X8678214Y-17027929D01*
X8663928Y-17013643D01*
X8649643Y-16985072D01*
X8635357Y-16927929D01*
X8635357Y-16856500D01*
X8649643Y-16799357D01*
X8663928Y-16770786D01*
X8678214Y-16756500D01*
X8706786Y-16742214D01*
X8906786Y-16742214D02*
X9092500Y-16742214D01*
X8992500Y-16856500D01*
X9035357Y-16856500D01*
X9063928Y-16870786D01*
X9078214Y-16885072D01*
X9092500Y-16913643D01*
X9092500Y-16985072D01*
X9078214Y-17013643D01*
X9063928Y-17027929D01*
X9035357Y-17042214D01*
X8949643Y-17042214D01*
X8921071Y-17027929D01*
X8906786Y-17013643D01*
X9235357Y-17042214D02*
X9292500Y-17042214D01*
X9321071Y-17027929D01*
X9335357Y-17013643D01*
X9363928Y-16970786D01*
X9378214Y-16913643D01*
X9378214Y-16799357D01*
X9363928Y-16770786D01*
X9349643Y-16756500D01*
X9321071Y-16742214D01*
X9263928Y-16742214D01*
X9235357Y-16756500D01*
X9221071Y-16770786D01*
X9206786Y-16799357D01*
X9206786Y-16870786D01*
X9221071Y-16899357D01*
X9235357Y-16913643D01*
X9263928Y-16927929D01*
X9321071Y-16927929D01*
X9349643Y-16913643D01*
X9363928Y-16899357D01*
X9378214Y-16870786D01*
X9635357Y-16842214D02*
X9635357Y-17042214D01*
X9563928Y-16727929D02*
X9492500Y-16942214D01*
X9678214Y-16942214D01*
X9778214Y-16742214D02*
X9778214Y-16799357D01*
X9892500Y-16742214D02*
X9892500Y-16799357D01*
X10335357Y-17156500D02*
X10321071Y-17142214D01*
X10292500Y-17099357D01*
X10278214Y-17070786D01*
X10263928Y-17027929D01*
X10249643Y-16956500D01*
X10249643Y-16899357D01*
X10263928Y-16827929D01*
X10278214Y-16785072D01*
X10292500Y-16756500D01*
X10321071Y-16713643D01*
X10335357Y-16699357D01*
X10578214Y-16742214D02*
X10521071Y-16742214D01*
X10492500Y-16756500D01*
X10478214Y-16770786D01*
X10449643Y-16813643D01*
X10435357Y-16870786D01*
X10435357Y-16985072D01*
X10449643Y-17013643D01*
X10463928Y-17027929D01*
X10492500Y-17042214D01*
X10549643Y-17042214D01*
X10578214Y-17027929D01*
X10592500Y-17013643D01*
X10606786Y-16985072D01*
X10606786Y-16913643D01*
X10592500Y-16885072D01*
X10578214Y-16870786D01*
X10549643Y-16856500D01*
X10492500Y-16856500D01*
X10463928Y-16870786D01*
X10449643Y-16885072D01*
X10435357Y-16913643D01*
X10892500Y-17042214D02*
X10721071Y-17042214D01*
X10806786Y-17042214D02*
X10806786Y-16742214D01*
X10778214Y-16785072D01*
X10749643Y-16813643D01*
X10721071Y-16827929D01*
X11249643Y-17042214D02*
X11249643Y-16742214D01*
X11378214Y-17042214D02*
X11378214Y-16885072D01*
X11363928Y-16856500D01*
X11335357Y-16842214D01*
X11292500Y-16842214D01*
X11263928Y-16856500D01*
X11249643Y-16870786D01*
X11563928Y-17042214D02*
X11535357Y-17027929D01*
X11521071Y-17013643D01*
X11506786Y-16985072D01*
X11506786Y-16899357D01*
X11521071Y-16870786D01*
X11535357Y-16856500D01*
X11563928Y-16842214D01*
X11606786Y-16842214D01*
X11635357Y-16856500D01*
X11649643Y-16870786D01*
X11663928Y-16899357D01*
X11663928Y-16985072D01*
X11649643Y-17013643D01*
X11635357Y-17027929D01*
X11606786Y-17042214D01*
X11563928Y-17042214D01*
X11835357Y-17042214D02*
X11806786Y-17027929D01*
X11792500Y-16999357D01*
X11792500Y-16742214D01*
X12063928Y-17027929D02*
X12035357Y-17042214D01*
X11978214Y-17042214D01*
X11949643Y-17027929D01*
X11935357Y-16999357D01*
X11935357Y-16885072D01*
X11949643Y-16856500D01*
X11978214Y-16842214D01*
X12035357Y-16842214D01*
X12063928Y-16856500D01*
X12078214Y-16885072D01*
X12078214Y-16913643D01*
X11935357Y-16942214D01*
X12192500Y-17027929D02*
X12221071Y-17042214D01*
X12278214Y-17042214D01*
X12306786Y-17027929D01*
X12321071Y-16999357D01*
X12321071Y-16985072D01*
X12306786Y-16956500D01*
X12278214Y-16942214D01*
X12235357Y-16942214D01*
X12206786Y-16927929D01*
X12192500Y-16899357D01*
X12192500Y-16885072D01*
X12206786Y-16856500D01*
X12235357Y-16842214D01*
X12278214Y-16842214D01*
X12306786Y-16856500D01*
X12421071Y-17156500D02*
X12435357Y-17142214D01*
X12463928Y-17099357D01*
X12478214Y-17070786D01*
X12492500Y-17027929D01*
X12506786Y-16956500D01*
X12506786Y-16899357D01*
X12492500Y-16827929D01*
X12478214Y-16785072D01*
X12463928Y-16756500D01*
X12435357Y-16713643D01*
X12421071Y-16699357D01*
X5022500Y-17357500D02*
X5077500Y-17302500D01*
X5022500Y-17247500D01*
X4967500Y-17302500D01*
X5022500Y-17357500D01*
X5521071Y-17438214D02*
X5349643Y-17438214D01*
X5435357Y-17438214D02*
X5435357Y-17138214D01*
X5406786Y-17181072D01*
X5378214Y-17209643D01*
X5349643Y-17223929D01*
X5649643Y-17409643D02*
X5663928Y-17423929D01*
X5649643Y-17438214D01*
X5635357Y-17423929D01*
X5649643Y-17409643D01*
X5649643Y-17438214D01*
X5949643Y-17438214D02*
X5778214Y-17438214D01*
X5863928Y-17438214D02*
X5863928Y-17138214D01*
X5835357Y-17181072D01*
X5806786Y-17209643D01*
X5778214Y-17223929D01*
X6135357Y-17138214D02*
X6163928Y-17138214D01*
X6192500Y-17152500D01*
X6206786Y-17166786D01*
X6221071Y-17195357D01*
X6235357Y-17252500D01*
X6235357Y-17323929D01*
X6221071Y-17381072D01*
X6206786Y-17409643D01*
X6192500Y-17423929D01*
X6163928Y-17438214D01*
X6135357Y-17438214D01*
X6106786Y-17423929D01*
X6092500Y-17409643D01*
X6078214Y-17381072D01*
X6063928Y-17323929D01*
X6063928Y-17252500D01*
X6078214Y-17195357D01*
X6092500Y-17166786D01*
X6106786Y-17152500D01*
X6135357Y-17138214D01*
X6421071Y-17138214D02*
X6449643Y-17138214D01*
X6478214Y-17152500D01*
X6492500Y-17166786D01*
X6506786Y-17195357D01*
X6521071Y-17252500D01*
X6521071Y-17323929D01*
X6506786Y-17381072D01*
X6492500Y-17409643D01*
X6478214Y-17423929D01*
X6449643Y-17438214D01*
X6421071Y-17438214D01*
X6392500Y-17423929D01*
X6378214Y-17409643D01*
X6363928Y-17381072D01*
X6349643Y-17323929D01*
X6349643Y-17252500D01*
X6363928Y-17195357D01*
X6378214Y-17166786D01*
X6392500Y-17152500D01*
X6421071Y-17138214D01*
X6649643Y-17438214D02*
X6649643Y-17238214D01*
X6649643Y-17266786D02*
X6663928Y-17252500D01*
X6692500Y-17238214D01*
X6735357Y-17238214D01*
X6763928Y-17252500D01*
X6778214Y-17281072D01*
X6778214Y-17438214D01*
X6778214Y-17281072D02*
X6792500Y-17252500D01*
X6821071Y-17238214D01*
X6863928Y-17238214D01*
X6892500Y-17252500D01*
X6906786Y-17281072D01*
X6906786Y-17438214D01*
X7049643Y-17438214D02*
X7049643Y-17238214D01*
X7049643Y-17266786D02*
X7063928Y-17252500D01*
X7092500Y-17238214D01*
X7135357Y-17238214D01*
X7163928Y-17252500D01*
X7178214Y-17281072D01*
X7178214Y-17438214D01*
X7178214Y-17281072D02*
X7192500Y-17252500D01*
X7221071Y-17238214D01*
X7263928Y-17238214D01*
X7292500Y-17252500D01*
X7306786Y-17281072D01*
X7306786Y-17438214D01*
X7892500Y-17123929D02*
X7635357Y-17509643D01*
X8278214Y-17138214D02*
X8306786Y-17138214D01*
X8335357Y-17152500D01*
X8349643Y-17166786D01*
X8363928Y-17195357D01*
X8378214Y-17252500D01*
X8378214Y-17323929D01*
X8363928Y-17381072D01*
X8349643Y-17409643D01*
X8335357Y-17423929D01*
X8306786Y-17438214D01*
X8278214Y-17438214D01*
X8249643Y-17423929D01*
X8235357Y-17409643D01*
X8221071Y-17381072D01*
X8206786Y-17323929D01*
X8206786Y-17252500D01*
X8221071Y-17195357D01*
X8235357Y-17166786D01*
X8249643Y-17152500D01*
X8278214Y-17138214D01*
X8506786Y-17409643D02*
X8521071Y-17423929D01*
X8506786Y-17438214D01*
X8492500Y-17423929D01*
X8506786Y-17409643D01*
X8506786Y-17438214D01*
X8706786Y-17138214D02*
X8735357Y-17138214D01*
X8763928Y-17152500D01*
X8778214Y-17166786D01*
X8792500Y-17195357D01*
X8806786Y-17252500D01*
X8806786Y-17323929D01*
X8792500Y-17381072D01*
X8778214Y-17409643D01*
X8763928Y-17423929D01*
X8735357Y-17438214D01*
X8706786Y-17438214D01*
X8678214Y-17423929D01*
X8663928Y-17409643D01*
X8649643Y-17381072D01*
X8635357Y-17323929D01*
X8635357Y-17252500D01*
X8649643Y-17195357D01*
X8663928Y-17166786D01*
X8678214Y-17152500D01*
X8706786Y-17138214D01*
X9063928Y-17238214D02*
X9063928Y-17438214D01*
X8992500Y-17123929D02*
X8921071Y-17338214D01*
X9106786Y-17338214D01*
X9192500Y-17138214D02*
X9378214Y-17138214D01*
X9278214Y-17252500D01*
X9321071Y-17252500D01*
X9349643Y-17266786D01*
X9363928Y-17281072D01*
X9378214Y-17309643D01*
X9378214Y-17381072D01*
X9363928Y-17409643D01*
X9349643Y-17423929D01*
X9321071Y-17438214D01*
X9235357Y-17438214D01*
X9206786Y-17423929D01*
X9192500Y-17409643D01*
X9478214Y-17138214D02*
X9663928Y-17138214D01*
X9563928Y-17252500D01*
X9606786Y-17252500D01*
X9635357Y-17266786D01*
X9649643Y-17281072D01*
X9663928Y-17309643D01*
X9663928Y-17381072D01*
X9649643Y-17409643D01*
X9635357Y-17423929D01*
X9606786Y-17438214D01*
X9521071Y-17438214D01*
X9492500Y-17423929D01*
X9478214Y-17409643D01*
X9778214Y-17138214D02*
X9778214Y-17195357D01*
X9892500Y-17138214D02*
X9892500Y-17195357D01*
X10335357Y-17552500D02*
X10321071Y-17538214D01*
X10292500Y-17495357D01*
X10278214Y-17466786D01*
X10263928Y-17423929D01*
X10249643Y-17352500D01*
X10249643Y-17295357D01*
X10263928Y-17223929D01*
X10278214Y-17181072D01*
X10292500Y-17152500D01*
X10321071Y-17109643D01*
X10335357Y-17095357D01*
X10421071Y-17138214D02*
X10606786Y-17138214D01*
X10506786Y-17252500D01*
X10549643Y-17252500D01*
X10578214Y-17266786D01*
X10592500Y-17281072D01*
X10606786Y-17309643D01*
X10606786Y-17381072D01*
X10592500Y-17409643D01*
X10578214Y-17423929D01*
X10549643Y-17438214D01*
X10463928Y-17438214D01*
X10435357Y-17423929D01*
X10421071Y-17409643D01*
X10963928Y-17438214D02*
X10963928Y-17138214D01*
X11092500Y-17438214D02*
X11092500Y-17281072D01*
X11078214Y-17252500D01*
X11049643Y-17238214D01*
X11006786Y-17238214D01*
X10978214Y-17252500D01*
X10963928Y-17266786D01*
X11278214Y-17438214D02*
X11249643Y-17423929D01*
X11235357Y-17409643D01*
X11221071Y-17381072D01*
X11221071Y-17295357D01*
X11235357Y-17266786D01*
X11249643Y-17252500D01*
X11278214Y-17238214D01*
X11321071Y-17238214D01*
X11349643Y-17252500D01*
X11363928Y-17266786D01*
X11378214Y-17295357D01*
X11378214Y-17381072D01*
X11363928Y-17409643D01*
X11349643Y-17423929D01*
X11321071Y-17438214D01*
X11278214Y-17438214D01*
X11549643Y-17438214D02*
X11521071Y-17423929D01*
X11506786Y-17395357D01*
X11506786Y-17138214D01*
X11778214Y-17423929D02*
X11749643Y-17438214D01*
X11692500Y-17438214D01*
X11663928Y-17423929D01*
X11649643Y-17395357D01*
X11649643Y-17281072D01*
X11663928Y-17252500D01*
X11692500Y-17238214D01*
X11749643Y-17238214D01*
X11778214Y-17252500D01*
X11792500Y-17281072D01*
X11792500Y-17309643D01*
X11649643Y-17338214D01*
X11906786Y-17423929D02*
X11935357Y-17438214D01*
X11992500Y-17438214D01*
X12021071Y-17423929D01*
X12035357Y-17395357D01*
X12035357Y-17381072D01*
X12021071Y-17352500D01*
X11992500Y-17338214D01*
X11949643Y-17338214D01*
X11921071Y-17323929D01*
X11906786Y-17295357D01*
X11906786Y-17281072D01*
X11921071Y-17252500D01*
X11949643Y-17238214D01*
X11992500Y-17238214D01*
X12021071Y-17252500D01*
X12135357Y-17552500D02*
X12149643Y-17538214D01*
X12178214Y-17495357D01*
X12192500Y-17466786D01*
X12206786Y-17423929D01*
X12221071Y-17352500D01*
X12221071Y-17295357D01*
X12206786Y-17223929D01*
X12192500Y-17181072D01*
X12178214Y-17152500D01*
X12149643Y-17109643D01*
X12135357Y-17095357D01*
X4957500Y-17638500D02*
X5077500Y-17758500D01*
X5077500Y-17638500D02*
X4957500Y-17758500D01*
X5077500Y-17698500D02*
G75*
G03*
X5077500Y-17698500I-60000J0D01*
G01*
X5521071Y-17834214D02*
X5349643Y-17834214D01*
X5435357Y-17834214D02*
X5435357Y-17534214D01*
X5406786Y-17577072D01*
X5378214Y-17605643D01*
X5349643Y-17619929D01*
X5649643Y-17805643D02*
X5663928Y-17819929D01*
X5649643Y-17834214D01*
X5635357Y-17819929D01*
X5649643Y-17805643D01*
X5649643Y-17834214D01*
X5778214Y-17562786D02*
X5792500Y-17548500D01*
X5821071Y-17534214D01*
X5892500Y-17534214D01*
X5921071Y-17548500D01*
X5935357Y-17562786D01*
X5949643Y-17591357D01*
X5949643Y-17619929D01*
X5935357Y-17662786D01*
X5763928Y-17834214D01*
X5949643Y-17834214D01*
X6135357Y-17534214D02*
X6163928Y-17534214D01*
X6192500Y-17548500D01*
X6206786Y-17562786D01*
X6221071Y-17591357D01*
X6235357Y-17648500D01*
X6235357Y-17719929D01*
X6221071Y-17777072D01*
X6206786Y-17805643D01*
X6192500Y-17819929D01*
X6163928Y-17834214D01*
X6135357Y-17834214D01*
X6106786Y-17819929D01*
X6092500Y-17805643D01*
X6078214Y-17777072D01*
X6063928Y-17719929D01*
X6063928Y-17648500D01*
X6078214Y-17591357D01*
X6092500Y-17562786D01*
X6106786Y-17548500D01*
X6135357Y-17534214D01*
X6421071Y-17534214D02*
X6449643Y-17534214D01*
X6478214Y-17548500D01*
X6492500Y-17562786D01*
X6506786Y-17591357D01*
X6521071Y-17648500D01*
X6521071Y-17719929D01*
X6506786Y-17777072D01*
X6492500Y-17805643D01*
X6478214Y-17819929D01*
X6449643Y-17834214D01*
X6421071Y-17834214D01*
X6392500Y-17819929D01*
X6378214Y-17805643D01*
X6363928Y-17777072D01*
X6349643Y-17719929D01*
X6349643Y-17648500D01*
X6363928Y-17591357D01*
X6378214Y-17562786D01*
X6392500Y-17548500D01*
X6421071Y-17534214D01*
X6649643Y-17834214D02*
X6649643Y-17634214D01*
X6649643Y-17662786D02*
X6663928Y-17648500D01*
X6692500Y-17634214D01*
X6735357Y-17634214D01*
X6763928Y-17648500D01*
X6778214Y-17677072D01*
X6778214Y-17834214D01*
X6778214Y-17677072D02*
X6792500Y-17648500D01*
X6821071Y-17634214D01*
X6863928Y-17634214D01*
X6892500Y-17648500D01*
X6906786Y-17677072D01*
X6906786Y-17834214D01*
X7049643Y-17834214D02*
X7049643Y-17634214D01*
X7049643Y-17662786D02*
X7063928Y-17648500D01*
X7092500Y-17634214D01*
X7135357Y-17634214D01*
X7163928Y-17648500D01*
X7178214Y-17677072D01*
X7178214Y-17834214D01*
X7178214Y-17677072D02*
X7192500Y-17648500D01*
X7221071Y-17634214D01*
X7263928Y-17634214D01*
X7292500Y-17648500D01*
X7306786Y-17677072D01*
X7306786Y-17834214D01*
X7892500Y-17519929D02*
X7635357Y-17905643D01*
X8278214Y-17534214D02*
X8306786Y-17534214D01*
X8335357Y-17548500D01*
X8349643Y-17562786D01*
X8363928Y-17591357D01*
X8378214Y-17648500D01*
X8378214Y-17719929D01*
X8363928Y-17777072D01*
X8349643Y-17805643D01*
X8335357Y-17819929D01*
X8306786Y-17834214D01*
X8278214Y-17834214D01*
X8249643Y-17819929D01*
X8235357Y-17805643D01*
X8221071Y-17777072D01*
X8206786Y-17719929D01*
X8206786Y-17648500D01*
X8221071Y-17591357D01*
X8235357Y-17562786D01*
X8249643Y-17548500D01*
X8278214Y-17534214D01*
X8506786Y-17805643D02*
X8521071Y-17819929D01*
X8506786Y-17834214D01*
X8492500Y-17819929D01*
X8506786Y-17805643D01*
X8506786Y-17834214D01*
X8706786Y-17534214D02*
X8735357Y-17534214D01*
X8763928Y-17548500D01*
X8778214Y-17562786D01*
X8792500Y-17591357D01*
X8806786Y-17648500D01*
X8806786Y-17719929D01*
X8792500Y-17777072D01*
X8778214Y-17805643D01*
X8763928Y-17819929D01*
X8735357Y-17834214D01*
X8706786Y-17834214D01*
X8678214Y-17819929D01*
X8663928Y-17805643D01*
X8649643Y-17777072D01*
X8635357Y-17719929D01*
X8635357Y-17648500D01*
X8649643Y-17591357D01*
X8663928Y-17562786D01*
X8678214Y-17548500D01*
X8706786Y-17534214D01*
X9063928Y-17634214D02*
X9063928Y-17834214D01*
X8992500Y-17519929D02*
X8921071Y-17734214D01*
X9106786Y-17734214D01*
X9192500Y-17534214D02*
X9392500Y-17534214D01*
X9263928Y-17834214D01*
X9492500Y-17562786D02*
X9506786Y-17548500D01*
X9535357Y-17534214D01*
X9606786Y-17534214D01*
X9635357Y-17548500D01*
X9649643Y-17562786D01*
X9663928Y-17591357D01*
X9663928Y-17619929D01*
X9649643Y-17662786D01*
X9478214Y-17834214D01*
X9663928Y-17834214D01*
X9778214Y-17534214D02*
X9778214Y-17591357D01*
X9892500Y-17534214D02*
X9892500Y-17591357D01*
X10335357Y-17948500D02*
X10321071Y-17934214D01*
X10292500Y-17891357D01*
X10278214Y-17862786D01*
X10263928Y-17819929D01*
X10249643Y-17748500D01*
X10249643Y-17691357D01*
X10263928Y-17619929D01*
X10278214Y-17577072D01*
X10292500Y-17548500D01*
X10321071Y-17505643D01*
X10335357Y-17491357D01*
X10435357Y-17562786D02*
X10449643Y-17548500D01*
X10478214Y-17534214D01*
X10549643Y-17534214D01*
X10578214Y-17548500D01*
X10592500Y-17562786D01*
X10606786Y-17591357D01*
X10606786Y-17619929D01*
X10592500Y-17662786D01*
X10421071Y-17834214D01*
X10606786Y-17834214D01*
X10778214Y-17662786D02*
X10749643Y-17648500D01*
X10735357Y-17634214D01*
X10721071Y-17605643D01*
X10721071Y-17591357D01*
X10735357Y-17562786D01*
X10749643Y-17548500D01*
X10778214Y-17534214D01*
X10835357Y-17534214D01*
X10863928Y-17548500D01*
X10878214Y-17562786D01*
X10892500Y-17591357D01*
X10892500Y-17605643D01*
X10878214Y-17634214D01*
X10863928Y-17648500D01*
X10835357Y-17662786D01*
X10778214Y-17662786D01*
X10749643Y-17677072D01*
X10735357Y-17691357D01*
X10721071Y-17719929D01*
X10721071Y-17777072D01*
X10735357Y-17805643D01*
X10749643Y-17819929D01*
X10778214Y-17834214D01*
X10835357Y-17834214D01*
X10863928Y-17819929D01*
X10878214Y-17805643D01*
X10892500Y-17777072D01*
X10892500Y-17719929D01*
X10878214Y-17691357D01*
X10863928Y-17677072D01*
X10835357Y-17662786D01*
X11249643Y-17834214D02*
X11249643Y-17534214D01*
X11378214Y-17834214D02*
X11378214Y-17677072D01*
X11363928Y-17648500D01*
X11335357Y-17634214D01*
X11292500Y-17634214D01*
X11263928Y-17648500D01*
X11249643Y-17662786D01*
X11563928Y-17834214D02*
X11535357Y-17819929D01*
X11521071Y-17805643D01*
X11506786Y-17777072D01*
X11506786Y-17691357D01*
X11521071Y-17662786D01*
X11535357Y-17648500D01*
X11563928Y-17634214D01*
X11606786Y-17634214D01*
X11635357Y-17648500D01*
X11649643Y-17662786D01*
X11663928Y-17691357D01*
X11663928Y-17777072D01*
X11649643Y-17805643D01*
X11635357Y-17819929D01*
X11606786Y-17834214D01*
X11563928Y-17834214D01*
X11835357Y-17834214D02*
X11806786Y-17819929D01*
X11792500Y-17791357D01*
X11792500Y-17534214D01*
X12063928Y-17819929D02*
X12035357Y-17834214D01*
X11978214Y-17834214D01*
X11949643Y-17819929D01*
X11935357Y-17791357D01*
X11935357Y-17677072D01*
X11949643Y-17648500D01*
X11978214Y-17634214D01*
X12035357Y-17634214D01*
X12063928Y-17648500D01*
X12078214Y-17677072D01*
X12078214Y-17705643D01*
X11935357Y-17734214D01*
X12192500Y-17819929D02*
X12221071Y-17834214D01*
X12278214Y-17834214D01*
X12306786Y-17819929D01*
X12321071Y-17791357D01*
X12321071Y-17777072D01*
X12306786Y-17748500D01*
X12278214Y-17734214D01*
X12235357Y-17734214D01*
X12206786Y-17719929D01*
X12192500Y-17691357D01*
X12192500Y-17677072D01*
X12206786Y-17648500D01*
X12235357Y-17634214D01*
X12278214Y-17634214D01*
X12306786Y-17648500D01*
X12421071Y-17948500D02*
X12435357Y-17934214D01*
X12463928Y-17891357D01*
X12478214Y-17862786D01*
X12492500Y-17819929D01*
X12506786Y-17748500D01*
X12506786Y-17691357D01*
X12492500Y-17619929D01*
X12478214Y-17577072D01*
X12463928Y-17548500D01*
X12435357Y-17505643D01*
X12421071Y-17491357D01*
X4897500Y-18004500D02*
X5077500Y-18184500D01*
X5077500Y-18004500D02*
X4897500Y-18184500D01*
X4987500Y-18004500D02*
X4987500Y-18184500D01*
X4897500Y-18094500D02*
X5077500Y-18094500D01*
X5521071Y-18230214D02*
X5349643Y-18230214D01*
X5435357Y-18230214D02*
X5435357Y-17930214D01*
X5406786Y-17973072D01*
X5378214Y-18001643D01*
X5349643Y-18015929D01*
X5649643Y-18201643D02*
X5663928Y-18215929D01*
X5649643Y-18230214D01*
X5635357Y-18215929D01*
X5649643Y-18201643D01*
X5649643Y-18230214D01*
X5835357Y-18058786D02*
X5806786Y-18044500D01*
X5792500Y-18030214D01*
X5778214Y-18001643D01*
X5778214Y-17987357D01*
X5792500Y-17958786D01*
X5806786Y-17944500D01*
X5835357Y-17930214D01*
X5892500Y-17930214D01*
X5921071Y-17944500D01*
X5935357Y-17958786D01*
X5949643Y-17987357D01*
X5949643Y-18001643D01*
X5935357Y-18030214D01*
X5921071Y-18044500D01*
X5892500Y-18058786D01*
X5835357Y-18058786D01*
X5806786Y-18073072D01*
X5792500Y-18087357D01*
X5778214Y-18115929D01*
X5778214Y-18173072D01*
X5792500Y-18201643D01*
X5806786Y-18215929D01*
X5835357Y-18230214D01*
X5892500Y-18230214D01*
X5921071Y-18215929D01*
X5935357Y-18201643D01*
X5949643Y-18173072D01*
X5949643Y-18115929D01*
X5935357Y-18087357D01*
X5921071Y-18073072D01*
X5892500Y-18058786D01*
X6135357Y-17930214D02*
X6163928Y-17930214D01*
X6192500Y-17944500D01*
X6206786Y-17958786D01*
X6221071Y-17987357D01*
X6235357Y-18044500D01*
X6235357Y-18115929D01*
X6221071Y-18173072D01*
X6206786Y-18201643D01*
X6192500Y-18215929D01*
X6163928Y-18230214D01*
X6135357Y-18230214D01*
X6106786Y-18215929D01*
X6092500Y-18201643D01*
X6078214Y-18173072D01*
X6063928Y-18115929D01*
X6063928Y-18044500D01*
X6078214Y-17987357D01*
X6092500Y-17958786D01*
X6106786Y-17944500D01*
X6135357Y-17930214D01*
X6421071Y-17930214D02*
X6449643Y-17930214D01*
X6478214Y-17944500D01*
X6492500Y-17958786D01*
X6506786Y-17987357D01*
X6521071Y-18044500D01*
X6521071Y-18115929D01*
X6506786Y-18173072D01*
X6492500Y-18201643D01*
X6478214Y-18215929D01*
X6449643Y-18230214D01*
X6421071Y-18230214D01*
X6392500Y-18215929D01*
X6378214Y-18201643D01*
X6363928Y-18173072D01*
X6349643Y-18115929D01*
X6349643Y-18044500D01*
X6363928Y-17987357D01*
X6378214Y-17958786D01*
X6392500Y-17944500D01*
X6421071Y-17930214D01*
X6649643Y-18230214D02*
X6649643Y-18030214D01*
X6649643Y-18058786D02*
X6663928Y-18044500D01*
X6692500Y-18030214D01*
X6735357Y-18030214D01*
X6763928Y-18044500D01*
X6778214Y-18073072D01*
X6778214Y-18230214D01*
X6778214Y-18073072D02*
X6792500Y-18044500D01*
X6821071Y-18030214D01*
X6863928Y-18030214D01*
X6892500Y-18044500D01*
X6906786Y-18073072D01*
X6906786Y-18230214D01*
X7049643Y-18230214D02*
X7049643Y-18030214D01*
X7049643Y-18058786D02*
X7063928Y-18044500D01*
X7092500Y-18030214D01*
X7135357Y-18030214D01*
X7163928Y-18044500D01*
X7178214Y-18073072D01*
X7178214Y-18230214D01*
X7178214Y-18073072D02*
X7192500Y-18044500D01*
X7221071Y-18030214D01*
X7263928Y-18030214D01*
X7292500Y-18044500D01*
X7306786Y-18073072D01*
X7306786Y-18230214D01*
X7892500Y-17915929D02*
X7635357Y-18301643D01*
X8278214Y-17930214D02*
X8306786Y-17930214D01*
X8335357Y-17944500D01*
X8349643Y-17958786D01*
X8363928Y-17987357D01*
X8378214Y-18044500D01*
X8378214Y-18115929D01*
X8363928Y-18173072D01*
X8349643Y-18201643D01*
X8335357Y-18215929D01*
X8306786Y-18230214D01*
X8278214Y-18230214D01*
X8249643Y-18215929D01*
X8235357Y-18201643D01*
X8221071Y-18173072D01*
X8206786Y-18115929D01*
X8206786Y-18044500D01*
X8221071Y-17987357D01*
X8235357Y-17958786D01*
X8249643Y-17944500D01*
X8278214Y-17930214D01*
X8506786Y-18201643D02*
X8521071Y-18215929D01*
X8506786Y-18230214D01*
X8492500Y-18215929D01*
X8506786Y-18201643D01*
X8506786Y-18230214D01*
X8706786Y-17930214D02*
X8735357Y-17930214D01*
X8763928Y-17944500D01*
X8778214Y-17958786D01*
X8792500Y-17987357D01*
X8806786Y-18044500D01*
X8806786Y-18115929D01*
X8792500Y-18173072D01*
X8778214Y-18201643D01*
X8763928Y-18215929D01*
X8735357Y-18230214D01*
X8706786Y-18230214D01*
X8678214Y-18215929D01*
X8663928Y-18201643D01*
X8649643Y-18173072D01*
X8635357Y-18115929D01*
X8635357Y-18044500D01*
X8649643Y-17987357D01*
X8663928Y-17958786D01*
X8678214Y-17944500D01*
X8706786Y-17930214D01*
X8906786Y-17930214D02*
X9106786Y-17930214D01*
X8978214Y-18230214D01*
X9278214Y-17930214D02*
X9306786Y-17930214D01*
X9335357Y-17944500D01*
X9349643Y-17958786D01*
X9363928Y-17987357D01*
X9378214Y-18044500D01*
X9378214Y-18115929D01*
X9363928Y-18173072D01*
X9349643Y-18201643D01*
X9335357Y-18215929D01*
X9306786Y-18230214D01*
X9278214Y-18230214D01*
X9249643Y-18215929D01*
X9235357Y-18201643D01*
X9221071Y-18173072D01*
X9206786Y-18115929D01*
X9206786Y-18044500D01*
X9221071Y-17987357D01*
X9235357Y-17958786D01*
X9249643Y-17944500D01*
X9278214Y-17930214D01*
X9521071Y-18230214D02*
X9578214Y-18230214D01*
X9606786Y-18215929D01*
X9621071Y-18201643D01*
X9649643Y-18158786D01*
X9663928Y-18101643D01*
X9663928Y-17987357D01*
X9649643Y-17958786D01*
X9635357Y-17944500D01*
X9606786Y-17930214D01*
X9549643Y-17930214D01*
X9521071Y-17944500D01*
X9506786Y-17958786D01*
X9492500Y-17987357D01*
X9492500Y-18058786D01*
X9506786Y-18087357D01*
X9521071Y-18101643D01*
X9549643Y-18115929D01*
X9606786Y-18115929D01*
X9635357Y-18101643D01*
X9649643Y-18087357D01*
X9663928Y-18058786D01*
X9778214Y-17930214D02*
X9778214Y-17987357D01*
X9892500Y-17930214D02*
X9892500Y-17987357D01*
X10335357Y-18344500D02*
X10321071Y-18330214D01*
X10292500Y-18287357D01*
X10278214Y-18258786D01*
X10263928Y-18215929D01*
X10249643Y-18144500D01*
X10249643Y-18087357D01*
X10263928Y-18015929D01*
X10278214Y-17973072D01*
X10292500Y-17944500D01*
X10321071Y-17901643D01*
X10335357Y-17887357D01*
X10578214Y-17930214D02*
X10521071Y-17930214D01*
X10492500Y-17944500D01*
X10478214Y-17958786D01*
X10449643Y-18001643D01*
X10435357Y-18058786D01*
X10435357Y-18173072D01*
X10449643Y-18201643D01*
X10463928Y-18215929D01*
X10492500Y-18230214D01*
X10549643Y-18230214D01*
X10578214Y-18215929D01*
X10592500Y-18201643D01*
X10606786Y-18173072D01*
X10606786Y-18101643D01*
X10592500Y-18073072D01*
X10578214Y-18058786D01*
X10549643Y-18044500D01*
X10492500Y-18044500D01*
X10463928Y-18058786D01*
X10449643Y-18073072D01*
X10435357Y-18101643D01*
X10963928Y-18230214D02*
X10963928Y-17930214D01*
X11092500Y-18230214D02*
X11092500Y-18073072D01*
X11078214Y-18044500D01*
X11049643Y-18030214D01*
X11006786Y-18030214D01*
X10978214Y-18044500D01*
X10963928Y-18058786D01*
X11278214Y-18230214D02*
X11249643Y-18215929D01*
X11235357Y-18201643D01*
X11221071Y-18173072D01*
X11221071Y-18087357D01*
X11235357Y-18058786D01*
X11249643Y-18044500D01*
X11278214Y-18030214D01*
X11321071Y-18030214D01*
X11349643Y-18044500D01*
X11363928Y-18058786D01*
X11378214Y-18087357D01*
X11378214Y-18173072D01*
X11363928Y-18201643D01*
X11349643Y-18215929D01*
X11321071Y-18230214D01*
X11278214Y-18230214D01*
X11549643Y-18230214D02*
X11521071Y-18215929D01*
X11506786Y-18187357D01*
X11506786Y-17930214D01*
X11778214Y-18215929D02*
X11749643Y-18230214D01*
X11692500Y-18230214D01*
X11663928Y-18215929D01*
X11649643Y-18187357D01*
X11649643Y-18073072D01*
X11663928Y-18044500D01*
X11692500Y-18030214D01*
X11749643Y-18030214D01*
X11778214Y-18044500D01*
X11792500Y-18073072D01*
X11792500Y-18101643D01*
X11649643Y-18130214D01*
X11906786Y-18215929D02*
X11935357Y-18230214D01*
X11992500Y-18230214D01*
X12021071Y-18215929D01*
X12035357Y-18187357D01*
X12035357Y-18173072D01*
X12021071Y-18144500D01*
X11992500Y-18130214D01*
X11949643Y-18130214D01*
X11921071Y-18115929D01*
X11906786Y-18087357D01*
X11906786Y-18073072D01*
X11921071Y-18044500D01*
X11949643Y-18030214D01*
X11992500Y-18030214D01*
X12021071Y-18044500D01*
X12135357Y-18344500D02*
X12149643Y-18330214D01*
X12178214Y-18287357D01*
X12192500Y-18258786D01*
X12206786Y-18215929D01*
X12221071Y-18144500D01*
X12221071Y-18087357D01*
X12206786Y-18015929D01*
X12192500Y-17973072D01*
X12178214Y-17944500D01*
X12149643Y-17901643D01*
X12135357Y-17887357D01*
X4892500Y-18398000D02*
X5077500Y-18583000D01*
X5077500Y-18398000D02*
X4892500Y-18583000D01*
X5050408Y-18555908D02*
X5050408Y-18425092D01*
X4919592Y-18425092D01*
X4919592Y-18555908D01*
X5050408Y-18555908D01*
X5521071Y-18626214D02*
X5349643Y-18626214D01*
X5435357Y-18626214D02*
X5435357Y-18326214D01*
X5406786Y-18369072D01*
X5378214Y-18397643D01*
X5349643Y-18411929D01*
X5649643Y-18597643D02*
X5663928Y-18611929D01*
X5649643Y-18626214D01*
X5635357Y-18611929D01*
X5649643Y-18597643D01*
X5649643Y-18626214D01*
X5835357Y-18454786D02*
X5806786Y-18440500D01*
X5792500Y-18426214D01*
X5778214Y-18397643D01*
X5778214Y-18383357D01*
X5792500Y-18354786D01*
X5806786Y-18340500D01*
X5835357Y-18326214D01*
X5892500Y-18326214D01*
X5921071Y-18340500D01*
X5935357Y-18354786D01*
X5949643Y-18383357D01*
X5949643Y-18397643D01*
X5935357Y-18426214D01*
X5921071Y-18440500D01*
X5892500Y-18454786D01*
X5835357Y-18454786D01*
X5806786Y-18469072D01*
X5792500Y-18483357D01*
X5778214Y-18511929D01*
X5778214Y-18569072D01*
X5792500Y-18597643D01*
X5806786Y-18611929D01*
X5835357Y-18626214D01*
X5892500Y-18626214D01*
X5921071Y-18611929D01*
X5935357Y-18597643D01*
X5949643Y-18569072D01*
X5949643Y-18511929D01*
X5935357Y-18483357D01*
X5921071Y-18469072D01*
X5892500Y-18454786D01*
X6221071Y-18326214D02*
X6078214Y-18326214D01*
X6063928Y-18469072D01*
X6078214Y-18454786D01*
X6106786Y-18440500D01*
X6178214Y-18440500D01*
X6206786Y-18454786D01*
X6221071Y-18469072D01*
X6235357Y-18497643D01*
X6235357Y-18569072D01*
X6221071Y-18597643D01*
X6206786Y-18611929D01*
X6178214Y-18626214D01*
X6106786Y-18626214D01*
X6078214Y-18611929D01*
X6063928Y-18597643D01*
X6421071Y-18326214D02*
X6449643Y-18326214D01*
X6478214Y-18340500D01*
X6492500Y-18354786D01*
X6506786Y-18383357D01*
X6521071Y-18440500D01*
X6521071Y-18511929D01*
X6506786Y-18569072D01*
X6492500Y-18597643D01*
X6478214Y-18611929D01*
X6449643Y-18626214D01*
X6421071Y-18626214D01*
X6392500Y-18611929D01*
X6378214Y-18597643D01*
X6363928Y-18569072D01*
X6349643Y-18511929D01*
X6349643Y-18440500D01*
X6363928Y-18383357D01*
X6378214Y-18354786D01*
X6392500Y-18340500D01*
X6421071Y-18326214D01*
X6649643Y-18626214D02*
X6649643Y-18426214D01*
X6649643Y-18454786D02*
X6663928Y-18440500D01*
X6692500Y-18426214D01*
X6735357Y-18426214D01*
X6763928Y-18440500D01*
X6778214Y-18469072D01*
X6778214Y-18626214D01*
X6778214Y-18469072D02*
X6792500Y-18440500D01*
X6821071Y-18426214D01*
X6863928Y-18426214D01*
X6892500Y-18440500D01*
X6906786Y-18469072D01*
X6906786Y-18626214D01*
X7049643Y-18626214D02*
X7049643Y-18426214D01*
X7049643Y-18454786D02*
X7063928Y-18440500D01*
X7092500Y-18426214D01*
X7135357Y-18426214D01*
X7163928Y-18440500D01*
X7178214Y-18469072D01*
X7178214Y-18626214D01*
X7178214Y-18469072D02*
X7192500Y-18440500D01*
X7221071Y-18426214D01*
X7263928Y-18426214D01*
X7292500Y-18440500D01*
X7306786Y-18469072D01*
X7306786Y-18626214D01*
X7892500Y-18311929D02*
X7635357Y-18697643D01*
X8278214Y-18326214D02*
X8306786Y-18326214D01*
X8335357Y-18340500D01*
X8349643Y-18354786D01*
X8363928Y-18383357D01*
X8378214Y-18440500D01*
X8378214Y-18511929D01*
X8363928Y-18569072D01*
X8349643Y-18597643D01*
X8335357Y-18611929D01*
X8306786Y-18626214D01*
X8278214Y-18626214D01*
X8249643Y-18611929D01*
X8235357Y-18597643D01*
X8221071Y-18569072D01*
X8206786Y-18511929D01*
X8206786Y-18440500D01*
X8221071Y-18383357D01*
X8235357Y-18354786D01*
X8249643Y-18340500D01*
X8278214Y-18326214D01*
X8506786Y-18597643D02*
X8521071Y-18611929D01*
X8506786Y-18626214D01*
X8492500Y-18611929D01*
X8506786Y-18597643D01*
X8506786Y-18626214D01*
X8706786Y-18326214D02*
X8735357Y-18326214D01*
X8763928Y-18340500D01*
X8778214Y-18354786D01*
X8792500Y-18383357D01*
X8806786Y-18440500D01*
X8806786Y-18511929D01*
X8792500Y-18569072D01*
X8778214Y-18597643D01*
X8763928Y-18611929D01*
X8735357Y-18626214D01*
X8706786Y-18626214D01*
X8678214Y-18611929D01*
X8663928Y-18597643D01*
X8649643Y-18569072D01*
X8635357Y-18511929D01*
X8635357Y-18440500D01*
X8649643Y-18383357D01*
X8663928Y-18354786D01*
X8678214Y-18340500D01*
X8706786Y-18326214D01*
X8906786Y-18326214D02*
X9106786Y-18326214D01*
X8978214Y-18626214D01*
X9206786Y-18354786D02*
X9221071Y-18340500D01*
X9249643Y-18326214D01*
X9321071Y-18326214D01*
X9349643Y-18340500D01*
X9363928Y-18354786D01*
X9378214Y-18383357D01*
X9378214Y-18411929D01*
X9363928Y-18454786D01*
X9192500Y-18626214D01*
X9378214Y-18626214D01*
X9549643Y-18454786D02*
X9521071Y-18440500D01*
X9506786Y-18426214D01*
X9492500Y-18397643D01*
X9492500Y-18383357D01*
X9506786Y-18354786D01*
X9521071Y-18340500D01*
X9549643Y-18326214D01*
X9606786Y-18326214D01*
X9635357Y-18340500D01*
X9649643Y-18354786D01*
X9663928Y-18383357D01*
X9663928Y-18397643D01*
X9649643Y-18426214D01*
X9635357Y-18440500D01*
X9606786Y-18454786D01*
X9549643Y-18454786D01*
X9521071Y-18469072D01*
X9506786Y-18483357D01*
X9492500Y-18511929D01*
X9492500Y-18569072D01*
X9506786Y-18597643D01*
X9521071Y-18611929D01*
X9549643Y-18626214D01*
X9606786Y-18626214D01*
X9635357Y-18611929D01*
X9649643Y-18597643D01*
X9663928Y-18569072D01*
X9663928Y-18511929D01*
X9649643Y-18483357D01*
X9635357Y-18469072D01*
X9606786Y-18454786D01*
X9778214Y-18326214D02*
X9778214Y-18383357D01*
X9892500Y-18326214D02*
X9892500Y-18383357D01*
X10335357Y-18740500D02*
X10321071Y-18726214D01*
X10292500Y-18683357D01*
X10278214Y-18654786D01*
X10263928Y-18611929D01*
X10249643Y-18540500D01*
X10249643Y-18483357D01*
X10263928Y-18411929D01*
X10278214Y-18369072D01*
X10292500Y-18340500D01*
X10321071Y-18297643D01*
X10335357Y-18283357D01*
X10435357Y-18354786D02*
X10449643Y-18340500D01*
X10478214Y-18326214D01*
X10549643Y-18326214D01*
X10578214Y-18340500D01*
X10592500Y-18354786D01*
X10606786Y-18383357D01*
X10606786Y-18411929D01*
X10592500Y-18454786D01*
X10421071Y-18626214D01*
X10606786Y-18626214D01*
X10963928Y-18626214D02*
X10963928Y-18326214D01*
X11092500Y-18626214D02*
X11092500Y-18469072D01*
X11078214Y-18440500D01*
X11049643Y-18426214D01*
X11006786Y-18426214D01*
X10978214Y-18440500D01*
X10963928Y-18454786D01*
X11278214Y-18626214D02*
X11249643Y-18611929D01*
X11235357Y-18597643D01*
X11221071Y-18569072D01*
X11221071Y-18483357D01*
X11235357Y-18454786D01*
X11249643Y-18440500D01*
X11278214Y-18426214D01*
X11321071Y-18426214D01*
X11349643Y-18440500D01*
X11363928Y-18454786D01*
X11378214Y-18483357D01*
X11378214Y-18569072D01*
X11363928Y-18597643D01*
X11349643Y-18611929D01*
X11321071Y-18626214D01*
X11278214Y-18626214D01*
X11549643Y-18626214D02*
X11521071Y-18611929D01*
X11506786Y-18583357D01*
X11506786Y-18326214D01*
X11778214Y-18611929D02*
X11749643Y-18626214D01*
X11692500Y-18626214D01*
X11663928Y-18611929D01*
X11649643Y-18583357D01*
X11649643Y-18469072D01*
X11663928Y-18440500D01*
X11692500Y-18426214D01*
X11749643Y-18426214D01*
X11778214Y-18440500D01*
X11792500Y-18469072D01*
X11792500Y-18497643D01*
X11649643Y-18526214D01*
X11906786Y-18611929D02*
X11935357Y-18626214D01*
X11992500Y-18626214D01*
X12021071Y-18611929D01*
X12035357Y-18583357D01*
X12035357Y-18569072D01*
X12021071Y-18540500D01*
X11992500Y-18526214D01*
X11949643Y-18526214D01*
X11921071Y-18511929D01*
X11906786Y-18483357D01*
X11906786Y-18469072D01*
X11921071Y-18440500D01*
X11949643Y-18426214D01*
X11992500Y-18426214D01*
X12021071Y-18440500D01*
X12135357Y-18740500D02*
X12149643Y-18726214D01*
X12178214Y-18683357D01*
X12192500Y-18654786D01*
X12206786Y-18611929D01*
X12221071Y-18540500D01*
X12221071Y-18483357D01*
X12206786Y-18411929D01*
X12192500Y-18369072D01*
X12178214Y-18340500D01*
X12149643Y-18297643D01*
X12135357Y-18283357D01*
X4867500Y-18781500D02*
X5077500Y-18991500D01*
X5077500Y-18781500D02*
X4867500Y-18991500D01*
X4972500Y-18991500D02*
X5077500Y-18886500D01*
X4972500Y-18781500D01*
X4867500Y-18886500D01*
X4972500Y-18991500D01*
X5349643Y-18750786D02*
X5363928Y-18736500D01*
X5392500Y-18722214D01*
X5463928Y-18722214D01*
X5492500Y-18736500D01*
X5506786Y-18750786D01*
X5521071Y-18779357D01*
X5521071Y-18807929D01*
X5506786Y-18850786D01*
X5335357Y-19022214D01*
X5521071Y-19022214D01*
X5649643Y-18993643D02*
X5663928Y-19007929D01*
X5649643Y-19022214D01*
X5635357Y-19007929D01*
X5649643Y-18993643D01*
X5649643Y-19022214D01*
X5949643Y-19022214D02*
X5778214Y-19022214D01*
X5863928Y-19022214D02*
X5863928Y-18722214D01*
X5835357Y-18765072D01*
X5806786Y-18793643D01*
X5778214Y-18807929D01*
X6135357Y-18722214D02*
X6163928Y-18722214D01*
X6192500Y-18736500D01*
X6206786Y-18750786D01*
X6221071Y-18779357D01*
X6235357Y-18836500D01*
X6235357Y-18907929D01*
X6221071Y-18965072D01*
X6206786Y-18993643D01*
X6192500Y-19007929D01*
X6163928Y-19022214D01*
X6135357Y-19022214D01*
X6106786Y-19007929D01*
X6092500Y-18993643D01*
X6078214Y-18965072D01*
X6063928Y-18907929D01*
X6063928Y-18836500D01*
X6078214Y-18779357D01*
X6092500Y-18750786D01*
X6106786Y-18736500D01*
X6135357Y-18722214D01*
X6421071Y-18722214D02*
X6449643Y-18722214D01*
X6478214Y-18736500D01*
X6492500Y-18750786D01*
X6506786Y-18779357D01*
X6521071Y-18836500D01*
X6521071Y-18907929D01*
X6506786Y-18965072D01*
X6492500Y-18993643D01*
X6478214Y-19007929D01*
X6449643Y-19022214D01*
X6421071Y-19022214D01*
X6392500Y-19007929D01*
X6378214Y-18993643D01*
X6363928Y-18965072D01*
X6349643Y-18907929D01*
X6349643Y-18836500D01*
X6363928Y-18779357D01*
X6378214Y-18750786D01*
X6392500Y-18736500D01*
X6421071Y-18722214D01*
X6649643Y-19022214D02*
X6649643Y-18822214D01*
X6649643Y-18850786D02*
X6663928Y-18836500D01*
X6692500Y-18822214D01*
X6735357Y-18822214D01*
X6763928Y-18836500D01*
X6778214Y-18865072D01*
X6778214Y-19022214D01*
X6778214Y-18865072D02*
X6792500Y-18836500D01*
X6821071Y-18822214D01*
X6863928Y-18822214D01*
X6892500Y-18836500D01*
X6906786Y-18865072D01*
X6906786Y-19022214D01*
X7049643Y-19022214D02*
X7049643Y-18822214D01*
X7049643Y-18850786D02*
X7063928Y-18836500D01*
X7092500Y-18822214D01*
X7135357Y-18822214D01*
X7163928Y-18836500D01*
X7178214Y-18865072D01*
X7178214Y-19022214D01*
X7178214Y-18865072D02*
X7192500Y-18836500D01*
X7221071Y-18822214D01*
X7263928Y-18822214D01*
X7292500Y-18836500D01*
X7306786Y-18865072D01*
X7306786Y-19022214D01*
X7892500Y-18707929D02*
X7635357Y-19093643D01*
X8278214Y-18722214D02*
X8306786Y-18722214D01*
X8335357Y-18736500D01*
X8349643Y-18750786D01*
X8363928Y-18779357D01*
X8378214Y-18836500D01*
X8378214Y-18907929D01*
X8363928Y-18965072D01*
X8349643Y-18993643D01*
X8335357Y-19007929D01*
X8306786Y-19022214D01*
X8278214Y-19022214D01*
X8249643Y-19007929D01*
X8235357Y-18993643D01*
X8221071Y-18965072D01*
X8206786Y-18907929D01*
X8206786Y-18836500D01*
X8221071Y-18779357D01*
X8235357Y-18750786D01*
X8249643Y-18736500D01*
X8278214Y-18722214D01*
X8506786Y-18993643D02*
X8521071Y-19007929D01*
X8506786Y-19022214D01*
X8492500Y-19007929D01*
X8506786Y-18993643D01*
X8506786Y-19022214D01*
X8706786Y-18722214D02*
X8735357Y-18722214D01*
X8763928Y-18736500D01*
X8778214Y-18750786D01*
X8792500Y-18779357D01*
X8806786Y-18836500D01*
X8806786Y-18907929D01*
X8792500Y-18965072D01*
X8778214Y-18993643D01*
X8763928Y-19007929D01*
X8735357Y-19022214D01*
X8706786Y-19022214D01*
X8678214Y-19007929D01*
X8663928Y-18993643D01*
X8649643Y-18965072D01*
X8635357Y-18907929D01*
X8635357Y-18836500D01*
X8649643Y-18779357D01*
X8663928Y-18750786D01*
X8678214Y-18736500D01*
X8706786Y-18722214D01*
X8978214Y-18850786D02*
X8949643Y-18836500D01*
X8935357Y-18822214D01*
X8921071Y-18793643D01*
X8921071Y-18779357D01*
X8935357Y-18750786D01*
X8949643Y-18736500D01*
X8978214Y-18722214D01*
X9035357Y-18722214D01*
X9063928Y-18736500D01*
X9078214Y-18750786D01*
X9092500Y-18779357D01*
X9092500Y-18793643D01*
X9078214Y-18822214D01*
X9063928Y-18836500D01*
X9035357Y-18850786D01*
X8978214Y-18850786D01*
X8949643Y-18865072D01*
X8935357Y-18879357D01*
X8921071Y-18907929D01*
X8921071Y-18965072D01*
X8935357Y-18993643D01*
X8949643Y-19007929D01*
X8978214Y-19022214D01*
X9035357Y-19022214D01*
X9063928Y-19007929D01*
X9078214Y-18993643D01*
X9092500Y-18965072D01*
X9092500Y-18907929D01*
X9078214Y-18879357D01*
X9063928Y-18865072D01*
X9035357Y-18850786D01*
X9206786Y-18750786D02*
X9221071Y-18736500D01*
X9249643Y-18722214D01*
X9321071Y-18722214D01*
X9349643Y-18736500D01*
X9363928Y-18750786D01*
X9378214Y-18779357D01*
X9378214Y-18807929D01*
X9363928Y-18850786D01*
X9192500Y-19022214D01*
X9378214Y-19022214D01*
X9478214Y-18722214D02*
X9678214Y-18722214D01*
X9549643Y-19022214D01*
X9778214Y-18722214D02*
X9778214Y-18779357D01*
X9892500Y-18722214D02*
X9892500Y-18779357D01*
X10335357Y-19136500D02*
X10321071Y-19122214D01*
X10292500Y-19079357D01*
X10278214Y-19050786D01*
X10263928Y-19007929D01*
X10249643Y-18936500D01*
X10249643Y-18879357D01*
X10263928Y-18807929D01*
X10278214Y-18765072D01*
X10292500Y-18736500D01*
X10321071Y-18693643D01*
X10335357Y-18679357D01*
X10435357Y-18750786D02*
X10449643Y-18736500D01*
X10478214Y-18722214D01*
X10549643Y-18722214D01*
X10578214Y-18736500D01*
X10592500Y-18750786D01*
X10606786Y-18779357D01*
X10606786Y-18807929D01*
X10592500Y-18850786D01*
X10421071Y-19022214D01*
X10606786Y-19022214D01*
X10963928Y-19022214D02*
X10963928Y-18722214D01*
X11092500Y-19022214D02*
X11092500Y-18865072D01*
X11078214Y-18836500D01*
X11049643Y-18822214D01*
X11006786Y-18822214D01*
X10978214Y-18836500D01*
X10963928Y-18850786D01*
X11278214Y-19022214D02*
X11249643Y-19007929D01*
X11235357Y-18993643D01*
X11221071Y-18965072D01*
X11221071Y-18879357D01*
X11235357Y-18850786D01*
X11249643Y-18836500D01*
X11278214Y-18822214D01*
X11321071Y-18822214D01*
X11349643Y-18836500D01*
X11363928Y-18850786D01*
X11378214Y-18879357D01*
X11378214Y-18965072D01*
X11363928Y-18993643D01*
X11349643Y-19007929D01*
X11321071Y-19022214D01*
X11278214Y-19022214D01*
X11549643Y-19022214D02*
X11521071Y-19007929D01*
X11506786Y-18979357D01*
X11506786Y-18722214D01*
X11778214Y-19007929D02*
X11749643Y-19022214D01*
X11692500Y-19022214D01*
X11663928Y-19007929D01*
X11649643Y-18979357D01*
X11649643Y-18865072D01*
X11663928Y-18836500D01*
X11692500Y-18822214D01*
X11749643Y-18822214D01*
X11778214Y-18836500D01*
X11792500Y-18865072D01*
X11792500Y-18893643D01*
X11649643Y-18922214D01*
X11906786Y-19007929D02*
X11935357Y-19022214D01*
X11992500Y-19022214D01*
X12021071Y-19007929D01*
X12035357Y-18979357D01*
X12035357Y-18965072D01*
X12021071Y-18936500D01*
X11992500Y-18922214D01*
X11949643Y-18922214D01*
X11921071Y-18907929D01*
X11906786Y-18879357D01*
X11906786Y-18865072D01*
X11921071Y-18836500D01*
X11949643Y-18822214D01*
X11992500Y-18822214D01*
X12021071Y-18836500D01*
X12135357Y-19136500D02*
X12149643Y-19122214D01*
X12178214Y-19079357D01*
X12192500Y-19050786D01*
X12206786Y-19007929D01*
X12221071Y-18936500D01*
X12221071Y-18879357D01*
X12206786Y-18807929D01*
X12192500Y-18765072D01*
X12178214Y-18736500D01*
X12149643Y-18693643D01*
X12135357Y-18679357D01*
X4957500Y-19162500D02*
X4957500Y-19402500D01*
X4837500Y-19282500D02*
X5077500Y-19282500D01*
X5077500Y-19282500D02*
G75*
G03*
X5077500Y-19282500I-120000J0D01*
G01*
X5349643Y-19146786D02*
X5363928Y-19132500D01*
X5392500Y-19118214D01*
X5463928Y-19118214D01*
X5492500Y-19132500D01*
X5506786Y-19146786D01*
X5521071Y-19175357D01*
X5521071Y-19203929D01*
X5506786Y-19246786D01*
X5335357Y-19418214D01*
X5521071Y-19418214D01*
X5649643Y-19389643D02*
X5663928Y-19403929D01*
X5649643Y-19418214D01*
X5635357Y-19403929D01*
X5649643Y-19389643D01*
X5649643Y-19418214D01*
X5921071Y-19218214D02*
X5921071Y-19418214D01*
X5849643Y-19103929D02*
X5778214Y-19318214D01*
X5963928Y-19318214D01*
X6135357Y-19118214D02*
X6163928Y-19118214D01*
X6192500Y-19132500D01*
X6206786Y-19146786D01*
X6221071Y-19175357D01*
X6235357Y-19232500D01*
X6235357Y-19303929D01*
X6221071Y-19361072D01*
X6206786Y-19389643D01*
X6192500Y-19403929D01*
X6163928Y-19418214D01*
X6135357Y-19418214D01*
X6106786Y-19403929D01*
X6092500Y-19389643D01*
X6078214Y-19361072D01*
X6063928Y-19303929D01*
X6063928Y-19232500D01*
X6078214Y-19175357D01*
X6092500Y-19146786D01*
X6106786Y-19132500D01*
X6135357Y-19118214D01*
X6421071Y-19118214D02*
X6449643Y-19118214D01*
X6478214Y-19132500D01*
X6492500Y-19146786D01*
X6506786Y-19175357D01*
X6521071Y-19232500D01*
X6521071Y-19303929D01*
X6506786Y-19361072D01*
X6492500Y-19389643D01*
X6478214Y-19403929D01*
X6449643Y-19418214D01*
X6421071Y-19418214D01*
X6392500Y-19403929D01*
X6378214Y-19389643D01*
X6363928Y-19361072D01*
X6349643Y-19303929D01*
X6349643Y-19232500D01*
X6363928Y-19175357D01*
X6378214Y-19146786D01*
X6392500Y-19132500D01*
X6421071Y-19118214D01*
X6649643Y-19418214D02*
X6649643Y-19218214D01*
X6649643Y-19246786D02*
X6663928Y-19232500D01*
X6692500Y-19218214D01*
X6735357Y-19218214D01*
X6763928Y-19232500D01*
X6778214Y-19261072D01*
X6778214Y-19418214D01*
X6778214Y-19261072D02*
X6792500Y-19232500D01*
X6821071Y-19218214D01*
X6863928Y-19218214D01*
X6892500Y-19232500D01*
X6906786Y-19261072D01*
X6906786Y-19418214D01*
X7049643Y-19418214D02*
X7049643Y-19218214D01*
X7049643Y-19246786D02*
X7063928Y-19232500D01*
X7092500Y-19218214D01*
X7135357Y-19218214D01*
X7163928Y-19232500D01*
X7178214Y-19261072D01*
X7178214Y-19418214D01*
X7178214Y-19261072D02*
X7192500Y-19232500D01*
X7221071Y-19218214D01*
X7263928Y-19218214D01*
X7292500Y-19232500D01*
X7306786Y-19261072D01*
X7306786Y-19418214D01*
X7892500Y-19103929D02*
X7635357Y-19489643D01*
X8278214Y-19118214D02*
X8306786Y-19118214D01*
X8335357Y-19132500D01*
X8349643Y-19146786D01*
X8363928Y-19175357D01*
X8378214Y-19232500D01*
X8378214Y-19303929D01*
X8363928Y-19361072D01*
X8349643Y-19389643D01*
X8335357Y-19403929D01*
X8306786Y-19418214D01*
X8278214Y-19418214D01*
X8249643Y-19403929D01*
X8235357Y-19389643D01*
X8221071Y-19361072D01*
X8206786Y-19303929D01*
X8206786Y-19232500D01*
X8221071Y-19175357D01*
X8235357Y-19146786D01*
X8249643Y-19132500D01*
X8278214Y-19118214D01*
X8506786Y-19389643D02*
X8521071Y-19403929D01*
X8506786Y-19418214D01*
X8492500Y-19403929D01*
X8506786Y-19389643D01*
X8506786Y-19418214D01*
X8706786Y-19118214D02*
X8735357Y-19118214D01*
X8763928Y-19132500D01*
X8778214Y-19146786D01*
X8792500Y-19175357D01*
X8806786Y-19232500D01*
X8806786Y-19303929D01*
X8792500Y-19361072D01*
X8778214Y-19389643D01*
X8763928Y-19403929D01*
X8735357Y-19418214D01*
X8706786Y-19418214D01*
X8678214Y-19403929D01*
X8663928Y-19389643D01*
X8649643Y-19361072D01*
X8635357Y-19303929D01*
X8635357Y-19232500D01*
X8649643Y-19175357D01*
X8663928Y-19146786D01*
X8678214Y-19132500D01*
X8706786Y-19118214D01*
X8949643Y-19418214D02*
X9006786Y-19418214D01*
X9035357Y-19403929D01*
X9049643Y-19389643D01*
X9078214Y-19346786D01*
X9092500Y-19289643D01*
X9092500Y-19175357D01*
X9078214Y-19146786D01*
X9063928Y-19132500D01*
X9035357Y-19118214D01*
X8978214Y-19118214D01*
X8949643Y-19132500D01*
X8935357Y-19146786D01*
X8921071Y-19175357D01*
X8921071Y-19246786D01*
X8935357Y-19275357D01*
X8949643Y-19289643D01*
X8978214Y-19303929D01*
X9035357Y-19303929D01*
X9063928Y-19289643D01*
X9078214Y-19275357D01*
X9092500Y-19246786D01*
X9349643Y-19218214D02*
X9349643Y-19418214D01*
X9278214Y-19103929D02*
X9206786Y-19318214D01*
X9392500Y-19318214D01*
X9649643Y-19118214D02*
X9506786Y-19118214D01*
X9492500Y-19261072D01*
X9506786Y-19246786D01*
X9535357Y-19232500D01*
X9606786Y-19232500D01*
X9635357Y-19246786D01*
X9649643Y-19261072D01*
X9663928Y-19289643D01*
X9663928Y-19361072D01*
X9649643Y-19389643D01*
X9635357Y-19403929D01*
X9606786Y-19418214D01*
X9535357Y-19418214D01*
X9506786Y-19403929D01*
X9492500Y-19389643D01*
X9778214Y-19118214D02*
X9778214Y-19175357D01*
X9892500Y-19118214D02*
X9892500Y-19175357D01*
X10335357Y-19532500D02*
X10321071Y-19518214D01*
X10292500Y-19475357D01*
X10278214Y-19446786D01*
X10263928Y-19403929D01*
X10249643Y-19332500D01*
X10249643Y-19275357D01*
X10263928Y-19203929D01*
X10278214Y-19161072D01*
X10292500Y-19132500D01*
X10321071Y-19089643D01*
X10335357Y-19075357D01*
X10578214Y-19218214D02*
X10578214Y-19418214D01*
X10506786Y-19103929D02*
X10435357Y-19318214D01*
X10621071Y-19318214D01*
X10963928Y-19418214D02*
X10963928Y-19118214D01*
X11092500Y-19418214D02*
X11092500Y-19261072D01*
X11078214Y-19232500D01*
X11049643Y-19218214D01*
X11006786Y-19218214D01*
X10978214Y-19232500D01*
X10963928Y-19246786D01*
X11278214Y-19418214D02*
X11249643Y-19403929D01*
X11235357Y-19389643D01*
X11221071Y-19361072D01*
X11221071Y-19275357D01*
X11235357Y-19246786D01*
X11249643Y-19232500D01*
X11278214Y-19218214D01*
X11321071Y-19218214D01*
X11349643Y-19232500D01*
X11363928Y-19246786D01*
X11378214Y-19275357D01*
X11378214Y-19361072D01*
X11363928Y-19389643D01*
X11349643Y-19403929D01*
X11321071Y-19418214D01*
X11278214Y-19418214D01*
X11549643Y-19418214D02*
X11521071Y-19403929D01*
X11506786Y-19375357D01*
X11506786Y-19118214D01*
X11778214Y-19403929D02*
X11749643Y-19418214D01*
X11692500Y-19418214D01*
X11663928Y-19403929D01*
X11649643Y-19375357D01*
X11649643Y-19261072D01*
X11663928Y-19232500D01*
X11692500Y-19218214D01*
X11749643Y-19218214D01*
X11778214Y-19232500D01*
X11792500Y-19261072D01*
X11792500Y-19289643D01*
X11649643Y-19318214D01*
X11906786Y-19403929D02*
X11935357Y-19418214D01*
X11992500Y-19418214D01*
X12021071Y-19403929D01*
X12035357Y-19375357D01*
X12035357Y-19361072D01*
X12021071Y-19332500D01*
X11992500Y-19318214D01*
X11949643Y-19318214D01*
X11921071Y-19303929D01*
X11906786Y-19275357D01*
X11906786Y-19261072D01*
X11921071Y-19232500D01*
X11949643Y-19218214D01*
X11992500Y-19218214D01*
X12021071Y-19232500D01*
X12135357Y-19532500D02*
X12149643Y-19518214D01*
X12178214Y-19475357D01*
X12192500Y-19446786D01*
X12206786Y-19403929D01*
X12221071Y-19332500D01*
X12221071Y-19275357D01*
X12206786Y-19203929D01*
X12192500Y-19161072D01*
X12178214Y-19132500D01*
X12149643Y-19089643D01*
X12135357Y-19075357D01*
X5018923Y-19819923D02*
X5018923Y-19537077D01*
X4736077Y-19537077D01*
X4736077Y-19819923D01*
X5018923Y-19819923D01*
X5077500Y-19678500D02*
G75*
G03*
X5077500Y-19678500I-200000J0D01*
G01*
X5492500Y-19614214D02*
X5492500Y-19814214D01*
X5421071Y-19499929D02*
X5349643Y-19714214D01*
X5535357Y-19714214D01*
X5649643Y-19785643D02*
X5663928Y-19799929D01*
X5649643Y-19814214D01*
X5635357Y-19799929D01*
X5649643Y-19785643D01*
X5649643Y-19814214D01*
X5849643Y-19514214D02*
X5878214Y-19514214D01*
X5906786Y-19528500D01*
X5921071Y-19542786D01*
X5935357Y-19571357D01*
X5949643Y-19628500D01*
X5949643Y-19699929D01*
X5935357Y-19757072D01*
X5921071Y-19785643D01*
X5906786Y-19799929D01*
X5878214Y-19814214D01*
X5849643Y-19814214D01*
X5821071Y-19799929D01*
X5806786Y-19785643D01*
X5792500Y-19757072D01*
X5778214Y-19699929D01*
X5778214Y-19628500D01*
X5792500Y-19571357D01*
X5806786Y-19542786D01*
X5821071Y-19528500D01*
X5849643Y-19514214D01*
X6135357Y-19514214D02*
X6163928Y-19514214D01*
X6192500Y-19528500D01*
X6206786Y-19542786D01*
X6221071Y-19571357D01*
X6235357Y-19628500D01*
X6235357Y-19699929D01*
X6221071Y-19757072D01*
X6206786Y-19785643D01*
X6192500Y-19799929D01*
X6163928Y-19814214D01*
X6135357Y-19814214D01*
X6106786Y-19799929D01*
X6092500Y-19785643D01*
X6078214Y-19757072D01*
X6063928Y-19699929D01*
X6063928Y-19628500D01*
X6078214Y-19571357D01*
X6092500Y-19542786D01*
X6106786Y-19528500D01*
X6135357Y-19514214D01*
X6421071Y-19514214D02*
X6449643Y-19514214D01*
X6478214Y-19528500D01*
X6492500Y-19542786D01*
X6506786Y-19571357D01*
X6521071Y-19628500D01*
X6521071Y-19699929D01*
X6506786Y-19757072D01*
X6492500Y-19785643D01*
X6478214Y-19799929D01*
X6449643Y-19814214D01*
X6421071Y-19814214D01*
X6392500Y-19799929D01*
X6378214Y-19785643D01*
X6363928Y-19757072D01*
X6349643Y-19699929D01*
X6349643Y-19628500D01*
X6363928Y-19571357D01*
X6378214Y-19542786D01*
X6392500Y-19528500D01*
X6421071Y-19514214D01*
X6649643Y-19814214D02*
X6649643Y-19614214D01*
X6649643Y-19642786D02*
X6663928Y-19628500D01*
X6692500Y-19614214D01*
X6735357Y-19614214D01*
X6763928Y-19628500D01*
X6778214Y-19657072D01*
X6778214Y-19814214D01*
X6778214Y-19657072D02*
X6792500Y-19628500D01*
X6821071Y-19614214D01*
X6863928Y-19614214D01*
X6892500Y-19628500D01*
X6906786Y-19657072D01*
X6906786Y-19814214D01*
X7049643Y-19814214D02*
X7049643Y-19614214D01*
X7049643Y-19642786D02*
X7063928Y-19628500D01*
X7092500Y-19614214D01*
X7135357Y-19614214D01*
X7163928Y-19628500D01*
X7178214Y-19657072D01*
X7178214Y-19814214D01*
X7178214Y-19657072D02*
X7192500Y-19628500D01*
X7221071Y-19614214D01*
X7263928Y-19614214D01*
X7292500Y-19628500D01*
X7306786Y-19657072D01*
X7306786Y-19814214D01*
X7892500Y-19499929D02*
X7635357Y-19885643D01*
X8278214Y-19514214D02*
X8306786Y-19514214D01*
X8335357Y-19528500D01*
X8349643Y-19542786D01*
X8363928Y-19571357D01*
X8378214Y-19628500D01*
X8378214Y-19699929D01*
X8363928Y-19757072D01*
X8349643Y-19785643D01*
X8335357Y-19799929D01*
X8306786Y-19814214D01*
X8278214Y-19814214D01*
X8249643Y-19799929D01*
X8235357Y-19785643D01*
X8221071Y-19757072D01*
X8206786Y-19699929D01*
X8206786Y-19628500D01*
X8221071Y-19571357D01*
X8235357Y-19542786D01*
X8249643Y-19528500D01*
X8278214Y-19514214D01*
X8506786Y-19785643D02*
X8521071Y-19799929D01*
X8506786Y-19814214D01*
X8492500Y-19799929D01*
X8506786Y-19785643D01*
X8506786Y-19814214D01*
X8806786Y-19814214D02*
X8635357Y-19814214D01*
X8721071Y-19814214D02*
X8721071Y-19514214D01*
X8692500Y-19557072D01*
X8663928Y-19585643D01*
X8635357Y-19599929D01*
X9078214Y-19514214D02*
X8935357Y-19514214D01*
X8921071Y-19657072D01*
X8935357Y-19642786D01*
X8963928Y-19628500D01*
X9035357Y-19628500D01*
X9063928Y-19642786D01*
X9078214Y-19657072D01*
X9092500Y-19685643D01*
X9092500Y-19757072D01*
X9078214Y-19785643D01*
X9063928Y-19799929D01*
X9035357Y-19814214D01*
X8963928Y-19814214D01*
X8935357Y-19799929D01*
X8921071Y-19785643D01*
X9192500Y-19514214D02*
X9392500Y-19514214D01*
X9263928Y-19814214D01*
X9649643Y-19514214D02*
X9506786Y-19514214D01*
X9492500Y-19657072D01*
X9506786Y-19642786D01*
X9535357Y-19628500D01*
X9606786Y-19628500D01*
X9635357Y-19642786D01*
X9649643Y-19657072D01*
X9663928Y-19685643D01*
X9663928Y-19757072D01*
X9649643Y-19785643D01*
X9635357Y-19799929D01*
X9606786Y-19814214D01*
X9535357Y-19814214D01*
X9506786Y-19799929D01*
X9492500Y-19785643D01*
X9778214Y-19514214D02*
X9778214Y-19571357D01*
X9892500Y-19514214D02*
X9892500Y-19571357D01*
X10335357Y-19928500D02*
X10321071Y-19914214D01*
X10292500Y-19871357D01*
X10278214Y-19842786D01*
X10263928Y-19799929D01*
X10249643Y-19728500D01*
X10249643Y-19671357D01*
X10263928Y-19599929D01*
X10278214Y-19557072D01*
X10292500Y-19528500D01*
X10321071Y-19485643D01*
X10335357Y-19471357D01*
X10578214Y-19614214D02*
X10578214Y-19814214D01*
X10506786Y-19499929D02*
X10435357Y-19714214D01*
X10621071Y-19714214D01*
X10963928Y-19814214D02*
X10963928Y-19514214D01*
X11092500Y-19814214D02*
X11092500Y-19657072D01*
X11078214Y-19628500D01*
X11049643Y-19614214D01*
X11006786Y-19614214D01*
X10978214Y-19628500D01*
X10963928Y-19642786D01*
X11278214Y-19814214D02*
X11249643Y-19799929D01*
X11235357Y-19785643D01*
X11221071Y-19757072D01*
X11221071Y-19671357D01*
X11235357Y-19642786D01*
X11249643Y-19628500D01*
X11278214Y-19614214D01*
X11321071Y-19614214D01*
X11349643Y-19628500D01*
X11363928Y-19642786D01*
X11378214Y-19671357D01*
X11378214Y-19757072D01*
X11363928Y-19785643D01*
X11349643Y-19799929D01*
X11321071Y-19814214D01*
X11278214Y-19814214D01*
X11549643Y-19814214D02*
X11521071Y-19799929D01*
X11506786Y-19771357D01*
X11506786Y-19514214D01*
X11778214Y-19799929D02*
X11749643Y-19814214D01*
X11692500Y-19814214D01*
X11663928Y-19799929D01*
X11649643Y-19771357D01*
X11649643Y-19657072D01*
X11663928Y-19628500D01*
X11692500Y-19614214D01*
X11749643Y-19614214D01*
X11778214Y-19628500D01*
X11792500Y-19657072D01*
X11792500Y-19685643D01*
X11649643Y-19714214D01*
X11906786Y-19799929D02*
X11935357Y-19814214D01*
X11992500Y-19814214D01*
X12021071Y-19799929D01*
X12035357Y-19771357D01*
X12035357Y-19757072D01*
X12021071Y-19728500D01*
X11992500Y-19714214D01*
X11949643Y-19714214D01*
X11921071Y-19699929D01*
X11906786Y-19671357D01*
X11906786Y-19657072D01*
X11921071Y-19628500D01*
X11949643Y-19614214D01*
X11992500Y-19614214D01*
X12021071Y-19628500D01*
X12135357Y-19928500D02*
X12149643Y-19914214D01*
X12178214Y-19871357D01*
X12192500Y-19842786D01*
X12206786Y-19799929D01*
X12221071Y-19728500D01*
X12221071Y-19671357D01*
X12206786Y-19599929D01*
X12192500Y-19557072D01*
X12178214Y-19528500D01*
X12149643Y-19485643D01*
X12135357Y-19471357D01*
M02*
