%TF.GenerationSoftware,KiCad,Pcbnew,(5.1.10)-1*%
%TF.CreationDate,2022-09-06T22:19:55-04:00*%
%TF.ProjectId,1581-improved,31353831-2d69-46d7-9072-6f7665642e6b,2*%
%TF.SameCoordinates,Original*%
%TF.FileFunction,Soldermask,Top*%
%TF.FilePolarity,Negative*%
%FSLAX46Y46*%
G04 Gerber Fmt 4.6, Leading zero omitted, Abs format (unit mm)*
G04 Created by KiCad (PCBNEW (5.1.10)-1) date 2022-09-06 22:19:55*
%MOMM*%
%LPD*%
G01*
G04 APERTURE LIST*
%ADD10C,0.100000*%
%ADD11C,0.900000*%
%ADD12C,8.000000*%
%ADD13R,1.600000X1.600000*%
%ADD14C,1.600000*%
%ADD15R,1.700000X1.700000*%
%ADD16O,1.700000X1.700000*%
%ADD17C,2.600000*%
%ADD18C,2.300000*%
%ADD19C,2.450000*%
%ADD20O,1.600000X1.600000*%
%ADD21R,1.800000X1.800000*%
%ADD22O,1.800000X1.800000*%
%ADD23O,4.000000X1.800000*%
%ADD24O,1.800000X4.000000*%
%ADD25R,1.800000X4.400000*%
%ADD26R,1.000000X0.500000*%
%ADD27R,2.500000X2.500000*%
%ADD28C,2.500000*%
%ADD29C,3.500000*%
%ADD30C,3.000000*%
%ADD31R,2.000000X1.905000*%
%ADD32O,2.000000X1.905000*%
%ADD33R,2.400000X2.400000*%
%ADD34O,2.400000X2.400000*%
G04 APERTURE END LIST*
D10*
%TO.C,JP1*%
G36*
X177210000Y-46875000D02*
G01*
X178360000Y-46875000D01*
X177860000Y-47625000D01*
X178360000Y-48375000D01*
X177210000Y-48375000D01*
X177210000Y-46875000D01*
G37*
G36*
X178160000Y-47625000D02*
G01*
X178660000Y-46875000D01*
X179660000Y-46875000D01*
X179660000Y-48375000D01*
X178660000Y-48375000D01*
X178160000Y-47625000D01*
G37*
%TD*%
D11*
%TO.C,REF\u002A\u002A*%
X231483320Y-140118680D03*
X229362000Y-139240000D03*
X227240680Y-140118680D03*
X226362000Y-142240000D03*
X227240680Y-144361320D03*
X229362000Y-145240000D03*
X231483320Y-144361320D03*
X232362000Y-142240000D03*
D12*
X229362000Y-142240000D03*
%TD*%
D11*
%TO.C,REF\u002A\u002A*%
X231483320Y-38518680D03*
X229362000Y-37640000D03*
X227240680Y-38518680D03*
X226362000Y-40640000D03*
X227240680Y-42761320D03*
X229362000Y-43640000D03*
X231483320Y-42761320D03*
X232362000Y-40640000D03*
D12*
X229362000Y-40640000D03*
%TD*%
D11*
%TO.C,REF\u002A\u002A*%
X86957320Y-140118680D03*
X84836000Y-139240000D03*
X82714680Y-140118680D03*
X81836000Y-142240000D03*
X82714680Y-144361320D03*
X84836000Y-145240000D03*
X86957320Y-144361320D03*
X87836000Y-142240000D03*
D12*
X84836000Y-142240000D03*
%TD*%
D11*
%TO.C,REF\u002A\u002A*%
X86957320Y-38518680D03*
X84836000Y-37640000D03*
X82714680Y-38518680D03*
X81836000Y-40640000D03*
X82714680Y-42761320D03*
X84836000Y-43640000D03*
X86957320Y-42761320D03*
X87836000Y-40640000D03*
D12*
X84836000Y-40640000D03*
%TD*%
D13*
%TO.C,C18*%
X85725000Y-124460000D03*
D14*
X85725000Y-121960000D03*
%TD*%
D13*
%TO.C,C20*%
X107950000Y-78740000D03*
D14*
X105450000Y-78740000D03*
%TD*%
%TO.C,C22*%
X85725000Y-117435000D03*
D13*
X85725000Y-114935000D03*
%TD*%
D15*
%TO.C,CN1*%
X73660000Y-53975000D03*
D16*
X73660000Y-51435000D03*
X73660000Y-48895000D03*
X73660000Y-46355000D03*
X73660000Y-43815000D03*
X73660000Y-41275000D03*
%TD*%
D15*
%TO.C,CN2*%
X78740000Y-110490000D03*
D16*
X76200000Y-110490000D03*
X78740000Y-107950000D03*
X76200000Y-107950000D03*
X78740000Y-105410000D03*
X76200000Y-105410000D03*
X78740000Y-102870000D03*
X76200000Y-102870000D03*
X78740000Y-100330000D03*
X76200000Y-100330000D03*
X78740000Y-97790000D03*
X76200000Y-97790000D03*
X78740000Y-95250000D03*
X76200000Y-95250000D03*
X78740000Y-92710000D03*
X76200000Y-92710000D03*
X78740000Y-90170000D03*
X76200000Y-90170000D03*
X78740000Y-87630000D03*
X76200000Y-87630000D03*
X78740000Y-85090000D03*
X76200000Y-85090000D03*
X78740000Y-82550000D03*
X76200000Y-82550000D03*
X78740000Y-80010000D03*
X76200000Y-80010000D03*
X78740000Y-77470000D03*
X76200000Y-77470000D03*
X78740000Y-74930000D03*
X76200000Y-74930000D03*
X78740000Y-72390000D03*
X76200000Y-72390000D03*
X78740000Y-69850000D03*
X76200000Y-69850000D03*
%TD*%
D17*
%TO.C,CN3*%
X68500000Y-68580000D03*
X66000000Y-73580000D03*
X66000000Y-63580000D03*
X63500000Y-76080000D03*
X63500000Y-68580000D03*
X63500000Y-61080000D03*
D18*
X53800000Y-63580000D03*
X53800000Y-73580000D03*
X53500000Y-66080000D03*
X53500000Y-71080000D03*
D19*
X58500000Y-76080000D03*
X58500000Y-61080000D03*
%TD*%
D15*
%TO.C,CN5*%
X173355000Y-143383000D03*
D16*
X170815000Y-143383000D03*
X168275000Y-143383000D03*
%TD*%
%TO.C,EMI1*%
X83820000Y-52705000D03*
X81280000Y-52705000D03*
D15*
X78740000Y-52705000D03*
%TD*%
%TO.C,EMI2*%
X78740000Y-48260000D03*
D16*
X81280000Y-48260000D03*
X83820000Y-48260000D03*
%TD*%
D15*
%TO.C,EMI3*%
X78740000Y-61595000D03*
D16*
X81280000Y-61595000D03*
X83820000Y-61595000D03*
%TD*%
%TO.C,EMI4*%
X83820000Y-57150000D03*
X81280000Y-57150000D03*
D15*
X78740000Y-57150000D03*
%TD*%
D13*
%TO.C,RP3*%
X96520000Y-116078000D03*
D20*
X96520000Y-113538000D03*
X96520000Y-110998000D03*
X96520000Y-108458000D03*
X96520000Y-105918000D03*
X96520000Y-103378000D03*
X96520000Y-100838000D03*
X96520000Y-98298000D03*
%TD*%
D13*
%TO.C,SW1*%
X52705000Y-100965000D03*
D20*
X60325000Y-103505000D03*
X52705000Y-103505000D03*
X60325000Y-100965000D03*
%TD*%
D13*
%TO.C,U4*%
X173355000Y-83820000D03*
D20*
X158115000Y-50800000D03*
X173355000Y-81280000D03*
X158115000Y-53340000D03*
X173355000Y-78740000D03*
X158115000Y-55880000D03*
X173355000Y-76200000D03*
X158115000Y-58420000D03*
X173355000Y-73660000D03*
X158115000Y-60960000D03*
X173355000Y-71120000D03*
X158115000Y-63500000D03*
X173355000Y-68580000D03*
X158115000Y-66040000D03*
X173355000Y-66040000D03*
X158115000Y-68580000D03*
X173355000Y-63500000D03*
X158115000Y-71120000D03*
X173355000Y-60960000D03*
X158115000Y-73660000D03*
X173355000Y-58420000D03*
X158115000Y-76200000D03*
X173355000Y-55880000D03*
X158115000Y-78740000D03*
X173355000Y-53340000D03*
X158115000Y-81280000D03*
X173355000Y-50800000D03*
X158115000Y-83820000D03*
%TD*%
D17*
%TO.C,CN4*%
X68500000Y-46990000D03*
X66000000Y-51990000D03*
X66000000Y-41990000D03*
X63500000Y-54490000D03*
X63500000Y-46990000D03*
X63500000Y-39490000D03*
D18*
X53800000Y-41990000D03*
X53800000Y-51990000D03*
X53500000Y-44490000D03*
X53500000Y-49490000D03*
D19*
X58500000Y-54490000D03*
X58500000Y-39490000D03*
%TD*%
D21*
%TO.C,J1*%
X78740000Y-115570000D03*
D22*
X78740000Y-118110000D03*
X78740000Y-120650000D03*
X78740000Y-123190000D03*
%TD*%
D23*
%TO.C,J2*%
X62024000Y-123545000D03*
D24*
X59224000Y-118745000D03*
D25*
X65024000Y-118745000D03*
%TD*%
D26*
%TO.C,U14*%
X131381500Y-105727500D03*
X131381500Y-107632500D03*
X131381500Y-106680000D03*
X134048500Y-107632500D03*
X134048500Y-105727500D03*
%TD*%
D27*
%TO.C,X1*%
X229870000Y-63500000D03*
D28*
X222250000Y-63500000D03*
X222250000Y-48260000D03*
X229870000Y-48260000D03*
%TD*%
%TO.C,C16*%
G36*
G01*
X137635000Y-145135000D02*
X136685000Y-145135000D01*
G75*
G02*
X136435000Y-144885000I0J250000D01*
G01*
X136435000Y-144210000D01*
G75*
G02*
X136685000Y-143960000I250000J0D01*
G01*
X137635000Y-143960000D01*
G75*
G02*
X137885000Y-144210000I0J-250000D01*
G01*
X137885000Y-144885000D01*
G75*
G02*
X137635000Y-145135000I-250000J0D01*
G01*
G37*
G36*
G01*
X137635000Y-143060000D02*
X136685000Y-143060000D01*
G75*
G02*
X136435000Y-142810000I0J250000D01*
G01*
X136435000Y-142135000D01*
G75*
G02*
X136685000Y-141885000I250000J0D01*
G01*
X137635000Y-141885000D01*
G75*
G02*
X137885000Y-142135000I0J-250000D01*
G01*
X137885000Y-142810000D01*
G75*
G02*
X137635000Y-143060000I-250000J0D01*
G01*
G37*
%TD*%
%TO.C,C17*%
G36*
G01*
X136685000Y-140150000D02*
X137635000Y-140150000D01*
G75*
G02*
X137885000Y-140400000I0J-250000D01*
G01*
X137885000Y-141075000D01*
G75*
G02*
X137635000Y-141325000I-250000J0D01*
G01*
X136685000Y-141325000D01*
G75*
G02*
X136435000Y-141075000I0J250000D01*
G01*
X136435000Y-140400000D01*
G75*
G02*
X136685000Y-140150000I250000J0D01*
G01*
G37*
G36*
G01*
X136685000Y-138075000D02*
X137635000Y-138075000D01*
G75*
G02*
X137885000Y-138325000I0J-250000D01*
G01*
X137885000Y-139000000D01*
G75*
G02*
X137635000Y-139250000I-250000J0D01*
G01*
X136685000Y-139250000D01*
G75*
G02*
X136435000Y-139000000I0J250000D01*
G01*
X136435000Y-138325000D01*
G75*
G02*
X136685000Y-138075000I250000J0D01*
G01*
G37*
%TD*%
D29*
%TO.C,SW2*%
X54610000Y-135890000D03*
X54610000Y-140970000D03*
D30*
X67310000Y-136017000D03*
X67310000Y-140843000D03*
X71120000Y-136017000D03*
X71120000Y-140843000D03*
X74930000Y-136017000D03*
X74930000Y-140843000D03*
%TD*%
D31*
%TO.C,U15*%
X132715000Y-143510000D03*
D32*
X132715000Y-140970000D03*
X132715000Y-138430000D03*
%TD*%
D33*
%TO.C,C19*%
X103505000Y-128905000D03*
D34*
X133505000Y-128905000D03*
%TD*%
D10*
%TO.C,JP2*%
G36*
X133940000Y-110668500D02*
G01*
X132790000Y-110668500D01*
X133290000Y-109918500D01*
X132790000Y-109168500D01*
X133940000Y-109168500D01*
X133940000Y-110668500D01*
G37*
G36*
X132990000Y-109918500D02*
G01*
X132490000Y-110668500D01*
X131490000Y-110668500D01*
X131490000Y-109168500D01*
X132490000Y-109168500D01*
X132990000Y-109918500D01*
G37*
%TD*%
D15*
%TO.C,JP3*%
X202057000Y-143383000D03*
D16*
X199517000Y-143383000D03*
%TD*%
D13*
%TO.C,U2*%
X173355000Y-134620000D03*
D20*
X158115000Y-101600000D03*
X173355000Y-132080000D03*
X158115000Y-104140000D03*
X173355000Y-129540000D03*
X158115000Y-106680000D03*
X173355000Y-127000000D03*
X158115000Y-109220000D03*
X173355000Y-124460000D03*
X158115000Y-111760000D03*
X173355000Y-121920000D03*
X158115000Y-114300000D03*
X173355000Y-119380000D03*
X158115000Y-116840000D03*
X173355000Y-116840000D03*
X158115000Y-119380000D03*
X173355000Y-114300000D03*
X158115000Y-121920000D03*
X173355000Y-111760000D03*
X158115000Y-124460000D03*
X173355000Y-109220000D03*
X158115000Y-127000000D03*
X173355000Y-106680000D03*
X158115000Y-129540000D03*
X173355000Y-104140000D03*
X158115000Y-132080000D03*
X173355000Y-101600000D03*
X158115000Y-134620000D03*
%TD*%
D13*
%TO.C,U6*%
X126365000Y-115570000D03*
D20*
X118745000Y-97790000D03*
X126365000Y-113030000D03*
X118745000Y-100330000D03*
X126365000Y-110490000D03*
X118745000Y-102870000D03*
X126365000Y-107950000D03*
X118745000Y-105410000D03*
X126365000Y-105410000D03*
X118745000Y-107950000D03*
X126365000Y-102870000D03*
X118745000Y-110490000D03*
X126365000Y-100330000D03*
X118745000Y-113030000D03*
X126365000Y-97790000D03*
X118745000Y-115570000D03*
%TD*%
%TO.C,U7*%
X118745000Y-86360000D03*
X126365000Y-71120000D03*
X118745000Y-83820000D03*
X126365000Y-73660000D03*
X118745000Y-81280000D03*
X126365000Y-76200000D03*
X118745000Y-78740000D03*
X126365000Y-78740000D03*
X118745000Y-76200000D03*
X126365000Y-81280000D03*
X118745000Y-73660000D03*
X126365000Y-83820000D03*
X118745000Y-71120000D03*
D13*
X126365000Y-86360000D03*
%TD*%
%TO.C,U8*%
X146685000Y-86360000D03*
D20*
X139065000Y-71120000D03*
X146685000Y-83820000D03*
X139065000Y-73660000D03*
X146685000Y-81280000D03*
X139065000Y-76200000D03*
X146685000Y-78740000D03*
X139065000Y-78740000D03*
X146685000Y-76200000D03*
X139065000Y-81280000D03*
X146685000Y-73660000D03*
X139065000Y-83820000D03*
X146685000Y-71120000D03*
X139065000Y-86360000D03*
%TD*%
D13*
%TO.C,U9*%
X126365000Y-58420000D03*
D20*
X118745000Y-43180000D03*
X126365000Y-55880000D03*
X118745000Y-45720000D03*
X126365000Y-53340000D03*
X118745000Y-48260000D03*
X126365000Y-50800000D03*
X118745000Y-50800000D03*
X126365000Y-48260000D03*
X118745000Y-53340000D03*
X126365000Y-45720000D03*
X118745000Y-55880000D03*
X126365000Y-43180000D03*
X118745000Y-58420000D03*
%TD*%
D13*
%TO.C,U10*%
X229870000Y-72009000D03*
D20*
X214630000Y-79629000D03*
X227330000Y-72009000D03*
X217170000Y-79629000D03*
X224790000Y-72009000D03*
X219710000Y-79629000D03*
X222250000Y-72009000D03*
X222250000Y-79629000D03*
X219710000Y-72009000D03*
X224790000Y-79629000D03*
X217170000Y-72009000D03*
X227330000Y-79629000D03*
X214630000Y-72009000D03*
X229870000Y-79629000D03*
%TD*%
%TO.C,U11*%
X139065000Y-114300000D03*
X146685000Y-99060000D03*
X139065000Y-111760000D03*
X146685000Y-101600000D03*
X139065000Y-109220000D03*
X146685000Y-104140000D03*
X139065000Y-106680000D03*
X146685000Y-106680000D03*
X139065000Y-104140000D03*
X146685000Y-109220000D03*
X139065000Y-101600000D03*
X146685000Y-111760000D03*
X139065000Y-99060000D03*
D13*
X146685000Y-114300000D03*
%TD*%
D20*
%TO.C,U12*%
X139065000Y-58420000D03*
X146685000Y-43180000D03*
X139065000Y-55880000D03*
X146685000Y-45720000D03*
X139065000Y-53340000D03*
X146685000Y-48260000D03*
X139065000Y-50800000D03*
X146685000Y-50800000D03*
X139065000Y-48260000D03*
X146685000Y-53340000D03*
X139065000Y-45720000D03*
X146685000Y-55880000D03*
X139065000Y-43180000D03*
D13*
X146685000Y-58420000D03*
%TD*%
%TO.C,U13*%
X106045000Y-66040000D03*
D20*
X98425000Y-43180000D03*
X106045000Y-63500000D03*
X98425000Y-45720000D03*
X106045000Y-60960000D03*
X98425000Y-48260000D03*
X106045000Y-58420000D03*
X98425000Y-50800000D03*
X106045000Y-55880000D03*
X98425000Y-53340000D03*
X106045000Y-53340000D03*
X98425000Y-55880000D03*
X106045000Y-50800000D03*
X98425000Y-58420000D03*
X106045000Y-48260000D03*
X98425000Y-60960000D03*
X106045000Y-45720000D03*
X98425000Y-63500000D03*
X106045000Y-43180000D03*
X98425000Y-66040000D03*
%TD*%
D33*
%TO.C,CR4*%
X107950000Y-97790000D03*
D34*
X107950000Y-85090000D03*
%TD*%
D14*
%TO.C,C1*%
X204550000Y-86995000D03*
X209550000Y-86995000D03*
%TD*%
%TO.C,C2*%
X163115000Y-139827000D03*
X158115000Y-139827000D03*
%TD*%
%TO.C,C3*%
X188515000Y-139573000D03*
X183515000Y-139573000D03*
%TD*%
%TO.C,C4*%
X163115000Y-45720000D03*
X158115000Y-45720000D03*
%TD*%
%TO.C,C5*%
X193755000Y-96520000D03*
X198755000Y-96520000D03*
%TD*%
%TO.C,C6*%
X118745000Y-120015000D03*
X123745000Y-120015000D03*
%TD*%
%TO.C,C7*%
X123745000Y-91440000D03*
X118745000Y-91440000D03*
%TD*%
%TO.C,C8*%
X144065000Y-91440000D03*
X139065000Y-91440000D03*
%TD*%
%TO.C,C9*%
X118745000Y-63500000D03*
X123745000Y-63500000D03*
%TD*%
%TO.C,C10*%
X210820000Y-72009000D03*
X210820000Y-77009000D03*
%TD*%
%TO.C,C11*%
X139065000Y-120015000D03*
X144065000Y-120015000D03*
%TD*%
%TO.C,C12*%
X139065000Y-63500000D03*
X144065000Y-63500000D03*
%TD*%
%TO.C,C13*%
X105330000Y-71120000D03*
X100330000Y-71120000D03*
%TD*%
%TO.C,C14*%
X212090000Y-45720000D03*
X212090000Y-40720000D03*
%TD*%
%TO.C,C15*%
X217170000Y-40720000D03*
X217170000Y-45720000D03*
%TD*%
%TO.C,R1*%
X230505000Y-119380000D03*
D20*
X230505000Y-106680000D03*
%TD*%
%TO.C,R3*%
X203200000Y-78740000D03*
D14*
X203200000Y-66040000D03*
%TD*%
%TO.C,R4*%
X153670000Y-83820000D03*
D20*
X153670000Y-96520000D03*
%TD*%
%TO.C,R5*%
X179705000Y-43180000D03*
D14*
X167005000Y-43180000D03*
%TD*%
D20*
%TO.C,R9*%
X217170000Y-68326000D03*
D14*
X229870000Y-68326000D03*
%TD*%
%TO.C,R10*%
X212090000Y-86995000D03*
D20*
X224790000Y-86995000D03*
%TD*%
%TO.C,R11*%
X208280000Y-50800000D03*
D14*
X208280000Y-63500000D03*
%TD*%
%TO.C,R12*%
X147955000Y-124460000D03*
D20*
X147955000Y-137160000D03*
%TD*%
%TO.C,R13*%
X144145000Y-124460000D03*
D14*
X144145000Y-137160000D03*
%TD*%
%TO.C,R14*%
X151765000Y-124460000D03*
D20*
X151765000Y-137160000D03*
%TD*%
D14*
%TO.C,R6*%
X183515000Y-143383000D03*
D20*
X196215000Y-143383000D03*
%TD*%
D13*
%TO.C,RP2*%
X229235000Y-85725000D03*
D20*
X229235000Y-88265000D03*
X229235000Y-90805000D03*
X229235000Y-93345000D03*
X229235000Y-95885000D03*
X229235000Y-98425000D03*
X229235000Y-100965000D03*
%TD*%
%TO.C,FB1*%
X226695000Y-119380000D03*
D14*
X226695000Y-106680000D03*
%TD*%
%TO.C,FB2*%
X207010000Y-78740000D03*
D20*
X207010000Y-66040000D03*
%TD*%
%TO.C,FB3*%
X212725000Y-63500000D03*
D14*
X212725000Y-50800000D03*
%TD*%
%TO.C,FB4*%
X217170000Y-63500000D03*
D20*
X217170000Y-50800000D03*
%TD*%
%TO.C,FB5*%
X212090000Y-83185000D03*
D14*
X224790000Y-83185000D03*
%TD*%
%TO.C,FB6*%
X203200000Y-40640000D03*
D20*
X203200000Y-53340000D03*
%TD*%
%TO.C,C21*%
G36*
G01*
X131696000Y-104187000D02*
X131696000Y-103712000D01*
G75*
G02*
X131933500Y-103474500I237500J0D01*
G01*
X132533500Y-103474500D01*
G75*
G02*
X132771000Y-103712000I0J-237500D01*
G01*
X132771000Y-104187000D01*
G75*
G02*
X132533500Y-104424500I-237500J0D01*
G01*
X131933500Y-104424500D01*
G75*
G02*
X131696000Y-104187000I0J237500D01*
G01*
G37*
G36*
G01*
X133421000Y-104187000D02*
X133421000Y-103712000D01*
G75*
G02*
X133658500Y-103474500I237500J0D01*
G01*
X134258500Y-103474500D01*
G75*
G02*
X134496000Y-103712000I0J-237500D01*
G01*
X134496000Y-104187000D01*
G75*
G02*
X134258500Y-104424500I-237500J0D01*
G01*
X133658500Y-104424500D01*
G75*
G02*
X133421000Y-104187000I0J237500D01*
G01*
G37*
%TD*%
D13*
%TO.C,U3*%
X198755000Y-134620000D03*
D20*
X183515000Y-101600000D03*
X198755000Y-132080000D03*
X183515000Y-104140000D03*
X198755000Y-129540000D03*
X183515000Y-106680000D03*
X198755000Y-127000000D03*
X183515000Y-109220000D03*
X198755000Y-124460000D03*
X183515000Y-111760000D03*
X198755000Y-121920000D03*
X183515000Y-114300000D03*
X198755000Y-119380000D03*
X183515000Y-116840000D03*
X198755000Y-116840000D03*
X183515000Y-119380000D03*
X198755000Y-114300000D03*
X183515000Y-121920000D03*
X198755000Y-111760000D03*
X183515000Y-124460000D03*
X198755000Y-109220000D03*
X183515000Y-127000000D03*
X198755000Y-106680000D03*
X183515000Y-129540000D03*
X198755000Y-104140000D03*
X183515000Y-132080000D03*
X198755000Y-101600000D03*
X183515000Y-134620000D03*
%TD*%
D13*
%TO.C,U5*%
X198755000Y-91440000D03*
D20*
X183515000Y-43180000D03*
X198755000Y-88900000D03*
X183515000Y-45720000D03*
X198755000Y-86360000D03*
X183515000Y-48260000D03*
X198755000Y-83820000D03*
X183515000Y-50800000D03*
X198755000Y-81280000D03*
X183515000Y-53340000D03*
X198755000Y-78740000D03*
X183515000Y-55880000D03*
X198755000Y-76200000D03*
X183515000Y-58420000D03*
X198755000Y-73660000D03*
X183515000Y-60960000D03*
X198755000Y-71120000D03*
X183515000Y-63500000D03*
X198755000Y-68580000D03*
X183515000Y-66040000D03*
X198755000Y-66040000D03*
X183515000Y-68580000D03*
X198755000Y-63500000D03*
X183515000Y-71120000D03*
X198755000Y-60960000D03*
X183515000Y-73660000D03*
X198755000Y-58420000D03*
X183515000Y-76200000D03*
X198755000Y-55880000D03*
X183515000Y-78740000D03*
X198755000Y-53340000D03*
X183515000Y-81280000D03*
X198755000Y-50800000D03*
X183515000Y-83820000D03*
X198755000Y-48260000D03*
X183515000Y-86360000D03*
X198755000Y-45720000D03*
X183515000Y-88900000D03*
X198755000Y-43180000D03*
X183515000Y-91440000D03*
%TD*%
D14*
%TO.C,R2*%
X103505000Y-97790000D03*
D20*
X103505000Y-110490000D03*
%TD*%
D13*
%TO.C,RP1*%
X96520000Y-76200000D03*
D20*
X96520000Y-78740000D03*
X96520000Y-81280000D03*
X96520000Y-83820000D03*
X96520000Y-86360000D03*
X96520000Y-88900000D03*
X96520000Y-91440000D03*
X96520000Y-93980000D03*
%TD*%
%TO.C,J3*%
G36*
G01*
X67900000Y-126794999D02*
X67900000Y-123395001D01*
G75*
G02*
X68150001Y-123145000I250001J0D01*
G01*
X71549999Y-123145000D01*
G75*
G02*
X71800000Y-123395001I0J-250001D01*
G01*
X71800000Y-126794999D01*
G75*
G02*
X71549999Y-127045000I-250001J0D01*
G01*
X68150001Y-127045000D01*
G75*
G02*
X67900000Y-126794999I0J250001D01*
G01*
G37*
%TD*%
%TO.C,J4*%
G36*
G01*
X67900000Y-117269999D02*
X67900000Y-113870001D01*
G75*
G02*
X68150001Y-113620000I250001J0D01*
G01*
X71549999Y-113620000D01*
G75*
G02*
X71800000Y-113870001I0J-250001D01*
G01*
X71800000Y-117269999D01*
G75*
G02*
X71549999Y-117520000I-250001J0D01*
G01*
X68150001Y-117520000D01*
G75*
G02*
X67900000Y-117269999I0J250001D01*
G01*
G37*
%TD*%
D13*
%TO.C,U1*%
X206375000Y-91440000D03*
D20*
X221615000Y-139700000D03*
X206375000Y-93980000D03*
X221615000Y-137160000D03*
X206375000Y-96520000D03*
X221615000Y-134620000D03*
X206375000Y-99060000D03*
X221615000Y-132080000D03*
X206375000Y-101600000D03*
X221615000Y-129540000D03*
X206375000Y-104140000D03*
X221615000Y-127000000D03*
X206375000Y-106680000D03*
X221615000Y-124460000D03*
X206375000Y-109220000D03*
X221615000Y-121920000D03*
X206375000Y-111760000D03*
X221615000Y-119380000D03*
X206375000Y-114300000D03*
X221615000Y-116840000D03*
X206375000Y-116840000D03*
X221615000Y-114300000D03*
X206375000Y-119380000D03*
X221615000Y-111760000D03*
X206375000Y-121920000D03*
X221615000Y-109220000D03*
X206375000Y-124460000D03*
X221615000Y-106680000D03*
X206375000Y-127000000D03*
X221615000Y-104140000D03*
X206375000Y-129540000D03*
X221615000Y-101600000D03*
X206375000Y-132080000D03*
X221615000Y-99060000D03*
X206375000Y-134620000D03*
X221615000Y-96520000D03*
X206375000Y-137160000D03*
X221615000Y-93980000D03*
X206375000Y-139700000D03*
X221615000Y-91440000D03*
%TD*%
D10*
%TO.C,JP4*%
G36*
X202012000Y-140196000D02*
G01*
X200862000Y-140196000D01*
X201362000Y-139446000D01*
X200862000Y-138696000D01*
X202012000Y-138696000D01*
X202012000Y-140196000D01*
G37*
G36*
X201062000Y-139446000D02*
G01*
X200562000Y-140196000D01*
X199562000Y-140196000D01*
X199562000Y-138696000D01*
X200562000Y-138696000D01*
X201062000Y-139446000D01*
G37*
%TD*%
M02*
