M48
; DRILL file {KiCad (5.1.10)-1} date 09/04/22 00:24:53
; FORMAT={-:-/ absolute / inch / decimal}
; #@! TF.CreationDate,2022-09-04T00:24:53-04:00
; #@! TF.GenerationSoftware,Kicad,Pcbnew,(5.1.10)-1
; #@! TF.FileFunction,Plated,1,2,PTH
FMAT,2
INCH
T1C0.0157
T2C0.0236
T3C0.0315
T4C0.0394
T5C0.0433
T6C0.0472
T7C0.0709
T8C0.0728
T9C0.0827
T10C0.0945
T11C0.1575
%
G90
G05
T1
X2.35Y-2.275
X2.895Y-2.865
X3.5Y-2.46
X3.5Y-2.505
X3.5Y-2.55
X3.635Y-2.37
X3.67Y-2.41
X3.68Y-1.9
X3.7Y-1.95
X3.7Y-2.25
X3.71Y-2.04
X3.72Y-4.09
X3.735Y-2.325
X3.74Y-2.665
X3.755Y-2.53
X3.775Y-2.43
X3.785Y-1.66
X3.785Y-1.9
X3.81Y-2.825
X3.855Y-4.02
X3.9Y-3.25
X3.93Y-2.965
X3.935Y-2.25
X3.94Y-3.435
X3.94Y-3.7
X3.965Y-3.87
X3.98Y-3.18
X3.98Y-3.75
X4.01Y-2.84
X4.01Y-3.115
X4.015Y-3.25
X4.05Y-3.6
X4.065Y-1.9
X4.065Y-2.1
X4.095Y-3.5
X4.095Y-3.685
X4.35Y-2.2
X4.355Y-3.885
X4.355Y-3.97
X4.375Y-2.975
X4.425Y-2.9
X4.445Y-3.76
X4.445Y-3.835
X4.45Y-2.665
X4.465Y-3.25
X4.485Y-3.405
X4.5Y-1.925
X4.5Y-4.4
X4.515Y-3.69
X4.53Y-2.51
X4.53Y-2.94
X4.565Y-3.76
X4.57Y-3.115
X4.575Y-2.75
X4.7Y-2.605
X4.775Y-1.545
X4.87Y-4.25
X4.8719Y-1.8931
X4.8719Y-2.0981
X4.8719Y-3.0981
X4.8719Y-3.1981
X4.8719Y-3.2931
X4.8719Y-4.0481
X4.8719Y-4.3481
X4.875Y-3.85
X4.93Y-2.95
X4.975Y-3.55
X5.0Y-2.51
X5.055Y-2.205
X5.07Y-4.3
X5.075Y-3.71
X5.1Y-3.25
X5.11Y-4.665
X5.115Y-2.15
X5.12Y-4.365
X5.14Y-1.95
X5.145Y-4.04
X5.1475Y-4.2375
X5.15Y-3.1
X5.165Y-3.2
X5.165Y-3.3
X5.185Y-2.7
X5.2Y-4.09
X5.235Y-1.95
X5.235Y-2.3
X5.235Y-3.95
X5.26Y-2.905
X5.27Y-2.75
X5.27Y-3.15
X5.27Y-3.4
X5.28Y-4.09
X5.295Y-1.695
X5.295Y-4.5
X5.31Y-3.9
X5.32Y-2.25
X5.32Y-3.3
X5.32Y-3.6
X5.325Y-3.42
X5.33Y-2.32
X5.335Y-2.95
X5.34Y-4.0
X5.38Y-2.1
X5.38Y-2.25
X5.4Y-5.575
X5.4115Y-4.15
X5.43Y-2.625
X5.445Y-4.8365
X5.505Y-2.59
X5.575Y-1.525
X5.67Y-3.3
X5.6719Y-1.8981
X5.6719Y-2.0981
X5.6719Y-2.1931
X5.6719Y-2.9881
X5.6719Y-3.0981
X5.6719Y-3.1981
X5.6719Y-3.4031
X5.675Y-4.2
X5.69Y-1.785
X5.72Y-4.805
X5.755Y-3.51
X5.795Y-3.79
X5.81Y-3.51
X5.845Y-3.335
X5.86Y-2.59
X5.865Y-3.75
X5.87Y-4.505
X5.88Y-4.73
X5.885Y-3.35
X5.9Y-5.305
X5.91Y-2.1
X5.915Y-2.2
X5.915Y-2.625
X5.925Y-3.435
X5.93Y-1.985
X5.94Y-4.555
X5.95Y-1.685
X5.97Y-2.27
X5.97Y-2.335
X6.0225Y-1.6725
X6.04Y-4.45
X6.085Y-3.0
X6.085Y-3.2
X6.085Y-4.6
X6.115Y-2.515
X6.13Y-2.035
X6.13Y-3.71
X6.2Y-3.615
X6.225Y-1.525
X6.255Y-3.745
X6.32Y-3.8
X6.42Y-2.0
X6.42Y-3.1
X6.42Y-4.0
X6.42Y-4.5
X6.4219Y-1.6981
X6.4219Y-2.1881
X6.4219Y-2.8031
X6.4219Y-2.9231
X6.4219Y-3.2531
X6.4219Y-3.6131
X6.5Y-4.75
X6.55Y-3.05
X6.575Y-1.525
X6.585Y-4.2
X6.62Y-3.1
X6.62Y-3.4
X6.68Y-4.605
X6.69Y-2.395
X6.7Y-2.495
X6.7Y-2.6
X6.7Y-2.705
X6.71Y-1.86
X6.72Y-5.2
X6.725Y-2.3
X6.73Y-3.25
X6.77Y-1.7
X6.8Y-3.805
X6.855Y-3.555
X6.935Y-3.3
X6.975Y-5.35
X6.985Y-1.875
X6.99Y-3.2
X6.995Y-2.45
X7.0Y-5.2
X7.005Y-2.995
X7.02Y-4.64
X7.035Y-3.1
X7.045Y-5.405
X7.055Y-1.875
X7.0772Y-5.5978
X7.085Y-2.0
X7.1Y-5.53
X7.145Y-5.67
X7.165Y-4.05
X7.225Y-3.915
X7.225Y-5.425
X7.305Y-2.305
X7.31Y-2.425
X7.325Y-3.68
X7.33Y-5.17
X7.335Y-3.55
X7.34Y-2.135
X7.345Y-2.05
X7.35Y-1.905
X7.365Y-3.05
X7.4Y-3.4
X7.415Y-4.65
X7.435Y-3.93
X7.495Y-1.8
X7.495Y-1.905
X7.5264Y-4.0014
X7.5264Y-4.1486
X7.5264Y-4.5486
X7.5264Y-5.2536
X7.575Y-1.54
X7.575Y-3.68
X7.6281Y-5.4231
X7.645Y-1.835
X7.645Y-3.2
X7.645Y-3.2
X7.66Y-2.13
X7.66Y-2.95
X7.665Y-1.605
X7.69Y-3.815
X7.695Y-2.025
X7.7Y-5.505
X7.725Y-2.55
X7.725Y-2.7
X7.725Y-2.8
X7.725Y-2.9
X7.725Y-3.1
X7.73Y-3.785
X7.885Y-1.85
X7.895Y-2.45
X7.9Y-3.68
X7.965Y-4.195
X7.97Y-5.205
X8.0Y-2.475
X8.025Y-4.95
X8.035Y-3.75
X8.035Y-4.3
X8.04Y-3.95
X8.05Y-4.05
X8.07Y-2.195
X8.215Y-3.795
X8.29Y-4.3
X8.29Y-4.56
X8.475Y-3.815
X8.49Y-3.475
X8.55Y-3.77
X8.55Y-4.1
X8.675Y-1.815
X8.765Y-3.295
X8.795Y-3.52
X8.865Y-3.91
X8.9Y-3.52
X8.925Y-4.11
X8.95Y-3.275
T2
X3.2219Y-1.6
X3.2219Y-5.6
X3.2565Y-1.5165
X3.2565Y-1.6835
X3.2565Y-5.5165
X3.2565Y-5.6835
X3.34Y-1.4819
X3.34Y-1.7181
X3.34Y-5.4819
X3.34Y-5.7181
X3.4235Y-1.5165
X3.4235Y-1.6835
X3.4235Y-5.5165
X3.4235Y-5.6835
X3.4581Y-1.6
X3.4581Y-5.6
X8.9119Y-1.6
X8.9119Y-5.6
X8.9465Y-1.5165
X8.9465Y-1.6835
X8.9465Y-5.5165
X8.9465Y-5.6835
X9.03Y-1.4819
X9.03Y-1.7181
X9.03Y-5.4819
X9.03Y-5.7181
X9.1135Y-1.5165
X9.1135Y-1.6835
X9.1135Y-5.5165
X9.1135Y-5.6835
X9.1481Y-1.6
X9.1481Y-5.6
T3
X2.075Y-3.975
X2.075Y-4.075
X2.375Y-3.975
X2.375Y-4.075
X3.375Y-4.6266
X3.375Y-4.725
X3.375Y-4.8766
X3.375Y-4.975
X3.8Y-3.0
X3.8Y-3.1
X3.8Y-3.2
X3.8Y-3.3
X3.8Y-3.4
X3.8Y-3.5
X3.8Y-3.6
X3.8Y-3.7
X3.8Y-3.87
X3.8Y-3.97
X3.8Y-4.07
X3.8Y-4.17
X3.8Y-4.27
X3.8Y-4.37
X3.8Y-4.47
X3.8Y-4.57
X3.875Y-1.7
X3.875Y-1.8
X3.875Y-1.9
X3.875Y-2.0
X3.875Y-2.1
X3.875Y-2.2
X3.875Y-2.3
X3.875Y-2.4
X3.875Y-2.5
X3.875Y-2.6
X3.95Y-2.8
X4.075Y-3.85
X4.075Y-4.35
X4.1469Y-2.8
X4.1516Y-3.1
X4.175Y-1.7
X4.175Y-1.8
X4.175Y-1.9
X4.175Y-2.0
X4.175Y-2.1
X4.175Y-2.2
X4.175Y-2.3
X4.175Y-2.4
X4.175Y-2.5
X4.175Y-2.6
X4.25Y-3.1
X4.675Y-1.7
X4.675Y-1.8
X4.675Y-1.9
X4.675Y-2.0
X4.675Y-2.1
X4.675Y-2.2
X4.675Y-2.3
X4.675Y-2.5
X4.675Y-2.8
X4.675Y-2.9
X4.675Y-3.0
X4.675Y-3.1
X4.675Y-3.2
X4.675Y-3.3
X4.675Y-3.4
X4.675Y-3.6
X4.675Y-3.85
X4.675Y-3.95
X4.675Y-4.05
X4.675Y-4.15
X4.675Y-4.25
X4.675Y-4.35
X4.675Y-4.45
X4.675Y-4.55
X4.675Y-4.725
X4.8719Y-2.5
X4.8719Y-3.6
X4.8719Y-4.725
X4.975Y-1.7
X4.975Y-1.8
X4.975Y-1.9
X4.975Y-2.0
X4.975Y-2.1
X4.975Y-2.2
X4.975Y-2.3
X4.975Y-2.8
X4.975Y-2.9
X4.975Y-3.0
X4.975Y-3.1
X4.975Y-3.2
X4.975Y-3.3
X4.975Y-3.4
X4.975Y-3.85
X4.975Y-3.95
X4.975Y-4.05
X4.975Y-4.15
X4.975Y-4.25
X4.975Y-4.35
X4.975Y-4.45
X4.975Y-4.55
X5.475Y-1.7
X5.475Y-1.8
X5.475Y-1.9
X5.475Y-2.0
X5.475Y-2.1
X5.475Y-2.2
X5.475Y-2.3
X5.475Y-2.5
X5.475Y-2.8
X5.475Y-2.9
X5.475Y-3.0
X5.475Y-3.1
X5.475Y-3.2
X5.475Y-3.3
X5.475Y-3.4
X5.475Y-3.6
X5.475Y-3.9
X5.475Y-4.0
X5.475Y-4.1
X5.475Y-4.2
X5.475Y-4.3
X5.475Y-4.4
X5.475Y-4.5
X5.475Y-4.725
X5.6719Y-2.5
X5.6719Y-3.6
X5.6719Y-4.725
X5.675Y-4.9
X5.675Y-5.4
X5.775Y-1.7
X5.775Y-1.8
X5.775Y-1.9
X5.775Y-2.0
X5.775Y-2.1
X5.775Y-2.2
X5.775Y-2.3
X5.775Y-2.8
X5.775Y-2.9
X5.775Y-3.0
X5.775Y-3.1
X5.775Y-3.2
X5.775Y-3.3
X5.775Y-3.4
X5.775Y-3.9
X5.775Y-4.0
X5.775Y-4.1
X5.775Y-4.2
X5.775Y-4.3
X5.775Y-4.4
X5.775Y-4.5
X5.825Y-4.9
X5.825Y-5.4
X5.975Y-4.9
X5.975Y-5.4
X6.05Y-3.3
X6.05Y-3.8
X6.225Y-1.8
X6.225Y-2.0
X6.225Y-2.1
X6.225Y-2.2
X6.225Y-2.3
X6.225Y-2.4
X6.225Y-2.5
X6.225Y-2.6
X6.225Y-2.7
X6.225Y-2.8
X6.225Y-2.9
X6.225Y-3.0
X6.225Y-3.1
X6.225Y-3.2
X6.225Y-3.3
X6.225Y-4.0
X6.225Y-4.1
X6.225Y-4.2
X6.225Y-4.3
X6.225Y-4.4
X6.225Y-4.5
X6.225Y-4.6
X6.225Y-4.7
X6.225Y-4.8
X6.225Y-4.9
X6.225Y-5.0
X6.225Y-5.1
X6.225Y-5.2
X6.225Y-5.3
X6.225Y-5.505
X6.4219Y-1.8
X6.4219Y-5.505
X6.575Y-1.7
X6.825Y-2.0
X6.825Y-2.1
X6.825Y-2.2
X6.825Y-2.3
X6.825Y-2.4
X6.825Y-2.5
X6.825Y-2.6
X6.825Y-2.7
X6.825Y-2.8
X6.825Y-2.9
X6.825Y-3.0
X6.825Y-3.1
X6.825Y-3.2
X6.825Y-3.3
X6.825Y-4.0
X6.825Y-4.1
X6.825Y-4.2
X6.825Y-4.3
X6.825Y-4.4
X6.825Y-4.5
X6.825Y-4.6
X6.825Y-4.7
X6.825Y-4.8
X6.825Y-4.9
X6.825Y-5.0
X6.825Y-5.1
X6.825Y-5.2
X6.825Y-5.3
X7.075Y-1.7
X7.225Y-1.7
X7.225Y-1.8
X7.225Y-1.9
X7.225Y-2.0
X7.225Y-2.1
X7.225Y-2.2
X7.225Y-2.3
X7.225Y-2.4
X7.225Y-2.5
X7.225Y-2.6
X7.225Y-2.7
X7.225Y-2.8
X7.225Y-2.9
X7.225Y-3.0
X7.225Y-3.1
X7.225Y-3.2
X7.225Y-3.3
X7.225Y-3.4
X7.225Y-3.5
X7.225Y-3.6
X7.225Y-4.0
X7.225Y-4.1
X7.225Y-4.2
X7.225Y-4.3
X7.225Y-4.4
X7.225Y-4.5
X7.225Y-4.6
X7.225Y-4.7
X7.225Y-4.8
X7.225Y-4.9
X7.225Y-5.0
X7.225Y-5.1
X7.225Y-5.2
X7.225Y-5.3
X7.225Y-5.495
X7.225Y-5.645
X7.4219Y-5.495
X7.6281Y-3.8
X7.725Y-5.645
X7.825Y-1.7
X7.825Y-1.8
X7.825Y-1.9
X7.825Y-2.0
X7.825Y-2.1
X7.825Y-2.2
X7.825Y-2.3
X7.825Y-2.4
X7.825Y-2.5
X7.825Y-2.6
X7.825Y-2.7
X7.825Y-2.8
X7.825Y-2.9
X7.825Y-3.0
X7.825Y-3.1
X7.825Y-3.2
X7.825Y-3.3
X7.825Y-3.4
X7.825Y-3.5
X7.825Y-3.6
X7.825Y-3.8
X7.825Y-4.0
X7.825Y-4.1
X7.825Y-4.2
X7.825Y-4.3
X7.825Y-4.4
X7.825Y-4.5
X7.825Y-4.6
X7.825Y-4.7
X7.825Y-4.8
X7.825Y-4.9
X7.825Y-5.0
X7.825Y-5.1
X7.825Y-5.2
X7.825Y-5.3
X8.0Y-1.6
X8.0Y-2.1
X8.0Y-2.6
X8.0Y-3.1
X8.0531Y-3.425
X8.125Y-3.6
X8.125Y-3.7
X8.125Y-3.8
X8.125Y-3.9
X8.125Y-4.0
X8.125Y-4.1
X8.125Y-4.2
X8.125Y-4.3
X8.125Y-4.4
X8.125Y-4.5
X8.125Y-4.6
X8.125Y-4.7
X8.125Y-4.8
X8.125Y-4.9
X8.125Y-5.0
X8.125Y-5.1
X8.125Y-5.2
X8.125Y-5.3
X8.125Y-5.4
X8.125Y-5.5
X8.15Y-2.6
X8.15Y-3.1
X8.2Y-2.0
X8.2Y-2.5
X8.25Y-3.425
X8.3Y-2.835
X8.3Y-3.0319
X8.35Y-1.6031
X8.35Y-1.8
X8.35Y-3.275
X8.35Y-3.425
X8.375Y-2.0
X8.375Y-2.5
X8.45Y-2.835
X8.45Y-3.135
X8.55Y-1.6031
X8.55Y-1.8
X8.55Y-2.0
X8.55Y-2.5
X8.55Y-2.69
X8.55Y-2.835
X8.55Y-3.135
X8.65Y-2.835
X8.65Y-3.135
X8.725Y-3.6
X8.725Y-3.7
X8.725Y-3.8
X8.725Y-3.9
X8.725Y-4.0
X8.725Y-4.1
X8.725Y-4.2
X8.725Y-4.3
X8.725Y-4.4
X8.725Y-4.5
X8.725Y-4.6
X8.725Y-4.7
X8.725Y-4.8
X8.725Y-4.9
X8.725Y-5.0
X8.725Y-5.1
X8.725Y-5.2
X8.725Y-5.3
X8.725Y-5.4
X8.725Y-5.5
X8.75Y-2.835
X8.75Y-3.135
X8.85Y-2.835
X8.85Y-3.135
X8.85Y-3.275
X8.85Y-3.425
X8.925Y-4.2
X8.925Y-4.7
X8.95Y-2.835
X8.95Y-3.135
X9.025Y-3.375
X9.025Y-3.475
X9.025Y-3.575
X9.025Y-3.675
X9.025Y-3.775
X9.025Y-3.875
X9.025Y-3.975
X9.05Y-2.69
X9.05Y-2.835
X9.05Y-3.135
X9.075Y-4.2
X9.075Y-4.7
T4
X2.9Y-1.625
X2.9Y-1.725
X2.9Y-1.825
X2.9Y-1.925
X2.9Y-2.025
X2.9Y-2.125
X3.0Y-2.75
X3.0Y-2.85
X3.0Y-2.95
X3.0Y-3.05
X3.0Y-3.15
X3.0Y-3.25
X3.0Y-3.35
X3.0Y-3.45
X3.0Y-3.55
X3.0Y-3.65
X3.0Y-3.75
X3.0Y-3.85
X3.0Y-3.95
X3.0Y-4.05
X3.0Y-4.15
X3.0Y-4.25
X3.0Y-4.35
X3.1Y-1.9
X3.1Y-2.075
X3.1Y-2.25
X3.1Y-2.425
X3.1Y-2.75
X3.1Y-2.85
X3.1Y-2.95
X3.1Y-3.05
X3.1Y-3.15
X3.1Y-3.25
X3.1Y-3.35
X3.1Y-3.45
X3.1Y-3.55
X3.1Y-3.65
X3.1Y-3.75
X3.1Y-3.85
X3.1Y-3.95
X3.1Y-4.05
X3.1Y-4.15
X3.1Y-4.25
X3.1Y-4.35
X3.2Y-1.9
X3.2Y-2.075
X3.2Y-2.25
X3.2Y-2.425
X3.3Y-1.9
X3.3Y-2.075
X3.3Y-2.25
X3.3Y-2.425
X6.625Y-5.645
X6.725Y-5.645
X6.825Y-5.645
X7.855Y-5.645
X7.955Y-5.645
X8.75Y-1.9
X8.75Y-2.5
X9.05Y-1.9
X9.05Y-2.5
T5
X5.225Y-5.45
X5.225Y-5.55
X5.225Y-5.65
T6
X2.1063Y-1.7516
X2.1063Y-1.9484
X2.1063Y-2.6016
X2.1063Y-2.7984
X2.1181Y-1.6531
X2.1181Y-2.0469
X2.1181Y-2.5031
X2.1181Y-2.8969
X2.5Y-1.5547
X2.5Y-1.85
X2.5Y-2.1453
X2.5Y-2.4047
X2.5Y-2.7
X2.5Y-2.9953
X2.5984Y-1.6531
X2.5984Y-2.0469
X2.5984Y-2.5031
X2.5984Y-2.8969
X2.6969Y-1.85
X2.6969Y-2.7
X3.1Y-4.65
X3.1Y-4.75
X3.1Y-4.85
X3.1Y-4.95
X4.075Y-5.075
X4.25Y-3.35
X4.25Y-3.85
X5.2561Y-5.075
T7
X2.65Y-5.355
X2.65Y-5.545
X2.8Y-5.355
X2.8Y-5.545
X2.95Y-5.355
X2.95Y-5.545
T8
X2.15Y-5.35
X2.15Y-5.55
T9
X2.6Y-4.55
X2.6Y-4.925
T10
X2.3031Y-1.5547
X2.3031Y-2.1453
X2.3031Y-2.4047
X2.3031Y-2.9953
T11
X3.34Y-1.6
X3.34Y-5.6
X9.03Y-1.6
X9.03Y-5.6
T3
G00X2.0648Y-4.6317
M15
G01X2.0648Y-4.7183
M16
G05
G00X2.1317Y-4.864
M15
G01X2.2183Y-4.864
M16
G05
G00X2.2931Y-4.6238
M15
G01X2.2931Y-4.7262
M16
G05
T0
M30
