%TF.GenerationSoftware,KiCad,Pcbnew,(5.1.10)-1*%
%TF.CreationDate,2022-08-21T15:03:56-04:00*%
%TF.ProjectId,1581-improved,31353831-2d69-46d7-9072-6f7665642e6b,rev?*%
%TF.SameCoordinates,Original*%
%TF.FileFunction,Legend,Top*%
%TF.FilePolarity,Positive*%
%FSLAX46Y46*%
G04 Gerber Fmt 4.6, Leading zero omitted, Abs format (unit mm)*
G04 Created by KiCad (PCBNEW (5.1.10)-1) date 2022-08-21 15:03:56*
%MOMM*%
%LPD*%
G01*
G04 APERTURE LIST*
%ADD10C,0.600000*%
%ADD11C,0.150000*%
%ADD12C,0.120000*%
G04 APERTURE END LIST*
D10*
X97723857Y-39711142D02*
X96009571Y-39711142D01*
X96866714Y-39711142D02*
X96866714Y-36711142D01*
X96580999Y-37139714D01*
X96295285Y-37425428D01*
X96009571Y-37568285D01*
X100438142Y-36711142D02*
X99009571Y-36711142D01*
X98866714Y-38139714D01*
X99009571Y-37996857D01*
X99295285Y-37854000D01*
X100009571Y-37854000D01*
X100295285Y-37996857D01*
X100438142Y-38139714D01*
X100580999Y-38425428D01*
X100580999Y-39139714D01*
X100438142Y-39425428D01*
X100295285Y-39568285D01*
X100009571Y-39711142D01*
X99295285Y-39711142D01*
X99009571Y-39568285D01*
X98866714Y-39425428D01*
X102295285Y-37996857D02*
X102009571Y-37854000D01*
X101866714Y-37711142D01*
X101723857Y-37425428D01*
X101723857Y-37282571D01*
X101866714Y-36996857D01*
X102009571Y-36854000D01*
X102295285Y-36711142D01*
X102866714Y-36711142D01*
X103152428Y-36854000D01*
X103295285Y-36996857D01*
X103438142Y-37282571D01*
X103438142Y-37425428D01*
X103295285Y-37711142D01*
X103152428Y-37854000D01*
X102866714Y-37996857D01*
X102295285Y-37996857D01*
X102009571Y-38139714D01*
X101866714Y-38282571D01*
X101723857Y-38568285D01*
X101723857Y-39139714D01*
X101866714Y-39425428D01*
X102009571Y-39568285D01*
X102295285Y-39711142D01*
X102866714Y-39711142D01*
X103152428Y-39568285D01*
X103295285Y-39425428D01*
X103438142Y-39139714D01*
X103438142Y-38568285D01*
X103295285Y-38282571D01*
X103152428Y-38139714D01*
X102866714Y-37996857D01*
X106295285Y-39711142D02*
X104580999Y-39711142D01*
X105438142Y-39711142D02*
X105438142Y-36711142D01*
X105152428Y-37139714D01*
X104866714Y-37425428D01*
X104580999Y-37568285D01*
X109866714Y-39711142D02*
X109866714Y-36711142D01*
X110580999Y-36711142D01*
X111009571Y-36854000D01*
X111295285Y-37139714D01*
X111438142Y-37425428D01*
X111580999Y-37996857D01*
X111580999Y-38425428D01*
X111438142Y-38996857D01*
X111295285Y-39282571D01*
X111009571Y-39568285D01*
X110580999Y-39711142D01*
X109866714Y-39711142D01*
X112866714Y-39711142D02*
X112866714Y-36711142D01*
X114152428Y-39568285D02*
X114580999Y-39711142D01*
X115295285Y-39711142D01*
X115580999Y-39568285D01*
X115723857Y-39425428D01*
X115866714Y-39139714D01*
X115866714Y-38854000D01*
X115723857Y-38568285D01*
X115580999Y-38425428D01*
X115295285Y-38282571D01*
X114723857Y-38139714D01*
X114438142Y-37996857D01*
X114295285Y-37854000D01*
X114152428Y-37568285D01*
X114152428Y-37282571D01*
X114295285Y-36996857D01*
X114438142Y-36854000D01*
X114723857Y-36711142D01*
X115438142Y-36711142D01*
X115866714Y-36854000D01*
X117152428Y-39711142D02*
X117152428Y-36711142D01*
X118866714Y-39711142D02*
X117580999Y-37996857D01*
X118866714Y-36711142D02*
X117152428Y-38425428D01*
X122438142Y-38568285D02*
X124723857Y-38568285D01*
X129295285Y-36711142D02*
X129295285Y-38854000D01*
X129152428Y-39282571D01*
X128866714Y-39568285D01*
X128438142Y-39711142D01*
X128152428Y-39711142D01*
X132009571Y-39711142D02*
X132009571Y-38139714D01*
X131866714Y-37854000D01*
X131580999Y-37711142D01*
X131009571Y-37711142D01*
X130723857Y-37854000D01*
X132009571Y-39568285D02*
X131723857Y-39711142D01*
X131009571Y-39711142D01*
X130723857Y-39568285D01*
X130580999Y-39282571D01*
X130580999Y-38996857D01*
X130723857Y-38711142D01*
X131009571Y-38568285D01*
X131723857Y-38568285D01*
X132009571Y-38425428D01*
X133152428Y-37711142D02*
X133866714Y-39711142D01*
X134580999Y-37711142D02*
X133866714Y-39711142D01*
X133580999Y-40425428D01*
X133438142Y-40568285D01*
X133152428Y-40711142D01*
X135580999Y-39568285D02*
X135866714Y-39711142D01*
X136438142Y-39711142D01*
X136723857Y-39568285D01*
X136866714Y-39282571D01*
X136866714Y-39139714D01*
X136723857Y-38854000D01*
X136438142Y-38711142D01*
X136009571Y-38711142D01*
X135723857Y-38568285D01*
X135580999Y-38282571D01*
X135580999Y-38139714D01*
X135723857Y-37854000D01*
X136009571Y-37711142D01*
X136438142Y-37711142D01*
X136723857Y-37854000D01*
X137723857Y-37711142D02*
X138866714Y-37711142D01*
X138152428Y-36711142D02*
X138152428Y-39282571D01*
X138295285Y-39568285D01*
X138580999Y-39711142D01*
X138866714Y-39711142D01*
X140295285Y-39711142D02*
X140009571Y-39568285D01*
X139866714Y-39425428D01*
X139723857Y-39139714D01*
X139723857Y-38282571D01*
X139866714Y-37996857D01*
X140009571Y-37854000D01*
X140295285Y-37711142D01*
X140723857Y-37711142D01*
X141009571Y-37854000D01*
X141152428Y-37996857D01*
X141295285Y-38282571D01*
X141295285Y-39139714D01*
X141152428Y-39425428D01*
X141009571Y-39568285D01*
X140723857Y-39711142D01*
X140295285Y-39711142D01*
X142580999Y-37711142D02*
X142580999Y-39711142D01*
X142580999Y-37996857D02*
X142723857Y-37854000D01*
X143009571Y-37711142D01*
X143438142Y-37711142D01*
X143723857Y-37854000D01*
X143866714Y-38139714D01*
X143866714Y-39711142D01*
X145295285Y-39711142D02*
X145295285Y-37711142D01*
X145295285Y-36711142D02*
X145152428Y-36854000D01*
X145295285Y-36996857D01*
X145438142Y-36854000D01*
X145295285Y-36711142D01*
X145295285Y-36996857D01*
X148009571Y-39711142D02*
X148009571Y-38139714D01*
X147866714Y-37854000D01*
X147580999Y-37711142D01*
X147009571Y-37711142D01*
X146723857Y-37854000D01*
X148009571Y-39568285D02*
X147723857Y-39711142D01*
X147009571Y-39711142D01*
X146723857Y-39568285D01*
X146580999Y-39282571D01*
X146580999Y-38996857D01*
X146723857Y-38711142D01*
X147009571Y-38568285D01*
X147723857Y-38568285D01*
X148009571Y-38425428D01*
X149438142Y-37711142D02*
X149438142Y-39711142D01*
X149438142Y-37996857D02*
X149580999Y-37854000D01*
X149866714Y-37711142D01*
X150295285Y-37711142D01*
X150580999Y-37854000D01*
X150723857Y-38139714D01*
X150723857Y-39711142D01*
X152295285Y-36711142D02*
X152009571Y-37282571D01*
X153438142Y-39568285D02*
X153723857Y-39711142D01*
X154295285Y-39711142D01*
X154580999Y-39568285D01*
X154723857Y-39282571D01*
X154723857Y-39139714D01*
X154580999Y-38854000D01*
X154295285Y-38711142D01*
X153866714Y-38711142D01*
X153580999Y-38568285D01*
X153438142Y-38282571D01*
X153438142Y-38139714D01*
X153580999Y-37854000D01*
X153866714Y-37711142D01*
X154295285Y-37711142D01*
X154580999Y-37854000D01*
X160009571Y-39711142D02*
X159009571Y-38282571D01*
X158295285Y-39711142D02*
X158295285Y-36711142D01*
X159438142Y-36711142D01*
X159723857Y-36854000D01*
X159866714Y-36996857D01*
X160009571Y-37282571D01*
X160009571Y-37711142D01*
X159866714Y-37996857D01*
X159723857Y-38139714D01*
X159438142Y-38282571D01*
X158295285Y-38282571D01*
X162438142Y-39568285D02*
X162152428Y-39711142D01*
X161580999Y-39711142D01*
X161295285Y-39568285D01*
X161152428Y-39282571D01*
X161152428Y-38139714D01*
X161295285Y-37854000D01*
X161580999Y-37711142D01*
X162152428Y-37711142D01*
X162438142Y-37854000D01*
X162580999Y-38139714D01*
X162580999Y-38425428D01*
X161152428Y-38711142D01*
X163438142Y-37711142D02*
X164580999Y-37711142D01*
X163866714Y-36711142D02*
X163866714Y-39282571D01*
X164009571Y-39568285D01*
X164295285Y-39711142D01*
X164580999Y-39711142D01*
X165580999Y-39711142D02*
X165580999Y-37711142D01*
X165580999Y-38282571D02*
X165723857Y-37996857D01*
X165866714Y-37854000D01*
X166152428Y-37711142D01*
X166438142Y-37711142D01*
X167866714Y-39711142D02*
X167580999Y-39568285D01*
X167438142Y-39425428D01*
X167295285Y-39139714D01*
X167295285Y-38282571D01*
X167438142Y-37996857D01*
X167580999Y-37854000D01*
X167866714Y-37711142D01*
X168295285Y-37711142D01*
X168580999Y-37854000D01*
X168723857Y-37996857D01*
X168866714Y-38282571D01*
X168866714Y-39139714D01*
X168723857Y-39425428D01*
X168580999Y-39568285D01*
X168295285Y-39711142D01*
X167866714Y-39711142D01*
X172152428Y-36711142D02*
X172866714Y-39711142D01*
X173438142Y-37568285D01*
X174009571Y-39711142D01*
X174723857Y-36711142D01*
X177152428Y-39711142D02*
X177152428Y-38139714D01*
X177009571Y-37854000D01*
X176723857Y-37711142D01*
X176152428Y-37711142D01*
X175866714Y-37854000D01*
X177152428Y-39568285D02*
X176866714Y-39711142D01*
X176152428Y-39711142D01*
X175866714Y-39568285D01*
X175723857Y-39282571D01*
X175723857Y-38996857D01*
X175866714Y-38711142D01*
X176152428Y-38568285D01*
X176866714Y-38568285D01*
X177152428Y-38425428D01*
X178580999Y-39711142D02*
X178580999Y-37711142D01*
X178580999Y-38282571D02*
X178723857Y-37996857D01*
X178866714Y-37854000D01*
X179152428Y-37711142D01*
X179438142Y-37711142D01*
X181580999Y-39568285D02*
X181295285Y-39711142D01*
X180723857Y-39711142D01*
X180438142Y-39568285D01*
X180295285Y-39282571D01*
X180295285Y-38139714D01*
X180438142Y-37854000D01*
X180723857Y-37711142D01*
X181295285Y-37711142D01*
X181580999Y-37854000D01*
X181723857Y-38139714D01*
X181723857Y-38425428D01*
X180295285Y-38711142D01*
X182866714Y-39568285D02*
X183152428Y-39711142D01*
X183723857Y-39711142D01*
X184009571Y-39568285D01*
X184152428Y-39282571D01*
X184152428Y-39139714D01*
X184009571Y-38854000D01*
X183723857Y-38711142D01*
X183295285Y-38711142D01*
X183009571Y-38568285D01*
X182866714Y-38282571D01*
X182866714Y-38139714D01*
X183009571Y-37854000D01*
X183295285Y-37711142D01*
X183723857Y-37711142D01*
X184009571Y-37854000D01*
D11*
X165227666Y-145502380D02*
X165465761Y-146502380D01*
X165656238Y-145788095D01*
X165846714Y-146502380D01*
X166084809Y-145502380D01*
X166370523Y-145502380D02*
X166989571Y-145502380D01*
X166656238Y-145883333D01*
X166799095Y-145883333D01*
X166894333Y-145930952D01*
X166941952Y-145978571D01*
X166989571Y-146073809D01*
X166989571Y-146311904D01*
X166941952Y-146407142D01*
X166894333Y-146454761D01*
X166799095Y-146502380D01*
X166513380Y-146502380D01*
X166418142Y-146454761D01*
X166370523Y-146407142D01*
X167418142Y-146121428D02*
X168180047Y-146121428D01*
X169180047Y-145550000D02*
X169084809Y-145502380D01*
X168941952Y-145502380D01*
X168799095Y-145550000D01*
X168703857Y-145645238D01*
X168656238Y-145740476D01*
X168608619Y-145930952D01*
X168608619Y-146073809D01*
X168656238Y-146264285D01*
X168703857Y-146359523D01*
X168799095Y-146454761D01*
X168941952Y-146502380D01*
X169037190Y-146502380D01*
X169180047Y-146454761D01*
X169227666Y-146407142D01*
X169227666Y-146073809D01*
X169037190Y-146073809D01*
X171846714Y-145502380D02*
X172084809Y-146502380D01*
X172275285Y-145788095D01*
X172465761Y-146502380D01*
X172703857Y-145502380D01*
X173608619Y-146502380D02*
X173037190Y-146502380D01*
X173322904Y-146502380D02*
X173322904Y-145502380D01*
X173227666Y-145645238D01*
X173132428Y-145740476D01*
X173037190Y-145788095D01*
X174037190Y-146121428D02*
X174799095Y-146121428D01*
X175846714Y-146502380D02*
X175513380Y-146026190D01*
X175275285Y-146502380D02*
X175275285Y-145502380D01*
X175656238Y-145502380D01*
X175751476Y-145550000D01*
X175799095Y-145597619D01*
X175846714Y-145692857D01*
X175846714Y-145835714D01*
X175799095Y-145930952D01*
X175751476Y-145978571D01*
X175656238Y-146026190D01*
X175275285Y-146026190D01*
D12*
%TO.C,JP1*%
X179835000Y-46625000D02*
X179835000Y-48625000D01*
X177035000Y-46625000D02*
X179835000Y-46625000D01*
X177035000Y-48625000D02*
X177035000Y-46625000D01*
X179835000Y-48625000D02*
X177035000Y-48625000D01*
%TO.C,C18*%
X88345000Y-125115000D02*
G75*
G03*
X88345000Y-125115000I-2620000J0D01*
G01*
X83145000Y-125115000D02*
X88305000Y-125115000D01*
X83145000Y-125075000D02*
X88305000Y-125075000D01*
X83146000Y-125035000D02*
X88304000Y-125035000D01*
X83147000Y-124995000D02*
X88303000Y-124995000D01*
X83149000Y-124955000D02*
X88301000Y-124955000D01*
X83152000Y-124915000D02*
X88298000Y-124915000D01*
X83156000Y-124875000D02*
X84685000Y-124875000D01*
X86765000Y-124875000D02*
X88294000Y-124875000D01*
X83160000Y-124835000D02*
X84685000Y-124835000D01*
X86765000Y-124835000D02*
X88290000Y-124835000D01*
X83164000Y-124795000D02*
X84685000Y-124795000D01*
X86765000Y-124795000D02*
X88286000Y-124795000D01*
X83169000Y-124755000D02*
X84685000Y-124755000D01*
X86765000Y-124755000D02*
X88281000Y-124755000D01*
X83175000Y-124715000D02*
X84685000Y-124715000D01*
X86765000Y-124715000D02*
X88275000Y-124715000D01*
X83182000Y-124675000D02*
X84685000Y-124675000D01*
X86765000Y-124675000D02*
X88268000Y-124675000D01*
X83189000Y-124635000D02*
X84685000Y-124635000D01*
X86765000Y-124635000D02*
X88261000Y-124635000D01*
X83197000Y-124595000D02*
X84685000Y-124595000D01*
X86765000Y-124595000D02*
X88253000Y-124595000D01*
X83205000Y-124555000D02*
X84685000Y-124555000D01*
X86765000Y-124555000D02*
X88245000Y-124555000D01*
X83214000Y-124515000D02*
X84685000Y-124515000D01*
X86765000Y-124515000D02*
X88236000Y-124515000D01*
X83224000Y-124475000D02*
X84685000Y-124475000D01*
X86765000Y-124475000D02*
X88226000Y-124475000D01*
X83234000Y-124435000D02*
X84685000Y-124435000D01*
X86765000Y-124435000D02*
X88216000Y-124435000D01*
X83245000Y-124394000D02*
X84685000Y-124394000D01*
X86765000Y-124394000D02*
X88205000Y-124394000D01*
X83257000Y-124354000D02*
X84685000Y-124354000D01*
X86765000Y-124354000D02*
X88193000Y-124354000D01*
X83270000Y-124314000D02*
X84685000Y-124314000D01*
X86765000Y-124314000D02*
X88180000Y-124314000D01*
X83283000Y-124274000D02*
X84685000Y-124274000D01*
X86765000Y-124274000D02*
X88167000Y-124274000D01*
X83297000Y-124234000D02*
X84685000Y-124234000D01*
X86765000Y-124234000D02*
X88153000Y-124234000D01*
X83311000Y-124194000D02*
X84685000Y-124194000D01*
X86765000Y-124194000D02*
X88139000Y-124194000D01*
X83327000Y-124154000D02*
X84685000Y-124154000D01*
X86765000Y-124154000D02*
X88123000Y-124154000D01*
X83343000Y-124114000D02*
X84685000Y-124114000D01*
X86765000Y-124114000D02*
X88107000Y-124114000D01*
X83360000Y-124074000D02*
X84685000Y-124074000D01*
X86765000Y-124074000D02*
X88090000Y-124074000D01*
X83377000Y-124034000D02*
X84685000Y-124034000D01*
X86765000Y-124034000D02*
X88073000Y-124034000D01*
X83396000Y-123994000D02*
X84685000Y-123994000D01*
X86765000Y-123994000D02*
X88054000Y-123994000D01*
X83415000Y-123954000D02*
X84685000Y-123954000D01*
X86765000Y-123954000D02*
X88035000Y-123954000D01*
X83435000Y-123914000D02*
X84685000Y-123914000D01*
X86765000Y-123914000D02*
X88015000Y-123914000D01*
X83457000Y-123874000D02*
X84685000Y-123874000D01*
X86765000Y-123874000D02*
X87993000Y-123874000D01*
X83478000Y-123834000D02*
X84685000Y-123834000D01*
X86765000Y-123834000D02*
X87972000Y-123834000D01*
X83501000Y-123794000D02*
X84685000Y-123794000D01*
X86765000Y-123794000D02*
X87949000Y-123794000D01*
X83525000Y-123754000D02*
X84685000Y-123754000D01*
X86765000Y-123754000D02*
X87925000Y-123754000D01*
X83550000Y-123714000D02*
X84685000Y-123714000D01*
X86765000Y-123714000D02*
X87900000Y-123714000D01*
X83576000Y-123674000D02*
X84685000Y-123674000D01*
X86765000Y-123674000D02*
X87874000Y-123674000D01*
X83603000Y-123634000D02*
X84685000Y-123634000D01*
X86765000Y-123634000D02*
X87847000Y-123634000D01*
X83630000Y-123594000D02*
X84685000Y-123594000D01*
X86765000Y-123594000D02*
X87820000Y-123594000D01*
X83660000Y-123554000D02*
X84685000Y-123554000D01*
X86765000Y-123554000D02*
X87790000Y-123554000D01*
X83690000Y-123514000D02*
X84685000Y-123514000D01*
X86765000Y-123514000D02*
X87760000Y-123514000D01*
X83721000Y-123474000D02*
X84685000Y-123474000D01*
X86765000Y-123474000D02*
X87729000Y-123474000D01*
X83754000Y-123434000D02*
X84685000Y-123434000D01*
X86765000Y-123434000D02*
X87696000Y-123434000D01*
X83788000Y-123394000D02*
X84685000Y-123394000D01*
X86765000Y-123394000D02*
X87662000Y-123394000D01*
X83824000Y-123354000D02*
X84685000Y-123354000D01*
X86765000Y-123354000D02*
X87626000Y-123354000D01*
X83861000Y-123314000D02*
X84685000Y-123314000D01*
X86765000Y-123314000D02*
X87589000Y-123314000D01*
X83899000Y-123274000D02*
X84685000Y-123274000D01*
X86765000Y-123274000D02*
X87551000Y-123274000D01*
X83940000Y-123234000D02*
X84685000Y-123234000D01*
X86765000Y-123234000D02*
X87510000Y-123234000D01*
X83982000Y-123194000D02*
X84685000Y-123194000D01*
X86765000Y-123194000D02*
X87468000Y-123194000D01*
X84026000Y-123154000D02*
X84685000Y-123154000D01*
X86765000Y-123154000D02*
X87424000Y-123154000D01*
X84072000Y-123114000D02*
X84685000Y-123114000D01*
X86765000Y-123114000D02*
X87378000Y-123114000D01*
X84120000Y-123074000D02*
X84685000Y-123074000D01*
X86765000Y-123074000D02*
X87330000Y-123074000D01*
X84171000Y-123034000D02*
X84685000Y-123034000D01*
X86765000Y-123034000D02*
X87279000Y-123034000D01*
X84225000Y-122994000D02*
X84685000Y-122994000D01*
X86765000Y-122994000D02*
X87225000Y-122994000D01*
X84282000Y-122954000D02*
X84685000Y-122954000D01*
X86765000Y-122954000D02*
X87168000Y-122954000D01*
X84342000Y-122914000D02*
X84685000Y-122914000D01*
X86765000Y-122914000D02*
X87108000Y-122914000D01*
X84406000Y-122874000D02*
X84685000Y-122874000D01*
X86765000Y-122874000D02*
X87044000Y-122874000D01*
X84474000Y-122834000D02*
X84685000Y-122834000D01*
X86765000Y-122834000D02*
X86976000Y-122834000D01*
X84547000Y-122794000D02*
X86903000Y-122794000D01*
X84627000Y-122754000D02*
X86823000Y-122754000D01*
X84714000Y-122714000D02*
X86736000Y-122714000D01*
X84810000Y-122674000D02*
X86640000Y-122674000D01*
X84920000Y-122634000D02*
X86530000Y-122634000D01*
X85048000Y-122594000D02*
X86402000Y-122594000D01*
X85207000Y-122554000D02*
X86243000Y-122554000D01*
X85441000Y-122514000D02*
X86009000Y-122514000D01*
X84250000Y-127919775D02*
X84250000Y-127419775D01*
X84000000Y-127669775D02*
X84500000Y-127669775D01*
%TO.C,C20*%
X109320000Y-78740000D02*
G75*
G03*
X109320000Y-78740000I-2620000J0D01*
G01*
X106700000Y-81320000D02*
X106700000Y-76160000D01*
X106660000Y-81320000D02*
X106660000Y-76160000D01*
X106620000Y-81319000D02*
X106620000Y-76161000D01*
X106580000Y-81318000D02*
X106580000Y-76162000D01*
X106540000Y-81316000D02*
X106540000Y-76164000D01*
X106500000Y-81313000D02*
X106500000Y-76167000D01*
X106460000Y-81309000D02*
X106460000Y-79780000D01*
X106460000Y-77700000D02*
X106460000Y-76171000D01*
X106420000Y-81305000D02*
X106420000Y-79780000D01*
X106420000Y-77700000D02*
X106420000Y-76175000D01*
X106380000Y-81301000D02*
X106380000Y-79780000D01*
X106380000Y-77700000D02*
X106380000Y-76179000D01*
X106340000Y-81296000D02*
X106340000Y-79780000D01*
X106340000Y-77700000D02*
X106340000Y-76184000D01*
X106300000Y-81290000D02*
X106300000Y-79780000D01*
X106300000Y-77700000D02*
X106300000Y-76190000D01*
X106260000Y-81283000D02*
X106260000Y-79780000D01*
X106260000Y-77700000D02*
X106260000Y-76197000D01*
X106220000Y-81276000D02*
X106220000Y-79780000D01*
X106220000Y-77700000D02*
X106220000Y-76204000D01*
X106180000Y-81268000D02*
X106180000Y-79780000D01*
X106180000Y-77700000D02*
X106180000Y-76212000D01*
X106140000Y-81260000D02*
X106140000Y-79780000D01*
X106140000Y-77700000D02*
X106140000Y-76220000D01*
X106100000Y-81251000D02*
X106100000Y-79780000D01*
X106100000Y-77700000D02*
X106100000Y-76229000D01*
X106060000Y-81241000D02*
X106060000Y-79780000D01*
X106060000Y-77700000D02*
X106060000Y-76239000D01*
X106020000Y-81231000D02*
X106020000Y-79780000D01*
X106020000Y-77700000D02*
X106020000Y-76249000D01*
X105979000Y-81220000D02*
X105979000Y-79780000D01*
X105979000Y-77700000D02*
X105979000Y-76260000D01*
X105939000Y-81208000D02*
X105939000Y-79780000D01*
X105939000Y-77700000D02*
X105939000Y-76272000D01*
X105899000Y-81195000D02*
X105899000Y-79780000D01*
X105899000Y-77700000D02*
X105899000Y-76285000D01*
X105859000Y-81182000D02*
X105859000Y-79780000D01*
X105859000Y-77700000D02*
X105859000Y-76298000D01*
X105819000Y-81168000D02*
X105819000Y-79780000D01*
X105819000Y-77700000D02*
X105819000Y-76312000D01*
X105779000Y-81154000D02*
X105779000Y-79780000D01*
X105779000Y-77700000D02*
X105779000Y-76326000D01*
X105739000Y-81138000D02*
X105739000Y-79780000D01*
X105739000Y-77700000D02*
X105739000Y-76342000D01*
X105699000Y-81122000D02*
X105699000Y-79780000D01*
X105699000Y-77700000D02*
X105699000Y-76358000D01*
X105659000Y-81105000D02*
X105659000Y-79780000D01*
X105659000Y-77700000D02*
X105659000Y-76375000D01*
X105619000Y-81088000D02*
X105619000Y-79780000D01*
X105619000Y-77700000D02*
X105619000Y-76392000D01*
X105579000Y-81069000D02*
X105579000Y-79780000D01*
X105579000Y-77700000D02*
X105579000Y-76411000D01*
X105539000Y-81050000D02*
X105539000Y-79780000D01*
X105539000Y-77700000D02*
X105539000Y-76430000D01*
X105499000Y-81030000D02*
X105499000Y-79780000D01*
X105499000Y-77700000D02*
X105499000Y-76450000D01*
X105459000Y-81008000D02*
X105459000Y-79780000D01*
X105459000Y-77700000D02*
X105459000Y-76472000D01*
X105419000Y-80987000D02*
X105419000Y-79780000D01*
X105419000Y-77700000D02*
X105419000Y-76493000D01*
X105379000Y-80964000D02*
X105379000Y-79780000D01*
X105379000Y-77700000D02*
X105379000Y-76516000D01*
X105339000Y-80940000D02*
X105339000Y-79780000D01*
X105339000Y-77700000D02*
X105339000Y-76540000D01*
X105299000Y-80915000D02*
X105299000Y-79780000D01*
X105299000Y-77700000D02*
X105299000Y-76565000D01*
X105259000Y-80889000D02*
X105259000Y-79780000D01*
X105259000Y-77700000D02*
X105259000Y-76591000D01*
X105219000Y-80862000D02*
X105219000Y-79780000D01*
X105219000Y-77700000D02*
X105219000Y-76618000D01*
X105179000Y-80835000D02*
X105179000Y-79780000D01*
X105179000Y-77700000D02*
X105179000Y-76645000D01*
X105139000Y-80805000D02*
X105139000Y-79780000D01*
X105139000Y-77700000D02*
X105139000Y-76675000D01*
X105099000Y-80775000D02*
X105099000Y-79780000D01*
X105099000Y-77700000D02*
X105099000Y-76705000D01*
X105059000Y-80744000D02*
X105059000Y-79780000D01*
X105059000Y-77700000D02*
X105059000Y-76736000D01*
X105019000Y-80711000D02*
X105019000Y-79780000D01*
X105019000Y-77700000D02*
X105019000Y-76769000D01*
X104979000Y-80677000D02*
X104979000Y-79780000D01*
X104979000Y-77700000D02*
X104979000Y-76803000D01*
X104939000Y-80641000D02*
X104939000Y-79780000D01*
X104939000Y-77700000D02*
X104939000Y-76839000D01*
X104899000Y-80604000D02*
X104899000Y-79780000D01*
X104899000Y-77700000D02*
X104899000Y-76876000D01*
X104859000Y-80566000D02*
X104859000Y-79780000D01*
X104859000Y-77700000D02*
X104859000Y-76914000D01*
X104819000Y-80525000D02*
X104819000Y-79780000D01*
X104819000Y-77700000D02*
X104819000Y-76955000D01*
X104779000Y-80483000D02*
X104779000Y-79780000D01*
X104779000Y-77700000D02*
X104779000Y-76997000D01*
X104739000Y-80439000D02*
X104739000Y-79780000D01*
X104739000Y-77700000D02*
X104739000Y-77041000D01*
X104699000Y-80393000D02*
X104699000Y-79780000D01*
X104699000Y-77700000D02*
X104699000Y-77087000D01*
X104659000Y-80345000D02*
X104659000Y-79780000D01*
X104659000Y-77700000D02*
X104659000Y-77135000D01*
X104619000Y-80294000D02*
X104619000Y-79780000D01*
X104619000Y-77700000D02*
X104619000Y-77186000D01*
X104579000Y-80240000D02*
X104579000Y-79780000D01*
X104579000Y-77700000D02*
X104579000Y-77240000D01*
X104539000Y-80183000D02*
X104539000Y-79780000D01*
X104539000Y-77700000D02*
X104539000Y-77297000D01*
X104499000Y-80123000D02*
X104499000Y-79780000D01*
X104499000Y-77700000D02*
X104499000Y-77357000D01*
X104459000Y-80059000D02*
X104459000Y-79780000D01*
X104459000Y-77700000D02*
X104459000Y-77421000D01*
X104419000Y-79991000D02*
X104419000Y-79780000D01*
X104419000Y-77700000D02*
X104419000Y-77489000D01*
X104379000Y-79918000D02*
X104379000Y-77562000D01*
X104339000Y-79838000D02*
X104339000Y-77642000D01*
X104299000Y-79751000D02*
X104299000Y-77729000D01*
X104259000Y-79655000D02*
X104259000Y-77825000D01*
X104219000Y-79545000D02*
X104219000Y-77935000D01*
X104179000Y-79417000D02*
X104179000Y-78063000D01*
X104139000Y-79258000D02*
X104139000Y-78222000D01*
X104099000Y-79024000D02*
X104099000Y-78456000D01*
X109504775Y-80215000D02*
X109004775Y-80215000D01*
X109254775Y-80465000D02*
X109254775Y-79965000D01*
%TO.C,C22*%
X84000000Y-121319775D02*
X84500000Y-121319775D01*
X84250000Y-121569775D02*
X84250000Y-121069775D01*
X85441000Y-116164000D02*
X86009000Y-116164000D01*
X85207000Y-116204000D02*
X86243000Y-116204000D01*
X85048000Y-116244000D02*
X86402000Y-116244000D01*
X84920000Y-116284000D02*
X86530000Y-116284000D01*
X84810000Y-116324000D02*
X86640000Y-116324000D01*
X84714000Y-116364000D02*
X86736000Y-116364000D01*
X84627000Y-116404000D02*
X86823000Y-116404000D01*
X84547000Y-116444000D02*
X86903000Y-116444000D01*
X86765000Y-116484000D02*
X86976000Y-116484000D01*
X84474000Y-116484000D02*
X84685000Y-116484000D01*
X86765000Y-116524000D02*
X87044000Y-116524000D01*
X84406000Y-116524000D02*
X84685000Y-116524000D01*
X86765000Y-116564000D02*
X87108000Y-116564000D01*
X84342000Y-116564000D02*
X84685000Y-116564000D01*
X86765000Y-116604000D02*
X87168000Y-116604000D01*
X84282000Y-116604000D02*
X84685000Y-116604000D01*
X86765000Y-116644000D02*
X87225000Y-116644000D01*
X84225000Y-116644000D02*
X84685000Y-116644000D01*
X86765000Y-116684000D02*
X87279000Y-116684000D01*
X84171000Y-116684000D02*
X84685000Y-116684000D01*
X86765000Y-116724000D02*
X87330000Y-116724000D01*
X84120000Y-116724000D02*
X84685000Y-116724000D01*
X86765000Y-116764000D02*
X87378000Y-116764000D01*
X84072000Y-116764000D02*
X84685000Y-116764000D01*
X86765000Y-116804000D02*
X87424000Y-116804000D01*
X84026000Y-116804000D02*
X84685000Y-116804000D01*
X86765000Y-116844000D02*
X87468000Y-116844000D01*
X83982000Y-116844000D02*
X84685000Y-116844000D01*
X86765000Y-116884000D02*
X87510000Y-116884000D01*
X83940000Y-116884000D02*
X84685000Y-116884000D01*
X86765000Y-116924000D02*
X87551000Y-116924000D01*
X83899000Y-116924000D02*
X84685000Y-116924000D01*
X86765000Y-116964000D02*
X87589000Y-116964000D01*
X83861000Y-116964000D02*
X84685000Y-116964000D01*
X86765000Y-117004000D02*
X87626000Y-117004000D01*
X83824000Y-117004000D02*
X84685000Y-117004000D01*
X86765000Y-117044000D02*
X87662000Y-117044000D01*
X83788000Y-117044000D02*
X84685000Y-117044000D01*
X86765000Y-117084000D02*
X87696000Y-117084000D01*
X83754000Y-117084000D02*
X84685000Y-117084000D01*
X86765000Y-117124000D02*
X87729000Y-117124000D01*
X83721000Y-117124000D02*
X84685000Y-117124000D01*
X86765000Y-117164000D02*
X87760000Y-117164000D01*
X83690000Y-117164000D02*
X84685000Y-117164000D01*
X86765000Y-117204000D02*
X87790000Y-117204000D01*
X83660000Y-117204000D02*
X84685000Y-117204000D01*
X86765000Y-117244000D02*
X87820000Y-117244000D01*
X83630000Y-117244000D02*
X84685000Y-117244000D01*
X86765000Y-117284000D02*
X87847000Y-117284000D01*
X83603000Y-117284000D02*
X84685000Y-117284000D01*
X86765000Y-117324000D02*
X87874000Y-117324000D01*
X83576000Y-117324000D02*
X84685000Y-117324000D01*
X86765000Y-117364000D02*
X87900000Y-117364000D01*
X83550000Y-117364000D02*
X84685000Y-117364000D01*
X86765000Y-117404000D02*
X87925000Y-117404000D01*
X83525000Y-117404000D02*
X84685000Y-117404000D01*
X86765000Y-117444000D02*
X87949000Y-117444000D01*
X83501000Y-117444000D02*
X84685000Y-117444000D01*
X86765000Y-117484000D02*
X87972000Y-117484000D01*
X83478000Y-117484000D02*
X84685000Y-117484000D01*
X86765000Y-117524000D02*
X87993000Y-117524000D01*
X83457000Y-117524000D02*
X84685000Y-117524000D01*
X86765000Y-117564000D02*
X88015000Y-117564000D01*
X83435000Y-117564000D02*
X84685000Y-117564000D01*
X86765000Y-117604000D02*
X88035000Y-117604000D01*
X83415000Y-117604000D02*
X84685000Y-117604000D01*
X86765000Y-117644000D02*
X88054000Y-117644000D01*
X83396000Y-117644000D02*
X84685000Y-117644000D01*
X86765000Y-117684000D02*
X88073000Y-117684000D01*
X83377000Y-117684000D02*
X84685000Y-117684000D01*
X86765000Y-117724000D02*
X88090000Y-117724000D01*
X83360000Y-117724000D02*
X84685000Y-117724000D01*
X86765000Y-117764000D02*
X88107000Y-117764000D01*
X83343000Y-117764000D02*
X84685000Y-117764000D01*
X86765000Y-117804000D02*
X88123000Y-117804000D01*
X83327000Y-117804000D02*
X84685000Y-117804000D01*
X86765000Y-117844000D02*
X88139000Y-117844000D01*
X83311000Y-117844000D02*
X84685000Y-117844000D01*
X86765000Y-117884000D02*
X88153000Y-117884000D01*
X83297000Y-117884000D02*
X84685000Y-117884000D01*
X86765000Y-117924000D02*
X88167000Y-117924000D01*
X83283000Y-117924000D02*
X84685000Y-117924000D01*
X86765000Y-117964000D02*
X88180000Y-117964000D01*
X83270000Y-117964000D02*
X84685000Y-117964000D01*
X86765000Y-118004000D02*
X88193000Y-118004000D01*
X83257000Y-118004000D02*
X84685000Y-118004000D01*
X86765000Y-118044000D02*
X88205000Y-118044000D01*
X83245000Y-118044000D02*
X84685000Y-118044000D01*
X86765000Y-118085000D02*
X88216000Y-118085000D01*
X83234000Y-118085000D02*
X84685000Y-118085000D01*
X86765000Y-118125000D02*
X88226000Y-118125000D01*
X83224000Y-118125000D02*
X84685000Y-118125000D01*
X86765000Y-118165000D02*
X88236000Y-118165000D01*
X83214000Y-118165000D02*
X84685000Y-118165000D01*
X86765000Y-118205000D02*
X88245000Y-118205000D01*
X83205000Y-118205000D02*
X84685000Y-118205000D01*
X86765000Y-118245000D02*
X88253000Y-118245000D01*
X83197000Y-118245000D02*
X84685000Y-118245000D01*
X86765000Y-118285000D02*
X88261000Y-118285000D01*
X83189000Y-118285000D02*
X84685000Y-118285000D01*
X86765000Y-118325000D02*
X88268000Y-118325000D01*
X83182000Y-118325000D02*
X84685000Y-118325000D01*
X86765000Y-118365000D02*
X88275000Y-118365000D01*
X83175000Y-118365000D02*
X84685000Y-118365000D01*
X86765000Y-118405000D02*
X88281000Y-118405000D01*
X83169000Y-118405000D02*
X84685000Y-118405000D01*
X86765000Y-118445000D02*
X88286000Y-118445000D01*
X83164000Y-118445000D02*
X84685000Y-118445000D01*
X86765000Y-118485000D02*
X88290000Y-118485000D01*
X83160000Y-118485000D02*
X84685000Y-118485000D01*
X86765000Y-118525000D02*
X88294000Y-118525000D01*
X83156000Y-118525000D02*
X84685000Y-118525000D01*
X83152000Y-118565000D02*
X88298000Y-118565000D01*
X83149000Y-118605000D02*
X88301000Y-118605000D01*
X83147000Y-118645000D02*
X88303000Y-118645000D01*
X83146000Y-118685000D02*
X88304000Y-118685000D01*
X83145000Y-118725000D02*
X88305000Y-118725000D01*
X83145000Y-118765000D02*
X88305000Y-118765000D01*
X88345000Y-118765000D02*
G75*
G03*
X88345000Y-118765000I-2620000J0D01*
G01*
%TO.C,CN1*%
X74990000Y-39945000D02*
X72330000Y-39945000D01*
X74990000Y-52705000D02*
X74990000Y-39945000D01*
X72330000Y-52705000D02*
X72330000Y-39945000D01*
X74990000Y-52705000D02*
X72330000Y-52705000D01*
X74990000Y-53975000D02*
X74990000Y-55305000D01*
X74990000Y-55305000D02*
X73660000Y-55305000D01*
%TO.C,CN2*%
X80070000Y-68520000D02*
X74870000Y-68520000D01*
X80070000Y-109220000D02*
X80070000Y-68520000D01*
X74870000Y-111820000D02*
X74870000Y-68520000D01*
X80070000Y-109220000D02*
X77470000Y-109220000D01*
X77470000Y-109220000D02*
X77470000Y-111820000D01*
X77470000Y-111820000D02*
X74870000Y-111820000D01*
X80070000Y-110490000D02*
X80070000Y-111820000D01*
X80070000Y-111820000D02*
X78740000Y-111820000D01*
D11*
%TO.C,CN3*%
X53000000Y-62080000D02*
X53000000Y-59080000D01*
X53000000Y-72080000D02*
X53000000Y-65080000D01*
X53000000Y-78080000D02*
X53000000Y-75080000D01*
X51000000Y-58580000D02*
X51000000Y-78580000D01*
X51000000Y-78580000D02*
X70000000Y-78580000D01*
X70000000Y-78580000D02*
X70000000Y-58580000D01*
X70000000Y-58580000D02*
X51000000Y-58580000D01*
D12*
%TO.C,CN5*%
X166945000Y-142053000D02*
X166945000Y-144713000D01*
X172085000Y-142053000D02*
X166945000Y-142053000D01*
X172085000Y-144713000D02*
X166945000Y-144713000D01*
X172085000Y-142053000D02*
X172085000Y-144713000D01*
X173355000Y-142053000D02*
X174685000Y-142053000D01*
X174685000Y-142053000D02*
X174685000Y-143383000D01*
%TO.C,EMI1*%
X77410000Y-54035000D02*
X77410000Y-52705000D01*
X78740000Y-54035000D02*
X77410000Y-54035000D01*
X80010000Y-54035000D02*
X80010000Y-51375000D01*
X80010000Y-51375000D02*
X85150000Y-51375000D01*
X80010000Y-54035000D02*
X85150000Y-54035000D01*
X85150000Y-54035000D02*
X85150000Y-51375000D01*
%TO.C,EMI2*%
X85150000Y-49590000D02*
X85150000Y-46930000D01*
X80010000Y-49590000D02*
X85150000Y-49590000D01*
X80010000Y-46930000D02*
X85150000Y-46930000D01*
X80010000Y-49590000D02*
X80010000Y-46930000D01*
X78740000Y-49590000D02*
X77410000Y-49590000D01*
X77410000Y-49590000D02*
X77410000Y-48260000D01*
%TO.C,EMI3*%
X85150000Y-62925000D02*
X85150000Y-60265000D01*
X80010000Y-62925000D02*
X85150000Y-62925000D01*
X80010000Y-60265000D02*
X85150000Y-60265000D01*
X80010000Y-62925000D02*
X80010000Y-60265000D01*
X78740000Y-62925000D02*
X77410000Y-62925000D01*
X77410000Y-62925000D02*
X77410000Y-61595000D01*
%TO.C,EMI4*%
X77410000Y-58480000D02*
X77410000Y-57150000D01*
X78740000Y-58480000D02*
X77410000Y-58480000D01*
X80010000Y-58480000D02*
X80010000Y-55820000D01*
X80010000Y-55820000D02*
X85150000Y-55820000D01*
X80010000Y-58480000D02*
X85150000Y-58480000D01*
X85150000Y-58480000D02*
X85150000Y-55820000D01*
%TO.C,RP3*%
X95120000Y-117518000D02*
X97920000Y-117518000D01*
X97920000Y-117518000D02*
X97920000Y-96858000D01*
X97920000Y-96858000D02*
X95120000Y-96858000D01*
X95120000Y-96858000D02*
X95120000Y-117518000D01*
X95120000Y-114808000D02*
X97920000Y-114808000D01*
%TO.C,SW1*%
X51565000Y-98545000D02*
X61465000Y-98545000D01*
X51565000Y-105925000D02*
X61465000Y-105925000D01*
X51565000Y-98545000D02*
X51565000Y-105925000D01*
X61465000Y-98545000D02*
X61465000Y-105925000D01*
X51325000Y-98305000D02*
X52709000Y-98305000D01*
X51325000Y-98305000D02*
X51325000Y-99688000D01*
X54485000Y-100330000D02*
X54485000Y-101600000D01*
X54485000Y-101600000D02*
X58545000Y-101600000D01*
X58545000Y-101600000D02*
X58545000Y-100330000D01*
X58545000Y-100330000D02*
X54485000Y-100330000D01*
X54485000Y-100450000D02*
X55838333Y-100450000D01*
X54485000Y-100570000D02*
X55838333Y-100570000D01*
X54485000Y-100690000D02*
X55838333Y-100690000D01*
X54485000Y-100810000D02*
X55838333Y-100810000D01*
X54485000Y-100930000D02*
X55838333Y-100930000D01*
X54485000Y-101050000D02*
X55838333Y-101050000D01*
X54485000Y-101170000D02*
X55838333Y-101170000D01*
X54485000Y-101290000D02*
X55838333Y-101290000D01*
X54485000Y-101410000D02*
X55838333Y-101410000D01*
X54485000Y-101530000D02*
X55838333Y-101530000D01*
X55838333Y-100330000D02*
X55838333Y-101600000D01*
X54485000Y-102870000D02*
X54485000Y-104140000D01*
X54485000Y-104140000D02*
X58545000Y-104140000D01*
X58545000Y-104140000D02*
X58545000Y-102870000D01*
X58545000Y-102870000D02*
X54485000Y-102870000D01*
X54485000Y-102990000D02*
X55838333Y-102990000D01*
X54485000Y-103110000D02*
X55838333Y-103110000D01*
X54485000Y-103230000D02*
X55838333Y-103230000D01*
X54485000Y-103350000D02*
X55838333Y-103350000D01*
X54485000Y-103470000D02*
X55838333Y-103470000D01*
X54485000Y-103590000D02*
X55838333Y-103590000D01*
X54485000Y-103710000D02*
X55838333Y-103710000D01*
X54485000Y-103830000D02*
X55838333Y-103830000D01*
X54485000Y-103950000D02*
X55838333Y-103950000D01*
X54485000Y-104070000D02*
X55838333Y-104070000D01*
X55838333Y-102870000D02*
X55838333Y-104140000D01*
%TO.C,U4*%
X166735000Y-85150000D02*
X172195000Y-85150000D01*
X172195000Y-85150000D02*
X172195000Y-49470000D01*
X172195000Y-49470000D02*
X159275000Y-49470000D01*
X159275000Y-49470000D02*
X159275000Y-85150000D01*
X159275000Y-85150000D02*
X164735000Y-85150000D01*
X174685000Y-85210000D02*
X174685000Y-49410000D01*
X174685000Y-49410000D02*
X156785000Y-49410000D01*
X156785000Y-49410000D02*
X156785000Y-85210000D01*
X156785000Y-85210000D02*
X174685000Y-85210000D01*
X164735000Y-85150000D02*
G75*
G02*
X166735000Y-85150000I1000000J0D01*
G01*
D11*
%TO.C,CN4*%
X53000000Y-40490000D02*
X53000000Y-37490000D01*
X53000000Y-50490000D02*
X53000000Y-43490000D01*
X53000000Y-56490000D02*
X53000000Y-53490000D01*
X51000000Y-36990000D02*
X51000000Y-56990000D01*
X51000000Y-56990000D02*
X70000000Y-56990000D01*
X70000000Y-56990000D02*
X70000000Y-36990000D01*
X70000000Y-36990000D02*
X51000000Y-36990000D01*
D12*
%TO.C,J1*%
X77410000Y-127060000D02*
X80070000Y-127060000D01*
X77410000Y-119380000D02*
X77410000Y-127060000D01*
X80070000Y-119380000D02*
X80070000Y-127060000D01*
X77410000Y-119380000D02*
X80070000Y-119380000D01*
X77410000Y-118110000D02*
X77410000Y-116780000D01*
X77410000Y-116780000D02*
X78740000Y-116780000D01*
%TO.C,J2*%
X53045000Y-123345000D02*
X44545000Y-123345000D01*
X44545000Y-123345000D02*
X44545000Y-114145000D01*
X44545000Y-114145000D02*
X59245000Y-114145000D01*
X59245000Y-121245000D02*
X59245000Y-123345000D01*
X59245000Y-123345000D02*
X57445000Y-123345000D01*
X59545000Y-115545000D02*
X59545000Y-113845000D01*
X59545000Y-113845000D02*
X57945000Y-113845000D01*
X59245000Y-114145000D02*
X59245000Y-116245000D01*
%TO.C,U14*%
X133715000Y-108077000D02*
X131715000Y-108077000D01*
X131215000Y-105283000D02*
X133715000Y-105283000D01*
%TO.C,X1*%
X220360000Y-66330000D02*
X232510000Y-66330000D01*
X219610000Y-46180000D02*
X219610000Y-65580000D01*
X231760000Y-45430000D02*
X220360000Y-45430000D01*
X232510000Y-66330000D02*
X232510000Y-46180000D01*
X232510000Y-46180000D02*
G75*
G03*
X231760000Y-45430000I-750000J0D01*
G01*
X220360000Y-45430000D02*
G75*
G03*
X219610000Y-46180000I0J-750000D01*
G01*
X219610000Y-65580000D02*
G75*
G03*
X220360000Y-66330000I750000J0D01*
G01*
%TO.C,C16*%
X137895000Y-143771252D02*
X137895000Y-143248748D01*
X136425000Y-143771252D02*
X136425000Y-143248748D01*
%TO.C,C17*%
X137895000Y-139438748D02*
X137895000Y-139961252D01*
X136425000Y-139438748D02*
X136425000Y-139961252D01*
%TO.C,SW2*%
X52070000Y-133350000D02*
X76835000Y-133350000D01*
X76835000Y-133350000D02*
X76835000Y-143510000D01*
X76835000Y-143510000D02*
X52070000Y-143510000D01*
X52070000Y-143510000D02*
X52070000Y-133350000D01*
%TO.C,U15*%
X129445000Y-139119000D02*
X130955000Y-139119000D01*
X129445000Y-142820000D02*
X130955000Y-142820000D01*
X130955000Y-146090000D02*
X130955000Y-135850000D01*
X129445000Y-135850000D02*
X134086000Y-135850000D01*
X129445000Y-146090000D02*
X134086000Y-146090000D01*
X134086000Y-146090000D02*
X134086000Y-135850000D01*
X129445000Y-146090000D02*
X129445000Y-135850000D01*
%TO.C,C19*%
X132065000Y-128905000D02*
X131125000Y-128905000D01*
X104945000Y-128905000D02*
X105885000Y-128905000D01*
X109485000Y-134025000D02*
X131125000Y-134025000D01*
X108585000Y-133125000D02*
X109485000Y-134025000D01*
X107685000Y-134025000D02*
X108585000Y-133125000D01*
X105885000Y-134025000D02*
X107685000Y-134025000D01*
X109485000Y-123785000D02*
X131125000Y-123785000D01*
X108585000Y-124685000D02*
X109485000Y-123785000D01*
X107685000Y-123785000D02*
X108585000Y-124685000D01*
X105885000Y-123785000D02*
X107685000Y-123785000D01*
X131125000Y-123785000D02*
X131125000Y-134025000D01*
X105885000Y-123785000D02*
X105885000Y-134025000D01*
X104685000Y-125405000D02*
X104685000Y-127205000D01*
X103785000Y-126305000D02*
X105585000Y-126305000D01*
%TO.C,JP2*%
X131315000Y-108918500D02*
X134115000Y-108918500D01*
X134115000Y-108918500D02*
X134115000Y-110918500D01*
X134115000Y-110918500D02*
X131315000Y-110918500D01*
X131315000Y-110918500D02*
X131315000Y-108918500D01*
%TO.C,JP3*%
X203838000Y-90440000D02*
X203838000Y-92440000D01*
X201038000Y-90440000D02*
X203838000Y-90440000D01*
X201038000Y-92440000D02*
X201038000Y-90440000D01*
X203838000Y-92440000D02*
X201038000Y-92440000D01*
%TO.C,JP4*%
X224025000Y-100600000D02*
X226825000Y-100600000D01*
X226825000Y-100600000D02*
X226825000Y-102600000D01*
X226825000Y-102600000D02*
X224025000Y-102600000D01*
X224025000Y-102600000D02*
X224025000Y-100600000D01*
%TO.C,JP5*%
X203387000Y-142053000D02*
X203387000Y-143383000D01*
X202057000Y-142053000D02*
X203387000Y-142053000D01*
X200787000Y-142053000D02*
X200787000Y-144713000D01*
X200787000Y-144713000D02*
X198187000Y-144713000D01*
X200787000Y-142053000D02*
X198187000Y-142053000D01*
X198187000Y-142053000D02*
X198187000Y-144713000D01*
%TO.C,U2*%
X156785000Y-136010000D02*
X174685000Y-136010000D01*
X156785000Y-100210000D02*
X156785000Y-136010000D01*
X174685000Y-100210000D02*
X156785000Y-100210000D01*
X174685000Y-136010000D02*
X174685000Y-100210000D01*
X159275000Y-135950000D02*
X164735000Y-135950000D01*
X159275000Y-100270000D02*
X159275000Y-135950000D01*
X172195000Y-100270000D02*
X159275000Y-100270000D01*
X172195000Y-135950000D02*
X172195000Y-100270000D01*
X166735000Y-135950000D02*
X172195000Y-135950000D01*
X164735000Y-135950000D02*
G75*
G02*
X166735000Y-135950000I1000000J0D01*
G01*
%TO.C,U6*%
X117415000Y-116960000D02*
X127695000Y-116960000D01*
X117415000Y-96400000D02*
X117415000Y-116960000D01*
X127695000Y-96400000D02*
X117415000Y-96400000D01*
X127695000Y-116960000D02*
X127695000Y-96400000D01*
X119905000Y-116900000D02*
X121555000Y-116900000D01*
X119905000Y-96460000D02*
X119905000Y-116900000D01*
X125205000Y-96460000D02*
X119905000Y-96460000D01*
X125205000Y-116900000D02*
X125205000Y-96460000D01*
X123555000Y-116900000D02*
X125205000Y-116900000D01*
X121555000Y-116900000D02*
G75*
G02*
X123555000Y-116900000I1000000J0D01*
G01*
%TO.C,U7*%
X123555000Y-87690000D02*
X125205000Y-87690000D01*
X125205000Y-87690000D02*
X125205000Y-69790000D01*
X125205000Y-69790000D02*
X119905000Y-69790000D01*
X119905000Y-69790000D02*
X119905000Y-87690000D01*
X119905000Y-87690000D02*
X121555000Y-87690000D01*
X127695000Y-87750000D02*
X127695000Y-69730000D01*
X127695000Y-69730000D02*
X117415000Y-69730000D01*
X117415000Y-69730000D02*
X117415000Y-87750000D01*
X117415000Y-87750000D02*
X127695000Y-87750000D01*
X121555000Y-87690000D02*
G75*
G02*
X123555000Y-87690000I1000000J0D01*
G01*
%TO.C,U8*%
X137735000Y-87750000D02*
X148015000Y-87750000D01*
X137735000Y-69730000D02*
X137735000Y-87750000D01*
X148015000Y-69730000D02*
X137735000Y-69730000D01*
X148015000Y-87750000D02*
X148015000Y-69730000D01*
X140225000Y-87690000D02*
X141875000Y-87690000D01*
X140225000Y-69790000D02*
X140225000Y-87690000D01*
X145525000Y-69790000D02*
X140225000Y-69790000D01*
X145525000Y-87690000D02*
X145525000Y-69790000D01*
X143875000Y-87690000D02*
X145525000Y-87690000D01*
X141875000Y-87690000D02*
G75*
G02*
X143875000Y-87690000I1000000J0D01*
G01*
%TO.C,U9*%
X117415000Y-59810000D02*
X127695000Y-59810000D01*
X117415000Y-41790000D02*
X117415000Y-59810000D01*
X127695000Y-41790000D02*
X117415000Y-41790000D01*
X127695000Y-59810000D02*
X127695000Y-41790000D01*
X119905000Y-59750000D02*
X121555000Y-59750000D01*
X119905000Y-41850000D02*
X119905000Y-59750000D01*
X125205000Y-41850000D02*
X119905000Y-41850000D01*
X125205000Y-59750000D02*
X125205000Y-41850000D01*
X123555000Y-59750000D02*
X125205000Y-59750000D01*
X121555000Y-59750000D02*
G75*
G02*
X123555000Y-59750000I1000000J0D01*
G01*
%TO.C,U10*%
X231260000Y-80959000D02*
X231260000Y-70679000D01*
X213240000Y-80959000D02*
X231260000Y-80959000D01*
X213240000Y-70679000D02*
X213240000Y-80959000D01*
X231260000Y-70679000D02*
X213240000Y-70679000D01*
X231200000Y-78469000D02*
X231200000Y-76819000D01*
X213300000Y-78469000D02*
X231200000Y-78469000D01*
X213300000Y-73169000D02*
X213300000Y-78469000D01*
X231200000Y-73169000D02*
X213300000Y-73169000D01*
X231200000Y-74819000D02*
X231200000Y-73169000D01*
X231200000Y-76819000D02*
G75*
G02*
X231200000Y-74819000I0J1000000D01*
G01*
%TO.C,U11*%
X143875000Y-115630000D02*
X145525000Y-115630000D01*
X145525000Y-115630000D02*
X145525000Y-97730000D01*
X145525000Y-97730000D02*
X140225000Y-97730000D01*
X140225000Y-97730000D02*
X140225000Y-115630000D01*
X140225000Y-115630000D02*
X141875000Y-115630000D01*
X148015000Y-115690000D02*
X148015000Y-97670000D01*
X148015000Y-97670000D02*
X137735000Y-97670000D01*
X137735000Y-97670000D02*
X137735000Y-115690000D01*
X137735000Y-115690000D02*
X148015000Y-115690000D01*
X141875000Y-115630000D02*
G75*
G02*
X143875000Y-115630000I1000000J0D01*
G01*
%TO.C,U12*%
X143875000Y-59750000D02*
X145525000Y-59750000D01*
X145525000Y-59750000D02*
X145525000Y-41850000D01*
X145525000Y-41850000D02*
X140225000Y-41850000D01*
X140225000Y-41850000D02*
X140225000Y-59750000D01*
X140225000Y-59750000D02*
X141875000Y-59750000D01*
X148015000Y-59810000D02*
X148015000Y-41790000D01*
X148015000Y-41790000D02*
X137735000Y-41790000D01*
X137735000Y-41790000D02*
X137735000Y-59810000D01*
X137735000Y-59810000D02*
X148015000Y-59810000D01*
X141875000Y-59750000D02*
G75*
G02*
X143875000Y-59750000I1000000J0D01*
G01*
%TO.C,U13*%
X97095000Y-67430000D02*
X107375000Y-67430000D01*
X97095000Y-41790000D02*
X97095000Y-67430000D01*
X107375000Y-41790000D02*
X97095000Y-41790000D01*
X107375000Y-67430000D02*
X107375000Y-41790000D01*
X99585000Y-67370000D02*
X101235000Y-67370000D01*
X99585000Y-41850000D02*
X99585000Y-67370000D01*
X104885000Y-41850000D02*
X99585000Y-41850000D01*
X104885000Y-67370000D02*
X104885000Y-41850000D01*
X103235000Y-67370000D02*
X104885000Y-67370000D01*
X101235000Y-67370000D02*
G75*
G02*
X103235000Y-67370000I1000000J0D01*
G01*
%TO.C,U1*%
X222945000Y-90050000D02*
X205045000Y-90050000D01*
X222945000Y-141090000D02*
X222945000Y-90050000D01*
X205045000Y-141090000D02*
X222945000Y-141090000D01*
X205045000Y-90050000D02*
X205045000Y-141090000D01*
X220455000Y-90110000D02*
X214995000Y-90110000D01*
X220455000Y-141030000D02*
X220455000Y-90110000D01*
X207535000Y-141030000D02*
X220455000Y-141030000D01*
X207535000Y-90110000D02*
X207535000Y-141030000D01*
X212995000Y-90110000D02*
X207535000Y-90110000D01*
X214995000Y-90110000D02*
G75*
G02*
X212995000Y-90110000I-1000000J0D01*
G01*
%TO.C,CR4*%
X106030000Y-94220000D02*
X109870000Y-94220000D01*
X106030000Y-93980000D02*
X109870000Y-93980000D01*
X106030000Y-94100000D02*
X109870000Y-94100000D01*
X107950000Y-86530000D02*
X107950000Y-87520000D01*
X107950000Y-96350000D02*
X107950000Y-95360000D01*
X106030000Y-87520000D02*
X106030000Y-95360000D01*
X109870000Y-87520000D02*
X106030000Y-87520000D01*
X109870000Y-95360000D02*
X109870000Y-87520000D01*
X106030000Y-95360000D02*
X109870000Y-95360000D01*
%TO.C,C1*%
X209670000Y-88365000D02*
X204430000Y-88365000D01*
X209670000Y-85625000D02*
X204430000Y-85625000D01*
X209670000Y-88365000D02*
X209670000Y-88050000D01*
X209670000Y-85940000D02*
X209670000Y-85625000D01*
X204430000Y-88365000D02*
X204430000Y-88050000D01*
X204430000Y-85940000D02*
X204430000Y-85625000D01*
%TO.C,C2*%
X157995000Y-138772000D02*
X157995000Y-138457000D01*
X157995000Y-141197000D02*
X157995000Y-140882000D01*
X163235000Y-138772000D02*
X163235000Y-138457000D01*
X163235000Y-141197000D02*
X163235000Y-140882000D01*
X163235000Y-138457000D02*
X157995000Y-138457000D01*
X163235000Y-141197000D02*
X157995000Y-141197000D01*
%TO.C,C3*%
X183395000Y-138203000D02*
X188635000Y-138203000D01*
X183395000Y-140943000D02*
X188635000Y-140943000D01*
X183395000Y-138203000D02*
X183395000Y-138518000D01*
X183395000Y-140628000D02*
X183395000Y-140943000D01*
X188635000Y-138203000D02*
X188635000Y-138518000D01*
X188635000Y-140628000D02*
X188635000Y-140943000D01*
%TO.C,C4*%
X157995000Y-44665000D02*
X157995000Y-44350000D01*
X157995000Y-47090000D02*
X157995000Y-46775000D01*
X163235000Y-44665000D02*
X163235000Y-44350000D01*
X163235000Y-47090000D02*
X163235000Y-46775000D01*
X163235000Y-44350000D02*
X157995000Y-44350000D01*
X163235000Y-47090000D02*
X157995000Y-47090000D01*
%TO.C,C5*%
X198875000Y-97575000D02*
X198875000Y-97890000D01*
X198875000Y-95150000D02*
X198875000Y-95465000D01*
X193635000Y-97575000D02*
X193635000Y-97890000D01*
X193635000Y-95150000D02*
X193635000Y-95465000D01*
X193635000Y-97890000D02*
X198875000Y-97890000D01*
X193635000Y-95150000D02*
X198875000Y-95150000D01*
%TO.C,C6*%
X123865000Y-121385000D02*
X118625000Y-121385000D01*
X123865000Y-118645000D02*
X118625000Y-118645000D01*
X123865000Y-121385000D02*
X123865000Y-121070000D01*
X123865000Y-118960000D02*
X123865000Y-118645000D01*
X118625000Y-121385000D02*
X118625000Y-121070000D01*
X118625000Y-118960000D02*
X118625000Y-118645000D01*
%TO.C,C7*%
X118625000Y-90070000D02*
X123865000Y-90070000D01*
X118625000Y-92810000D02*
X123865000Y-92810000D01*
X118625000Y-90070000D02*
X118625000Y-90385000D01*
X118625000Y-92495000D02*
X118625000Y-92810000D01*
X123865000Y-90070000D02*
X123865000Y-90385000D01*
X123865000Y-92495000D02*
X123865000Y-92810000D01*
%TO.C,C8*%
X138945000Y-90385000D02*
X138945000Y-90070000D01*
X138945000Y-92810000D02*
X138945000Y-92495000D01*
X144185000Y-90385000D02*
X144185000Y-90070000D01*
X144185000Y-92810000D02*
X144185000Y-92495000D01*
X144185000Y-90070000D02*
X138945000Y-90070000D01*
X144185000Y-92810000D02*
X138945000Y-92810000D01*
%TO.C,C9*%
X123865000Y-64555000D02*
X123865000Y-64870000D01*
X123865000Y-62130000D02*
X123865000Y-62445000D01*
X118625000Y-64555000D02*
X118625000Y-64870000D01*
X118625000Y-62130000D02*
X118625000Y-62445000D01*
X118625000Y-64870000D02*
X123865000Y-64870000D01*
X118625000Y-62130000D02*
X123865000Y-62130000D01*
%TO.C,C10*%
X209765000Y-77129000D02*
X209450000Y-77129000D01*
X212190000Y-77129000D02*
X211875000Y-77129000D01*
X209765000Y-71889000D02*
X209450000Y-71889000D01*
X212190000Y-71889000D02*
X211875000Y-71889000D01*
X209450000Y-71889000D02*
X209450000Y-77129000D01*
X212190000Y-71889000D02*
X212190000Y-77129000D01*
%TO.C,C11*%
X144185000Y-121070000D02*
X144185000Y-121385000D01*
X144185000Y-118645000D02*
X144185000Y-118960000D01*
X138945000Y-121070000D02*
X138945000Y-121385000D01*
X138945000Y-118645000D02*
X138945000Y-118960000D01*
X138945000Y-121385000D02*
X144185000Y-121385000D01*
X138945000Y-118645000D02*
X144185000Y-118645000D01*
%TO.C,C12*%
X144185000Y-64870000D02*
X138945000Y-64870000D01*
X144185000Y-62130000D02*
X138945000Y-62130000D01*
X144185000Y-64870000D02*
X144185000Y-64555000D01*
X144185000Y-62445000D02*
X144185000Y-62130000D01*
X138945000Y-64870000D02*
X138945000Y-64555000D01*
X138945000Y-62445000D02*
X138945000Y-62130000D01*
%TO.C,C13*%
X100210000Y-69750000D02*
X105450000Y-69750000D01*
X100210000Y-72490000D02*
X105450000Y-72490000D01*
X100210000Y-69750000D02*
X100210000Y-70065000D01*
X100210000Y-72175000D02*
X100210000Y-72490000D01*
X105450000Y-69750000D02*
X105450000Y-70065000D01*
X105450000Y-72175000D02*
X105450000Y-72490000D01*
%TO.C,C14*%
X213145000Y-40600000D02*
X213460000Y-40600000D01*
X210720000Y-40600000D02*
X211035000Y-40600000D01*
X213145000Y-45840000D02*
X213460000Y-45840000D01*
X210720000Y-45840000D02*
X211035000Y-45840000D01*
X213460000Y-45840000D02*
X213460000Y-40600000D01*
X210720000Y-45840000D02*
X210720000Y-40600000D01*
%TO.C,C15*%
X215800000Y-45840000D02*
X215800000Y-40600000D01*
X218540000Y-45840000D02*
X218540000Y-40600000D01*
X215800000Y-45840000D02*
X216115000Y-45840000D01*
X218225000Y-45840000D02*
X218540000Y-45840000D01*
X215800000Y-40600000D02*
X216115000Y-40600000D01*
X218225000Y-40600000D02*
X218540000Y-40600000D01*
%TO.C,R1*%
X230505000Y-107720000D02*
X230505000Y-108410000D01*
X230505000Y-118340000D02*
X230505000Y-117650000D01*
X228785000Y-108410000D02*
X228785000Y-117650000D01*
X232225000Y-108410000D02*
X228785000Y-108410000D01*
X232225000Y-117650000D02*
X232225000Y-108410000D01*
X228785000Y-117650000D02*
X232225000Y-117650000D01*
%TO.C,R3*%
X204920000Y-67770000D02*
X201480000Y-67770000D01*
X201480000Y-67770000D02*
X201480000Y-77010000D01*
X201480000Y-77010000D02*
X204920000Y-77010000D01*
X204920000Y-77010000D02*
X204920000Y-67770000D01*
X203200000Y-67080000D02*
X203200000Y-67770000D01*
X203200000Y-77700000D02*
X203200000Y-77010000D01*
%TO.C,R4*%
X153670000Y-95480000D02*
X153670000Y-94790000D01*
X153670000Y-84860000D02*
X153670000Y-85550000D01*
X155390000Y-94790000D02*
X155390000Y-85550000D01*
X151950000Y-94790000D02*
X155390000Y-94790000D01*
X151950000Y-85550000D02*
X151950000Y-94790000D01*
X155390000Y-85550000D02*
X151950000Y-85550000D01*
%TO.C,R5*%
X168735000Y-41460000D02*
X168735000Y-44900000D01*
X168735000Y-44900000D02*
X177975000Y-44900000D01*
X177975000Y-44900000D02*
X177975000Y-41460000D01*
X177975000Y-41460000D02*
X168735000Y-41460000D01*
X168045000Y-43180000D02*
X168735000Y-43180000D01*
X178665000Y-43180000D02*
X177975000Y-43180000D01*
%TO.C,R9*%
X228140000Y-70046000D02*
X228140000Y-66606000D01*
X228140000Y-66606000D02*
X218900000Y-66606000D01*
X218900000Y-66606000D02*
X218900000Y-70046000D01*
X218900000Y-70046000D02*
X228140000Y-70046000D01*
X228830000Y-68326000D02*
X228140000Y-68326000D01*
X218210000Y-68326000D02*
X218900000Y-68326000D01*
%TO.C,R10*%
X223750000Y-86995000D02*
X223060000Y-86995000D01*
X213130000Y-86995000D02*
X213820000Y-86995000D01*
X223060000Y-85275000D02*
X213820000Y-85275000D01*
X223060000Y-88715000D02*
X223060000Y-85275000D01*
X213820000Y-88715000D02*
X223060000Y-88715000D01*
X213820000Y-85275000D02*
X213820000Y-88715000D01*
%TO.C,R11*%
X206560000Y-61770000D02*
X210000000Y-61770000D01*
X210000000Y-61770000D02*
X210000000Y-52530000D01*
X210000000Y-52530000D02*
X206560000Y-52530000D01*
X206560000Y-52530000D02*
X206560000Y-61770000D01*
X208280000Y-62460000D02*
X208280000Y-61770000D01*
X208280000Y-51840000D02*
X208280000Y-52530000D01*
%TO.C,R12*%
X147955000Y-136120000D02*
X147955000Y-135430000D01*
X147955000Y-125500000D02*
X147955000Y-126190000D01*
X149675000Y-135430000D02*
X149675000Y-126190000D01*
X146235000Y-135430000D02*
X149675000Y-135430000D01*
X146235000Y-126190000D02*
X146235000Y-135430000D01*
X149675000Y-126190000D02*
X146235000Y-126190000D01*
%TO.C,R13*%
X142425000Y-135430000D02*
X145865000Y-135430000D01*
X145865000Y-135430000D02*
X145865000Y-126190000D01*
X145865000Y-126190000D02*
X142425000Y-126190000D01*
X142425000Y-126190000D02*
X142425000Y-135430000D01*
X144145000Y-136120000D02*
X144145000Y-135430000D01*
X144145000Y-125500000D02*
X144145000Y-126190000D01*
%TO.C,R14*%
X151765000Y-136120000D02*
X151765000Y-135430000D01*
X151765000Y-125500000D02*
X151765000Y-126190000D01*
X153485000Y-135430000D02*
X153485000Y-126190000D01*
X150045000Y-135430000D02*
X153485000Y-135430000D01*
X150045000Y-126190000D02*
X150045000Y-135430000D01*
X153485000Y-126190000D02*
X150045000Y-126190000D01*
%TO.C,R6*%
X195175000Y-143383000D02*
X194485000Y-143383000D01*
X184555000Y-143383000D02*
X185245000Y-143383000D01*
X194485000Y-141663000D02*
X185245000Y-141663000D01*
X194485000Y-145103000D02*
X194485000Y-141663000D01*
X185245000Y-145103000D02*
X194485000Y-145103000D01*
X185245000Y-141663000D02*
X185245000Y-145103000D01*
%TO.C,RP2*%
X230635000Y-86995000D02*
X227835000Y-86995000D01*
X230635000Y-102405000D02*
X230635000Y-84285000D01*
X227835000Y-102405000D02*
X230635000Y-102405000D01*
X227835000Y-84285000D02*
X227835000Y-102405000D01*
X230635000Y-84285000D02*
X227835000Y-84285000D01*
%TO.C,FB1*%
X228465000Y-109410000D02*
X224925000Y-109410000D01*
X224925000Y-109410000D02*
X224925000Y-116650000D01*
X224925000Y-116650000D02*
X228465000Y-116650000D01*
X228465000Y-116650000D02*
X228465000Y-109410000D01*
X226695000Y-107720000D02*
X226695000Y-109410000D01*
X226695000Y-118340000D02*
X226695000Y-116650000D01*
%TO.C,FB2*%
X207010000Y-67080000D02*
X207010000Y-68770000D01*
X207010000Y-77700000D02*
X207010000Y-76010000D01*
X205240000Y-68770000D02*
X205240000Y-76010000D01*
X208780000Y-68770000D02*
X205240000Y-68770000D01*
X208780000Y-76010000D02*
X208780000Y-68770000D01*
X205240000Y-76010000D02*
X208780000Y-76010000D01*
%TO.C,FB3*%
X214495000Y-53530000D02*
X210955000Y-53530000D01*
X210955000Y-53530000D02*
X210955000Y-60770000D01*
X210955000Y-60770000D02*
X214495000Y-60770000D01*
X214495000Y-60770000D02*
X214495000Y-53530000D01*
X212725000Y-51840000D02*
X212725000Y-53530000D01*
X212725000Y-62460000D02*
X212725000Y-60770000D01*
%TO.C,FB4*%
X217170000Y-51840000D02*
X217170000Y-53530000D01*
X217170000Y-62460000D02*
X217170000Y-60770000D01*
X215400000Y-53530000D02*
X215400000Y-60770000D01*
X218940000Y-53530000D02*
X215400000Y-53530000D01*
X218940000Y-60770000D02*
X218940000Y-53530000D01*
X215400000Y-60770000D02*
X218940000Y-60770000D01*
%TO.C,FB5*%
X222060000Y-84955000D02*
X222060000Y-81415000D01*
X222060000Y-81415000D02*
X214820000Y-81415000D01*
X214820000Y-81415000D02*
X214820000Y-84955000D01*
X214820000Y-84955000D02*
X222060000Y-84955000D01*
X223750000Y-83185000D02*
X222060000Y-83185000D01*
X213130000Y-83185000D02*
X214820000Y-83185000D01*
%TO.C,FB6*%
X203200000Y-52300000D02*
X203200000Y-50610000D01*
X203200000Y-41680000D02*
X203200000Y-43370000D01*
X204970000Y-50610000D02*
X204970000Y-43370000D01*
X201430000Y-50610000D02*
X204970000Y-50610000D01*
X201430000Y-43370000D02*
X201430000Y-50610000D01*
X204970000Y-43370000D02*
X201430000Y-43370000D01*
%TO.C,C21*%
X132949733Y-104459500D02*
X133242267Y-104459500D01*
X132949733Y-103439500D02*
X133242267Y-103439500D01*
%TO.C,U3*%
X182185000Y-136010000D02*
X200085000Y-136010000D01*
X182185000Y-100210000D02*
X182185000Y-136010000D01*
X200085000Y-100210000D02*
X182185000Y-100210000D01*
X200085000Y-136010000D02*
X200085000Y-100210000D01*
X184675000Y-135950000D02*
X190135000Y-135950000D01*
X184675000Y-100270000D02*
X184675000Y-135950000D01*
X197595000Y-100270000D02*
X184675000Y-100270000D01*
X197595000Y-135950000D02*
X197595000Y-100270000D01*
X192135000Y-135950000D02*
X197595000Y-135950000D01*
X190135000Y-135950000D02*
G75*
G02*
X192135000Y-135950000I1000000J0D01*
G01*
%TO.C,U5*%
X182185000Y-92830000D02*
X200085000Y-92830000D01*
X182185000Y-41790000D02*
X182185000Y-92830000D01*
X200085000Y-41790000D02*
X182185000Y-41790000D01*
X200085000Y-92830000D02*
X200085000Y-41790000D01*
X184675000Y-92770000D02*
X190135000Y-92770000D01*
X184675000Y-41850000D02*
X184675000Y-92770000D01*
X197595000Y-41850000D02*
X184675000Y-41850000D01*
X197595000Y-92770000D02*
X197595000Y-41850000D01*
X192135000Y-92770000D02*
X197595000Y-92770000D01*
X190135000Y-92770000D02*
G75*
G02*
X192135000Y-92770000I1000000J0D01*
G01*
%TO.C,R2*%
X103505000Y-109450000D02*
X103505000Y-108760000D01*
X103505000Y-98830000D02*
X103505000Y-99520000D01*
X105225000Y-108760000D02*
X105225000Y-99520000D01*
X101785000Y-108760000D02*
X105225000Y-108760000D01*
X101785000Y-99520000D02*
X101785000Y-108760000D01*
X105225000Y-99520000D02*
X101785000Y-99520000D01*
%TO.C,RP1*%
X97920000Y-77470000D02*
X95120000Y-77470000D01*
X97920000Y-95420000D02*
X97920000Y-74760000D01*
X95120000Y-95420000D02*
X97920000Y-95420000D01*
X95120000Y-74760000D02*
X95120000Y-95420000D01*
X97920000Y-74760000D02*
X95120000Y-74760000D01*
%TO.C,JP1*%
D11*
X174426666Y-46950380D02*
X174426666Y-47664666D01*
X174379047Y-47807523D01*
X174283809Y-47902761D01*
X174140952Y-47950380D01*
X174045714Y-47950380D01*
X174902857Y-47950380D02*
X174902857Y-46950380D01*
X175283809Y-46950380D01*
X175379047Y-46998000D01*
X175426666Y-47045619D01*
X175474285Y-47140857D01*
X175474285Y-47283714D01*
X175426666Y-47378952D01*
X175379047Y-47426571D01*
X175283809Y-47474190D01*
X174902857Y-47474190D01*
X176426666Y-47950380D02*
X175855238Y-47950380D01*
X176140952Y-47950380D02*
X176140952Y-46950380D01*
X176045714Y-47093238D01*
X175950476Y-47188476D01*
X175855238Y-47236095D01*
X175601666Y-45177380D02*
X175839761Y-46177380D01*
X176030238Y-45463095D01*
X176220714Y-46177380D01*
X176458809Y-45177380D01*
X176839761Y-46177380D02*
X176839761Y-45177380D01*
X177077857Y-45177380D01*
X177220714Y-45225000D01*
X177315952Y-45320238D01*
X177363571Y-45415476D01*
X177411190Y-45605952D01*
X177411190Y-45748809D01*
X177363571Y-45939285D01*
X177315952Y-46034523D01*
X177220714Y-46129761D01*
X177077857Y-46177380D01*
X176839761Y-46177380D01*
X178363571Y-46177380D02*
X177792142Y-46177380D01*
X178077857Y-46177380D02*
X178077857Y-45177380D01*
X177982619Y-45320238D01*
X177887380Y-45415476D01*
X177792142Y-45463095D01*
X178696904Y-45177380D02*
X179363571Y-45177380D01*
X178935000Y-46177380D01*
X179649285Y-45177380D02*
X180315952Y-45177380D01*
X179887380Y-46177380D01*
X180887380Y-45177380D02*
X180982619Y-45177380D01*
X181077857Y-45225000D01*
X181125476Y-45272619D01*
X181173095Y-45367857D01*
X181220714Y-45558333D01*
X181220714Y-45796428D01*
X181173095Y-45986904D01*
X181125476Y-46082142D01*
X181077857Y-46129761D01*
X180982619Y-46177380D01*
X180887380Y-46177380D01*
X180792142Y-46129761D01*
X180744523Y-46082142D01*
X180696904Y-45986904D01*
X180649285Y-45796428D01*
X180649285Y-45558333D01*
X180696904Y-45367857D01*
X180744523Y-45272619D01*
X180792142Y-45225000D01*
X180887380Y-45177380D01*
%TO.C,C18*%
X89892142Y-125737857D02*
X89939761Y-125785476D01*
X89987380Y-125928333D01*
X89987380Y-126023571D01*
X89939761Y-126166428D01*
X89844523Y-126261666D01*
X89749285Y-126309285D01*
X89558809Y-126356904D01*
X89415952Y-126356904D01*
X89225476Y-126309285D01*
X89130238Y-126261666D01*
X89035000Y-126166428D01*
X88987380Y-126023571D01*
X88987380Y-125928333D01*
X89035000Y-125785476D01*
X89082619Y-125737857D01*
X89987380Y-124785476D02*
X89987380Y-125356904D01*
X89987380Y-125071190D02*
X88987380Y-125071190D01*
X89130238Y-125166428D01*
X89225476Y-125261666D01*
X89273095Y-125356904D01*
X89415952Y-124214047D02*
X89368333Y-124309285D01*
X89320714Y-124356904D01*
X89225476Y-124404523D01*
X89177857Y-124404523D01*
X89082619Y-124356904D01*
X89035000Y-124309285D01*
X88987380Y-124214047D01*
X88987380Y-124023571D01*
X89035000Y-123928333D01*
X89082619Y-123880714D01*
X89177857Y-123833095D01*
X89225476Y-123833095D01*
X89320714Y-123880714D01*
X89368333Y-123928333D01*
X89415952Y-124023571D01*
X89415952Y-124214047D01*
X89463571Y-124309285D01*
X89511190Y-124356904D01*
X89606428Y-124404523D01*
X89796904Y-124404523D01*
X89892142Y-124356904D01*
X89939761Y-124309285D01*
X89987380Y-124214047D01*
X89987380Y-124023571D01*
X89939761Y-123928333D01*
X89892142Y-123880714D01*
X89796904Y-123833095D01*
X89606428Y-123833095D01*
X89511190Y-123880714D01*
X89463571Y-123928333D01*
X89415952Y-124023571D01*
%TO.C,C20*%
X106057142Y-82847142D02*
X106009523Y-82894761D01*
X105866666Y-82942380D01*
X105771428Y-82942380D01*
X105628571Y-82894761D01*
X105533333Y-82799523D01*
X105485714Y-82704285D01*
X105438095Y-82513809D01*
X105438095Y-82370952D01*
X105485714Y-82180476D01*
X105533333Y-82085238D01*
X105628571Y-81990000D01*
X105771428Y-81942380D01*
X105866666Y-81942380D01*
X106009523Y-81990000D01*
X106057142Y-82037619D01*
X106438095Y-82037619D02*
X106485714Y-81990000D01*
X106580952Y-81942380D01*
X106819047Y-81942380D01*
X106914285Y-81990000D01*
X106961904Y-82037619D01*
X107009523Y-82132857D01*
X107009523Y-82228095D01*
X106961904Y-82370952D01*
X106390476Y-82942380D01*
X107009523Y-82942380D01*
X107628571Y-81942380D02*
X107723809Y-81942380D01*
X107819047Y-81990000D01*
X107866666Y-82037619D01*
X107914285Y-82132857D01*
X107961904Y-82323333D01*
X107961904Y-82561428D01*
X107914285Y-82751904D01*
X107866666Y-82847142D01*
X107819047Y-82894761D01*
X107723809Y-82942380D01*
X107628571Y-82942380D01*
X107533333Y-82894761D01*
X107485714Y-82847142D01*
X107438095Y-82751904D01*
X107390476Y-82561428D01*
X107390476Y-82323333D01*
X107438095Y-82132857D01*
X107485714Y-82037619D01*
X107533333Y-81990000D01*
X107628571Y-81942380D01*
%TO.C,C22*%
X89892142Y-119407857D02*
X89939761Y-119455476D01*
X89987380Y-119598333D01*
X89987380Y-119693571D01*
X89939761Y-119836428D01*
X89844523Y-119931666D01*
X89749285Y-119979285D01*
X89558809Y-120026904D01*
X89415952Y-120026904D01*
X89225476Y-119979285D01*
X89130238Y-119931666D01*
X89035000Y-119836428D01*
X88987380Y-119693571D01*
X88987380Y-119598333D01*
X89035000Y-119455476D01*
X89082619Y-119407857D01*
X89082619Y-119026904D02*
X89035000Y-118979285D01*
X88987380Y-118884047D01*
X88987380Y-118645952D01*
X89035000Y-118550714D01*
X89082619Y-118503095D01*
X89177857Y-118455476D01*
X89273095Y-118455476D01*
X89415952Y-118503095D01*
X89987380Y-119074523D01*
X89987380Y-118455476D01*
X89082619Y-118074523D02*
X89035000Y-118026904D01*
X88987380Y-117931666D01*
X88987380Y-117693571D01*
X89035000Y-117598333D01*
X89082619Y-117550714D01*
X89177857Y-117503095D01*
X89273095Y-117503095D01*
X89415952Y-117550714D01*
X89987380Y-118122142D01*
X89987380Y-117503095D01*
%TO.C,CN1*%
X72969523Y-56662142D02*
X72921904Y-56709761D01*
X72779047Y-56757380D01*
X72683809Y-56757380D01*
X72540952Y-56709761D01*
X72445714Y-56614523D01*
X72398095Y-56519285D01*
X72350476Y-56328809D01*
X72350476Y-56185952D01*
X72398095Y-55995476D01*
X72445714Y-55900238D01*
X72540952Y-55805000D01*
X72683809Y-55757380D01*
X72779047Y-55757380D01*
X72921904Y-55805000D01*
X72969523Y-55852619D01*
X73398095Y-56757380D02*
X73398095Y-55757380D01*
X73969523Y-56757380D01*
X73969523Y-55757380D01*
X74969523Y-56757380D02*
X74398095Y-56757380D01*
X74683809Y-56757380D02*
X74683809Y-55757380D01*
X74588571Y-55900238D01*
X74493333Y-55995476D01*
X74398095Y-56043095D01*
%TO.C,CN2*%
X72747142Y-92130476D02*
X72794761Y-92178095D01*
X72842380Y-92320952D01*
X72842380Y-92416190D01*
X72794761Y-92559047D01*
X72699523Y-92654285D01*
X72604285Y-92701904D01*
X72413809Y-92749523D01*
X72270952Y-92749523D01*
X72080476Y-92701904D01*
X71985238Y-92654285D01*
X71890000Y-92559047D01*
X71842380Y-92416190D01*
X71842380Y-92320952D01*
X71890000Y-92178095D01*
X71937619Y-92130476D01*
X72842380Y-91701904D02*
X71842380Y-91701904D01*
X72842380Y-91130476D01*
X71842380Y-91130476D01*
X71937619Y-90701904D02*
X71890000Y-90654285D01*
X71842380Y-90559047D01*
X71842380Y-90320952D01*
X71890000Y-90225714D01*
X71937619Y-90178095D01*
X72032857Y-90130476D01*
X72128095Y-90130476D01*
X72270952Y-90178095D01*
X72842380Y-90749523D01*
X72842380Y-90130476D01*
%TO.C,CN3*%
X59357142Y-69270476D02*
X59404761Y-69318095D01*
X59452380Y-69460952D01*
X59452380Y-69556190D01*
X59404761Y-69699047D01*
X59309523Y-69794285D01*
X59214285Y-69841904D01*
X59023809Y-69889523D01*
X58880952Y-69889523D01*
X58690476Y-69841904D01*
X58595238Y-69794285D01*
X58500000Y-69699047D01*
X58452380Y-69556190D01*
X58452380Y-69460952D01*
X58500000Y-69318095D01*
X58547619Y-69270476D01*
X59452380Y-68841904D02*
X58452380Y-68841904D01*
X59452380Y-68270476D01*
X58452380Y-68270476D01*
X58452380Y-67889523D02*
X58452380Y-67270476D01*
X58833333Y-67603809D01*
X58833333Y-67460952D01*
X58880952Y-67365714D01*
X58928571Y-67318095D01*
X59023809Y-67270476D01*
X59261904Y-67270476D01*
X59357142Y-67318095D01*
X59404761Y-67365714D01*
X59452380Y-67460952D01*
X59452380Y-67746666D01*
X59404761Y-67841904D01*
X59357142Y-67889523D01*
%TO.C,CN5*%
X176042142Y-144073476D02*
X176089761Y-144121095D01*
X176137380Y-144263952D01*
X176137380Y-144359190D01*
X176089761Y-144502047D01*
X175994523Y-144597285D01*
X175899285Y-144644904D01*
X175708809Y-144692523D01*
X175565952Y-144692523D01*
X175375476Y-144644904D01*
X175280238Y-144597285D01*
X175185000Y-144502047D01*
X175137380Y-144359190D01*
X175137380Y-144263952D01*
X175185000Y-144121095D01*
X175232619Y-144073476D01*
X176137380Y-143644904D02*
X175137380Y-143644904D01*
X176137380Y-143073476D01*
X175137380Y-143073476D01*
X175137380Y-142121095D02*
X175137380Y-142597285D01*
X175613571Y-142644904D01*
X175565952Y-142597285D01*
X175518333Y-142502047D01*
X175518333Y-142263952D01*
X175565952Y-142168714D01*
X175613571Y-142121095D01*
X175708809Y-142073476D01*
X175946904Y-142073476D01*
X176042142Y-142121095D01*
X176089761Y-142168714D01*
X176137380Y-142263952D01*
X176137380Y-142502047D01*
X176089761Y-142597285D01*
X176042142Y-142644904D01*
%TO.C,EMI1*%
X76338571Y-54205000D02*
X76338571Y-53871666D01*
X76862380Y-53728809D02*
X76862380Y-54205000D01*
X75862380Y-54205000D01*
X75862380Y-53728809D01*
X76862380Y-53300238D02*
X75862380Y-53300238D01*
X76576666Y-52966904D01*
X75862380Y-52633571D01*
X76862380Y-52633571D01*
X76862380Y-52157380D02*
X75862380Y-52157380D01*
X76862380Y-51157380D02*
X76862380Y-51728809D01*
X76862380Y-51443095D02*
X75862380Y-51443095D01*
X76005238Y-51538333D01*
X76100476Y-51633571D01*
X76148095Y-51728809D01*
%TO.C,EMI2*%
X76338571Y-49760000D02*
X76338571Y-49426666D01*
X76862380Y-49283809D02*
X76862380Y-49760000D01*
X75862380Y-49760000D01*
X75862380Y-49283809D01*
X76862380Y-48855238D02*
X75862380Y-48855238D01*
X76576666Y-48521904D01*
X75862380Y-48188571D01*
X76862380Y-48188571D01*
X76862380Y-47712380D02*
X75862380Y-47712380D01*
X75957619Y-47283809D02*
X75910000Y-47236190D01*
X75862380Y-47140952D01*
X75862380Y-46902857D01*
X75910000Y-46807619D01*
X75957619Y-46760000D01*
X76052857Y-46712380D01*
X76148095Y-46712380D01*
X76290952Y-46760000D01*
X76862380Y-47331428D01*
X76862380Y-46712380D01*
%TO.C,EMI3*%
X76338571Y-63095000D02*
X76338571Y-62761666D01*
X76862380Y-62618809D02*
X76862380Y-63095000D01*
X75862380Y-63095000D01*
X75862380Y-62618809D01*
X76862380Y-62190238D02*
X75862380Y-62190238D01*
X76576666Y-61856904D01*
X75862380Y-61523571D01*
X76862380Y-61523571D01*
X76862380Y-61047380D02*
X75862380Y-61047380D01*
X75862380Y-60666428D02*
X75862380Y-60047380D01*
X76243333Y-60380714D01*
X76243333Y-60237857D01*
X76290952Y-60142619D01*
X76338571Y-60095000D01*
X76433809Y-60047380D01*
X76671904Y-60047380D01*
X76767142Y-60095000D01*
X76814761Y-60142619D01*
X76862380Y-60237857D01*
X76862380Y-60523571D01*
X76814761Y-60618809D01*
X76767142Y-60666428D01*
%TO.C,EMI4*%
X76338571Y-58650000D02*
X76338571Y-58316666D01*
X76862380Y-58173809D02*
X76862380Y-58650000D01*
X75862380Y-58650000D01*
X75862380Y-58173809D01*
X76862380Y-57745238D02*
X75862380Y-57745238D01*
X76576666Y-57411904D01*
X75862380Y-57078571D01*
X76862380Y-57078571D01*
X76862380Y-56602380D02*
X75862380Y-56602380D01*
X76195714Y-55697619D02*
X76862380Y-55697619D01*
X75814761Y-55935714D02*
X76529047Y-56173809D01*
X76529047Y-55554761D01*
%TO.C,RP3*%
X94572380Y-106584666D02*
X94096190Y-106918000D01*
X94572380Y-107156095D02*
X93572380Y-107156095D01*
X93572380Y-106775142D01*
X93620000Y-106679904D01*
X93667619Y-106632285D01*
X93762857Y-106584666D01*
X93905714Y-106584666D01*
X94000952Y-106632285D01*
X94048571Y-106679904D01*
X94096190Y-106775142D01*
X94096190Y-107156095D01*
X94572380Y-106156095D02*
X93572380Y-106156095D01*
X93572380Y-105775142D01*
X93620000Y-105679904D01*
X93667619Y-105632285D01*
X93762857Y-105584666D01*
X93905714Y-105584666D01*
X94000952Y-105632285D01*
X94048571Y-105679904D01*
X94096190Y-105775142D01*
X94096190Y-106156095D01*
X93572380Y-105251333D02*
X93572380Y-104632285D01*
X93953333Y-104965619D01*
X93953333Y-104822761D01*
X94000952Y-104727523D01*
X94048571Y-104679904D01*
X94143809Y-104632285D01*
X94381904Y-104632285D01*
X94477142Y-104679904D01*
X94524761Y-104727523D01*
X94572380Y-104822761D01*
X94572380Y-105108476D01*
X94524761Y-105203714D01*
X94477142Y-105251333D01*
%TO.C,SW1*%
X55181666Y-97949761D02*
X55324523Y-97997380D01*
X55562619Y-97997380D01*
X55657857Y-97949761D01*
X55705476Y-97902142D01*
X55753095Y-97806904D01*
X55753095Y-97711666D01*
X55705476Y-97616428D01*
X55657857Y-97568809D01*
X55562619Y-97521190D01*
X55372142Y-97473571D01*
X55276904Y-97425952D01*
X55229285Y-97378333D01*
X55181666Y-97283095D01*
X55181666Y-97187857D01*
X55229285Y-97092619D01*
X55276904Y-97045000D01*
X55372142Y-96997380D01*
X55610238Y-96997380D01*
X55753095Y-97045000D01*
X56086428Y-96997380D02*
X56324523Y-97997380D01*
X56515000Y-97283095D01*
X56705476Y-97997380D01*
X56943571Y-96997380D01*
X57848333Y-97997380D02*
X57276904Y-97997380D01*
X57562619Y-97997380D02*
X57562619Y-96997380D01*
X57467380Y-97140238D01*
X57372142Y-97235476D01*
X57276904Y-97283095D01*
%TO.C,U4*%
X164973095Y-85602380D02*
X164973095Y-86411904D01*
X165020714Y-86507142D01*
X165068333Y-86554761D01*
X165163571Y-86602380D01*
X165354047Y-86602380D01*
X165449285Y-86554761D01*
X165496904Y-86507142D01*
X165544523Y-86411904D01*
X165544523Y-85602380D01*
X166449285Y-85935714D02*
X166449285Y-86602380D01*
X166211190Y-85554761D02*
X165973095Y-86269047D01*
X166592142Y-86269047D01*
%TO.C,CN4*%
X59357142Y-47680476D02*
X59404761Y-47728095D01*
X59452380Y-47870952D01*
X59452380Y-47966190D01*
X59404761Y-48109047D01*
X59309523Y-48204285D01*
X59214285Y-48251904D01*
X59023809Y-48299523D01*
X58880952Y-48299523D01*
X58690476Y-48251904D01*
X58595238Y-48204285D01*
X58500000Y-48109047D01*
X58452380Y-47966190D01*
X58452380Y-47870952D01*
X58500000Y-47728095D01*
X58547619Y-47680476D01*
X59452380Y-47251904D02*
X58452380Y-47251904D01*
X59452380Y-46680476D01*
X58452380Y-46680476D01*
X58785714Y-45775714D02*
X59452380Y-45775714D01*
X58404761Y-46013809D02*
X59119047Y-46251904D01*
X59119047Y-45632857D01*
%TO.C,J1*%
X78406666Y-115232380D02*
X78406666Y-115946666D01*
X78359047Y-116089523D01*
X78263809Y-116184761D01*
X78120952Y-116232380D01*
X78025714Y-116232380D01*
X79406666Y-116232380D02*
X78835238Y-116232380D01*
X79120952Y-116232380D02*
X79120952Y-115232380D01*
X79025714Y-115375238D01*
X78930476Y-115470476D01*
X78835238Y-115518095D01*
%TO.C,J2*%
X60197380Y-119078333D02*
X60911666Y-119078333D01*
X61054523Y-119125952D01*
X61149761Y-119221190D01*
X61197380Y-119364047D01*
X61197380Y-119459285D01*
X60292619Y-118649761D02*
X60245000Y-118602142D01*
X60197380Y-118506904D01*
X60197380Y-118268809D01*
X60245000Y-118173571D01*
X60292619Y-118125952D01*
X60387857Y-118078333D01*
X60483095Y-118078333D01*
X60625952Y-118125952D01*
X61197380Y-118697380D01*
X61197380Y-118078333D01*
%TO.C,U14*%
X134834380Y-107918095D02*
X135643904Y-107918095D01*
X135739142Y-107870476D01*
X135786761Y-107822857D01*
X135834380Y-107727619D01*
X135834380Y-107537142D01*
X135786761Y-107441904D01*
X135739142Y-107394285D01*
X135643904Y-107346666D01*
X134834380Y-107346666D01*
X135834380Y-106346666D02*
X135834380Y-106918095D01*
X135834380Y-106632380D02*
X134834380Y-106632380D01*
X134977238Y-106727619D01*
X135072476Y-106822857D01*
X135120095Y-106918095D01*
X135167714Y-105489523D02*
X135834380Y-105489523D01*
X134786761Y-105727619D02*
X135501047Y-105965714D01*
X135501047Y-105346666D01*
%TO.C,X1*%
X225512380Y-56689523D02*
X226512380Y-56022857D01*
X225512380Y-56022857D02*
X226512380Y-56689523D01*
X226512380Y-55118095D02*
X226512380Y-55689523D01*
X226512380Y-55403809D02*
X225512380Y-55403809D01*
X225655238Y-55499047D01*
X225750476Y-55594285D01*
X225798095Y-55689523D01*
%TO.C,C16*%
X135837142Y-144152857D02*
X135884761Y-144200476D01*
X135932380Y-144343333D01*
X135932380Y-144438571D01*
X135884761Y-144581428D01*
X135789523Y-144676666D01*
X135694285Y-144724285D01*
X135503809Y-144771904D01*
X135360952Y-144771904D01*
X135170476Y-144724285D01*
X135075238Y-144676666D01*
X134980000Y-144581428D01*
X134932380Y-144438571D01*
X134932380Y-144343333D01*
X134980000Y-144200476D01*
X135027619Y-144152857D01*
X135932380Y-143200476D02*
X135932380Y-143771904D01*
X135932380Y-143486190D02*
X134932380Y-143486190D01*
X135075238Y-143581428D01*
X135170476Y-143676666D01*
X135218095Y-143771904D01*
X134932380Y-142343333D02*
X134932380Y-142533809D01*
X134980000Y-142629047D01*
X135027619Y-142676666D01*
X135170476Y-142771904D01*
X135360952Y-142819523D01*
X135741904Y-142819523D01*
X135837142Y-142771904D01*
X135884761Y-142724285D01*
X135932380Y-142629047D01*
X135932380Y-142438571D01*
X135884761Y-142343333D01*
X135837142Y-142295714D01*
X135741904Y-142248095D01*
X135503809Y-142248095D01*
X135408571Y-142295714D01*
X135360952Y-142343333D01*
X135313333Y-142438571D01*
X135313333Y-142629047D01*
X135360952Y-142724285D01*
X135408571Y-142771904D01*
X135503809Y-142819523D01*
%TO.C,C17*%
X139197142Y-140342857D02*
X139244761Y-140390476D01*
X139292380Y-140533333D01*
X139292380Y-140628571D01*
X139244761Y-140771428D01*
X139149523Y-140866666D01*
X139054285Y-140914285D01*
X138863809Y-140961904D01*
X138720952Y-140961904D01*
X138530476Y-140914285D01*
X138435238Y-140866666D01*
X138340000Y-140771428D01*
X138292380Y-140628571D01*
X138292380Y-140533333D01*
X138340000Y-140390476D01*
X138387619Y-140342857D01*
X139292380Y-139390476D02*
X139292380Y-139961904D01*
X139292380Y-139676190D02*
X138292380Y-139676190D01*
X138435238Y-139771428D01*
X138530476Y-139866666D01*
X138578095Y-139961904D01*
X138292380Y-139057142D02*
X138292380Y-138390476D01*
X139292380Y-138819047D01*
%TO.C,SW2*%
X60261666Y-133119761D02*
X60404523Y-133167380D01*
X60642619Y-133167380D01*
X60737857Y-133119761D01*
X60785476Y-133072142D01*
X60833095Y-132976904D01*
X60833095Y-132881666D01*
X60785476Y-132786428D01*
X60737857Y-132738809D01*
X60642619Y-132691190D01*
X60452142Y-132643571D01*
X60356904Y-132595952D01*
X60309285Y-132548333D01*
X60261666Y-132453095D01*
X60261666Y-132357857D01*
X60309285Y-132262619D01*
X60356904Y-132215000D01*
X60452142Y-132167380D01*
X60690238Y-132167380D01*
X60833095Y-132215000D01*
X61166428Y-132167380D02*
X61404523Y-133167380D01*
X61595000Y-132453095D01*
X61785476Y-133167380D01*
X62023571Y-132167380D01*
X62356904Y-132262619D02*
X62404523Y-132215000D01*
X62499761Y-132167380D01*
X62737857Y-132167380D01*
X62833095Y-132215000D01*
X62880714Y-132262619D01*
X62928333Y-132357857D01*
X62928333Y-132453095D01*
X62880714Y-132595952D01*
X62309285Y-133167380D01*
X62928333Y-133167380D01*
%TO.C,U15*%
X127897380Y-142208095D02*
X128706904Y-142208095D01*
X128802142Y-142160476D01*
X128849761Y-142112857D01*
X128897380Y-142017619D01*
X128897380Y-141827142D01*
X128849761Y-141731904D01*
X128802142Y-141684285D01*
X128706904Y-141636666D01*
X127897380Y-141636666D01*
X128897380Y-140636666D02*
X128897380Y-141208095D01*
X128897380Y-140922380D02*
X127897380Y-140922380D01*
X128040238Y-141017619D01*
X128135476Y-141112857D01*
X128183095Y-141208095D01*
X127897380Y-139731904D02*
X127897380Y-140208095D01*
X128373571Y-140255714D01*
X128325952Y-140208095D01*
X128278333Y-140112857D01*
X128278333Y-139874761D01*
X128325952Y-139779523D01*
X128373571Y-139731904D01*
X128468809Y-139684285D01*
X128706904Y-139684285D01*
X128802142Y-139731904D01*
X128849761Y-139779523D01*
X128897380Y-139874761D01*
X128897380Y-140112857D01*
X128849761Y-140208095D01*
X128802142Y-140255714D01*
%TO.C,C19*%
X117862142Y-129262142D02*
X117814523Y-129309761D01*
X117671666Y-129357380D01*
X117576428Y-129357380D01*
X117433571Y-129309761D01*
X117338333Y-129214523D01*
X117290714Y-129119285D01*
X117243095Y-128928809D01*
X117243095Y-128785952D01*
X117290714Y-128595476D01*
X117338333Y-128500238D01*
X117433571Y-128405000D01*
X117576428Y-128357380D01*
X117671666Y-128357380D01*
X117814523Y-128405000D01*
X117862142Y-128452619D01*
X118814523Y-129357380D02*
X118243095Y-129357380D01*
X118528809Y-129357380D02*
X118528809Y-128357380D01*
X118433571Y-128500238D01*
X118338333Y-128595476D01*
X118243095Y-128643095D01*
X119290714Y-129357380D02*
X119481190Y-129357380D01*
X119576428Y-129309761D01*
X119624047Y-129262142D01*
X119719285Y-129119285D01*
X119766904Y-128928809D01*
X119766904Y-128547857D01*
X119719285Y-128452619D01*
X119671666Y-128405000D01*
X119576428Y-128357380D01*
X119385952Y-128357380D01*
X119290714Y-128405000D01*
X119243095Y-128452619D01*
X119195476Y-128547857D01*
X119195476Y-128785952D01*
X119243095Y-128881190D01*
X119290714Y-128928809D01*
X119385952Y-128976428D01*
X119576428Y-128976428D01*
X119671666Y-128928809D01*
X119719285Y-128881190D01*
X119766904Y-128785952D01*
%TO.C,JP2*%
X131881666Y-111402880D02*
X131881666Y-112117166D01*
X131834047Y-112260023D01*
X131738809Y-112355261D01*
X131595952Y-112402880D01*
X131500714Y-112402880D01*
X132357857Y-112402880D02*
X132357857Y-111402880D01*
X132738809Y-111402880D01*
X132834047Y-111450500D01*
X132881666Y-111498119D01*
X132929285Y-111593357D01*
X132929285Y-111736214D01*
X132881666Y-111831452D01*
X132834047Y-111879071D01*
X132738809Y-111926690D01*
X132357857Y-111926690D01*
X133310238Y-111498119D02*
X133357857Y-111450500D01*
X133453095Y-111402880D01*
X133691190Y-111402880D01*
X133786428Y-111450500D01*
X133834047Y-111498119D01*
X133881666Y-111593357D01*
X133881666Y-111688595D01*
X133834047Y-111831452D01*
X133262619Y-112402880D01*
X133881666Y-112402880D01*
%TO.C,JP3*%
X201604666Y-92692380D02*
X201604666Y-93406666D01*
X201557047Y-93549523D01*
X201461809Y-93644761D01*
X201318952Y-93692380D01*
X201223714Y-93692380D01*
X202080857Y-93692380D02*
X202080857Y-92692380D01*
X202461809Y-92692380D01*
X202557047Y-92740000D01*
X202604666Y-92787619D01*
X202652285Y-92882857D01*
X202652285Y-93025714D01*
X202604666Y-93120952D01*
X202557047Y-93168571D01*
X202461809Y-93216190D01*
X202080857Y-93216190D01*
X202985619Y-92692380D02*
X203604666Y-92692380D01*
X203271333Y-93073333D01*
X203414190Y-93073333D01*
X203509428Y-93120952D01*
X203557047Y-93168571D01*
X203604666Y-93263809D01*
X203604666Y-93501904D01*
X203557047Y-93597142D01*
X203509428Y-93644761D01*
X203414190Y-93692380D01*
X203128476Y-93692380D01*
X203033238Y-93644761D01*
X202985619Y-93597142D01*
%TO.C,JP4*%
X224591666Y-102957380D02*
X224591666Y-103671666D01*
X224544047Y-103814523D01*
X224448809Y-103909761D01*
X224305952Y-103957380D01*
X224210714Y-103957380D01*
X225067857Y-103957380D02*
X225067857Y-102957380D01*
X225448809Y-102957380D01*
X225544047Y-103005000D01*
X225591666Y-103052619D01*
X225639285Y-103147857D01*
X225639285Y-103290714D01*
X225591666Y-103385952D01*
X225544047Y-103433571D01*
X225448809Y-103481190D01*
X225067857Y-103481190D01*
X226496428Y-103290714D02*
X226496428Y-103957380D01*
X226258333Y-102909761D02*
X226020238Y-103624047D01*
X226639285Y-103624047D01*
%TO.C,JP5*%
X203839380Y-144216333D02*
X204553666Y-144216333D01*
X204696523Y-144263952D01*
X204791761Y-144359190D01*
X204839380Y-144502047D01*
X204839380Y-144597285D01*
X204839380Y-143740142D02*
X203839380Y-143740142D01*
X203839380Y-143359190D01*
X203887000Y-143263952D01*
X203934619Y-143216333D01*
X204029857Y-143168714D01*
X204172714Y-143168714D01*
X204267952Y-143216333D01*
X204315571Y-143263952D01*
X204363190Y-143359190D01*
X204363190Y-143740142D01*
X203839380Y-142263952D02*
X203839380Y-142740142D01*
X204315571Y-142787761D01*
X204267952Y-142740142D01*
X204220333Y-142644904D01*
X204220333Y-142406809D01*
X204267952Y-142311571D01*
X204315571Y-142263952D01*
X204410809Y-142216333D01*
X204648904Y-142216333D01*
X204744142Y-142263952D01*
X204791761Y-142311571D01*
X204839380Y-142406809D01*
X204839380Y-142644904D01*
X204791761Y-142740142D01*
X204744142Y-142787761D01*
%TO.C,U2*%
X164973095Y-136402380D02*
X164973095Y-137211904D01*
X165020714Y-137307142D01*
X165068333Y-137354761D01*
X165163571Y-137402380D01*
X165354047Y-137402380D01*
X165449285Y-137354761D01*
X165496904Y-137307142D01*
X165544523Y-137211904D01*
X165544523Y-136402380D01*
X165973095Y-136497619D02*
X166020714Y-136450000D01*
X166115952Y-136402380D01*
X166354047Y-136402380D01*
X166449285Y-136450000D01*
X166496904Y-136497619D01*
X166544523Y-136592857D01*
X166544523Y-136688095D01*
X166496904Y-136830952D01*
X165925476Y-137402380D01*
X166544523Y-137402380D01*
%TO.C,U6*%
X121793095Y-117352380D02*
X121793095Y-118161904D01*
X121840714Y-118257142D01*
X121888333Y-118304761D01*
X121983571Y-118352380D01*
X122174047Y-118352380D01*
X122269285Y-118304761D01*
X122316904Y-118257142D01*
X122364523Y-118161904D01*
X122364523Y-117352380D01*
X123269285Y-117352380D02*
X123078809Y-117352380D01*
X122983571Y-117400000D01*
X122935952Y-117447619D01*
X122840714Y-117590476D01*
X122793095Y-117780952D01*
X122793095Y-118161904D01*
X122840714Y-118257142D01*
X122888333Y-118304761D01*
X122983571Y-118352380D01*
X123174047Y-118352380D01*
X123269285Y-118304761D01*
X123316904Y-118257142D01*
X123364523Y-118161904D01*
X123364523Y-117923809D01*
X123316904Y-117828571D01*
X123269285Y-117780952D01*
X123174047Y-117733333D01*
X122983571Y-117733333D01*
X122888333Y-117780952D01*
X122840714Y-117828571D01*
X122793095Y-117923809D01*
%TO.C,U7*%
X121793095Y-88142380D02*
X121793095Y-88951904D01*
X121840714Y-89047142D01*
X121888333Y-89094761D01*
X121983571Y-89142380D01*
X122174047Y-89142380D01*
X122269285Y-89094761D01*
X122316904Y-89047142D01*
X122364523Y-88951904D01*
X122364523Y-88142380D01*
X122745476Y-88142380D02*
X123412142Y-88142380D01*
X122983571Y-89142380D01*
%TO.C,U8*%
X142113095Y-88142380D02*
X142113095Y-88951904D01*
X142160714Y-89047142D01*
X142208333Y-89094761D01*
X142303571Y-89142380D01*
X142494047Y-89142380D01*
X142589285Y-89094761D01*
X142636904Y-89047142D01*
X142684523Y-88951904D01*
X142684523Y-88142380D01*
X143303571Y-88570952D02*
X143208333Y-88523333D01*
X143160714Y-88475714D01*
X143113095Y-88380476D01*
X143113095Y-88332857D01*
X143160714Y-88237619D01*
X143208333Y-88190000D01*
X143303571Y-88142380D01*
X143494047Y-88142380D01*
X143589285Y-88190000D01*
X143636904Y-88237619D01*
X143684523Y-88332857D01*
X143684523Y-88380476D01*
X143636904Y-88475714D01*
X143589285Y-88523333D01*
X143494047Y-88570952D01*
X143303571Y-88570952D01*
X143208333Y-88618571D01*
X143160714Y-88666190D01*
X143113095Y-88761428D01*
X143113095Y-88951904D01*
X143160714Y-89047142D01*
X143208333Y-89094761D01*
X143303571Y-89142380D01*
X143494047Y-89142380D01*
X143589285Y-89094761D01*
X143636904Y-89047142D01*
X143684523Y-88951904D01*
X143684523Y-88761428D01*
X143636904Y-88666190D01*
X143589285Y-88618571D01*
X143494047Y-88570952D01*
%TO.C,U9*%
X121793095Y-60202380D02*
X121793095Y-61011904D01*
X121840714Y-61107142D01*
X121888333Y-61154761D01*
X121983571Y-61202380D01*
X122174047Y-61202380D01*
X122269285Y-61154761D01*
X122316904Y-61107142D01*
X122364523Y-61011904D01*
X122364523Y-60202380D01*
X122888333Y-61202380D02*
X123078809Y-61202380D01*
X123174047Y-61154761D01*
X123221666Y-61107142D01*
X123316904Y-60964285D01*
X123364523Y-60773809D01*
X123364523Y-60392857D01*
X123316904Y-60297619D01*
X123269285Y-60250000D01*
X123174047Y-60202380D01*
X122983571Y-60202380D01*
X122888333Y-60250000D01*
X122840714Y-60297619D01*
X122793095Y-60392857D01*
X122793095Y-60630952D01*
X122840714Y-60726190D01*
X122888333Y-60773809D01*
X122983571Y-60821428D01*
X123174047Y-60821428D01*
X123269285Y-60773809D01*
X123316904Y-60726190D01*
X123364523Y-60630952D01*
%TO.C,U10*%
X231652380Y-77057095D02*
X232461904Y-77057095D01*
X232557142Y-77009476D01*
X232604761Y-76961857D01*
X232652380Y-76866619D01*
X232652380Y-76676142D01*
X232604761Y-76580904D01*
X232557142Y-76533285D01*
X232461904Y-76485666D01*
X231652380Y-76485666D01*
X232652380Y-75485666D02*
X232652380Y-76057095D01*
X232652380Y-75771380D02*
X231652380Y-75771380D01*
X231795238Y-75866619D01*
X231890476Y-75961857D01*
X231938095Y-76057095D01*
X231652380Y-74866619D02*
X231652380Y-74771380D01*
X231700000Y-74676142D01*
X231747619Y-74628523D01*
X231842857Y-74580904D01*
X232033333Y-74533285D01*
X232271428Y-74533285D01*
X232461904Y-74580904D01*
X232557142Y-74628523D01*
X232604761Y-74676142D01*
X232652380Y-74771380D01*
X232652380Y-74866619D01*
X232604761Y-74961857D01*
X232557142Y-75009476D01*
X232461904Y-75057095D01*
X232271428Y-75104714D01*
X232033333Y-75104714D01*
X231842857Y-75057095D01*
X231747619Y-75009476D01*
X231700000Y-74961857D01*
X231652380Y-74866619D01*
%TO.C,U11*%
X141636904Y-116082380D02*
X141636904Y-116891904D01*
X141684523Y-116987142D01*
X141732142Y-117034761D01*
X141827380Y-117082380D01*
X142017857Y-117082380D01*
X142113095Y-117034761D01*
X142160714Y-116987142D01*
X142208333Y-116891904D01*
X142208333Y-116082380D01*
X143208333Y-117082380D02*
X142636904Y-117082380D01*
X142922619Y-117082380D02*
X142922619Y-116082380D01*
X142827380Y-116225238D01*
X142732142Y-116320476D01*
X142636904Y-116368095D01*
X144160714Y-117082380D02*
X143589285Y-117082380D01*
X143875000Y-117082380D02*
X143875000Y-116082380D01*
X143779761Y-116225238D01*
X143684523Y-116320476D01*
X143589285Y-116368095D01*
%TO.C,U12*%
X141636904Y-60202380D02*
X141636904Y-61011904D01*
X141684523Y-61107142D01*
X141732142Y-61154761D01*
X141827380Y-61202380D01*
X142017857Y-61202380D01*
X142113095Y-61154761D01*
X142160714Y-61107142D01*
X142208333Y-61011904D01*
X142208333Y-60202380D01*
X143208333Y-61202380D02*
X142636904Y-61202380D01*
X142922619Y-61202380D02*
X142922619Y-60202380D01*
X142827380Y-60345238D01*
X142732142Y-60440476D01*
X142636904Y-60488095D01*
X143589285Y-60297619D02*
X143636904Y-60250000D01*
X143732142Y-60202380D01*
X143970238Y-60202380D01*
X144065476Y-60250000D01*
X144113095Y-60297619D01*
X144160714Y-60392857D01*
X144160714Y-60488095D01*
X144113095Y-60630952D01*
X143541666Y-61202380D01*
X144160714Y-61202380D01*
%TO.C,U13*%
X100996904Y-67822380D02*
X100996904Y-68631904D01*
X101044523Y-68727142D01*
X101092142Y-68774761D01*
X101187380Y-68822380D01*
X101377857Y-68822380D01*
X101473095Y-68774761D01*
X101520714Y-68727142D01*
X101568333Y-68631904D01*
X101568333Y-67822380D01*
X102568333Y-68822380D02*
X101996904Y-68822380D01*
X102282619Y-68822380D02*
X102282619Y-67822380D01*
X102187380Y-67965238D01*
X102092142Y-68060476D01*
X101996904Y-68108095D01*
X102901666Y-67822380D02*
X103520714Y-67822380D01*
X103187380Y-68203333D01*
X103330238Y-68203333D01*
X103425476Y-68250952D01*
X103473095Y-68298571D01*
X103520714Y-68393809D01*
X103520714Y-68631904D01*
X103473095Y-68727142D01*
X103425476Y-68774761D01*
X103330238Y-68822380D01*
X103044523Y-68822380D01*
X102949285Y-68774761D01*
X102901666Y-68727142D01*
%TO.C,U1*%
X213233095Y-88562380D02*
X213233095Y-89371904D01*
X213280714Y-89467142D01*
X213328333Y-89514761D01*
X213423571Y-89562380D01*
X213614047Y-89562380D01*
X213709285Y-89514761D01*
X213756904Y-89467142D01*
X213804523Y-89371904D01*
X213804523Y-88562380D01*
X214804523Y-89562380D02*
X214233095Y-89562380D01*
X214518809Y-89562380D02*
X214518809Y-88562380D01*
X214423571Y-88705238D01*
X214328333Y-88800476D01*
X214233095Y-88848095D01*
%TO.C,CR4*%
X105387142Y-92106666D02*
X105434761Y-92154285D01*
X105482380Y-92297142D01*
X105482380Y-92392380D01*
X105434761Y-92535238D01*
X105339523Y-92630476D01*
X105244285Y-92678095D01*
X105053809Y-92725714D01*
X104910952Y-92725714D01*
X104720476Y-92678095D01*
X104625238Y-92630476D01*
X104530000Y-92535238D01*
X104482380Y-92392380D01*
X104482380Y-92297142D01*
X104530000Y-92154285D01*
X104577619Y-92106666D01*
X105482380Y-91106666D02*
X105006190Y-91440000D01*
X105482380Y-91678095D02*
X104482380Y-91678095D01*
X104482380Y-91297142D01*
X104530000Y-91201904D01*
X104577619Y-91154285D01*
X104672857Y-91106666D01*
X104815714Y-91106666D01*
X104910952Y-91154285D01*
X104958571Y-91201904D01*
X105006190Y-91297142D01*
X105006190Y-91678095D01*
X104815714Y-90249523D02*
X105482380Y-90249523D01*
X104434761Y-90487619D02*
X105149047Y-90725714D01*
X105149047Y-90106666D01*
X106202380Y-98051904D02*
X105202380Y-98051904D01*
X106202380Y-97480476D02*
X105630952Y-97909047D01*
X105202380Y-97480476D02*
X105773809Y-98051904D01*
%TO.C,C1*%
X206883333Y-89852142D02*
X206835714Y-89899761D01*
X206692857Y-89947380D01*
X206597619Y-89947380D01*
X206454761Y-89899761D01*
X206359523Y-89804523D01*
X206311904Y-89709285D01*
X206264285Y-89518809D01*
X206264285Y-89375952D01*
X206311904Y-89185476D01*
X206359523Y-89090238D01*
X206454761Y-88995000D01*
X206597619Y-88947380D01*
X206692857Y-88947380D01*
X206835714Y-88995000D01*
X206883333Y-89042619D01*
X207835714Y-89947380D02*
X207264285Y-89947380D01*
X207550000Y-89947380D02*
X207550000Y-88947380D01*
X207454761Y-89090238D01*
X207359523Y-89185476D01*
X207264285Y-89233095D01*
%TO.C,C2*%
X160448333Y-142684142D02*
X160400714Y-142731761D01*
X160257857Y-142779380D01*
X160162619Y-142779380D01*
X160019761Y-142731761D01*
X159924523Y-142636523D01*
X159876904Y-142541285D01*
X159829285Y-142350809D01*
X159829285Y-142207952D01*
X159876904Y-142017476D01*
X159924523Y-141922238D01*
X160019761Y-141827000D01*
X160162619Y-141779380D01*
X160257857Y-141779380D01*
X160400714Y-141827000D01*
X160448333Y-141874619D01*
X160829285Y-141874619D02*
X160876904Y-141827000D01*
X160972142Y-141779380D01*
X161210238Y-141779380D01*
X161305476Y-141827000D01*
X161353095Y-141874619D01*
X161400714Y-141969857D01*
X161400714Y-142065095D01*
X161353095Y-142207952D01*
X160781666Y-142779380D01*
X161400714Y-142779380D01*
%TO.C,C3*%
X185848333Y-137430142D02*
X185800714Y-137477761D01*
X185657857Y-137525380D01*
X185562619Y-137525380D01*
X185419761Y-137477761D01*
X185324523Y-137382523D01*
X185276904Y-137287285D01*
X185229285Y-137096809D01*
X185229285Y-136953952D01*
X185276904Y-136763476D01*
X185324523Y-136668238D01*
X185419761Y-136573000D01*
X185562619Y-136525380D01*
X185657857Y-136525380D01*
X185800714Y-136573000D01*
X185848333Y-136620619D01*
X186181666Y-136525380D02*
X186800714Y-136525380D01*
X186467380Y-136906333D01*
X186610238Y-136906333D01*
X186705476Y-136953952D01*
X186753095Y-137001571D01*
X186800714Y-137096809D01*
X186800714Y-137334904D01*
X186753095Y-137430142D01*
X186705476Y-137477761D01*
X186610238Y-137525380D01*
X186324523Y-137525380D01*
X186229285Y-137477761D01*
X186181666Y-137430142D01*
%TO.C,C4*%
X156567142Y-45886666D02*
X156614761Y-45934285D01*
X156662380Y-46077142D01*
X156662380Y-46172380D01*
X156614761Y-46315238D01*
X156519523Y-46410476D01*
X156424285Y-46458095D01*
X156233809Y-46505714D01*
X156090952Y-46505714D01*
X155900476Y-46458095D01*
X155805238Y-46410476D01*
X155710000Y-46315238D01*
X155662380Y-46172380D01*
X155662380Y-46077142D01*
X155710000Y-45934285D01*
X155757619Y-45886666D01*
X155995714Y-45029523D02*
X156662380Y-45029523D01*
X155614761Y-45267619D02*
X156329047Y-45505714D01*
X156329047Y-44886666D01*
%TO.C,C5*%
X192127142Y-96686666D02*
X192174761Y-96734285D01*
X192222380Y-96877142D01*
X192222380Y-96972380D01*
X192174761Y-97115238D01*
X192079523Y-97210476D01*
X191984285Y-97258095D01*
X191793809Y-97305714D01*
X191650952Y-97305714D01*
X191460476Y-97258095D01*
X191365238Y-97210476D01*
X191270000Y-97115238D01*
X191222380Y-96972380D01*
X191222380Y-96877142D01*
X191270000Y-96734285D01*
X191317619Y-96686666D01*
X191222380Y-95781904D02*
X191222380Y-96258095D01*
X191698571Y-96305714D01*
X191650952Y-96258095D01*
X191603333Y-96162857D01*
X191603333Y-95924761D01*
X191650952Y-95829523D01*
X191698571Y-95781904D01*
X191793809Y-95734285D01*
X192031904Y-95734285D01*
X192127142Y-95781904D01*
X192174761Y-95829523D01*
X192222380Y-95924761D01*
X192222380Y-96162857D01*
X192174761Y-96258095D01*
X192127142Y-96305714D01*
%TO.C,C6*%
X126087142Y-120181666D02*
X126134761Y-120229285D01*
X126182380Y-120372142D01*
X126182380Y-120467380D01*
X126134761Y-120610238D01*
X126039523Y-120705476D01*
X125944285Y-120753095D01*
X125753809Y-120800714D01*
X125610952Y-120800714D01*
X125420476Y-120753095D01*
X125325238Y-120705476D01*
X125230000Y-120610238D01*
X125182380Y-120467380D01*
X125182380Y-120372142D01*
X125230000Y-120229285D01*
X125277619Y-120181666D01*
X125182380Y-119324523D02*
X125182380Y-119515000D01*
X125230000Y-119610238D01*
X125277619Y-119657857D01*
X125420476Y-119753095D01*
X125610952Y-119800714D01*
X125991904Y-119800714D01*
X126087142Y-119753095D01*
X126134761Y-119705476D01*
X126182380Y-119610238D01*
X126182380Y-119419761D01*
X126134761Y-119324523D01*
X126087142Y-119276904D01*
X125991904Y-119229285D01*
X125753809Y-119229285D01*
X125658571Y-119276904D01*
X125610952Y-119324523D01*
X125563333Y-119419761D01*
X125563333Y-119610238D01*
X125610952Y-119705476D01*
X125658571Y-119753095D01*
X125753809Y-119800714D01*
%TO.C,C7*%
X126087142Y-91606666D02*
X126134761Y-91654285D01*
X126182380Y-91797142D01*
X126182380Y-91892380D01*
X126134761Y-92035238D01*
X126039523Y-92130476D01*
X125944285Y-92178095D01*
X125753809Y-92225714D01*
X125610952Y-92225714D01*
X125420476Y-92178095D01*
X125325238Y-92130476D01*
X125230000Y-92035238D01*
X125182380Y-91892380D01*
X125182380Y-91797142D01*
X125230000Y-91654285D01*
X125277619Y-91606666D01*
X125182380Y-91273333D02*
X125182380Y-90606666D01*
X126182380Y-91035238D01*
%TO.C,C8*%
X137517142Y-91606666D02*
X137564761Y-91654285D01*
X137612380Y-91797142D01*
X137612380Y-91892380D01*
X137564761Y-92035238D01*
X137469523Y-92130476D01*
X137374285Y-92178095D01*
X137183809Y-92225714D01*
X137040952Y-92225714D01*
X136850476Y-92178095D01*
X136755238Y-92130476D01*
X136660000Y-92035238D01*
X136612380Y-91892380D01*
X136612380Y-91797142D01*
X136660000Y-91654285D01*
X136707619Y-91606666D01*
X137040952Y-91035238D02*
X136993333Y-91130476D01*
X136945714Y-91178095D01*
X136850476Y-91225714D01*
X136802857Y-91225714D01*
X136707619Y-91178095D01*
X136660000Y-91130476D01*
X136612380Y-91035238D01*
X136612380Y-90844761D01*
X136660000Y-90749523D01*
X136707619Y-90701904D01*
X136802857Y-90654285D01*
X136850476Y-90654285D01*
X136945714Y-90701904D01*
X136993333Y-90749523D01*
X137040952Y-90844761D01*
X137040952Y-91035238D01*
X137088571Y-91130476D01*
X137136190Y-91178095D01*
X137231428Y-91225714D01*
X137421904Y-91225714D01*
X137517142Y-91178095D01*
X137564761Y-91130476D01*
X137612380Y-91035238D01*
X137612380Y-90844761D01*
X137564761Y-90749523D01*
X137517142Y-90701904D01*
X137421904Y-90654285D01*
X137231428Y-90654285D01*
X137136190Y-90701904D01*
X137088571Y-90749523D01*
X137040952Y-90844761D01*
%TO.C,C9*%
X126087142Y-63666666D02*
X126134761Y-63714285D01*
X126182380Y-63857142D01*
X126182380Y-63952380D01*
X126134761Y-64095238D01*
X126039523Y-64190476D01*
X125944285Y-64238095D01*
X125753809Y-64285714D01*
X125610952Y-64285714D01*
X125420476Y-64238095D01*
X125325238Y-64190476D01*
X125230000Y-64095238D01*
X125182380Y-63952380D01*
X125182380Y-63857142D01*
X125230000Y-63714285D01*
X125277619Y-63666666D01*
X126182380Y-63190476D02*
X126182380Y-63000000D01*
X126134761Y-62904761D01*
X126087142Y-62857142D01*
X125944285Y-62761904D01*
X125753809Y-62714285D01*
X125372857Y-62714285D01*
X125277619Y-62761904D01*
X125230000Y-62809523D01*
X125182380Y-62904761D01*
X125182380Y-63095238D01*
X125230000Y-63190476D01*
X125277619Y-63238095D01*
X125372857Y-63285714D01*
X125610952Y-63285714D01*
X125706190Y-63238095D01*
X125753809Y-63190476D01*
X125801428Y-63095238D01*
X125801428Y-62904761D01*
X125753809Y-62809523D01*
X125706190Y-62761904D01*
X125610952Y-62714285D01*
%TO.C,C10*%
X210177142Y-69826142D02*
X210129523Y-69873761D01*
X209986666Y-69921380D01*
X209891428Y-69921380D01*
X209748571Y-69873761D01*
X209653333Y-69778523D01*
X209605714Y-69683285D01*
X209558095Y-69492809D01*
X209558095Y-69349952D01*
X209605714Y-69159476D01*
X209653333Y-69064238D01*
X209748571Y-68969000D01*
X209891428Y-68921380D01*
X209986666Y-68921380D01*
X210129523Y-68969000D01*
X210177142Y-69016619D01*
X211129523Y-69921380D02*
X210558095Y-69921380D01*
X210843809Y-69921380D02*
X210843809Y-68921380D01*
X210748571Y-69064238D01*
X210653333Y-69159476D01*
X210558095Y-69207095D01*
X211748571Y-68921380D02*
X211843809Y-68921380D01*
X211939047Y-68969000D01*
X211986666Y-69016619D01*
X212034285Y-69111857D01*
X212081904Y-69302333D01*
X212081904Y-69540428D01*
X212034285Y-69730904D01*
X211986666Y-69826142D01*
X211939047Y-69873761D01*
X211843809Y-69921380D01*
X211748571Y-69921380D01*
X211653333Y-69873761D01*
X211605714Y-69826142D01*
X211558095Y-69730904D01*
X211510476Y-69540428D01*
X211510476Y-69302333D01*
X211558095Y-69111857D01*
X211605714Y-69016619D01*
X211653333Y-68969000D01*
X211748571Y-68921380D01*
%TO.C,C11*%
X137517142Y-120657857D02*
X137564761Y-120705476D01*
X137612380Y-120848333D01*
X137612380Y-120943571D01*
X137564761Y-121086428D01*
X137469523Y-121181666D01*
X137374285Y-121229285D01*
X137183809Y-121276904D01*
X137040952Y-121276904D01*
X136850476Y-121229285D01*
X136755238Y-121181666D01*
X136660000Y-121086428D01*
X136612380Y-120943571D01*
X136612380Y-120848333D01*
X136660000Y-120705476D01*
X136707619Y-120657857D01*
X137612380Y-119705476D02*
X137612380Y-120276904D01*
X137612380Y-119991190D02*
X136612380Y-119991190D01*
X136755238Y-120086428D01*
X136850476Y-120181666D01*
X136898095Y-120276904D01*
X137612380Y-118753095D02*
X137612380Y-119324523D01*
X137612380Y-119038809D02*
X136612380Y-119038809D01*
X136755238Y-119134047D01*
X136850476Y-119229285D01*
X136898095Y-119324523D01*
%TO.C,C12*%
X137517142Y-64142857D02*
X137564761Y-64190476D01*
X137612380Y-64333333D01*
X137612380Y-64428571D01*
X137564761Y-64571428D01*
X137469523Y-64666666D01*
X137374285Y-64714285D01*
X137183809Y-64761904D01*
X137040952Y-64761904D01*
X136850476Y-64714285D01*
X136755238Y-64666666D01*
X136660000Y-64571428D01*
X136612380Y-64428571D01*
X136612380Y-64333333D01*
X136660000Y-64190476D01*
X136707619Y-64142857D01*
X137612380Y-63190476D02*
X137612380Y-63761904D01*
X137612380Y-63476190D02*
X136612380Y-63476190D01*
X136755238Y-63571428D01*
X136850476Y-63666666D01*
X136898095Y-63761904D01*
X136707619Y-62809523D02*
X136660000Y-62761904D01*
X136612380Y-62666666D01*
X136612380Y-62428571D01*
X136660000Y-62333333D01*
X136707619Y-62285714D01*
X136802857Y-62238095D01*
X136898095Y-62238095D01*
X137040952Y-62285714D01*
X137612380Y-62857142D01*
X137612380Y-62238095D01*
%TO.C,C13*%
X107672142Y-71762857D02*
X107719761Y-71810476D01*
X107767380Y-71953333D01*
X107767380Y-72048571D01*
X107719761Y-72191428D01*
X107624523Y-72286666D01*
X107529285Y-72334285D01*
X107338809Y-72381904D01*
X107195952Y-72381904D01*
X107005476Y-72334285D01*
X106910238Y-72286666D01*
X106815000Y-72191428D01*
X106767380Y-72048571D01*
X106767380Y-71953333D01*
X106815000Y-71810476D01*
X106862619Y-71762857D01*
X107767380Y-70810476D02*
X107767380Y-71381904D01*
X107767380Y-71096190D02*
X106767380Y-71096190D01*
X106910238Y-71191428D01*
X107005476Y-71286666D01*
X107053095Y-71381904D01*
X106767380Y-70477142D02*
X106767380Y-69858095D01*
X107148333Y-70191428D01*
X107148333Y-70048571D01*
X107195952Y-69953333D01*
X107243571Y-69905714D01*
X107338809Y-69858095D01*
X107576904Y-69858095D01*
X107672142Y-69905714D01*
X107719761Y-69953333D01*
X107767380Y-70048571D01*
X107767380Y-70334285D01*
X107719761Y-70429523D01*
X107672142Y-70477142D01*
%TO.C,C14*%
X211447142Y-38457142D02*
X211399523Y-38504761D01*
X211256666Y-38552380D01*
X211161428Y-38552380D01*
X211018571Y-38504761D01*
X210923333Y-38409523D01*
X210875714Y-38314285D01*
X210828095Y-38123809D01*
X210828095Y-37980952D01*
X210875714Y-37790476D01*
X210923333Y-37695238D01*
X211018571Y-37600000D01*
X211161428Y-37552380D01*
X211256666Y-37552380D01*
X211399523Y-37600000D01*
X211447142Y-37647619D01*
X212399523Y-38552380D02*
X211828095Y-38552380D01*
X212113809Y-38552380D02*
X212113809Y-37552380D01*
X212018571Y-37695238D01*
X211923333Y-37790476D01*
X211828095Y-37838095D01*
X213256666Y-37885714D02*
X213256666Y-38552380D01*
X213018571Y-37504761D02*
X212780476Y-38219047D01*
X213399523Y-38219047D01*
%TO.C,C15*%
X216527142Y-38457142D02*
X216479523Y-38504761D01*
X216336666Y-38552380D01*
X216241428Y-38552380D01*
X216098571Y-38504761D01*
X216003333Y-38409523D01*
X215955714Y-38314285D01*
X215908095Y-38123809D01*
X215908095Y-37980952D01*
X215955714Y-37790476D01*
X216003333Y-37695238D01*
X216098571Y-37600000D01*
X216241428Y-37552380D01*
X216336666Y-37552380D01*
X216479523Y-37600000D01*
X216527142Y-37647619D01*
X217479523Y-38552380D02*
X216908095Y-38552380D01*
X217193809Y-38552380D02*
X217193809Y-37552380D01*
X217098571Y-37695238D01*
X217003333Y-37790476D01*
X216908095Y-37838095D01*
X218384285Y-37552380D02*
X217908095Y-37552380D01*
X217860476Y-38028571D01*
X217908095Y-37980952D01*
X218003333Y-37933333D01*
X218241428Y-37933333D01*
X218336666Y-37980952D01*
X218384285Y-38028571D01*
X218431904Y-38123809D01*
X218431904Y-38361904D01*
X218384285Y-38457142D01*
X218336666Y-38504761D01*
X218241428Y-38552380D01*
X218003333Y-38552380D01*
X217908095Y-38504761D01*
X217860476Y-38457142D01*
%TO.C,R1*%
X230957380Y-122086666D02*
X230481190Y-122420000D01*
X230957380Y-122658095D02*
X229957380Y-122658095D01*
X229957380Y-122277142D01*
X230005000Y-122181904D01*
X230052619Y-122134285D01*
X230147857Y-122086666D01*
X230290714Y-122086666D01*
X230385952Y-122134285D01*
X230433571Y-122181904D01*
X230481190Y-122277142D01*
X230481190Y-122658095D01*
X230957380Y-121134285D02*
X230957380Y-121705714D01*
X230957380Y-121420000D02*
X229957380Y-121420000D01*
X230100238Y-121515238D01*
X230195476Y-121610476D01*
X230243095Y-121705714D01*
%TO.C,R3*%
X206372380Y-72556666D02*
X205896190Y-72890000D01*
X206372380Y-73128095D02*
X205372380Y-73128095D01*
X205372380Y-72747142D01*
X205420000Y-72651904D01*
X205467619Y-72604285D01*
X205562857Y-72556666D01*
X205705714Y-72556666D01*
X205800952Y-72604285D01*
X205848571Y-72651904D01*
X205896190Y-72747142D01*
X205896190Y-73128095D01*
X205372380Y-72223333D02*
X205372380Y-71604285D01*
X205753333Y-71937619D01*
X205753333Y-71794761D01*
X205800952Y-71699523D01*
X205848571Y-71651904D01*
X205943809Y-71604285D01*
X206181904Y-71604285D01*
X206277142Y-71651904D01*
X206324761Y-71699523D01*
X206372380Y-71794761D01*
X206372380Y-72080476D01*
X206324761Y-72175714D01*
X206277142Y-72223333D01*
%TO.C,R4*%
X156842380Y-90336666D02*
X156366190Y-90670000D01*
X156842380Y-90908095D02*
X155842380Y-90908095D01*
X155842380Y-90527142D01*
X155890000Y-90431904D01*
X155937619Y-90384285D01*
X156032857Y-90336666D01*
X156175714Y-90336666D01*
X156270952Y-90384285D01*
X156318571Y-90431904D01*
X156366190Y-90527142D01*
X156366190Y-90908095D01*
X156175714Y-89479523D02*
X156842380Y-89479523D01*
X155794761Y-89717619D02*
X156509047Y-89955714D01*
X156509047Y-89336666D01*
%TO.C,R5*%
X173188333Y-40912380D02*
X172855000Y-40436190D01*
X172616904Y-40912380D02*
X172616904Y-39912380D01*
X172997857Y-39912380D01*
X173093095Y-39960000D01*
X173140714Y-40007619D01*
X173188333Y-40102857D01*
X173188333Y-40245714D01*
X173140714Y-40340952D01*
X173093095Y-40388571D01*
X172997857Y-40436190D01*
X172616904Y-40436190D01*
X174093095Y-39912380D02*
X173616904Y-39912380D01*
X173569285Y-40388571D01*
X173616904Y-40340952D01*
X173712142Y-40293333D01*
X173950238Y-40293333D01*
X174045476Y-40340952D01*
X174093095Y-40388571D01*
X174140714Y-40483809D01*
X174140714Y-40721904D01*
X174093095Y-40817142D01*
X174045476Y-40864761D01*
X173950238Y-40912380D01*
X173712142Y-40912380D01*
X173616904Y-40864761D01*
X173569285Y-40817142D01*
%TO.C,R9*%
X215082380Y-68492666D02*
X214606190Y-68826000D01*
X215082380Y-69064095D02*
X214082380Y-69064095D01*
X214082380Y-68683142D01*
X214130000Y-68587904D01*
X214177619Y-68540285D01*
X214272857Y-68492666D01*
X214415714Y-68492666D01*
X214510952Y-68540285D01*
X214558571Y-68587904D01*
X214606190Y-68683142D01*
X214606190Y-69064095D01*
X215082380Y-68016476D02*
X215082380Y-67826000D01*
X215034761Y-67730761D01*
X214987142Y-67683142D01*
X214844285Y-67587904D01*
X214653809Y-67540285D01*
X214272857Y-67540285D01*
X214177619Y-67587904D01*
X214130000Y-67635523D01*
X214082380Y-67730761D01*
X214082380Y-67921238D01*
X214130000Y-68016476D01*
X214177619Y-68064095D01*
X214272857Y-68111714D01*
X214510952Y-68111714D01*
X214606190Y-68064095D01*
X214653809Y-68016476D01*
X214701428Y-67921238D01*
X214701428Y-67730761D01*
X214653809Y-67635523D01*
X214606190Y-67587904D01*
X214510952Y-67540285D01*
%TO.C,R10*%
X225242380Y-90812857D02*
X224766190Y-91146190D01*
X225242380Y-91384285D02*
X224242380Y-91384285D01*
X224242380Y-91003333D01*
X224290000Y-90908095D01*
X224337619Y-90860476D01*
X224432857Y-90812857D01*
X224575714Y-90812857D01*
X224670952Y-90860476D01*
X224718571Y-90908095D01*
X224766190Y-91003333D01*
X224766190Y-91384285D01*
X225242380Y-89860476D02*
X225242380Y-90431904D01*
X225242380Y-90146190D02*
X224242380Y-90146190D01*
X224385238Y-90241428D01*
X224480476Y-90336666D01*
X224528095Y-90431904D01*
X224242380Y-89241428D02*
X224242380Y-89146190D01*
X224290000Y-89050952D01*
X224337619Y-89003333D01*
X224432857Y-88955714D01*
X224623333Y-88908095D01*
X224861428Y-88908095D01*
X225051904Y-88955714D01*
X225147142Y-89003333D01*
X225194761Y-89050952D01*
X225242380Y-89146190D01*
X225242380Y-89241428D01*
X225194761Y-89336666D01*
X225147142Y-89384285D01*
X225051904Y-89431904D01*
X224861428Y-89479523D01*
X224623333Y-89479523D01*
X224432857Y-89431904D01*
X224337619Y-89384285D01*
X224290000Y-89336666D01*
X224242380Y-89241428D01*
%TO.C,R11*%
X208732380Y-48902857D02*
X208256190Y-49236190D01*
X208732380Y-49474285D02*
X207732380Y-49474285D01*
X207732380Y-49093333D01*
X207780000Y-48998095D01*
X207827619Y-48950476D01*
X207922857Y-48902857D01*
X208065714Y-48902857D01*
X208160952Y-48950476D01*
X208208571Y-48998095D01*
X208256190Y-49093333D01*
X208256190Y-49474285D01*
X208732380Y-47950476D02*
X208732380Y-48521904D01*
X208732380Y-48236190D02*
X207732380Y-48236190D01*
X207875238Y-48331428D01*
X207970476Y-48426666D01*
X208018095Y-48521904D01*
X208732380Y-46998095D02*
X208732380Y-47569523D01*
X208732380Y-47283809D02*
X207732380Y-47283809D01*
X207875238Y-47379047D01*
X207970476Y-47474285D01*
X208018095Y-47569523D01*
%TO.C,R12*%
X148407380Y-122562857D02*
X147931190Y-122896190D01*
X148407380Y-123134285D02*
X147407380Y-123134285D01*
X147407380Y-122753333D01*
X147455000Y-122658095D01*
X147502619Y-122610476D01*
X147597857Y-122562857D01*
X147740714Y-122562857D01*
X147835952Y-122610476D01*
X147883571Y-122658095D01*
X147931190Y-122753333D01*
X147931190Y-123134285D01*
X148407380Y-121610476D02*
X148407380Y-122181904D01*
X148407380Y-121896190D02*
X147407380Y-121896190D01*
X147550238Y-121991428D01*
X147645476Y-122086666D01*
X147693095Y-122181904D01*
X147502619Y-121229523D02*
X147455000Y-121181904D01*
X147407380Y-121086666D01*
X147407380Y-120848571D01*
X147455000Y-120753333D01*
X147502619Y-120705714D01*
X147597857Y-120658095D01*
X147693095Y-120658095D01*
X147835952Y-120705714D01*
X148407380Y-121277142D01*
X148407380Y-120658095D01*
%TO.C,R13*%
X141877380Y-131452857D02*
X141401190Y-131786190D01*
X141877380Y-132024285D02*
X140877380Y-132024285D01*
X140877380Y-131643333D01*
X140925000Y-131548095D01*
X140972619Y-131500476D01*
X141067857Y-131452857D01*
X141210714Y-131452857D01*
X141305952Y-131500476D01*
X141353571Y-131548095D01*
X141401190Y-131643333D01*
X141401190Y-132024285D01*
X141877380Y-130500476D02*
X141877380Y-131071904D01*
X141877380Y-130786190D02*
X140877380Y-130786190D01*
X141020238Y-130881428D01*
X141115476Y-130976666D01*
X141163095Y-131071904D01*
X140877380Y-130167142D02*
X140877380Y-129548095D01*
X141258333Y-129881428D01*
X141258333Y-129738571D01*
X141305952Y-129643333D01*
X141353571Y-129595714D01*
X141448809Y-129548095D01*
X141686904Y-129548095D01*
X141782142Y-129595714D01*
X141829761Y-129643333D01*
X141877380Y-129738571D01*
X141877380Y-130024285D01*
X141829761Y-130119523D01*
X141782142Y-130167142D01*
%TO.C,R14*%
X152217380Y-122562857D02*
X151741190Y-122896190D01*
X152217380Y-123134285D02*
X151217380Y-123134285D01*
X151217380Y-122753333D01*
X151265000Y-122658095D01*
X151312619Y-122610476D01*
X151407857Y-122562857D01*
X151550714Y-122562857D01*
X151645952Y-122610476D01*
X151693571Y-122658095D01*
X151741190Y-122753333D01*
X151741190Y-123134285D01*
X152217380Y-121610476D02*
X152217380Y-122181904D01*
X152217380Y-121896190D02*
X151217380Y-121896190D01*
X151360238Y-121991428D01*
X151455476Y-122086666D01*
X151503095Y-122181904D01*
X151550714Y-120753333D02*
X152217380Y-120753333D01*
X151169761Y-120991428D02*
X151884047Y-121229523D01*
X151884047Y-120610476D01*
%TO.C,R6*%
X192301833Y-141295380D02*
X191968500Y-140819190D01*
X191730404Y-141295380D02*
X191730404Y-140295380D01*
X192111357Y-140295380D01*
X192206595Y-140343000D01*
X192254214Y-140390619D01*
X192301833Y-140485857D01*
X192301833Y-140628714D01*
X192254214Y-140723952D01*
X192206595Y-140771571D01*
X192111357Y-140819190D01*
X191730404Y-140819190D01*
X193158976Y-140295380D02*
X192968500Y-140295380D01*
X192873261Y-140343000D01*
X192825642Y-140390619D01*
X192730404Y-140533476D01*
X192682785Y-140723952D01*
X192682785Y-141104904D01*
X192730404Y-141200142D01*
X192778023Y-141247761D01*
X192873261Y-141295380D01*
X193063738Y-141295380D01*
X193158976Y-141247761D01*
X193206595Y-141200142D01*
X193254214Y-141104904D01*
X193254214Y-140866809D01*
X193206595Y-140771571D01*
X193158976Y-140723952D01*
X193063738Y-140676333D01*
X192873261Y-140676333D01*
X192778023Y-140723952D01*
X192730404Y-140771571D01*
X192682785Y-140866809D01*
%TO.C,RP2*%
X232087380Y-95281666D02*
X231611190Y-95615000D01*
X232087380Y-95853095D02*
X231087380Y-95853095D01*
X231087380Y-95472142D01*
X231135000Y-95376904D01*
X231182619Y-95329285D01*
X231277857Y-95281666D01*
X231420714Y-95281666D01*
X231515952Y-95329285D01*
X231563571Y-95376904D01*
X231611190Y-95472142D01*
X231611190Y-95853095D01*
X232087380Y-94853095D02*
X231087380Y-94853095D01*
X231087380Y-94472142D01*
X231135000Y-94376904D01*
X231182619Y-94329285D01*
X231277857Y-94281666D01*
X231420714Y-94281666D01*
X231515952Y-94329285D01*
X231563571Y-94376904D01*
X231611190Y-94472142D01*
X231611190Y-94853095D01*
X231182619Y-93900714D02*
X231135000Y-93853095D01*
X231087380Y-93757857D01*
X231087380Y-93519761D01*
X231135000Y-93424523D01*
X231182619Y-93376904D01*
X231277857Y-93329285D01*
X231373095Y-93329285D01*
X231515952Y-93376904D01*
X232087380Y-93948333D01*
X232087380Y-93329285D01*
%TO.C,FB1*%
X226623571Y-122753333D02*
X226623571Y-123086666D01*
X227147380Y-123086666D02*
X226147380Y-123086666D01*
X226147380Y-122610476D01*
X226623571Y-121896190D02*
X226671190Y-121753333D01*
X226718809Y-121705714D01*
X226814047Y-121658095D01*
X226956904Y-121658095D01*
X227052142Y-121705714D01*
X227099761Y-121753333D01*
X227147380Y-121848571D01*
X227147380Y-122229523D01*
X226147380Y-122229523D01*
X226147380Y-121896190D01*
X226195000Y-121800952D01*
X226242619Y-121753333D01*
X226337857Y-121705714D01*
X226433095Y-121705714D01*
X226528333Y-121753333D01*
X226575952Y-121800952D01*
X226623571Y-121896190D01*
X226623571Y-122229523D01*
X227147380Y-120705714D02*
X227147380Y-121277142D01*
X227147380Y-120991428D02*
X226147380Y-120991428D01*
X226290238Y-121086666D01*
X226385476Y-121181904D01*
X226433095Y-121277142D01*
%TO.C,FB2*%
X206938571Y-64333333D02*
X206938571Y-64666666D01*
X207462380Y-64666666D02*
X206462380Y-64666666D01*
X206462380Y-64190476D01*
X206938571Y-63476190D02*
X206986190Y-63333333D01*
X207033809Y-63285714D01*
X207129047Y-63238095D01*
X207271904Y-63238095D01*
X207367142Y-63285714D01*
X207414761Y-63333333D01*
X207462380Y-63428571D01*
X207462380Y-63809523D01*
X206462380Y-63809523D01*
X206462380Y-63476190D01*
X206510000Y-63380952D01*
X206557619Y-63333333D01*
X206652857Y-63285714D01*
X206748095Y-63285714D01*
X206843333Y-63333333D01*
X206890952Y-63380952D01*
X206938571Y-63476190D01*
X206938571Y-63809523D01*
X206557619Y-62857142D02*
X206510000Y-62809523D01*
X206462380Y-62714285D01*
X206462380Y-62476190D01*
X206510000Y-62380952D01*
X206557619Y-62333333D01*
X206652857Y-62285714D01*
X206748095Y-62285714D01*
X206890952Y-62333333D01*
X207462380Y-62904761D01*
X207462380Y-62285714D01*
%TO.C,FB3*%
X211891666Y-48950571D02*
X211558333Y-48950571D01*
X211558333Y-49474380D02*
X211558333Y-48474380D01*
X212034523Y-48474380D01*
X212748809Y-48950571D02*
X212891666Y-48998190D01*
X212939285Y-49045809D01*
X212986904Y-49141047D01*
X212986904Y-49283904D01*
X212939285Y-49379142D01*
X212891666Y-49426761D01*
X212796428Y-49474380D01*
X212415476Y-49474380D01*
X212415476Y-48474380D01*
X212748809Y-48474380D01*
X212844047Y-48522000D01*
X212891666Y-48569619D01*
X212939285Y-48664857D01*
X212939285Y-48760095D01*
X212891666Y-48855333D01*
X212844047Y-48902952D01*
X212748809Y-48950571D01*
X212415476Y-48950571D01*
X213320238Y-48474380D02*
X213939285Y-48474380D01*
X213605952Y-48855333D01*
X213748809Y-48855333D01*
X213844047Y-48902952D01*
X213891666Y-48950571D01*
X213939285Y-49045809D01*
X213939285Y-49283904D01*
X213891666Y-49379142D01*
X213844047Y-49426761D01*
X213748809Y-49474380D01*
X213463095Y-49474380D01*
X213367857Y-49426761D01*
X213320238Y-49379142D01*
%TO.C,FB4*%
X216336666Y-48950571D02*
X216003333Y-48950571D01*
X216003333Y-49474380D02*
X216003333Y-48474380D01*
X216479523Y-48474380D01*
X217193809Y-48950571D02*
X217336666Y-48998190D01*
X217384285Y-49045809D01*
X217431904Y-49141047D01*
X217431904Y-49283904D01*
X217384285Y-49379142D01*
X217336666Y-49426761D01*
X217241428Y-49474380D01*
X216860476Y-49474380D01*
X216860476Y-48474380D01*
X217193809Y-48474380D01*
X217289047Y-48522000D01*
X217336666Y-48569619D01*
X217384285Y-48664857D01*
X217384285Y-48760095D01*
X217336666Y-48855333D01*
X217289047Y-48902952D01*
X217193809Y-48950571D01*
X216860476Y-48950571D01*
X218289047Y-48807714D02*
X218289047Y-49474380D01*
X218050952Y-48426761D02*
X217812857Y-49141047D01*
X218431904Y-49141047D01*
%TO.C,FB5*%
X208716666Y-83113571D02*
X208383333Y-83113571D01*
X208383333Y-83637380D02*
X208383333Y-82637380D01*
X208859523Y-82637380D01*
X209573809Y-83113571D02*
X209716666Y-83161190D01*
X209764285Y-83208809D01*
X209811904Y-83304047D01*
X209811904Y-83446904D01*
X209764285Y-83542142D01*
X209716666Y-83589761D01*
X209621428Y-83637380D01*
X209240476Y-83637380D01*
X209240476Y-82637380D01*
X209573809Y-82637380D01*
X209669047Y-82685000D01*
X209716666Y-82732619D01*
X209764285Y-82827857D01*
X209764285Y-82923095D01*
X209716666Y-83018333D01*
X209669047Y-83065952D01*
X209573809Y-83113571D01*
X209240476Y-83113571D01*
X210716666Y-82637380D02*
X210240476Y-82637380D01*
X210192857Y-83113571D01*
X210240476Y-83065952D01*
X210335714Y-83018333D01*
X210573809Y-83018333D01*
X210669047Y-83065952D01*
X210716666Y-83113571D01*
X210764285Y-83208809D01*
X210764285Y-83446904D01*
X210716666Y-83542142D01*
X210669047Y-83589761D01*
X210573809Y-83637380D01*
X210335714Y-83637380D01*
X210240476Y-83589761D01*
X210192857Y-83542142D01*
%TO.C,FB6*%
X205898571Y-47823333D02*
X205898571Y-48156666D01*
X206422380Y-48156666D02*
X205422380Y-48156666D01*
X205422380Y-47680476D01*
X205898571Y-46966190D02*
X205946190Y-46823333D01*
X205993809Y-46775714D01*
X206089047Y-46728095D01*
X206231904Y-46728095D01*
X206327142Y-46775714D01*
X206374761Y-46823333D01*
X206422380Y-46918571D01*
X206422380Y-47299523D01*
X205422380Y-47299523D01*
X205422380Y-46966190D01*
X205470000Y-46870952D01*
X205517619Y-46823333D01*
X205612857Y-46775714D01*
X205708095Y-46775714D01*
X205803333Y-46823333D01*
X205850952Y-46870952D01*
X205898571Y-46966190D01*
X205898571Y-47299523D01*
X205422380Y-45870952D02*
X205422380Y-46061428D01*
X205470000Y-46156666D01*
X205517619Y-46204285D01*
X205660476Y-46299523D01*
X205850952Y-46347142D01*
X206231904Y-46347142D01*
X206327142Y-46299523D01*
X206374761Y-46251904D01*
X206422380Y-46156666D01*
X206422380Y-45966190D01*
X206374761Y-45870952D01*
X206327142Y-45823333D01*
X206231904Y-45775714D01*
X205993809Y-45775714D01*
X205898571Y-45823333D01*
X205850952Y-45870952D01*
X205803333Y-45966190D01*
X205803333Y-46156666D01*
X205850952Y-46251904D01*
X205898571Y-46299523D01*
X205993809Y-46347142D01*
%TO.C,C21*%
X132453142Y-102876642D02*
X132405523Y-102924261D01*
X132262666Y-102971880D01*
X132167428Y-102971880D01*
X132024571Y-102924261D01*
X131929333Y-102829023D01*
X131881714Y-102733785D01*
X131834095Y-102543309D01*
X131834095Y-102400452D01*
X131881714Y-102209976D01*
X131929333Y-102114738D01*
X132024571Y-102019500D01*
X132167428Y-101971880D01*
X132262666Y-101971880D01*
X132405523Y-102019500D01*
X132453142Y-102067119D01*
X132834095Y-102067119D02*
X132881714Y-102019500D01*
X132976952Y-101971880D01*
X133215047Y-101971880D01*
X133310285Y-102019500D01*
X133357904Y-102067119D01*
X133405523Y-102162357D01*
X133405523Y-102257595D01*
X133357904Y-102400452D01*
X132786476Y-102971880D01*
X133405523Y-102971880D01*
X134357904Y-102971880D02*
X133786476Y-102971880D01*
X134072190Y-102971880D02*
X134072190Y-101971880D01*
X133976952Y-102114738D01*
X133881714Y-102209976D01*
X133786476Y-102257595D01*
%TO.C,U3*%
X190373095Y-136402380D02*
X190373095Y-137211904D01*
X190420714Y-137307142D01*
X190468333Y-137354761D01*
X190563571Y-137402380D01*
X190754047Y-137402380D01*
X190849285Y-137354761D01*
X190896904Y-137307142D01*
X190944523Y-137211904D01*
X190944523Y-136402380D01*
X191325476Y-136402380D02*
X191944523Y-136402380D01*
X191611190Y-136783333D01*
X191754047Y-136783333D01*
X191849285Y-136830952D01*
X191896904Y-136878571D01*
X191944523Y-136973809D01*
X191944523Y-137211904D01*
X191896904Y-137307142D01*
X191849285Y-137354761D01*
X191754047Y-137402380D01*
X191468333Y-137402380D01*
X191373095Y-137354761D01*
X191325476Y-137307142D01*
%TO.C,U5*%
X190373095Y-93222380D02*
X190373095Y-94031904D01*
X190420714Y-94127142D01*
X190468333Y-94174761D01*
X190563571Y-94222380D01*
X190754047Y-94222380D01*
X190849285Y-94174761D01*
X190896904Y-94127142D01*
X190944523Y-94031904D01*
X190944523Y-93222380D01*
X191896904Y-93222380D02*
X191420714Y-93222380D01*
X191373095Y-93698571D01*
X191420714Y-93650952D01*
X191515952Y-93603333D01*
X191754047Y-93603333D01*
X191849285Y-93650952D01*
X191896904Y-93698571D01*
X191944523Y-93793809D01*
X191944523Y-94031904D01*
X191896904Y-94127142D01*
X191849285Y-94174761D01*
X191754047Y-94222380D01*
X191515952Y-94222380D01*
X191420714Y-94174761D01*
X191373095Y-94127142D01*
%TO.C,R2*%
X106677380Y-104306666D02*
X106201190Y-104640000D01*
X106677380Y-104878095D02*
X105677380Y-104878095D01*
X105677380Y-104497142D01*
X105725000Y-104401904D01*
X105772619Y-104354285D01*
X105867857Y-104306666D01*
X106010714Y-104306666D01*
X106105952Y-104354285D01*
X106153571Y-104401904D01*
X106201190Y-104497142D01*
X106201190Y-104878095D01*
X105772619Y-103925714D02*
X105725000Y-103878095D01*
X105677380Y-103782857D01*
X105677380Y-103544761D01*
X105725000Y-103449523D01*
X105772619Y-103401904D01*
X105867857Y-103354285D01*
X105963095Y-103354285D01*
X106105952Y-103401904D01*
X106677380Y-103973333D01*
X106677380Y-103354285D01*
%TO.C,RP1*%
X99372380Y-87026666D02*
X98896190Y-87360000D01*
X99372380Y-87598095D02*
X98372380Y-87598095D01*
X98372380Y-87217142D01*
X98420000Y-87121904D01*
X98467619Y-87074285D01*
X98562857Y-87026666D01*
X98705714Y-87026666D01*
X98800952Y-87074285D01*
X98848571Y-87121904D01*
X98896190Y-87217142D01*
X98896190Y-87598095D01*
X99372380Y-86598095D02*
X98372380Y-86598095D01*
X98372380Y-86217142D01*
X98420000Y-86121904D01*
X98467619Y-86074285D01*
X98562857Y-86026666D01*
X98705714Y-86026666D01*
X98800952Y-86074285D01*
X98848571Y-86121904D01*
X98896190Y-86217142D01*
X98896190Y-86598095D01*
X99372380Y-85074285D02*
X99372380Y-85645714D01*
X99372380Y-85360000D02*
X98372380Y-85360000D01*
X98515238Y-85455238D01*
X98610476Y-85550476D01*
X98658095Y-85645714D01*
%TD*%
M02*
